<svg width="16" height="15" viewBox="0 0 16 15" fill="none" xmlns="http://www.w3.org/2000/svg">
<path d="M14.8977 2.58664C14.6247 2.25487 14.2105 2.07021 13.7806 2.07021H4.45231C4.18561 2.07021 3.93146 2.14532 3.71182 2.27991L3.23489 0.617932C3.15645 0.345631 2.90858 0.157837 2.62618 0.157837H1.90138H0.517663C0.254098 0.157837 0.0375977 0.37067 0.0375977 0.636712V0.68679C0.0375977 0.949702 0.25096 1.16566 0.517663 1.16566H2.33124L3.25686 4.43015L4.53076 8.93408C3.80595 9.11561 3.26941 9.76976 3.26941 10.546C3.26941 11.4255 3.95656 12.1485 4.8257 12.2048C4.75353 12.4114 4.71902 12.6399 4.73784 12.8746C4.8006 13.6696 5.4501 14.3112 6.24707 14.3645C7.19778 14.4302 7.99162 13.6759 7.99162 12.7432C7.99162 12.5554 7.96024 12.377 7.90062 12.208H9.80833C9.72989 12.4302 9.69851 12.6774 9.72675 12.931C9.81461 13.7009 10.4516 14.3081 11.2297 14.3645C12.1804 14.4302 12.9774 13.679 12.9774 12.7432C12.9774 11.8386 12.2243 11.1156 11.3207 11.1156H4.94807C4.63744 11.1156 4.37387 10.8746 4.36132 10.5679C4.34877 10.2424 4.6092 9.97633 4.93238 9.97633H5.88937H11.076H12.535C13.1813 9.97633 13.7461 9.53502 13.903 8.90904L15.1706 3.81982C15.2804 3.38163 15.18 2.93406 14.8977 2.58664ZM11.3489 12.2048C11.6439 12.2048 11.8855 12.4458 11.8855 12.74C11.8855 13.0342 11.6439 13.2752 11.3489 13.2752C11.054 13.2752 10.8124 13.0342 10.8124 12.74C10.8124 12.4458 11.0509 12.2048 11.3489 12.2048ZM6.36316 12.2048C6.6581 12.2048 6.8997 12.4458 6.8997 12.74C6.8997 13.0342 6.6581 13.2752 6.36316 13.2752C6.06822 13.2752 5.82662 13.0342 5.82662 12.74C5.82662 12.4458 6.06508 12.2048 6.36316 12.2048ZM4.3927 4.42389L4.14796 3.56317C4.11031 3.43171 4.16365 3.33469 4.2013 3.28774C4.23581 3.24079 4.31739 3.16254 4.45231 3.16254H5.4752L5.75445 4.42702H4.3927V4.42389ZM4.70019 5.5131H5.99291L6.2502 6.68368H5.02965L4.70019 5.5131ZM5.88937 8.88087C5.74818 8.88087 5.62267 8.78697 5.58502 8.64926L5.33714 7.77288H6.48867L6.73341 8.87774H5.88937V8.88087ZM8.62229 8.88087H7.85042L7.60568 7.77601H8.61915V8.88087H8.62229ZM8.62229 6.68368H7.36722L7.10993 5.5131H8.62229V6.68368ZM8.62229 4.42389H6.87147L6.59221 3.15941H8.62229V4.42389ZM10.5802 8.88087H9.71734V7.77601H10.8124L10.5802 8.88087ZM11.0446 6.68368H9.71734V5.5131H11.2925L11.0446 6.68368ZM9.71734 4.42389V3.15941H11.7882L11.5215 4.42389H9.71734ZM12.8456 8.643C12.8111 8.78384 12.6856 8.884 12.5381 8.884H11.6972L11.9325 7.77914H13.0621L12.8456 8.643ZM13.3319 6.68368H12.1616L12.4095 5.5131H13.6238L13.3319 6.68368ZM14.1101 3.55065L13.8936 4.42076H12.6385L12.9052 3.15628H13.8026C13.9375 3.15628 14.016 3.2314 14.0505 3.27835C14.0881 3.3253 14.1446 3.42232 14.1101 3.55065Z" fill="white"/>
</svg>
