<svg width="35" height="35" viewBox="0 0 35 35" fill="none" xmlns="http://www.w3.org/2000/svg">
<path d="M25.3409 0H9.65847C4.33279 0 0 4.333 0 9.65868V25.3411C0 30.667 4.33279 34.9998 9.65847 34.9998H25.3409C30.667 34.9998 34.9998 30.6668 34.9998 25.3411V9.65868C35 4.333 30.667 0 25.3409 0ZM31.8946 25.3411C31.8946 28.9547 28.9547 31.8944 25.3411 31.8944H9.65847C6.04508 31.8946 3.10535 28.9547 3.10535 25.3411V9.65868C3.10535 6.04529 6.04508 3.10535 9.65847 3.10535H25.3409C28.9545 3.10535 31.8944 6.04529 31.8944 9.65868V25.3411H31.8946Z" fill="white"/>
<path d="M17.5005 8.48169C12.5276 8.48169 8.48193 12.5273 8.48193 17.5003C8.48193 22.473 12.5276 26.5184 17.5005 26.5184C22.4734 26.5184 26.5191 22.473 26.5191 17.5003C26.5191 12.5273 22.4734 8.48169 17.5005 8.48169ZM17.5005 23.4128C14.2401 23.4128 11.5873 20.7605 11.5873 17.5C11.5873 14.2394 14.2399 11.5868 17.5005 11.5868C20.7611 11.5868 23.4137 14.2394 23.4137 17.5C23.4137 20.7605 20.7609 23.4128 17.5005 23.4128Z" fill="white"/>
<path d="M26.8969 5.84863C26.2986 5.84863 25.7108 6.09085 25.2883 6.51525C24.8637 6.93758 24.6196 7.52552 24.6196 8.12589C24.6196 8.7244 24.8639 9.31213 25.2883 9.73653C25.7106 10.1589 26.2986 10.4031 26.8969 10.4031C27.4973 10.4031 28.0831 10.1589 28.5075 9.73653C28.9319 9.31213 29.1741 8.72419 29.1741 8.12589C29.1741 7.52552 28.9319 6.93758 28.5075 6.51525C28.0852 6.09085 27.4973 5.84863 26.8969 5.84863Z" fill="white"/>
</svg>
