<svg width="13" height="23" viewBox="0 0 13 23" fill="none" xmlns="http://www.w3.org/2000/svg">
<path d="M11.2139 0.277466H1.65356C0.738594 0.277466 0 1.01937 0 1.93268V21.3464C0 22.2589 0.738594 23 1.65356 23H11.2139C12.1272 23 12.8674 22.2589 12.8674 21.3464V1.93268C12.8674 1.01937 12.1272 0.277466 11.2139 0.277466ZM4.07469 1.28268H8.7944C8.91364 1.28268 9.01052 1.46071 9.01052 1.68096C9.01052 1.90121 8.91364 2.08007 8.7944 2.08007H4.07469C3.95462 2.08007 3.8594 1.90121 3.8594 1.68096C3.8594 1.46071 3.95462 1.28268 4.07469 1.28268ZM6.43455 21.3663C5.85245 21.3663 5.37882 20.8927 5.37882 20.3098C5.37882 19.7268 5.85245 19.2549 6.43455 19.2549C7.01499 19.2549 7.48862 19.7268 7.48862 20.3098C7.48862 20.8927 7.01499 21.3663 6.43455 21.3663ZM11.6287 17.7487H1.23955V3.07038H11.6287V17.7487Z" fill="white"/>
</svg>
