<svg width="22" height="22" viewBox="0 0 22 22" fill="none" xmlns="http://www.w3.org/2000/svg">
<path d="M21.3961 18.4794L16.349 13.4319C15.5969 14.6014 14.6017 15.5962 13.4321 16.3482L18.4797 21.3957C19.2855 22.2013 20.592 22.2013 21.396 21.3957C22.2019 20.5914 22.2019 19.2849 21.3961 18.4794Z" fill="white"/>
<path d="M16.4999 8.24995C16.4999 3.69403 12.8061 0 8.25002 0C3.69406 0 0 3.69403 0 8.24995C0 12.8059 3.69406 16.4997 8.25002 16.4997C12.8061 16.4997 16.4999 12.8059 16.4999 8.24995ZM8.25002 14.4372C4.83802 14.4372 2.06256 11.662 2.06256 8.24999C2.06256 4.83802 4.83802 2.06259 8.25002 2.06259C11.6619 2.06259 14.4376 4.83802 14.4376 8.24999C14.4376 11.662 11.6619 14.4372 8.25002 14.4372Z" fill="white"/>
<path d="M3.4375 8.25015H4.81233C4.81233 6.35478 6.35456 4.8127 8.2499 4.8127V3.43774C5.59668 3.43774 3.4375 5.59691 3.4375 8.25015Z" fill="white"/>
</svg>
