<svg width="11" height="11" viewBox="0 0 11 11" fill="none" xmlns="http://www.w3.org/2000/svg">
<path d="M8.29297 4.94141C8.53028 4.94141 8.72266 4.74903 8.72266 4.51172C8.72266 4.27441 8.53028 4.08203 8.29297 4.08203C8.05566 4.08203 7.86328 4.27441 7.86328 4.51172C7.86328 4.74903 8.05566 4.94141 8.29297 4.94141Z" fill="#ACACAC"/>
<path d="M9.28125 0.859375H8.72266V0.429688C8.72266 0.192371 8.53028 0 8.29297 0C8.05565 0 7.86328 0.192371 7.86328 0.429688V0.859375H5.9082V0.429688C5.9082 0.192371 5.71583 0 5.47852 0C5.2412 0 5.04883 0.192371 5.04883 0.429688V0.859375H3.11523V0.429688C3.11523 0.192371 2.92286 0 2.68555 0C2.44823 0 2.25586 0.192371 2.25586 0.429688V0.859375H1.71875C0.771031 0.859375 0 1.63041 0 2.57812V9.28125C0 10.229 0.771031 11 1.71875 11H5.00586C5.24318 11 5.43555 10.8076 5.43555 10.5703C5.43555 10.333 5.24318 10.1406 5.00586 10.1406H1.71875C1.24489 10.1406 0.859375 9.75511 0.859375 9.28125V2.57812C0.859375 2.10427 1.24489 1.71875 1.71875 1.71875H2.25586V2.14844C2.25586 2.38575 2.44823 2.57812 2.68555 2.57812C2.92286 2.57812 3.11523 2.38575 3.11523 2.14844V1.71875H5.04883V2.14844C5.04883 2.38575 5.2412 2.57812 5.47852 2.57812C5.71583 2.57812 5.9082 2.38575 5.9082 2.14844V1.71875H7.86328V2.14844C7.86328 2.38575 8.05565 2.57812 8.29297 2.57812C8.53028 2.57812 8.72266 2.38575 8.72266 2.14844V1.71875H9.28125C9.75511 1.71875 10.1406 2.10427 10.1406 2.57812V5.02734C10.1406 5.26466 10.333 5.45703 10.5703 5.45703C10.8076 5.45703 11 5.26466 11 5.02734V2.57812C11 1.63041 10.229 0.859375 9.28125 0.859375Z" fill="#ACACAC"/>
<path d="M8.40039 5.80078C6.96695 5.80078 5.80078 6.96695 5.80078 8.40039C5.80078 9.83383 6.96695 11 8.40039 11C9.83383 11 11 9.83383 11 8.40039C11 6.96695 9.83383 5.80078 8.40039 5.80078ZM8.40039 10.1406C7.44083 10.1406 6.66016 9.35997 6.66016 8.40039C6.66016 7.44081 7.44083 6.66016 8.40039 6.66016C9.35995 6.66016 10.1406 7.44081 10.1406 8.40039C10.1406 9.35997 9.35995 10.1406 8.40039 10.1406Z" fill="#ACACAC"/>
<path d="M9.02344 7.9707H8.83008V7.51953C8.83008 7.28221 8.63771 7.08984 8.40039 7.08984C8.16307 7.08984 7.9707 7.28221 7.9707 7.51953V8.40039C7.9707 8.63771 8.16307 8.83008 8.40039 8.83008H9.02344C9.26075 8.83008 9.45312 8.63771 9.45312 8.40039C9.45312 8.16307 9.26075 7.9707 9.02344 7.9707Z" fill="#ACACAC"/>
<path d="M6.42383 4.94141C6.66114 4.94141 6.85352 4.74903 6.85352 4.51172C6.85352 4.27441 6.66114 4.08203 6.42383 4.08203C6.18652 4.08203 5.99414 4.27441 5.99414 4.51172C5.99414 4.74903 6.18652 4.94141 6.42383 4.94141Z" fill="#ACACAC"/>
<path d="M4.55469 6.81055C4.792 6.81055 4.98438 6.61817 4.98438 6.38086C4.98438 6.14355 4.792 5.95117 4.55469 5.95117C4.31738 5.95117 4.125 6.14355 4.125 6.38086C4.125 6.61817 4.31738 6.81055 4.55469 6.81055Z" fill="#ACACAC"/>
<path d="M2.68555 4.94141C2.92286 4.94141 3.11523 4.74903 3.11523 4.51172C3.11523 4.27441 2.92286 4.08203 2.68555 4.08203C2.44824 4.08203 2.25586 4.27441 2.25586 4.51172C2.25586 4.74903 2.44824 4.94141 2.68555 4.94141Z" fill="#ACACAC"/>
<path d="M2.68555 6.81055C2.92286 6.81055 3.11523 6.61817 3.11523 6.38086C3.11523 6.14355 2.92286 5.95117 2.68555 5.95117C2.44824 5.95117 2.25586 6.14355 2.25586 6.38086C2.25586 6.61817 2.44824 6.81055 2.68555 6.81055Z" fill="#ACACAC"/>
<path d="M2.68555 8.67969C2.92286 8.67969 3.11523 8.48731 3.11523 8.25C3.11523 8.01269 2.92286 7.82031 2.68555 7.82031C2.44824 7.82031 2.25586 8.01269 2.25586 8.25C2.25586 8.48731 2.44824 8.67969 2.68555 8.67969Z" fill="#ACACAC"/>
<path d="M4.55469 8.67969C4.792 8.67969 4.98438 8.48731 4.98438 8.25C4.98438 8.01269 4.792 7.82031 4.55469 7.82031C4.31738 7.82031 4.125 8.01269 4.125 8.25C4.125 8.48731 4.31738 8.67969 4.55469 8.67969Z" fill="#ACACAC"/>
<path d="M4.55469 4.94141C4.792 4.94141 4.98438 4.74903 4.98438 4.51172C4.98438 4.27441 4.792 4.08203 4.55469 4.08203C4.31738 4.08203 4.125 4.27441 4.125 4.51172C4.125 4.74903 4.31738 4.94141 4.55469 4.94141Z" fill="#ACACAC"/>
</svg>
