<svg width="39" height="39" viewBox="0 0 39 39" fill="none" xmlns="http://www.w3.org/2000/svg">
<path d="M26.8991 31.2323C28.9917 31.2323 30.7039 32.9445 30.7039 35.0371C30.7039 37.1298 28.9917 38.8419 26.8991 38.8419C24.8064 38.8419 23.0943 37.1298 23.0943 35.0371C23.0943 32.9445 24.8064 31.2323 26.8991 31.2323ZM38.3135 0.793945V4.59874H34.5087L27.66 19.057L30.3234 23.6227C30.5136 24.1935 30.7039 24.9544 30.7039 25.5251C30.7039 27.6178 28.9917 29.3299 26.8991 29.3299H4.07028V25.5251H26.1381C26.3284 25.5251 26.5186 25.3349 26.5186 25.1447V24.9543L24.8064 21.7203H10.7287C9.20676 21.7203 8.06532 20.9593 7.4946 19.8179L0.645966 7.45234C0.265484 7.07186 0.265484 6.88162 0.265484 6.50114C0.265484 5.3597 1.02644 4.59874 2.16788 4.59874H30.3234L32.0356 0.793945H38.3135ZM7.87508 31.2323C9.96772 31.2323 11.6799 32.9445 11.6799 35.0371C11.6799 37.1298 9.96772 38.8419 7.87508 38.8419C5.78244 38.8419 4.07028 37.1298 4.07028 35.0371C4.07028 32.9445 5.78244 31.2323 7.87508 31.2323Z" fill="white"/>
</svg>
