<svg width="25" height="24" viewBox="0 0 25 24" fill="none" xmlns="http://www.w3.org/2000/svg">
<path d="M24.7272 16.555C24.7273 16.5496 24.7278 16.5443 24.7278 16.5388C24.7278 16.5376 24.7277 16.5365 24.7276 16.5352C24.7276 16.5264 24.727 16.5176 24.7263 16.5088C24.726 16.5045 24.7258 16.5002 24.7253 16.4959C24.7245 16.4883 24.7231 16.4808 24.7218 16.4731C24.7209 16.4677 24.7201 16.4622 24.7189 16.4568C24.7176 16.451 24.716 16.4452 24.7144 16.4393C24.7126 16.4324 24.7108 16.4254 24.7086 16.4186C24.7071 16.4141 24.7053 16.4097 24.7037 16.4052C24.7008 16.3973 24.6979 16.3895 24.6945 16.3818C24.6939 16.3806 24.6936 16.3794 24.693 16.3782L20.5867 7.34412V6.16H20.6126C21.055 6.16 21.4149 5.80008 21.4149 5.35765V5.29615C21.4149 4.90026 21.1312 4.56715 20.7404 4.50405L13.9608 3.41V2.71485C14.2181 2.42647 14.3749 2.04657 14.3749 1.63059C14.3749 0.731488 13.6434 0 12.7443 0C11.8452 0 11.1137 0.731488 11.1137 1.63059C11.1137 2.04657 11.2705 2.42647 11.5278 2.71485V3.37227L4.74414 4.50291C4.3557 4.56767 4.07373 4.90052 4.07373 5.29434V5.35765C4.07373 5.80008 4.43365 6.16 4.87609 6.16H4.90197V7.34412L0.79558 16.3782C0.79501 16.3793 0.794648 16.3806 0.79413 16.3818C0.790766 16.3894 0.787815 16.3973 0.784916 16.4052C0.78326 16.4096 0.7815 16.4141 0.779999 16.4186C0.777773 16.4254 0.775961 16.4324 0.774149 16.4393C0.772596 16.4452 0.77094 16.451 0.769646 16.4568C0.768507 16.4622 0.767679 16.4677 0.766747 16.4731C0.765453 16.4808 0.764107 16.4883 0.763279 16.4959C0.762813 16.5002 0.762657 16.5045 0.762295 16.5088C0.761622 16.5176 0.761053 16.5264 0.760949 16.5352C0.760949 16.5364 0.760742 16.5376 0.760742 16.5388C0.760742 16.5443 0.761312 16.5496 0.761363 16.5551C0.76157 16.5594 0.761519 16.5638 0.761881 16.5682C0.786107 18.1651 2.7659 19.4118 5.2902 19.4118C7.81451 19.4118 9.7943 18.1651 9.81848 16.5682C9.81884 16.5639 9.81879 16.5595 9.81899 16.5551C9.81905 16.5497 9.81961 16.5443 9.81961 16.5389C9.81961 16.5377 9.81946 16.5365 9.81941 16.5353C9.81936 16.5265 9.81873 16.5177 9.81806 16.5088C9.81775 16.5045 9.81754 16.5002 9.81708 16.496C9.81625 16.4884 9.8149 16.4808 9.81361 16.4732C9.81268 16.4678 9.8119 16.4623 9.81071 16.4569C9.80942 16.451 9.80776 16.4452 9.80621 16.4394C9.80434 16.4324 9.80258 16.4254 9.80036 16.4186C9.79891 16.4142 9.7971 16.4097 9.79549 16.4053C9.79259 16.3974 9.78964 16.3895 9.78623 16.3819C9.78571 16.3807 9.78535 16.3795 9.78478 16.3782L5.67844 7.34412V6.16H11.5278V14.5948C11.2812 14.7318 11.1137 14.9948 11.1137 15.2965V21.0158L8.65439 21.7843C8.14384 21.9439 7.80079 22.4105 7.80079 22.9454V23.5788C7.80079 23.7933 7.97457 23.9671 8.18903 23.9671H17.2996C17.5141 23.9671 17.6878 23.7933 17.6878 23.5788V22.9454C17.6878 22.4105 17.3448 21.9439 16.8342 21.7843L14.3749 21.0158V15.2965C14.3749 14.9948 14.2074 14.7318 13.9608 14.5948V6.16H19.8102V7.34412L15.7038 16.3782C15.7032 16.3794 15.7029 16.3807 15.7024 16.3819C15.699 16.3895 15.696 16.3974 15.6931 16.4052C15.6915 16.4097 15.6897 16.4141 15.6882 16.4186C15.686 16.4254 15.6842 16.4324 15.6824 16.4394C15.6808 16.4452 15.6792 16.451 15.6779 16.4569C15.6767 16.4623 15.6759 16.4678 15.675 16.4732C15.6737 16.4808 15.6723 16.4884 15.6715 16.496C15.671 16.5002 15.6709 16.5046 15.6705 16.5089C15.6699 16.5177 15.6693 16.5265 15.6692 16.5352C15.6692 16.5365 15.669 16.5376 15.669 16.5388C15.669 16.5443 15.6695 16.5497 15.6696 16.5551C15.6698 16.5595 15.6697 16.5639 15.6701 16.5682C15.6943 18.1651 17.6741 19.4118 20.1984 19.4118C22.7227 19.4118 24.7025 18.1651 24.7267 16.5682C24.7271 16.5638 24.727 16.5594 24.7272 16.555ZM5.2902 8.36648L8.82842 16.1506H1.75198L5.2902 8.36648ZM5.2902 18.6353C3.49252 18.6353 1.94144 17.8857 1.60487 16.9271H8.97559C8.63897 17.8857 7.08789 18.6353 5.2902 18.6353ZM13.5984 15.2965V20.913H11.8902V15.2965C11.8902 15.2822 11.9018 15.2706 11.9161 15.2706H13.5726C13.5868 15.2706 13.5984 15.2822 13.5984 15.2965ZM12.3043 14.4941V3.20036C12.4444 3.2397 12.5919 3.26118 12.7443 3.26118C12.8968 3.26118 13.0442 3.2397 13.1843 3.20036V14.4941H12.3043ZM12.7443 0.776471C13.2153 0.776471 13.5984 1.15963 13.5984 1.63059C13.5984 2.10155 13.2153 2.48471 12.7443 2.48471C12.2734 2.48471 11.8902 2.10155 11.8902 1.63059C11.8902 1.15963 12.2734 0.776471 12.7443 0.776471ZM4.87609 5.38353C4.86185 5.38353 4.8502 5.37194 4.8502 5.35765V5.29434C4.8502 5.28161 4.85931 5.27089 4.87184 5.26882L11.5278 4.1595V5.38353H4.87609ZM16.9114 22.9454V23.1906H8.57726V22.9454C8.57726 22.7519 8.70134 22.5831 8.88604 22.5254L11.5612 21.6894H13.9275L16.6027 22.5254C16.7873 22.5831 16.9114 22.7519 16.9114 22.9454ZM13.9608 4.19657L20.6166 5.27063C20.6293 5.27265 20.6384 5.28342 20.6384 5.29621V5.3577C20.6384 5.37199 20.6268 5.38359 20.6126 5.38359H13.9608V4.19657ZM20.1984 8.36648L23.7367 16.1506H16.6602L20.1984 8.36648ZM20.1984 18.6353C18.4007 18.6353 16.8497 17.8857 16.5131 16.9271H23.8838C23.5472 17.8857 21.9961 18.6353 20.1984 18.6353Z" fill="#6F6F6F"/>
</svg>
