<svg width="39" height="46" viewBox="0 0 39 46" fill="none" xmlns="http://www.w3.org/2000/svg">
<g clip-path="url(#clip0)">
<path d="M0.00762159 45.9993V11.3842C0.00762159 7.70541 0.00573209 4.02664 0.00195312 0.34787C0.00195312 0.0815346 0.0688407 -0.00348999 0.347161 -0.00292691C10.3123 0.00383001 20.2776 0.00814696 30.2431 0.0100239C30.3967 0.017756 30.5425 0.0798767 30.654 0.185141C31.7395 1.26512 32.8115 2.35918 33.8919 3.44479C35.0329 4.59065 36.1813 5.72976 37.3224 6.87506C37.8462 7.40041 38.366 7.9297 38.875 8.46913C38.954 8.56697 38.9969 8.68883 38.9963 8.81429C39.0042 10.3526 39.0014 11.8915 39.0014 13.4315V45.6345C39.0014 45.9993 39.0014 45.9993 38.6318 45.9993H0.00762159ZM37.6268 44.6446V9.87963H29.1876V1.37098H1.36295V44.6446H37.6268ZM30.5378 1.95377C30.5208 2.08102 30.5101 2.1255 30.5101 2.17055C30.5101 4.21452 30.5101 6.25849 30.5021 8.30246C30.5021 8.52487 30.5838 8.56372 30.7855 8.56316C32.8063 8.55753 34.8271 8.56035 36.8474 8.55978C36.9137 8.55978 36.98 8.54683 37.0741 8.5367L30.5378 1.95377Z" fill="#6F6F6F"/>
<path d="M35.5309 24.5127V41.4765H2.96973V24.5127H35.5309ZM15.4754 37.6679C16.2945 37.6679 17.0773 37.6898 17.8562 37.6617C18.6526 37.6335 19.4604 37.6268 20.2409 37.4871C22.3144 37.1155 23.3449 35.7174 23.5853 33.7635C23.6852 32.9935 23.6661 32.2129 23.5286 31.4487C23.3863 30.6885 23.125 29.9847 22.599 29.3923C21.6852 28.3647 20.4654 28.0533 19.1684 27.9953C18.0183 27.9435 16.8642 27.9841 15.7107 27.9852C15.6387 27.9852 15.5661 27.9953 15.4754 28.0026V37.6679ZM6.03295 27.9829V37.6453H7.78336C7.78336 36.9696 7.7777 36.3142 7.78336 35.6588C7.7896 35.1182 7.81114 34.5783 7.82588 34.0377C8.36098 34.027 8.89721 34.0338 9.43118 34.0017C10.0655 33.9639 10.7094 33.9493 11.3284 33.8237C12.2648 33.6334 12.9944 33.1233 13.3577 32.1981C13.5601 31.6829 13.5703 31.1429 13.5493 30.6012C13.5172 29.7679 13.1595 29.1061 12.4763 28.6158C11.8329 28.1558 11.0767 28.0207 10.3223 27.9965C8.90288 27.952 7.47784 27.9852 6.03295 27.9852V27.9829ZM27.403 31.8682V29.6057H32.3515V28.0055H25.6367V37.6487H27.3939V33.5017H31.745C31.745 32.9898 31.7416 32.5129 31.745 32.0377C31.745 31.8687 31.639 31.8687 31.5183 31.8687C30.9327 31.8687 30.3472 31.8687 29.761 31.8687L27.403 31.8682Z" fill="#6F6F6F"/>
<path d="M11.289 22.3762L7.40723 15.7128H9.64229V4.04244C9.64229 3.66631 9.64229 3.66575 10.0068 3.66575C10.8757 3.66575 11.7441 3.6725 12.6143 3.66124C12.8603 3.65786 12.9334 3.73331 12.9328 3.98219C12.9256 7.77133 12.9239 11.5606 12.9277 15.3502V15.7083H15.169C13.8709 17.9386 12.599 20.1256 11.289 22.3762Z" fill="#6F6F6F"/>
<path d="M17.2353 29.6074C18.1808 29.6637 19.0833 29.5201 19.9749 29.7668C20.8904 30.0207 21.4623 30.577 21.6755 31.4994C21.8889 32.4107 21.8714 33.3605 21.6244 34.2635C21.3716 35.1965 20.7078 35.763 19.7674 35.9032C18.9914 36.0192 18.1945 35.9989 17.4065 36.0316C17.1962 36.0406 17.2365 35.8722 17.2365 35.75C17.2365 34.5113 17.2365 33.274 17.2365 32.0382V29.6074H17.2353Z" fill="#6F6F6F"/>
<path d="M7.77939 30.9972C7.77939 30.6127 7.78336 30.2286 7.77939 29.8441C7.77656 29.6751 7.83608 29.6121 8.0101 29.6138C8.76513 29.6205 9.52186 29.5878 10.2746 29.6273C10.7769 29.6537 11.287 29.7472 11.5738 30.2557C12.084 31.1628 11.5393 32.236 10.4917 32.3109C9.65734 32.3711 8.81728 32.3537 7.97949 32.3773C7.80263 32.3824 7.77996 32.2912 7.78109 32.1521C7.78563 31.7681 7.78109 31.3835 7.78109 30.9989L7.77939 30.9972Z" fill="#6F6F6F"/>
</g>
<defs>
<clipPath id="clip0">
<rect width="39" height="46" fill="white"/>
</clipPath>
</defs>
</svg>
