<svg width="23" height="23" viewBox="0 0 23 23" fill="none" xmlns="http://www.w3.org/2000/svg">
<path d="M4.50586 22.4892C4.50586 22.7713 4.73456 23 5.01669 23H17.9833C18.2654 23 18.4941 22.7713 18.4941 22.4892V5.93805H4.50586V22.4892ZM14.3734 8.75473H16.289V19.8915H14.3734V8.75473ZM10.5422 8.75473H12.4578V19.8915H10.5422V8.75473ZM6.71097 8.75473H8.62658V19.8915H6.71097V8.75473Z" fill="#6F6F6F"/>
<path d="M15.8061 2.34753V0.510827C15.8061 0.228697 15.5774 0 15.2953 0H7.70565C7.42352 0 7.19482 0.228697 7.19482 0.510827V2.34753V2.6668V2.98607H3.62411C3.34198 2.98607 3.11328 3.21476 3.11328 3.49689V4.78867C3.11328 5.07078 3.34198 5.2995 3.62411 5.2995H4.50633H18.4946H19.3768C19.6589 5.2995 19.8876 5.07078 19.8876 4.78867V3.49689C19.8876 3.21476 19.6589 2.98607 19.3768 2.98607H15.8061V2.6668V2.34753ZM13.8905 2.88104H9.11042V2.66677V2.34751V1.9156H13.8905V2.34753V2.6668V2.88104Z" fill="#6F6F6F"/>
</svg>
