<svg width="31" height="31" viewBox="0 0 31 31" fill="none" xmlns="http://www.w3.org/2000/svg">
<g clip-path="url(#clip0)">
<path d="M5.16602 23.25C7.30612 23.25 9.04102 21.5151 9.04102 19.375C9.04102 17.2349 7.30612 15.5 5.16602 15.5C3.02591 15.5 1.29102 17.2349 1.29102 19.375C1.29102 21.5151 3.02591 23.25 5.16602 23.25Z" fill="#6F6F6F"/>
<path d="M6.45833 23.25H3.875C2.84764 23.2512 1.86269 23.6598 1.13624 24.3862C0.409782 25.1127 0.00115383 26.0976 0 27.125L0 29.7083C0 30.0509 0.136086 30.3794 0.37832 30.6217C0.620555 30.8639 0.949095 31 1.29167 31H9.04167C9.38424 31 9.71278 30.8639 9.95501 30.6217C10.1972 30.3794 10.3333 30.0509 10.3333 29.7083V27.125C10.3322 26.0976 9.92355 25.1127 9.1971 24.3862C8.47065 23.6598 7.48569 23.2512 6.45833 23.25Z" fill="#6F6F6F"/>
<path d="M19.375 0C12.9651 0 7.75 4.63547 7.75 10.3333C7.75 13.1372 9.01244 15.7835 11.2451 17.7218L10.3997 20.2582C10.0445 21.3249 11.1928 22.3271 12.2027 21.8219L15.6193 20.1137C16.8371 20.4823 18.1027 20.6686 19.375 20.6667C25.7849 20.6667 31 16.0312 31 10.3333C31 4.63547 25.7849 0 19.375 0ZM14.2083 11.625C13.9529 11.625 13.7031 11.5492 13.4907 11.4073C13.2783 11.2654 13.1128 11.0637 13.015 10.8276C12.9172 10.5916 12.8916 10.3319 12.9415 10.0813C12.9913 9.83078 13.1143 9.60063 13.295 9.41999C13.4756 9.23934 13.7058 9.11633 13.9563 9.06649C14.2069 9.01665 14.4666 9.04223 14.7026 9.13999C14.9387 9.23775 15.1404 9.40331 15.2823 9.61572C15.4242 9.82814 15.5 10.0779 15.5 10.3333C15.5 10.6759 15.3639 11.0044 15.1217 11.2467C14.8794 11.4889 14.5509 11.625 14.2083 11.625ZM19.375 11.625C19.1195 11.625 18.8698 11.5492 18.6574 11.4073C18.445 11.2654 18.2794 11.0637 18.1817 10.8276C18.0839 10.5916 18.0583 10.3319 18.1082 10.0813C18.158 9.83078 18.281 9.60063 18.4617 9.41999C18.6423 9.23934 18.8724 9.11633 19.123 9.06649C19.3736 9.01665 19.6333 9.04223 19.8693 9.13999C20.1053 9.23775 20.3071 9.40331 20.449 9.61572C20.5909 9.82814 20.6667 10.0779 20.6667 10.3333C20.6667 10.6759 20.5306 11.0044 20.2883 11.2467C20.0461 11.4889 19.7176 11.625 19.375 11.625ZM24.5417 11.625C24.2862 11.625 24.0365 11.5492 23.8241 11.4073C23.6116 11.2654 23.4461 11.0637 23.3483 10.8276C23.2506 10.5916 23.225 10.3319 23.2748 10.0813C23.3247 9.83078 23.4477 9.60063 23.6283 9.41999C23.809 9.23934 24.0391 9.11633 24.2897 9.06649C24.5402 9.01665 24.7999 9.04223 25.036 9.13999C25.272 9.23775 25.4737 9.40331 25.6156 9.61572C25.7576 9.82814 25.8333 10.0779 25.8333 10.3333C25.8333 10.6759 25.6972 11.0044 25.455 11.2467C25.2128 11.4889 24.8842 11.625 24.5417 11.625Z" fill="#6F6F6F"/>
</g>
<defs>
<clipPath id="clip0">
<rect width="31" height="31" fill="white"/>
</clipPath>
</defs>
</svg>
