<svg width="16" height="16" viewBox="0 0 16 16" fill="none" xmlns="http://www.w3.org/2000/svg">
<g clip-path="url(#clip0)">
<path d="M10.3069 5.71154C9.54412 4.29487 8.01848 1.39615 8.01848 1.13461L5.73002 5.38461L0.826172 6.36538L4.42233 9.96154L3.76848 14.8654L8.01848 12.5769L12.9223 15.1923L11.6146 10.2885L15.5377 6.36538L10.3069 5.71154Z" fill="#232323"/>
<path d="M3.40615 15.4545C3.34808 15.4545 3.29002 15.4365 3.24121 15.4009C3.15482 15.3381 3.11162 15.2318 3.12985 15.1266L3.99688 10.0725L0.324837 6.49359C0.248541 6.41898 0.221051 6.30762 0.25387 6.20636C0.286969 6.10482 0.374766 6.03077 0.480515 6.01534L5.55479 5.2779L7.82433 0.679637C7.87145 0.583705 7.96907 0.523117 8.07566 0.523117C8.18253 0.523117 8.28014 0.583705 8.32699 0.679637L10.5962 5.2779L15.6708 6.01534C15.7765 6.03077 15.8641 6.10454 15.8974 6.20636C15.9303 6.30762 15.9031 6.41926 15.8265 6.49359L12.1544 10.0731L13.0212 15.1269C13.0391 15.2321 12.9959 15.3384 12.9098 15.4012C12.8234 15.4646 12.7087 15.4727 12.6142 15.4225L8.07566 13.0366L3.53658 15.4225C3.49563 15.4438 3.45075 15.4545 3.40615 15.4545ZM1.12343 6.48854L4.49393 9.77406C4.55985 9.83829 4.59014 9.93142 4.57444 10.0223L3.77865 14.6612L7.94522 12.4711C8.02685 12.4279 8.12418 12.4279 8.20637 12.4711L12.3724 14.6612L11.5769 10.0223C11.5612 9.93142 11.5915 9.83858 11.6574 9.77406L15.0279 6.48854L10.3702 5.81169C10.2787 5.79851 10.1999 5.74101 10.1589 5.65826L8.07566 1.43783L5.99237 5.65854C5.95142 5.74129 5.8726 5.79879 5.78115 5.81198L1.12343 6.48854Z" fill="#232323"/>
</g>
<defs>
<clipPath id="clip0">
<rect x="0.240234" y="0.153809" width="15.6708" height="15.6708" fill="white"/>
</clipPath>
</defs>
</svg>
