<svg width="18" height="18" viewBox="0 0 18 18" fill="none" xmlns="http://www.w3.org/2000/svg">
<path d="M3.16406 5.27344H4.21875V6.32812H3.16406V5.27344Z" fill="#232323"/>
<path d="M5.27344 5.27344H6.32812V6.32812H5.27344V5.27344Z" fill="#232323"/>
<path d="M7.38281 5.27344H8.4375V6.32812H7.38281V5.27344Z" fill="#232323"/>
<path d="M18 12.1992C18 9.00067 15.3978 6.39844 12.1992 6.39844C11.9877 6.39844 11.7765 6.41021 11.567 6.43296C11.5896 6.22526 11.6016 6.01439 11.6016 5.80078C11.6016 2.60223 8.99933 0 5.80078 0C2.60223 0 0 2.60223 0 5.80078C0 7.1125 0.454887 8.38343 1.28774 9.41755L0.204469 11.6016H5.80078C6.01439 11.6016 6.22526 11.5896 6.43296 11.567C6.41021 11.7765 6.39844 11.9877 6.39844 12.1992C6.39844 15.3978 9.00067 18 12.1992 18H17.7955L16.7123 15.816C17.5451 14.7819 18 13.5109 18 12.1992ZM1.90491 10.5469L2.5477 9.25091L2.30488 8.98439C1.49868 8.09951 1.05469 6.96888 1.05469 5.80078C1.05469 3.18378 3.18378 1.05469 5.80078 1.05469C8.41778 1.05469 10.5469 3.18378 10.5469 5.80078C10.5469 8.41778 8.41778 10.5469 5.80078 10.5469H1.90491ZM12.1992 16.9453C9.58222 16.9453 7.45312 14.8162 7.45312 12.1992C7.45312 11.9094 7.47974 11.6207 7.53149 11.3379C9.34056 10.7712 10.7712 9.34059 11.3378 7.53152C11.6207 7.47977 11.9094 7.45312 12.1992 7.45312C14.8162 7.45312 16.9453 9.58222 16.9453 12.1992C16.9453 13.3673 16.5013 14.4979 15.6951 15.3828L15.4522 15.6493L16.0951 16.9453H12.1992Z" fill="#232323"/>
<path d="M9.5625 11.6719H10.6172V12.7266H9.5625V11.6719Z" fill="#232323"/>
<path d="M11.6719 11.6719H12.7266V12.7266H11.6719V11.6719Z" fill="#232323"/>
<path d="M13.7812 11.6719H14.8359V12.7266H13.7812V11.6719Z" fill="#232323"/>
</svg>
