<svg width="41" height="43" viewBox="0 0 41 43" fill="none" xmlns="http://www.w3.org/2000/svg">
<path d="M24.2687 38.413C23.9357 38.4996 23.5963 38.5766 23.2593 38.6414C22.3784 38.8125 21.796 39.6973 21.959 40.6181C22.0394 41.0711 22.2858 41.4484 22.6202 41.6948C22.9649 41.9482 23.4036 42.0626 23.8507 41.9757C24.252 41.8979 24.6564 41.8065 25.0533 41.703C25.9231 41.4769 26.4531 40.5566 26.236 39.6485C26.0196 38.7397 25.1391 38.1867 24.2687 38.413Z" fill="white"/>
<path d="M36.2739 15.6882C36.3876 16.0461 36.6047 16.3383 36.8789 16.5402C37.2855 16.8393 37.8175 16.9399 38.3252 16.7646C39.1764 16.4694 39.6376 15.5108 39.356 14.6222C39.2277 14.2172 39.0853 13.8108 38.9337 13.4152C38.6007 12.5458 37.6565 12.1225 36.8236 12.4703C35.9916 12.8179 35.5861 13.8043 35.9193 14.674C36.0468 15.0065 36.1661 15.3478 36.2739 15.6882Z" fill="white"/>
<path d="M29.5437 35.9921C29.2573 36.1896 28.9617 36.3807 28.664 36.5597C27.8872 37.0277 27.6211 38.0647 28.069 38.8757C28.1907 39.0962 28.3526 39.2766 28.5392 39.4144C29.0399 39.7823 29.72 39.8375 30.2863 39.4968C30.6402 39.2835 30.9922 39.0567 31.3333 38.8212C32.081 38.3053 32.2868 37.2534 31.7926 36.4721C31.2984 35.6905 30.2916 35.4758 29.5437 35.9921Z" fill="white"/>
<path d="M40.3655 20.4233C40.3302 19.4876 39.5755 18.7592 38.6793 18.7958C37.7841 18.8326 37.0862 19.6211 37.1214 20.5565C37.1348 20.9141 37.1383 21.2771 37.1304 21.6344C37.1178 22.2212 37.3927 22.7443 37.8197 23.0587C38.0741 23.2458 38.3829 23.3591 38.7177 23.3671C39.6137 23.3878 40.3562 22.6456 40.3761 21.7094C40.385 21.2825 40.3816 20.85 40.3655 20.4233Z" fill="white"/>
<path d="M36.0085 31.5326C35.29 30.9696 34.2736 31.1225 33.7355 31.8715C33.5294 32.1583 33.3124 32.4416 33.0902 32.7144C32.5095 33.427 32.5915 34.4973 33.2738 35.1042C33.3127 35.1387 33.352 35.1703 33.3928 35.2001C34.0711 35.6995 35.0137 35.5847 35.5622 34.9126C35.8275 34.5871 36.0862 34.2487 36.3325 33.9061C36.8707 33.1571 36.725 32.0948 36.0085 31.5326Z" fill="white"/>
<path d="M38.3953 25.4033C37.5399 25.1232 36.6289 25.6205 36.3608 26.5139C36.2582 26.8553 36.1445 27.1982 36.0218 27.5341C35.7522 28.2735 36.0105 29.0871 36.6025 29.523C36.7111 29.6027 36.8307 29.6703 36.9606 29.7216C37.7982 30.0554 38.7361 29.6165 39.0554 28.7414C39.2011 28.342 39.3363 27.934 39.4587 27.5282C39.7264 26.6346 39.2506 25.6834 38.3953 25.4033Z" fill="white"/>
<path d="M17.187 38.6563C15.7356 38.3842 14.3434 37.9207 13.0232 37.2743C13.0075 37.2658 12.9936 37.2561 12.9772 37.2483C12.6661 37.0954 12.3555 36.9316 12.0544 36.7604C12.0534 36.7591 12.0515 36.7583 12.0498 36.7576C11.4975 36.4399 10.9585 36.0885 10.4348 35.7034C2.79851 30.0854 0.962443 19.0263 6.342 11.0511C7.51176 9.31751 8.92735 7.87125 10.5055 6.72498C10.525 6.71084 10.5444 6.69679 10.5637 6.68255C16.1249 2.68057 23.6762 2.41087 29.5814 6.52327L28.3131 8.43714C27.9605 8.96984 28.1774 9.35803 28.7947 9.30001L34.3038 8.7849C34.9219 8.72688 35.2915 8.16852 35.1252 7.54516L33.6458 1.97825C33.4802 1.35416 33.0562 1.27946 32.7032 1.81207L31.432 3.73048C27.0984 0.692274 21.9007 -0.466237 16.7417 0.468079C16.2221 0.562 15.7098 0.676953 15.2045 0.810764C15.2006 0.811489 15.1975 0.811942 15.1944 0.812667C15.1749 0.817654 15.1551 0.824272 15.1361 0.829802C10.6874 2.02294 6.80596 4.73278 4.03633 8.59914C4.01298 8.62806 3.98893 8.65635 3.96688 8.6878C3.87479 8.81735 3.78338 8.94989 3.69389 9.08244C3.54754 9.29965 3.40327 9.52231 3.26525 9.74496C3.24798 9.7718 3.23478 9.79908 3.21968 9.82619C0.934146 13.5251 -0.168258 17.8014 0.0207999 22.155C0.0212339 22.1693 0.0204527 22.1837 0.0207999 22.1984C0.0391154 22.6237 0.0714063 23.0548 0.115242 23.4793C0.117586 23.5067 0.123402 23.5326 0.127829 23.56C0.17314 23.9868 0.229996 24.4146 0.301262 24.8423C1.02555 29.2064 2.99668 33.1334 5.95034 36.189C5.9572 36.1962 5.96432 36.204 5.97126 36.2114C5.97369 36.2142 5.97638 36.2157 5.97873 36.2183C6.77228 37.0357 7.63546 37.7918 8.56486 38.4755C10.9971 40.2654 13.7054 41.4486 16.6141 41.9937C17.4966 42.1593 18.3396 41.5458 18.4979 40.6245C18.6562 39.7026 18.0692 38.8214 17.187 38.6563Z" fill="white"/>
<path d="M19.1948 7.54248C18.4689 7.54248 17.8809 8.15714 17.8809 8.91422V22.5805L29.8485 29.0418C30.0411 29.146 30.2473 29.195 30.4503 29.195C30.9256 29.195 31.3847 28.9247 31.6181 28.453C31.951 27.7797 31.6991 26.9527 31.0545 26.605L20.5073 20.9101V8.91422C20.5072 8.15714 19.9199 7.54248 19.1948 7.54248Z" fill="white"/>
</svg>
