<svg width="68" height="67" viewBox="0 0 68 67" fill="none" xmlns="http://www.w3.org/2000/svg">
<g clip-path="url(#clip0)">
<path d="M60.1009 0H8.83594C4.50928 0 0.989258 3.52002 0.989258 7.84668V59.1116C0.989258 63.4383 4.50928 66.9583 8.83594 66.9583H60.1009C64.4276 66.9583 67.9476 63.4383 67.9476 59.1116V7.84668C67.9476 3.52002 64.4276 0 60.1009 0ZM62.7165 59.1116C62.7165 60.5539 61.5431 61.7272 60.1009 61.7272H45.1922V40.4104H53.273L54.6082 32.3022H45.1922V26.6787C45.1922 24.4587 46.8956 22.7554 49.1155 22.7554H54.4774V14.6471H49.1155C42.4559 14.6471 37.0868 20.0417 37.0868 26.7015V32.3022H29.2373V40.4104H37.0868V61.7272H8.83594C7.39372 61.7272 6.22038 60.5539 6.22038 59.1116V7.84668C6.22038 6.40446 7.39372 5.23112 8.83594 5.23112H60.1009C61.5431 5.23112 62.7165 6.40446 62.7165 7.84668V59.1116Z" fill="white"/>
</g>
<defs>
<clipPath id="clip0">
<rect x="0.989258" width="66.9583" height="66.9583" fill="white"/>
</clipPath>
</defs>
</svg>
