<svg width="67" height="67" viewBox="0 0 67 67" fill="none" xmlns="http://www.w3.org/2000/svg">
<path d="M48.4796 0H18.4776C8.28904 0 0 8.28944 0 18.478V48.48C0 58.6689 8.28904 66.9579 18.4776 66.9579H48.4796C58.6689 66.9579 66.9579 58.6685 66.9579 48.48V18.478C66.9583 8.28944 58.6689 0 48.4796 0ZM61.0175 48.48C61.0175 55.3931 55.3931 61.0171 48.48 61.0171H18.4776C11.5648 61.0175 5.94083 55.3931 5.94083 48.48V18.478C5.94083 11.5652 11.5648 5.94083 18.4776 5.94083H48.4796C55.3927 5.94083 61.0171 11.5652 61.0171 18.478V48.48H61.0175Z" fill="white"/>
<path d="M33.479 16.2266C23.9653 16.2266 16.2256 23.9663 16.2256 33.4799C16.2256 42.9932 23.9653 50.7325 33.479 50.7325C42.9926 50.7325 50.7323 42.9932 50.7323 33.4799C50.7323 23.9663 42.9926 16.2266 33.479 16.2266ZM33.479 44.7913C27.2415 44.7913 22.1664 39.717 22.1664 33.4795C22.1664 27.2417 27.2411 22.167 33.479 22.167C39.7168 22.167 44.7915 27.2417 44.7915 33.4795C44.7915 39.717 39.7164 44.7913 33.479 44.7913Z" fill="white"/>
<path d="M51.4562 11.189C50.3116 11.189 49.1872 11.6524 48.3789 12.4643C47.5666 13.2722 47.0996 14.397 47.0996 15.5456C47.0996 16.6906 47.567 17.815 48.3789 18.6269C49.1868 19.4348 50.3116 19.9022 51.4562 19.9022C52.6048 19.9022 53.7256 19.4348 54.5375 18.6269C55.3494 17.815 55.8128 16.6902 55.8128 15.5456C55.8128 14.397 55.3494 13.2722 54.5375 12.4643C53.7296 11.6524 52.6048 11.189 51.4562 11.189Z" fill="white"/>
</svg>
