<svg width="47" height="39" viewBox="0 0 47 39" fill="none" xmlns="http://www.w3.org/2000/svg">
<path d="M1.23265 1.54663C2.05438 0.688236 3.04247 0.259277 4.19628 0.259277H42.8035C43.9575 0.259277 44.9456 0.688236 45.7674 1.54663C46.5893 2.40484 47 3.4367 47 4.64212V34.445C47 35.6506 46.5893 36.6816 45.7674 37.5398C44.9456 38.3988 43.9576 38.8276 42.8035 38.8276H4.19619C3.04237 38.8276 2.05437 38.3988 1.23256 37.5398C0.410473 36.6816 -6.86646e-05 35.6501 -6.86646e-05 34.445V4.64212C2.28882e-05 3.4367 0.410473 2.40484 1.23265 1.54663ZM3.35747 34.4443C3.35747 34.6818 3.44042 34.8872 3.60678 35.0607C3.77306 35.2343 3.96956 35.3203 4.19655 35.3203H42.8037C43.031 35.3203 43.2278 35.2343 43.3938 35.0607C43.56 34.8872 43.6429 34.6818 43.6429 34.4443V13.4073C43.0835 14.0647 42.4802 14.6674 41.8332 15.2152C37.147 18.977 33.4228 22.063 30.6601 24.4736C29.7683 25.259 29.0426 25.8706 28.4832 26.309C27.9237 26.7476 27.1675 27.1902 26.2147 27.6374C25.2618 28.0853 24.3656 28.3082 23.5263 28.3082H23.4999H23.4738C22.6347 28.3082 21.7382 28.0853 20.7856 27.6374C19.8324 27.1902 19.0758 26.7476 18.5165 26.309C17.9571 25.8706 17.2313 25.259 16.3395 24.4736C13.5768 22.063 9.85298 18.977 5.16664 15.2152C4.51964 14.6675 3.91609 14.0647 3.35747 13.4073V34.4443ZM3.35747 5.35411V5.65537C3.35747 6.73271 3.7636 7.93352 4.57659 9.25734C5.38968 10.5812 6.26863 11.6359 7.21226 12.4209C10.5873 15.1971 14.0926 18.0912 17.7302 21.1043C17.8349 21.1956 18.1412 21.4648 18.6485 21.912C19.155 22.3598 19.5574 22.7026 19.8548 22.9397C20.1525 23.1774 20.5411 23.465 21.0217 23.8025C21.5027 24.14 21.9441 24.3916 22.3462 24.5557C22.7483 24.7195 23.1243 24.8016 23.4738 24.8016H23.4999H23.5263C23.8759 24.8016 24.2516 24.7195 24.6539 24.5557C25.056 24.3916 25.4977 24.14 25.9783 23.8025C26.4589 23.4649 26.848 23.1773 27.1453 22.9397C27.4424 22.7026 27.8447 22.3598 28.3516 21.912C28.8587 21.4648 29.165 21.1956 29.2698 21.1043C32.9066 18.0911 36.4122 15.1971 39.787 12.4209C42.3575 10.3029 43.6425 7.70959 43.6425 4.64164C43.6425 4.40447 43.5595 4.19887 43.3933 4.02559C43.2271 3.85203 43.0306 3.76521 42.8033 3.76521H4.196C4.05637 3.84724 3.93382 3.87007 3.82882 3.83381C3.72382 3.79687 3.64528 3.86556 3.5931 4.03893C3.54065 4.21249 3.49251 4.29452 3.44887 4.2855C3.40505 4.27629 3.37869 4.39037 3.36996 4.62811C3.36179 4.86538 3.35738 4.98483 3.35738 4.98483V5.35411H3.35747Z" fill="white"/>
</svg>
