<svg width="24" height="42" viewBox="0 0 24 42" fill="none" xmlns="http://www.w3.org/2000/svg">
<path d="M20.1528 0H3.27637C1.66123 0 0.357422 1.3678 0.357422 3.0516V38.8434C0.357422 40.5256 1.66123 41.8919 3.27637 41.8919H20.1528C21.765 41.8919 23.0717 40.5256 23.0717 38.8434V3.0516C23.0717 1.3678 21.765 0 20.1528 0ZM7.55028 1.85325H15.8818C16.0923 1.85325 16.2633 2.18146 16.2633 2.58752C16.2633 2.99359 16.0923 3.32333 15.8818 3.32333H7.55028C7.33834 3.32333 7.17025 2.99359 7.17025 2.58752C7.17025 2.18146 7.33834 1.85325 7.55028 1.85325ZM11.716 38.88C10.6885 38.88 9.8524 38.0068 9.8524 36.9321C9.8524 35.8574 10.6885 34.9873 11.716 34.9873C12.7407 34.9873 13.5767 35.8574 13.5767 36.9321C13.5767 38.0068 12.7407 38.88 11.716 38.88ZM20.8851 32.2105H2.54554V5.14909H20.8851V32.2105Z" fill="white"/>
</svg>
