<svg width="68" height="67" viewBox="0 0 68 67" fill="none" xmlns="http://www.w3.org/2000/svg">
<g clip-path="url(#clip0)">
<path d="M48.9219 0H18.92C8.73143 0 0.442383 8.28944 0.442383 18.478V48.48C0.442383 58.6689 8.73143 66.9579 18.92 66.9579H48.9219C59.1113 66.9579 67.4003 58.6685 67.4003 48.48V18.478C67.4007 8.28944 59.1113 0 48.9219 0ZM61.4599 48.48C61.4599 55.3931 55.8355 61.0171 48.9223 61.0171H18.92C12.0072 61.0175 6.38321 55.3931 6.38321 48.48V18.478C6.38321 11.5652 12.0072 5.94083 18.92 5.94083H48.9219C55.8351 5.94083 61.4595 11.5652 61.4595 18.478V48.48H61.4599Z" fill="white"/>
</g>
<path d="M22.7627 15.9434V50.2275L53.1125 32.8043L22.7627 15.9434ZM27.807 24.516L42.8558 32.8766L27.807 41.5156V24.516Z" fill="white"/>
<defs>
<clipPath id="clip0">
<rect x="0.442383" width="66.9583" height="66.9583" fill="white"/>
</clipPath>
</defs>
</svg>
