<svg id="svg" version="1.1" xmlns="http://www.w3.org/2000/svg" xmlns:xlink="http://www.w3.org/1999/xlink" width="400" height="139.00148294611964" viewBox="0, 0, 400,139.00148294611964"><g id="svgg"><path id="path0" d="M23.670 0.124 C 23.259 0.160,22.847 0.249,22.753 0.323 C 22.660 0.396,21.833 0.587,20.917 0.747 C 20.000 0.907,18.950 1.171,18.583 1.333 C 18.217 1.495,17.467 1.753,16.917 1.906 C 16.367 2.059,15.617 2.328,15.250 2.504 C 14.883 2.681,14.246 2.976,13.833 3.162 C 12.940 3.563,11.634 4.293,11.507 4.463 C 11.457 4.529,11.192 4.696,10.917 4.834 C 10.164 5.210,6.640 8.810,6.186 9.667 C 4.644 12.578,4.430 13.063,3.967 14.713 C 3.781 15.375,3.574 15.992,3.507 16.083 C 3.439 16.175,3.178 16.925,2.925 17.750 C 2.673 18.575,2.409 19.325,2.340 19.417 C 2.270 19.508,2.048 20.146,1.847 20.833 C 1.646 21.521,1.380 22.308,1.257 22.583 C 1.134 22.858,0.900 23.571,0.737 24.167 C 0.574 24.762,0.386 25.288,0.319 25.334 C 0.252 25.380,0.145 25.699,0.080 26.042 L -0.037 26.667 3.356 26.666 C 8.772 26.664,9.982 26.548,10.112 26.016 C 10.170 25.778,10.268 25.546,10.328 25.500 C 10.389 25.454,10.616 24.779,10.833 24.000 C 11.050 23.221,11.276 22.546,11.334 22.500 C 11.393 22.454,11.575 21.929,11.740 21.333 C 11.905 20.737,12.194 19.894,12.384 19.458 L 12.729 18.667 20.698 18.667 C 27.977 18.667,28.667 18.690,28.667 18.940 C 28.667 19.298,28.004 21.534,27.834 21.750 C 27.762 21.842,27.543 22.490,27.348 23.190 C 27.153 23.890,26.888 24.677,26.759 24.940 C 26.630 25.202,26.473 25.698,26.410 26.042 L 26.296 26.667 30.106 26.645 C 32.202 26.633,34.475 26.577,35.157 26.520 L 36.397 26.417 36.547 25.833 C 36.629 25.512,36.757 25.175,36.830 25.083 C 36.904 24.992,37.122 24.350,37.315 23.657 C 37.508 22.964,37.805 22.101,37.974 21.740 C 38.144 21.379,38.414 20.596,38.576 20.000 C 38.737 19.404,38.926 18.842,38.995 18.750 C 39.064 18.658,39.285 18.021,39.486 17.333 C 39.688 16.646,39.955 15.858,40.079 15.583 C 40.204 15.308,40.441 14.577,40.605 13.958 C 40.769 13.340,40.962 12.833,41.035 12.833 C 41.107 12.833,41.166 12.740,41.166 12.625 C 41.165 12.327,42.037 9.600,42.165 9.500 C 42.224 9.454,42.450 8.779,42.667 8.000 C 42.884 7.221,43.109 6.546,43.168 6.500 C 43.226 6.454,43.407 5.929,43.570 5.333 C 43.733 4.737,43.967 4.025,44.090 3.750 C 44.213 3.475,44.510 2.595,44.749 1.795 C 44.997 0.969,45.307 0.268,45.467 0.175 C 45.739 0.016,25.433 -0.031,23.670 0.124 M50.230 0.294 C 50.129 0.455,49.845 1.289,49.598 2.146 C 49.352 3.003,49.052 3.864,48.931 4.060 C 48.811 4.256,48.581 4.904,48.421 5.500 C 48.262 6.096,48.072 6.658,48.000 6.750 C 47.928 6.842,47.703 7.517,47.500 8.250 C 47.297 8.983,47.073 9.658,47.002 9.750 C 46.931 9.842,46.670 10.629,46.422 11.500 C 46.174 12.371,45.900 13.168,45.814 13.272 C 45.256 13.947,45.015 17.585,45.415 19.283 C 46.112 22.239,49.260 24.862,53.167 25.743 C 53.854 25.898,54.567 26.109,54.750 26.212 C 55.673 26.729,77.712 26.766,77.807 26.250 C 77.841 26.067,78.003 25.617,78.166 25.250 C 78.329 24.883,78.601 24.133,78.769 23.583 C 78.937 23.033,79.117 22.546,79.169 22.500 C 79.222 22.454,79.480 21.667,79.743 20.750 C 80.006 19.833,80.277 19.008,80.345 18.917 C 80.413 18.825,80.641 18.150,80.851 17.417 C 81.060 16.683,81.279 16.046,81.336 16.000 C 81.393 15.954,81.649 15.167,81.905 14.250 C 82.161 13.333,82.427 12.508,82.496 12.417 C 82.564 12.325,82.789 11.688,82.994 11.000 C 83.199 10.313,83.420 9.712,83.484 9.667 C 83.549 9.621,83.773 8.983,83.983 8.250 C 84.193 7.517,84.420 6.842,84.488 6.750 C 84.556 6.658,84.827 5.833,85.090 4.917 C 85.354 4.000,85.614 3.212,85.670 3.167 C 85.726 3.121,85.950 2.446,86.167 1.667 C 86.384 0.887,86.641 0.195,86.739 0.128 C 86.837 0.060,84.583 0.004,81.731 0.003 L 76.546 0.000 76.159 1.375 C 75.946 2.131,75.710 2.792,75.635 2.844 C 75.560 2.895,75.307 3.596,75.074 4.402 C 74.840 5.207,74.580 5.990,74.496 6.141 C 74.412 6.293,74.183 6.979,73.987 7.667 C 73.792 8.354,73.577 8.992,73.510 9.083 C 73.443 9.175,73.173 10.000,72.910 10.917 C 72.646 11.833,72.389 12.621,72.338 12.667 C 72.287 12.713,72.069 13.313,71.853 14.000 C 71.637 14.688,71.403 15.325,71.332 15.417 C 71.261 15.508,71.036 16.183,70.833 16.917 C 70.630 17.650,70.405 18.325,70.333 18.417 C 70.261 18.508,70.036 19.183,69.833 19.917 C 69.232 22.080,69.857 21.864,64.377 21.803 C 60.751 21.763,59.594 21.700,59.542 21.542 C 59.503 21.427,59.376 21.333,59.257 21.333 C 58.896 21.333,57.500 20.662,57.500 20.488 C 57.500 20.398,57.311 20.253,57.079 20.165 C 56.848 20.077,56.609 19.873,56.548 19.711 C 56.488 19.549,56.209 19.042,55.928 18.583 C 55.304 17.566,55.173 14.745,55.702 13.704 C 55.854 13.404,56.177 12.467,56.421 11.621 C 56.664 10.775,56.923 10.008,56.996 9.917 C 57.069 9.825,57.292 9.153,57.491 8.423 C 57.689 7.692,57.915 7.017,57.993 6.923 C 58.070 6.828,58.337 6.075,58.586 5.250 C 58.835 4.425,59.097 3.675,59.168 3.583 C 59.239 3.492,59.463 2.817,59.665 2.083 C 59.867 1.350,60.100 0.679,60.183 0.592 C 60.709 0.038,60.403 -0.000,55.373 0.000 C 50.817 0.000,50.399 0.024,50.230 0.294 M92.729 0.451 C 92.667 0.707,92.565 0.954,92.504 1.000 C 92.443 1.046,92.260 1.571,92.098 2.167 C 91.936 2.763,91.706 3.404,91.586 3.591 C 91.467 3.779,91.203 4.529,91.000 5.258 C 90.797 5.987,90.572 6.658,90.500 6.750 C 90.428 6.842,90.204 7.517,90.002 8.250 C 89.799 8.983,89.533 9.808,89.411 10.083 C 89.288 10.358,89.025 11.146,88.827 11.833 C 88.628 12.521,88.406 13.158,88.334 13.250 C 88.262 13.342,88.036 14.017,87.833 14.750 C 87.630 15.483,87.407 16.158,87.338 16.250 C 87.269 16.342,87.003 17.092,86.747 17.917 C 86.491 18.742,86.227 19.492,86.159 19.583 C 86.091 19.675,85.870 20.350,85.667 21.083 C 85.464 21.817,85.239 22.492,85.167 22.583 C 85.095 22.675,84.875 23.329,84.677 24.037 C 84.480 24.744,84.210 25.532,84.077 25.787 C 83.609 26.683,83.550 26.668,87.458 26.652 C 98.424 26.606,107.225 26.409,107.292 26.207 C 107.330 26.093,107.512 26.000,107.696 26.000 C 108.213 26.000,111.387 25.328,111.579 25.178 C 111.673 25.105,112.425 24.835,113.250 24.577 C 114.075 24.320,114.787 24.065,114.833 24.011 C 114.879 23.957,115.329 23.726,115.833 23.498 C 116.337 23.270,116.775 23.027,116.806 22.958 C 116.836 22.890,116.957 22.833,117.075 22.833 C 117.854 22.833,123.167 18.451,123.167 17.808 C 123.167 17.754,123.504 17.208,123.917 16.592 C 124.329 15.977,124.667 15.367,124.667 15.237 C 124.667 15.107,124.729 15.000,124.804 15.000 C 124.880 15.000,125.150 14.381,125.403 13.625 C 125.656 12.869,125.950 12.070,126.057 11.850 C 126.431 11.076,126.306 7.368,125.875 6.460 C 125.669 6.026,125.500 5.620,125.500 5.559 C 125.500 4.807,122.934 2.614,121.000 1.713 C 119.482 1.005,117.887 0.500,117.172 0.500 C 117.001 0.500,116.830 0.406,116.792 0.292 C 116.737 0.128,114.151 0.073,104.783 0.034 L 92.843 -0.015 92.729 0.451 M135.040 0.454 C 134.925 0.703,134.673 1.471,134.481 2.161 C 134.288 2.852,134.072 3.492,134.000 3.583 C 133.928 3.675,133.737 4.237,133.576 4.833 C 133.414 5.429,133.144 6.212,132.974 6.573 C 132.805 6.935,132.508 7.797,132.315 8.490 C 132.122 9.183,131.905 9.825,131.833 9.917 C 131.761 10.008,131.536 10.683,131.333 11.417 C 131.130 12.150,130.906 12.825,130.836 12.917 C 130.765 13.008,130.502 13.796,130.250 14.667 C 129.998 15.537,129.735 16.325,129.664 16.417 C 129.594 16.508,129.405 17.071,129.245 17.667 C 129.085 18.262,128.857 18.909,128.738 19.103 C 128.619 19.297,128.352 20.047,128.144 20.770 C 127.937 21.492,127.721 22.121,127.664 22.167 C 127.607 22.212,127.355 22.981,127.104 23.875 C 126.852 24.769,126.539 25.706,126.408 25.958 C 126.276 26.210,126.168 26.483,126.168 26.565 C 126.167 26.649,128.306 26.678,131.171 26.632 C 136.956 26.540,136.416 26.729,136.999 24.586 C 137.199 23.851,137.464 23.025,137.587 22.750 C 137.711 22.475,137.974 21.693,138.172 21.011 C 138.370 20.330,138.627 19.617,138.743 19.428 C 138.860 19.238,139.085 18.596,139.245 18.000 C 139.405 17.404,139.594 16.842,139.664 16.750 C 139.735 16.658,139.998 15.871,140.250 15.000 C 140.502 14.129,140.765 13.342,140.836 13.250 C 140.906 13.158,141.122 12.516,141.315 11.823 C 141.508 11.130,141.805 10.268,141.974 9.907 C 142.144 9.546,142.382 8.875,142.504 8.417 C 142.626 7.958,142.773 7.546,142.832 7.500 C 142.891 7.454,143.149 6.667,143.405 5.750 C 143.661 4.833,143.929 4.008,144.001 3.917 C 144.072 3.825,144.292 3.171,144.489 2.463 C 144.687 1.756,144.957 0.968,145.090 0.713 C 145.223 0.458,145.332 0.194,145.332 0.125 C 145.333 0.056,143.065 0.001,140.292 0.001 L 135.250 0.003 135.040 0.454 M164.752 0.118 C 164.387 0.158,164.012 0.252,163.919 0.327 C 163.826 0.401,163.412 0.514,163.000 0.577 C 161.837 0.754,160.136 1.171,159.583 1.413 C 159.308 1.533,158.615 1.769,158.042 1.936 C 157.469 2.104,157.000 2.299,157.000 2.370 C 157.000 2.442,156.884 2.500,156.743 2.500 C 156.362 2.500,152.951 4.218,152.588 4.593 C 152.494 4.690,152.094 4.975,151.700 5.226 C 150.846 5.770,148.390 8.227,148.245 8.681 C 148.190 8.856,148.074 9.000,147.989 9.000 C 147.903 9.000,147.833 9.112,147.833 9.250 C 147.833 9.387,147.769 9.500,147.691 9.500 C 147.489 9.500,146.231 12.100,145.996 13.000 C 145.889 13.412,145.736 13.829,145.657 13.926 C 145.070 14.643,145.079 18.605,145.670 19.956 C 146.242 21.261,146.326 21.401,147.034 22.229 C 148.584 24.043,152.415 26.000,154.414 26.000 C 154.608 26.000,154.860 26.094,154.975 26.208 C 155.135 26.368,156.760 26.417,161.953 26.417 C 167.220 26.417,168.738 26.370,168.792 26.208 C 168.830 26.094,169.044 26.000,169.267 26.000 C 169.852 26.000,172.828 25.352,173.417 25.096 C 173.692 24.976,174.460 24.705,175.125 24.492 C 175.790 24.280,176.333 24.045,176.333 23.970 C 176.333 23.895,176.436 23.833,176.562 23.833 C 176.985 23.833,178.407 23.127,179.628 22.310 C 180.295 21.865,180.910 21.500,180.997 21.500 C 181.295 21.500,184.355 18.440,184.776 17.720 C 185.008 17.324,185.247 16.999,185.308 16.997 C 185.368 16.996,185.604 16.602,185.833 16.122 C 186.063 15.643,186.332 15.162,186.433 15.055 C 186.534 14.948,186.790 14.310,187.001 13.638 C 187.213 12.966,187.450 12.333,187.527 12.232 C 188.012 11.598,188.045 7.811,187.575 6.750 C 187.454 6.475,187.247 5.987,187.116 5.667 C 186.213 3.459,181.413 0.500,178.733 0.500 C 178.529 0.500,178.330 0.406,178.292 0.292 C 178.223 0.085,166.414 -0.067,164.752 0.118 M211.500 0.115 C 211.179 0.149,210.767 0.241,210.583 0.319 C 210.400 0.397,209.537 0.592,208.667 0.753 C 207.796 0.913,206.858 1.138,206.583 1.252 C 206.308 1.367,205.558 1.624,204.917 1.824 C 203.695 2.204,202.375 2.757,201.250 3.361 C 200.883 3.557,200.302 3.864,199.958 4.043 C 199.615 4.222,199.333 4.435,199.333 4.517 C 199.333 4.600,199.221 4.667,199.083 4.667 C 198.946 4.667,198.833 4.742,198.833 4.833 C 198.833 4.925,198.714 5.000,198.569 5.000 C 198.109 5.000,194.279 8.987,193.847 9.916 C 193.634 10.374,193.319 10.928,193.147 11.147 C 192.974 11.366,192.833 11.655,192.833 11.790 C 192.833 11.925,192.660 12.383,192.449 12.809 C 192.238 13.235,191.891 14.183,191.678 14.917 C 191.465 15.650,191.233 16.325,191.163 16.417 C 191.093 16.508,190.870 17.183,190.667 17.917 C 190.464 18.650,190.239 19.325,190.167 19.417 C 190.095 19.508,189.870 20.183,189.667 20.917 C 189.464 21.650,189.237 22.325,189.163 22.417 C 189.090 22.508,188.827 23.296,188.580 24.167 C 188.332 25.037,188.063 25.821,187.982 25.908 C 187.900 25.995,187.833 26.202,187.833 26.367 C 187.833 26.684,193.651 26.783,196.831 26.520 L 198.079 26.417 198.536 24.833 C 198.787 23.962,199.061 23.132,199.146 22.988 C 199.230 22.844,199.465 22.131,199.668 21.404 C 199.870 20.678,200.094 20.008,200.164 19.917 C 200.235 19.825,200.498 19.046,200.749 18.186 C 200.999 17.325,201.354 16.369,201.535 16.061 L 201.866 15.500 214.068 15.500 L 226.269 15.500 226.546 14.873 C 226.698 14.528,227.039 13.516,227.305 12.623 L 227.787 11.000 215.904 11.000 C 208.897 11.000,203.981 10.937,203.925 10.848 C 203.799 10.642,204.992 9.046,205.974 8.107 C 206.708 7.406,207.363 6.833,207.432 6.833 C 207.472 6.833,207.899 6.572,208.379 6.253 C 208.860 5.934,209.665 5.557,210.169 5.415 C 210.672 5.274,211.233 5.066,211.417 4.954 C 211.666 4.801,214.059 4.738,220.936 4.701 L 230.121 4.651 230.417 3.534 C 230.579 2.919,230.843 2.117,231.004 1.750 C 231.164 1.383,231.348 0.840,231.411 0.542 L 231.526 0.000 221.805 0.027 C 216.458 0.041,211.821 0.081,211.500 0.115 M251.167 0.106 C 250.938 0.147,250.600 0.243,250.417 0.318 C 250.233 0.394,249.371 0.588,248.500 0.748 C 247.629 0.908,246.692 1.131,246.417 1.244 C 246.142 1.356,245.467 1.584,244.917 1.750 C 244.367 1.916,243.617 2.181,243.250 2.339 C 242.883 2.497,242.171 2.804,241.667 3.022 C 241.162 3.239,240.725 3.473,240.694 3.542 C 240.664 3.610,240.566 3.667,240.477 3.667 C 240.303 3.667,238.180 5.041,237.512 5.586 C 235.804 6.979,233.000 10.405,233.000 11.097 C 233.000 11.184,232.852 11.531,232.671 11.868 C 232.252 12.651,231.667 14.875,231.667 15.688 C 231.667 16.032,231.592 16.360,231.500 16.417 C 231.408 16.473,231.333 16.773,231.333 17.083 C 231.333 17.393,231.408 17.693,231.500 17.750 C 231.592 17.807,231.668 18.130,231.670 18.468 C 231.674 19.220,232.370 21.246,232.782 21.708 C 233.672 22.706,234.891 23.833,235.081 23.833 C 235.200 23.833,235.335 23.927,235.382 24.042 C 235.428 24.156,235.923 24.438,236.482 24.667 C 237.041 24.896,237.499 25.127,237.499 25.181 C 237.500 25.234,238.231 25.451,239.125 25.662 C 240.019 25.873,240.930 26.129,241.150 26.231 C 241.717 26.494,254.630 26.489,255.183 26.226 C 255.403 26.122,256.408 25.872,257.416 25.671 C 258.425 25.470,259.325 25.245,259.416 25.171 C 259.508 25.096,260.071 24.904,260.667 24.743 C 262.112 24.351,266.667 22.136,266.667 21.825 C 266.667 21.738,266.760 21.667,266.875 21.666 C 267.849 21.665,271.560 17.414,272.693 15.000 C 273.557 13.159,273.692 12.784,273.922 11.581 C 274.966 6.124,272.121 2.149,266.167 0.744 C 265.479 0.582,264.811 0.367,264.683 0.266 C 264.452 0.086,252.102 -0.061,251.167 0.106 M296.458 0.121 C 296.115 0.157,295.833 0.257,295.833 0.343 C 295.833 0.430,295.645 0.500,295.414 0.500 C 294.841 0.500,291.770 1.173,291.667 1.321 C 291.621 1.387,291.096 1.575,290.500 1.738 C 289.904 1.902,289.229 2.136,289.000 2.259 C 288.771 2.381,288.096 2.689,287.500 2.944 C 286.904 3.199,286.318 3.503,286.196 3.620 C 286.075 3.738,285.877 3.833,285.756 3.833 C 285.636 3.833,285.078 4.171,284.518 4.583 C 283.958 4.996,283.454 5.333,283.399 5.333 C 283.343 5.333,283.150 5.521,282.970 5.750 C 282.790 5.979,282.551 6.167,282.439 6.167 C 282.188 6.167,280.833 7.527,280.833 7.779 C 280.833 7.879,280.646 8.085,280.417 8.235 C 280.188 8.385,280.000 8.589,280.000 8.688 C 280.000 8.787,279.787 9.142,279.526 9.476 C 278.991 10.162,277.804 12.576,277.507 13.583 C 277.399 13.950,277.222 14.430,277.113 14.650 C 276.735 15.418,276.858 19.126,277.292 20.040 C 277.498 20.474,277.667 20.880,277.667 20.941 C 277.667 21.465,280.854 24.500,281.405 24.500 C 281.467 24.500,281.956 24.717,282.490 24.982 C 283.024 25.247,284.088 25.590,284.855 25.745 C 285.622 25.899,286.400 26.114,286.583 26.221 C 286.826 26.364,289.772 26.430,297.450 26.466 L 307.983 26.516 308.170 25.819 C 308.274 25.436,308.430 25.001,308.517 24.853 C 308.605 24.705,308.852 23.968,309.067 23.215 L 309.457 21.847 300.604 21.797 C 291.797 21.748,291.746 21.746,291.050 21.374 C 290.665 21.168,290.264 21.000,290.160 21.000 C 289.756 21.000,288.205 19.186,287.937 18.400 C 287.492 17.094,287.684 13.362,288.227 12.785 C 288.331 12.674,288.551 12.210,288.715 11.753 C 289.648 9.153,292.994 6.232,296.083 5.320 C 296.450 5.212,296.855 5.039,296.984 4.937 C 297.148 4.805,299.908 4.735,306.264 4.700 L 315.311 4.651 315.644 3.950 C 315.827 3.565,316.142 2.688,316.343 2.000 C 316.545 1.313,316.775 0.679,316.855 0.592 C 317.390 0.008,317.237 -0.001,307.042 0.028 C 301.565 0.043,296.802 0.085,296.458 0.121 M321.890 0.304 C 321.786 0.471,321.536 1.202,321.334 1.929 C 321.132 2.656,320.867 3.475,320.744 3.750 C 320.622 4.025,320.359 4.813,320.160 5.500 C 319.961 6.188,319.740 6.825,319.668 6.917 C 319.596 7.008,319.328 7.833,319.072 8.750 C 318.816 9.667,318.553 10.454,318.488 10.500 C 318.424 10.546,318.204 11.146,318.001 11.833 C 317.798 12.521,317.576 13.158,317.508 13.250 C 316.822 14.170,316.728 19.500,317.385 20.211 C 317.494 20.329,317.753 20.761,317.960 21.171 C 319.069 23.364,323.524 26.000,326.122 26.000 C 326.315 26.000,326.503 26.093,326.541 26.206 C 326.613 26.423,334.728 26.621,344.778 26.652 L 349.474 26.667 349.591 26.125 C 349.656 25.827,349.760 25.546,349.824 25.500 C 349.887 25.454,350.116 24.779,350.333 24.000 C 350.550 23.221,350.774 22.546,350.830 22.500 C 350.886 22.454,351.148 21.667,351.413 20.750 C 351.678 19.833,351.942 19.046,352.000 19.000 C 352.057 18.954,352.240 18.467,352.406 17.917 C 352.572 17.367,352.807 16.692,352.927 16.417 C 353.047 16.142,353.308 15.354,353.507 14.667 C 353.705 13.979,353.927 13.342,353.999 13.250 C 354.072 13.158,354.296 12.483,354.498 11.750 C 354.701 11.017,354.967 10.192,355.089 9.917 C 355.212 9.642,355.475 8.854,355.673 8.167 C 355.872 7.479,356.089 6.842,356.156 6.750 C 356.223 6.658,356.450 5.983,356.660 5.250 C 356.870 4.517,357.110 3.832,357.192 3.728 C 357.275 3.624,357.534 2.874,357.768 2.061 C 358.002 1.248,358.262 0.512,358.347 0.425 C 358.717 0.042,358.222 0.000,353.356 0.000 L 348.212 0.000 347.754 1.625 C 347.502 2.519,347.239 3.325,347.169 3.417 C 347.100 3.508,346.869 4.183,346.656 4.917 C 346.444 5.650,346.221 6.287,346.162 6.333 C 346.103 6.379,345.875 7.073,345.655 7.875 C 345.436 8.677,345.209 9.333,345.152 9.333 C 345.094 9.333,344.833 10.065,344.572 10.958 C 344.311 11.852,344.052 12.621,343.996 12.667 C 343.940 12.713,343.717 13.387,343.500 14.167 C 343.283 14.946,343.060 15.621,343.004 15.667 C 342.948 15.713,342.687 16.500,342.424 17.417 C 342.161 18.333,341.902 19.158,341.848 19.249 C 341.794 19.341,341.563 19.941,341.333 20.583 L 340.917 21.750 336.097 21.750 C 332.390 21.750,331.262 21.702,331.208 21.542 C 331.170 21.427,331.041 21.333,330.921 21.333 C 329.440 21.333,327.306 18.825,327.068 16.804 C 326.961 15.895,327.225 13.762,327.486 13.420 C 327.558 13.326,327.794 12.688,328.012 12.000 C 328.230 11.313,328.453 10.713,328.507 10.667 C 328.562 10.621,328.816 9.833,329.072 8.917 C 329.328 8.000,329.596 7.175,329.667 7.083 C 329.739 6.992,329.964 6.317,330.167 5.583 C 330.370 4.850,330.594 4.175,330.665 4.083 C 330.736 3.992,331.001 3.242,331.253 2.417 C 331.505 1.592,331.765 0.842,331.830 0.750 C 332.377 -0.020,332.503 -0.000,327.118 -0.000 C 322.423 -0.000,322.067 0.021,321.890 0.304 M374.917 0.116 C 374.550 0.149,374.100 0.245,373.917 0.329 C 373.733 0.414,372.733 0.640,371.693 0.833 C 370.654 1.025,369.679 1.253,369.527 1.339 C 369.375 1.425,368.762 1.653,368.167 1.846 C 366.811 2.285,364.667 3.305,364.667 3.512 C 364.667 3.597,364.554 3.667,364.417 3.667 C 364.017 3.667,361.703 5.972,361.389 6.683 C 361.232 7.041,361.054 7.333,360.995 7.333 C 360.463 7.333,360.373 11.373,360.896 11.756 C 361.045 11.865,361.167 12.033,361.167 12.130 C 361.167 12.327,362.831 13.833,363.049 13.833 C 363.125 13.833,363.587 14.022,364.075 14.253 C 365.993 15.160,367.486 15.366,372.792 15.453 C 375.510 15.498,377.667 15.600,377.667 15.683 C 377.667 15.766,378.026 15.833,378.465 15.833 C 382.055 15.833,383.807 17.993,381.776 19.914 C 380.916 20.727,379.613 21.333,378.727 21.333 C 378.547 21.333,378.306 21.427,378.192 21.542 C 378.031 21.703,375.634 21.761,367.605 21.798 L 357.226 21.845 356.941 22.490 C 356.785 22.844,356.478 23.750,356.259 24.503 C 356.040 25.256,355.780 25.954,355.680 26.053 C 355.084 26.650,355.296 26.667,363.125 26.657 C 372.634 26.645,380.305 26.449,380.751 26.206 C 380.934 26.107,381.796 25.898,382.667 25.743 C 383.537 25.588,384.550 25.331,384.917 25.172 C 385.283 25.013,385.958 24.782,386.417 24.660 C 392.384 23.063,396.015 16.893,392.814 13.788 C 392.064 13.061,390.455 12.167,389.896 12.167 C 389.770 12.167,389.667 12.103,389.667 12.025 C 389.667 11.858,387.739 11.397,386.083 11.168 C 385.442 11.079,383.027 11.005,380.718 11.003 C 378.103 11.001,376.481 10.937,376.417 10.833 C 376.360 10.742,376.090 10.667,375.816 10.667 C 374.112 10.667,371.833 9.445,371.833 8.531 C 371.833 7.946,372.661 6.494,373.086 6.332 C 373.314 6.246,373.500 6.100,373.500 6.009 C 373.500 5.918,374.044 5.686,374.708 5.495 C 375.373 5.303,376.067 5.057,376.250 4.948 C 376.495 4.802,379.309 4.736,386.917 4.697 L 397.250 4.643 397.527 4.094 C 397.679 3.792,397.968 2.953,398.170 2.230 C 398.371 1.508,398.591 0.842,398.659 0.750 C 399.244 -0.044,399.907 -0.002,387.286 0.028 C 380.850 0.043,375.283 0.083,374.917 0.116 M33.600 4.932 C 33.544 5.078,33.450 5.397,33.390 5.640 C 33.331 5.884,33.235 6.121,33.178 6.167 C 33.122 6.212,32.897 6.813,32.679 7.500 C 32.461 8.188,32.227 8.825,32.159 8.917 C 32.092 9.008,31.869 9.683,31.664 10.417 C 31.460 11.150,31.215 11.938,31.119 12.167 C 31.024 12.396,30.826 12.921,30.681 13.333 L 30.417 14.083 22.500 14.127 C 13.719 14.175,14.038 14.198,14.401 13.543 C 14.541 13.290,14.885 12.596,15.164 12.000 C 15.841 10.558,16.019 10.267,16.774 9.360 C 17.861 8.054,19.570 6.500,19.919 6.500 C 20.020 6.500,20.339 6.325,20.629 6.111 C 20.918 5.898,21.627 5.589,22.203 5.426 C 22.779 5.263,23.400 5.066,23.583 4.989 C 24.561 4.574,33.758 4.522,33.600 4.932 M111.683 4.937 C 111.812 5.039,112.216 5.220,112.582 5.338 C 115.518 6.285,116.419 10.715,114.497 14.761 C 113.081 17.742,110.227 20.211,107.083 21.173 C 106.717 21.285,106.312 21.461,106.183 21.563 C 105.888 21.799,95.667 21.936,95.667 21.704 C 95.667 21.499,95.980 20.539,96.250 19.917 C 96.369 19.642,96.633 18.817,96.835 18.083 C 97.037 17.350,97.261 16.675,97.333 16.583 C 97.405 16.492,97.630 15.820,97.833 15.091 C 98.037 14.363,98.300 13.613,98.420 13.425 C 98.539 13.237,98.769 12.596,98.931 12.000 C 99.093 11.404,99.272 10.879,99.329 10.833 C 99.385 10.787,99.646 10.000,99.910 9.083 C 100.173 8.167,100.443 7.342,100.511 7.250 C 100.579 7.158,100.764 6.633,100.921 6.083 C 101.078 5.533,101.285 4.986,101.381 4.866 C 101.612 4.579,111.319 4.646,111.683 4.937 M173.183 4.935 C 173.312 5.037,173.771 5.252,174.204 5.414 C 177.195 6.533,178.036 10.596,176.121 14.667 C 175.492 16.001,173.603 18.636,173.259 18.657 C 173.172 18.662,172.908 18.853,172.670 19.080 C 172.159 19.570,169.905 20.761,168.838 21.106 C 168.423 21.240,167.903 21.440,167.683 21.550 C 167.409 21.687,166.149 21.750,163.683 21.750 L 160.083 21.750 158.981 21.219 C 155.873 19.723,154.954 15.891,156.789 12.088 C 157.011 11.627,157.318 10.991,157.472 10.674 C 158.430 8.692,162.640 5.562,164.792 5.233 C 165.181 5.173,165.500 5.064,165.500 4.990 C 165.500 4.647,172.754 4.595,173.183 4.935 M259.583 4.946 C 259.767 5.052,260.162 5.230,260.462 5.341 C 261.342 5.668,262.808 7.250,263.023 8.107 C 263.125 8.510,263.273 8.880,263.354 8.929 C 263.546 9.048,263.544 11.786,263.352 11.905 C 263.271 11.955,263.153 12.278,263.091 12.623 C 262.950 13.400,262.517 14.714,262.364 14.830 C 262.301 14.878,262.063 15.292,261.833 15.750 C 261.604 16.208,261.285 16.681,261.125 16.801 C 260.965 16.921,260.833 17.099,260.833 17.198 C 260.833 17.442,259.298 18.990,259.051 18.996 C 258.942 18.998,258.754 19.131,258.634 19.292 C 258.515 19.452,258.042 19.771,257.583 20.000 C 257.125 20.229,256.727 20.468,256.698 20.531 C 256.669 20.594,256.107 20.810,255.448 21.011 C 254.789 21.212,254.145 21.461,254.016 21.563 C 253.516 21.963,246.534 21.806,245.627 21.375 C 245.192 21.169,244.775 21.000,244.698 21.000 C 244.316 21.000,243.185 19.747,242.687 18.772 C 242.002 17.427,241.962 14.627,242.609 13.167 C 242.792 12.754,243.085 12.079,243.260 11.667 C 243.435 11.254,243.638 10.842,243.711 10.750 C 243.783 10.658,244.072 10.228,244.353 9.793 C 244.920 8.914,246.853 7.062,247.500 6.776 C 247.729 6.675,248.254 6.392,248.667 6.147 C 249.079 5.901,249.867 5.571,250.417 5.413 C 250.967 5.255,251.567 5.063,251.750 4.988 C 252.411 4.715,252.799 4.691,256.000 4.721 C 258.108 4.741,259.367 4.820,259.583 4.946 M0.280 39.109 C 0.218 39.171,0.167 43.860,0.167 49.528 L 0.167 59.833 78.051 59.833 L 155.935 59.833 156.971 60.183 C 157.549 60.378,158.227 60.753,158.504 61.029 L 159.000 61.526 159.000 70.429 L 159.000 79.333 114.417 79.333 L 69.833 79.333 69.833 89.083 L 69.833 98.833 114.417 98.833 L 159.000 98.833 159.000 118.917 L 159.000 139.000 174.083 139.000 L 189.167 139.000 189.167 95.614 C 189.167 64.998,189.113 51.937,188.985 51.239 C 187.826 44.935,182.711 41.030,173.250 39.226 C 172.425 39.069,0.436 38.953,0.280 39.109 M229.306 39.507 C 220.062 40.585,214.227 44.733,212.785 51.250 L 212.417 52.917 212.417 95.500 L 212.417 138.083 227.375 138.126 L 242.333 138.168 242.333 118.334 L 242.333 98.500 286.667 98.500 L 331.000 98.500 331.000 88.917 L 331.000 79.334 286.708 79.292 L 242.417 79.250 242.417 70.469 L 242.417 61.688 242.906 61.178 C 244.157 59.872,235.499 60.000,322.590 60.000 L 400.000 60.000 400.000 49.667 L 400.000 39.333 315.208 39.355 C 268.573 39.367,229.917 39.435,229.306 39.507 " stroke="none" fill="#040404" fill-rule="evenodd"></path></g></svg>