<svg width="14" height="15" viewBox="0 0 14 15" fill="none" xmlns="http://www.w3.org/2000/svg">
<path d="M12.3594 1.17188H11.7031V0H10.6094V1.17188H3.39062V0H2.29688V1.17188H1.64062C0.735984 1.17188 0 1.96043 0 2.92969V13.2422C0 14.2114 0.735984 15 1.64062 15H12.3594C13.264 15 14 14.2114 14 13.2422V2.92969C14 1.96043 13.264 1.17188 12.3594 1.17188ZM12.9062 13.2422C12.9062 13.5653 12.6609 13.8281 12.3594 13.8281H1.64062C1.33908 13.8281 1.09375 13.5653 1.09375 13.2422V5.50781H12.9062V13.2422ZM12.9062 4.33594H1.09375V2.92969C1.09375 2.6066 1.33908 2.34375 1.64062 2.34375H2.29688V3.51562H3.39062V2.34375H10.6094V3.51562H11.7031V2.34375H12.3594C12.6609 2.34375 12.9062 2.6066 12.9062 2.92969V4.33594Z" fill="#6F6F6F"/>
<path d="M3.17187 6.73779H2.07812V7.90967H3.17187V6.73779Z" fill="#6F6F6F"/>
<path d="M5.35938 6.73779H4.26562V7.90967H5.35938V6.73779Z" fill="#6F6F6F"/>
<path d="M7.5459 6.73779H6.45215V7.90967H7.5459V6.73779Z" fill="#6F6F6F"/>
<path d="M9.7334 6.73779H8.63965V7.90967H9.7334V6.73779Z" fill="#6F6F6F"/>
<path d="M11.9219 6.73779H10.8281V7.90967H11.9219V6.73779Z" fill="#6F6F6F"/>
<path d="M3.17187 9.08179H2.07812V10.2537H3.17187V9.08179Z" fill="#6F6F6F"/>
<path d="M5.35938 9.08179H4.26562V10.2537H5.35938V9.08179Z" fill="#6F6F6F"/>
<path d="M7.5459 9.08179H6.45215V10.2537H7.5459V9.08179Z" fill="#6F6F6F"/>
<path d="M9.7334 9.08179H8.63965V10.2537H9.7334V9.08179Z" fill="#6F6F6F"/>
<path d="M3.17187 11.4253H2.07812V12.5972H3.17187V11.4253Z" fill="#6F6F6F"/>
<path d="M5.35938 11.4253H4.26562V12.5972H5.35938V11.4253Z" fill="#6F6F6F"/>
<path d="M7.5459 11.4253H6.45215V12.5972H7.5459V11.4253Z" fill="#6F6F6F"/>
<path d="M9.7334 11.4253H8.63965V12.5972H9.7334V11.4253Z" fill="#6F6F6F"/>
<path d="M11.9219 9.08179H10.8281V10.2537H11.9219V9.08179Z" fill="#6F6F6F"/>
</svg>
