<svg width="19" height="19" viewBox="0 0 19 19" fill="none" xmlns="http://www.w3.org/2000/svg">
<path d="M14.1966 8.66044C14.1005 8.44788 13.8891 8.3125 13.6563 8.3125H11.2813V0.59375C11.2813 0.266 11.0153 0 10.6876 0H8.31257C7.98482 0 7.71882 0.266 7.71882 0.59375V8.3125H5.34382C5.11107 8.3125 4.8997 8.44906 4.80351 8.66044C4.70614 8.873 4.74414 9.12119 4.89732 9.29694L9.05357 14.0469C9.16639 14.1764 9.32907 14.25 9.50007 14.25C9.67107 14.25 9.83376 14.1752 9.94657 14.0469L14.1028 9.29694C14.2572 9.12237 14.2928 8.873 14.1966 8.66044Z" fill="black"/>
<path d="M16.0312 13.0625V16.625H2.96875V13.0625H0.59375V17.8125C0.59375 18.4692 1.12575 19 1.78125 19H17.2188C17.8754 19 18.4062 18.4692 18.4062 17.8125V13.0625H16.0312Z" fill="black"/>
</svg>
