<svg width="56" height="59" viewBox="0 0 56 59" fill="none" xmlns="http://www.w3.org/2000/svg">
<path d="M49.8179 20.5491C48.9057 20.008 47.7063 20.2727 47.138 21.1404C46.5697 22.0082 46.8478 23.1496 47.7594 23.6904C49.8808 24.9493 51.1471 27.1211 51.1471 29.5002C51.1471 31.8792 49.8808 34.051 47.7594 35.3099L15.8551 54.2403C13.6044 55.5758 10.8762 55.6415 8.55733 54.4171C6.23819 53.1924 4.85364 50.9543 4.85364 48.4306V10.5695C4.85364 8.04571 6.23819 5.80762 8.55733 4.58292C10.8762 3.35853 13.6044 3.42424 15.8551 4.75969L34.4278 15.7798C35.3397 16.3203 36.5391 16.0559 37.1077 15.1885C37.676 14.321 37.3978 13.1793 36.4863 12.6385L17.9137 1.61866C14.4463 -0.438654 10.2434 -0.540764 6.66966 1.34626C3.09694 3.23298 0.963867 6.68095 0.963867 10.5695V48.4303C0.963867 52.3188 3.09694 55.7667 6.66999 57.6535C8.3719 58.5521 10.2161 58.9997 12.0565 58.9997C14.0796 58.9997 16.098 58.4586 17.9137 57.3811L49.8179 38.4507C53.0863 36.5112 55.0375 33.1653 55.0375 29.4999C55.0375 25.8344 53.0863 22.4885 49.8179 20.5491Z" fill="#232323"/>
</svg>
