<svg width="19" height="21" viewBox="0 0 19 21" fill="none" xmlns="http://www.w3.org/2000/svg">
<path d="M7.81836 20.1797C7.81836 20.6328 7.45114 21 6.99805 21H3.38867C1.57934 21 0.107422 19.5281 0.107422 17.7188V3.28125C0.107422 1.47192 1.57934 0 3.38867 0H13.474C15.2832 0 16.7553 1.47192 16.7553 3.28125V11.1152C16.7553 11.5683 16.3879 11.9355 15.935 11.9355C15.4819 11.9355 15.1147 11.5683 15.1147 11.1152V3.28125C15.1147 2.37666 14.3786 1.64062 13.474 1.64062H3.38867C2.48409 1.64062 1.74805 2.37666 1.74805 3.28125V17.7188C1.74805 18.6233 2.48409 19.3594 3.38867 19.3594H6.99805C7.45114 19.3594 7.81836 19.7266 7.81836 20.1797ZM12.6537 4.92188H4.2045C3.7514 4.92188 3.38419 5.28909 3.38419 5.74219C3.38419 6.19528 3.7514 6.5625 4.2045 6.5625H12.6537C13.1067 6.5625 13.474 6.19528 13.474 5.74219C13.474 5.28909 13.1067 4.92188 12.6537 4.92188ZM13.474 9.02344C13.474 8.57034 13.1067 8.20312 12.6537 8.20312H4.2045C3.7514 8.20312 3.38419 8.57034 3.38419 9.02344C3.38419 9.47653 3.7514 9.84375 4.2045 9.84375H12.6537C13.1067 9.84375 13.474 9.47653 13.474 9.02344ZM4.2045 11.4844C3.7514 11.4844 3.38419 11.8516 3.38419 12.3047C3.38419 12.7578 3.7514 13.125 4.2045 13.125H8.51563C8.96872 13.125 9.33594 12.7578 9.33594 12.3047C9.33594 11.8516 8.96872 11.4844 8.51563 11.4844H4.2045ZM18.7844 17.493C18.7556 17.5342 18.6567 17.674 18.5954 17.7514C18.3206 18.097 17.6775 18.906 16.7827 19.62C15.6354 20.5357 14.4547 21 13.2734 21C12.0922 21 10.9115 20.5357 9.7642 19.62C8.86939 18.906 8.22627 18.0969 7.95166 17.7514C7.89014 17.674 7.79128 17.534 7.76244 17.493C7.56361 17.2101 7.56361 16.8327 7.76244 16.5498C7.79128 16.5088 7.89014 16.3688 7.95166 16.2914C8.22627 15.9459 8.86939 15.137 9.7642 14.4229C10.9115 13.5073 12.0922 13.043 13.2734 13.043C14.4547 13.043 15.6354 13.5073 16.7827 14.4229C17.6775 15.137 18.3206 15.9461 18.5952 16.2915C18.6567 16.3689 18.7556 16.5089 18.7844 16.55C18.9833 16.8329 18.9833 17.2101 18.7844 17.493ZM17.0733 17.0215C15.769 15.4698 14.4919 14.6836 13.2734 14.6836C12.0551 14.6836 10.7779 15.4696 9.47357 17.0215C10.7779 18.5732 12.055 19.3594 13.2734 19.3594C14.4919 19.3594 15.769 18.5733 17.0733 17.0215ZM13.3145 15.4629C12.4536 15.4629 11.7559 16.1606 11.7559 17.0215C11.7559 17.8823 12.4536 18.5801 13.3145 18.5801C14.1753 18.5801 14.873 17.8823 14.873 17.0215C14.873 16.1606 14.1753 15.4629 13.3145 15.4629Z" fill="black"/>
</svg>
