<svg width="15" height="14" viewBox="0 0 15 14" fill="none" xmlns="http://www.w3.org/2000/svg">
<path d="M6.25 0.739854C6.25 0.433928 5.96875 0.183624 5.625 0.183624H0.625C0.28125 0.183624 0 0.433928 0 0.739854V5.18969C0 5.49562 0.28125 5.74592 0.625 5.74592H5.625C5.96875 5.74592 6.25 5.49562 6.25 5.18969V0.739854ZM1.25 1.29608H5V4.63346H1.25V1.29608Z" fill="#282828"/>
<path d="M15 0.739854C15 0.433928 14.7187 0.183624 14.375 0.183624H9.375C9.03125 0.183624 8.75 0.433928 8.75 0.739854V5.18969C8.75 5.49562 9.03125 5.74592 9.375 5.74592H14.375C14.7187 5.74592 15 5.49562 15 5.18969V0.739854ZM10 1.29608H13.75V4.63346H10V1.29608Z" fill="#282828"/>
<path d="M6.25 8.34133C6.25 8.0354 5.96875 7.7851 5.625 7.7851H0.625C0.28125 7.7851 0 8.0354 0 8.34133V12.7912C0 13.0971 0.28125 13.3474 0.625 13.3474H5.625C5.96875 13.3474 6.25 13.0971 6.25 12.7912V8.34133ZM1.25 8.89756H5V12.2349H1.25V8.89756Z" fill="#282828"/>
<path d="M15 8.34133C15 8.0354 14.7187 7.7851 14.375 7.7851H9.375C9.03125 7.7851 8.75 8.0354 8.75 8.34133V12.7912C8.75 13.0971 9.03125 13.3474 9.375 13.3474H14.375C14.7187 13.3474 15 13.0971 15 12.7912V8.34133ZM10 8.89756H13.75V12.2349H10V8.89756Z" fill="#282828"/>
</svg>
