<svg width="35" height="35" viewBox="0 0 35 35" fill="none" xmlns="http://www.w3.org/2000/svg">
<g clip-path="url(#clip0)">
<path d="M34.9962 24.1759C34.9963 24.168 34.9971 24.1602 34.9971 24.1523C34.9971 24.1505 34.9969 24.1488 34.9968 24.147C34.9967 24.1341 34.9958 24.1213 34.9948 24.1083C34.9944 24.1021 34.9941 24.0958 34.9934 24.0896C34.9922 24.0785 34.9902 24.0675 34.9883 24.0563C34.987 24.0484 34.9858 24.0404 34.9841 24.0325C34.9822 24.024 34.9798 24.0155 34.9775 24.007C34.9748 23.9968 34.9722 23.9866 34.969 23.9767C34.9669 23.9702 34.9642 23.9637 34.9619 23.9572C34.9576 23.9456 34.9533 23.9342 34.9484 23.923C34.9476 23.9213 34.9471 23.9194 34.9462 23.9176L28.9496 10.7249V8.99568H28.9874C29.6335 8.99568 30.1591 8.47008 30.1591 7.82397V7.73417C30.1591 7.15603 29.7448 6.66958 29.1741 6.57743L19.2736 4.97975V3.9646C19.6494 3.54347 19.8783 2.98868 19.8783 2.38121C19.8783 1.06822 18.8101 0 17.4971 0C16.1841 0 15.1159 1.06822 15.1159 2.38121C15.1159 2.98868 15.3449 3.54347 15.7207 3.9646V4.92464L5.81417 6.57577C5.24691 6.67033 4.83515 7.1564 4.83515 7.73152V7.82397C4.83515 8.47008 5.36076 8.99568 6.00686 8.99568H6.04466V10.7249L0.047945 23.9176C0.0471135 23.9194 0.0465843 23.9213 0.0458284 23.923C0.0409148 23.9341 0.0366059 23.9456 0.0323726 23.9571C0.0299536 23.9636 0.0273835 23.9701 0.0251912 23.9767C0.0219407 23.9866 0.0192949 23.9968 0.0166491 24.007C0.0143813 24.0155 0.0119623 24.024 0.0100725 24.0325C0.00840939 24.0404 0.00719989 24.0484 0.0058392 24.0563C0.00394936 24.0675 0.00198391 24.0785 0.000774412 24.0896C9.40673e-05 24.0958 -0.000132714 24.1022 -0.000661871 24.1084C-0.00164459 24.1213 -0.00247612 24.1341 -0.00262731 24.1469C-0.00262731 24.1487 -0.00292969 24.1505 -0.00292969 24.1522C-0.00292969 24.1602 -0.00209815 24.168 -0.00202256 24.176C-0.00172019 24.1824 -0.00179578 24.1888 -0.00126662 24.1951C0.0341113 26.5271 2.92527 28.3477 6.61161 28.3477C10.2979 28.3477 13.1891 26.5271 13.2244 24.1952C13.2249 24.1889 13.2249 24.1824 13.2252 24.176C13.2252 24.1681 13.2261 24.1603 13.2261 24.1523C13.2261 24.1506 13.2258 24.1489 13.2258 24.1471C13.2257 24.1342 13.2248 24.1214 13.2238 24.1084C13.2234 24.1022 13.2231 24.0959 13.2224 24.0897C13.2212 24.0786 13.2192 24.0675 13.2173 24.0564C13.2159 24.0485 13.2148 24.0405 13.2131 24.0326C13.2112 24.0241 13.2088 24.0156 13.2065 24.0071C13.2038 23.9968 13.2012 23.9866 13.198 23.9767C13.1958 23.9702 13.1932 23.9637 13.1908 23.9572C13.1866 23.9457 13.1823 23.9343 13.1773 23.9231C13.1766 23.9213 13.176 23.9195 13.1752 23.9177L7.17856 10.7249V8.99568H15.7207V21.3133C15.3605 21.5134 15.1159 21.8975 15.1159 22.338V30.6901L11.5245 31.8124C10.7789 32.0455 10.2779 32.7269 10.2779 33.5081V34.433C10.2779 34.7462 10.5317 35 10.8449 35H24.1494C24.4626 35 24.7163 34.7462 24.7163 34.433V33.508C24.7163 32.7268 24.2154 32.0454 23.4698 31.8124L19.8783 30.6901V22.338C19.8783 21.8975 19.6338 21.5134 19.2736 21.3133V8.99568H27.8157V10.7249L21.819 23.9177C21.8181 23.9194 21.8176 23.9213 21.8169 23.9231C21.812 23.9342 21.8076 23.9457 21.8034 23.9572C21.801 23.9637 21.7984 23.9702 21.7962 23.9767C21.793 23.9866 21.7903 23.9968 21.7877 24.0071C21.7854 24.0156 21.783 24.0241 21.7811 24.0326C21.7794 24.0405 21.7782 24.0485 21.7769 24.0564C21.775 24.0675 21.773 24.0786 21.7718 24.0897C21.7711 24.0959 21.7709 24.1022 21.7704 24.1085C21.7694 24.1213 21.7686 24.1342 21.7684 24.147C21.7684 24.1488 21.7681 24.1505 21.7681 24.1523C21.7681 24.1603 21.7689 24.1681 21.769 24.1761C21.7693 24.1824 21.7692 24.1889 21.7698 24.1952C21.8051 26.5271 24.6963 28.3477 28.3826 28.3477C32.069 28.3477 34.9601 26.5271 34.9954 24.1952C34.996 24.1888 34.9959 24.1824 34.9962 24.1759ZM6.61161 12.2179L11.7786 23.5853H1.44462L6.61161 12.2179ZM6.61161 27.2138C3.98639 27.2138 1.72129 26.1191 1.22978 24.7192H11.9935C11.5019 26.1191 9.23683 27.2138 6.61161 27.2138ZM18.7444 22.338V30.54H16.2498V22.338C16.2498 22.3172 16.2668 22.3002 16.2876 22.3002H18.7066C18.7274 22.3002 18.7444 22.3172 18.7444 22.338ZM16.8546 21.1663V4.6736C17.0591 4.73105 17.2745 4.76242 17.4971 4.76242C17.7198 4.76242 17.9351 4.73105 18.1397 4.6736V21.1663H16.8546ZM17.4971 1.13391C18.1849 1.13391 18.7444 1.69346 18.7444 2.38121C18.7444 3.06896 18.1849 3.62851 17.4971 3.62851C16.8094 3.62851 16.2498 3.06896 16.2498 2.38121C16.2498 1.69346 16.8094 1.13391 17.4971 1.13391ZM6.00686 7.86177C5.98607 7.86177 5.96906 7.84484 5.96906 7.82397V7.73152C5.96906 7.71293 5.98237 7.69728 6.00066 7.69425L15.7207 6.07428V7.86177H6.00686ZM23.5824 33.508V33.8661H11.4118V33.508C11.4118 33.2254 11.593 32.9789 11.8627 32.8947L15.7694 31.6739H19.2249L23.1316 32.8947C23.4012 32.979 23.5824 33.2254 23.5824 33.508ZM19.2736 6.1284L28.9934 7.6969C29.0118 7.69985 29.0252 7.71557 29.0252 7.73424V7.82405C29.0252 7.84491 29.0082 7.86185 28.9874 7.86185H19.2736V6.1284ZM28.3826 12.2179L33.5496 23.5853H23.2157L28.3826 12.2179ZM28.3826 27.2138C25.7574 27.2138 23.4923 26.1191 23.0008 24.7192H33.7646C33.273 26.1191 31.0079 27.2138 28.3826 27.2138Z" fill="white"/>
</g>
<defs>
<clipPath id="clip0">
<rect width="35" height="35" fill="white"/>
</clipPath>
</defs>
</svg>
