<svg width="35" height="35" viewBox="0 0 35 35" fill="none" xmlns="http://www.w3.org/2000/svg">
<path d="M25.3409 0H9.65847C4.33279 0 0 4.333 0 9.65868V25.3411C0 30.667 4.33279 34.9998 9.65847 34.9998H25.3409C30.667 34.9998 34.9998 30.6668 34.9998 25.3411V9.65868C35 4.333 30.667 0 25.3409 0ZM31.8946 25.3411C31.8946 28.9547 28.9547 31.8944 25.3411 31.8944H9.65847C6.04508 31.8946 3.10535 28.9547 3.10535 25.3411V9.65868C3.10535 6.04529 6.04508 3.10535 9.65847 3.10535H25.3409C28.9545 3.10535 31.8944 6.04529 31.8944 9.65868V25.3411H31.8946Z" fill="white"/>
<path d="M17.5 8.48169C12.5271 8.48169 8.48145 12.5273 8.48145 17.5003C8.48145 22.473 12.5271 26.5184 17.5 26.5184C22.4729 26.5184 26.5186 22.473 26.5186 17.5003C26.5186 12.5273 22.4729 8.48169 17.5 8.48169ZM17.5 23.4128C14.2396 23.4128 11.5868 20.7605 11.5868 17.5C11.5868 14.2394 14.2394 11.5868 17.5 11.5868C20.7606 11.5868 23.4132 14.2394 23.4132 17.5C23.4132 20.7605 20.7604 23.4128 17.5 23.4128Z" fill="white"/>
<path d="M26.8964 5.84863C26.2981 5.84863 25.7104 6.09085 25.2878 6.51525C24.8632 6.93758 24.6191 7.52552 24.6191 8.12589C24.6191 8.7244 24.8634 9.31213 25.2878 9.73653C25.7102 10.1589 26.2981 10.4031 26.8964 10.4031C27.4968 10.4031 28.0826 10.1589 28.507 9.73653C28.9314 9.31213 29.1737 8.72419 29.1737 8.12589C29.1737 7.52552 28.9314 6.93758 28.507 6.51525C28.0847 6.09085 27.4968 5.84863 26.8964 5.84863Z" fill="white"/>
</svg>
