<svg width="12" height="20" viewBox="0 0 12 20" fill="none" xmlns="http://www.w3.org/2000/svg">
<path d="M9.87027 0H1.45543C0.650098 0 0 0.653014 0 1.45689V18.5446C0 19.3477 0.650098 20 1.45543 20H9.87027C10.6741 20 11.3257 19.3477 11.3257 18.5446V1.45689C11.3257 0.653014 10.6741 0 9.87027 0ZM3.58647 0.884775H7.74069C7.84564 0.884775 7.93091 1.04147 7.93091 1.23533C7.93091 1.4292 7.84564 1.58662 7.74069 1.58662H3.58647C3.4808 1.58662 3.39698 1.4292 3.39698 1.23533C3.39698 1.04147 3.4808 0.884775 3.58647 0.884775ZM5.66358 18.5621C5.15123 18.5621 4.73435 18.1452 4.73435 17.6321C4.73435 17.119 5.15123 16.7036 5.66358 16.7036C6.17448 16.7036 6.59136 17.119 6.59136 17.6321C6.59136 18.1452 6.17448 18.5621 5.66358 18.5621ZM10.2354 15.3779H1.09103V2.45828H10.2354V15.3779Z" fill="white"/>
</svg>
