<svg width="24" height="22" viewBox="0 0 24 22" fill="none" xmlns="http://www.w3.org/2000/svg">
<path d="M22.9669 3.76613C22.5483 3.25742 21.9133 2.97427 21.2542 2.97427H6.95083C6.54188 2.97427 6.15219 3.08945 5.81541 3.29581L5.08413 0.747467C4.96385 0.329941 4.58378 0.0419922 4.15078 0.0419922H3.03942H0.917735C0.513605 0.0419922 0.181641 0.368334 0.181641 0.776262V0.853048C0.181641 1.25618 0.508794 1.58732 0.917735 1.58732H3.69854L5.11781 6.59283L7.0711 13.4988C5.95974 13.7772 5.13705 14.7802 5.13705 15.9704C5.13705 17.3189 6.19068 18.4275 7.52334 18.5139C7.41269 18.8307 7.35977 19.181 7.38863 19.5409C7.48485 20.7599 8.48075 21.7437 9.70276 21.8253C11.1605 21.9261 12.3777 20.7695 12.3777 19.3394C12.3777 19.0514 12.3296 18.7779 12.2382 18.5187H15.1633C15.0431 18.8594 14.9949 19.2386 15.0382 19.6273C15.173 20.8079 16.1496 21.7389 17.3428 21.8253C18.8005 21.9261 20.0225 20.7743 20.0225 19.3394C20.0225 17.9524 18.8679 16.8438 17.4823 16.8438H7.71098C7.23468 16.8438 6.83055 16.4743 6.8113 16.004C6.79206 15.5048 7.19138 15.0969 7.68692 15.0969H9.1543H17.107H19.3442C20.3352 15.0969 21.2012 14.4202 21.4418 13.4604L23.3855 5.65699C23.5539 4.98511 23.3999 4.29884 22.9669 3.76613ZM17.5256 18.5139C17.9778 18.5139 18.3483 18.8834 18.3483 19.3346C18.3483 19.7857 17.9778 20.1552 17.5256 20.1552C17.0733 20.1552 16.7029 19.7857 16.7029 19.3346C16.7029 18.8834 17.0685 18.5139 17.5256 18.5139ZM9.88077 18.5139C10.333 18.5139 10.7035 18.8834 10.7035 19.3346C10.7035 19.7857 10.333 20.1552 9.88077 20.1552C9.42853 20.1552 9.05808 19.7857 9.05808 19.3346C9.05808 18.8834 9.42372 18.5139 9.88077 18.5139ZM6.85942 6.58323L6.48415 5.26346C6.42642 5.0619 6.50821 4.91313 6.56594 4.84114C6.61886 4.76915 6.74395 4.64917 6.95083 4.64917H8.51924L8.94742 6.58803H6.85942V6.58323ZM7.3309 8.25333H9.31306L9.70757 10.0482H7.83606L7.3309 8.25333ZM9.1543 13.4172C8.9378 13.4172 8.74536 13.2732 8.68762 13.0621L8.30755 11.7183H10.0732L10.4485 13.4124H9.1543V13.4172ZM13.3447 13.4172H12.1612L11.786 11.7231H13.3399V13.4172H13.3447ZM13.3447 10.0482H11.4203L11.0258 8.25333H13.3447V10.0482ZM13.3447 6.58323H10.6602L10.232 4.64437H13.3447V6.58323ZM16.3469 13.4172H15.0238V11.7231H16.7029L16.3469 13.4172ZM17.0589 10.0482H15.0238V8.25333H17.439L17.0589 10.0482ZM15.0238 6.58323V4.64437H18.1991L17.7902 6.58323H15.0238ZM19.8205 13.0525C19.7675 13.2684 19.5751 13.422 19.349 13.422H18.0596L18.4204 11.7279H20.1524L19.8205 13.0525ZM20.5662 10.0482H18.7716L19.1517 8.25333H21.0136L20.5662 10.0482ZM21.7593 5.24427L21.4274 6.57843H19.5029L19.9119 4.63957H21.2878C21.4947 4.63957 21.615 4.75475 21.6679 4.82674C21.7256 4.89873 21.8122 5.0475 21.7593 5.24427Z" fill="white"/>
</svg>
