<svg width="16" height="16" viewBox="0 0 16 16" fill="none" xmlns="http://www.w3.org/2000/svg">
<path d="M0.417641 7.88056C0.417641 7.61691 0.631611 7.40294 0.895252 7.40294H10.0683L8.03579 5.41608C7.84928 5.22957 7.84928 4.94993 8.03579 4.76342C8.22206 4.57692 8.52463 4.58814 8.71113 4.77465L11.7712 7.84044C11.8607 7.92999 11.9111 8.05441 11.9111 8.18097C11.9111 8.30754 11.8607 8.43053 11.7712 8.52008L8.71089 11.5804C8.61752 11.6737 8.49549 11.7206 8.37322 11.7206C8.25095 11.7206 8.12868 11.6742 8.03531 11.5809C7.8488 11.3943 7.8488 11.0466 8.03531 10.8601L10.4924 8.35817H0.895252C0.631611 8.35817 0.417641 8.1442 0.417641 7.88056Z" fill="white"/>
<path d="M5.07457 14.1567V11.3149C5.07457 11.0512 5.28854 10.8373 5.55218 10.8373C5.81582 10.8373 6.02979 11.0512 6.02979 11.3149V14.1567C6.02979 14.7993 6.516 15.0448 7.11421 15.0448H13.3234C13.8937 15.0448 14.6268 14.8294 14.6268 14.1567V2.27845C14.6268 1.63367 13.9431 0.955224 13.3234 0.955224H7.11421C6.49522 0.955224 6.02979 1.64513 6.02979 2.27845V5.10591C6.02979 5.36955 5.81582 5.58352 5.55218 5.58352C5.28854 5.58352 5.07457 5.36955 5.07457 5.10591V2.27845C5.07457 1.11307 5.96412 0 7.11421 0H13.3234C14.463 0 15.582 1.11307 15.582 2.27845V14.1567C15.582 15.2592 14.543 16 13.3234 16H7.11421C5.8834 16 5.07457 15.2592 5.07457 14.1567Z" fill="white"/>
</svg>
