<svg width="15" height="15" viewBox="0 0 15 15" fill="none" xmlns="http://www.w3.org/2000/svg">
<path d="M6.25 0.729187C6.25 0.385437 5.96875 0.104187 5.625 0.104187H0.625C0.28125 0.104187 0 0.385437 0 0.729187V5.72919C0 6.07294 0.28125 6.35419 0.625 6.35419H5.625C5.96875 6.35419 6.25 6.07294 6.25 5.72919V0.729187ZM1.25 1.35419H5V5.10419H1.25V1.35419Z" fill="#232323"/>
<path d="M15 0.729187C15 0.385437 14.7187 0.104187 14.375 0.104187H9.375C9.03125 0.104187 8.75 0.385437 8.75 0.729187V5.72919C8.75 6.07294 9.03125 6.35419 9.375 6.35419H14.375C14.7187 6.35419 15 6.07294 15 5.72919V0.729187ZM10 1.35419H13.75V5.10419H10V1.35419Z" fill="#232323"/>
<path d="M6.25 9.27087C6.25 8.92712 5.96875 8.64587 5.625 8.64587H0.625C0.28125 8.64587 0 8.92712 0 9.27087V14.2709C0 14.6146 0.28125 14.8959 0.625 14.8959H5.625C5.96875 14.8959 6.25 14.6146 6.25 14.2709V9.27087ZM1.25 9.89587H5V13.6459H1.25V9.89587Z" fill="#232323"/>
<path d="M15 9.27087C15 8.92712 14.7187 8.64587 14.375 8.64587H9.375C9.03125 8.64587 8.75 8.92712 8.75 9.27087V14.2709C8.75 14.6146 9.03125 14.8959 9.375 14.8959H14.375C14.7187 14.8959 15 14.6146 15 14.2709V9.27087ZM10 9.89587H13.75V13.6459H10V9.89587Z" fill="#232323"/>
</svg>
