<svg width="36" height="35" viewBox="0 0 36 35" fill="none" xmlns="http://www.w3.org/2000/svg">
<g clip-path="url(#clip0)">
<path d="M25.5245 0H9.84206C4.51639 0 0.183594 4.333 0.183594 9.65868V25.3411C0.183594 30.667 4.51639 34.9998 9.84206 34.9998H25.5245C30.8506 34.9998 35.1834 30.6668 35.1834 25.3411V9.65868C35.1836 4.333 30.8506 0 25.5245 0ZM32.0782 25.3411C32.0782 28.9547 29.1383 31.8944 25.5247 31.8944H9.84206C6.22868 31.8946 3.28894 28.9547 3.28894 25.3411V9.65868C3.28894 6.04529 6.22868 3.10535 9.84206 3.10535H25.5245C29.1381 3.10535 32.078 6.04529 32.078 9.65868V25.3411H32.0782Z" fill="white"/>
</g>
<path d="M11.8506 8.3335V26.2543L27.7148 17.1469L11.8506 8.3335ZM14.4873 12.8145L22.3535 17.1847L14.4873 21.7004V12.8145Z" fill="white"/>
<defs>
<clipPath id="clip0">
<rect width="35" height="35" fill="white" transform="translate(0.183594)"/>
</clipPath>
</defs>
</svg>
