<svg width="23" height="23" viewBox="0 0 23 23" fill="none" xmlns="http://www.w3.org/2000/svg">
<g clip-path="url(#clip0)">
<path d="M19.9005 0H3.0993C1.38764 0 0 1.38758 0 3.0993V19.9006C0 21.6123 1.38758 22.9999 3.0993 22.9999H11.3856L11.3997 14.781H9.26441C8.98692 14.781 8.76169 14.5566 8.76062 14.2791L8.75038 11.6298C8.74932 11.3508 8.97521 11.124 9.25423 11.124H11.3856V8.56415C11.3856 5.59342 13.2 3.97583 15.85 3.97583H18.0246C18.3029 3.97583 18.5285 4.20139 18.5285 4.47967V6.71358C18.5285 6.99174 18.303 7.21725 18.0249 7.21742L16.6904 7.21804C15.2492 7.21804 14.9701 7.90288 14.9701 8.90792V11.1241H18.1369C18.4387 11.1241 18.6728 11.3876 18.6372 11.6872L18.3232 14.3365C18.2932 14.5901 18.0782 14.7811 17.8229 14.7811H14.9843L14.9701 23H19.9006C21.6123 23 22.9998 21.6124 22.9998 19.9008V3.0993C22.9998 1.38758 21.6122 0 19.9005 0Z" fill="#475993"/>
</g>
<defs>
<clipPath id="clip0">
<rect width="23" height="23" fill="white"/>
</clipPath>
</defs>
</svg>
