<svg width="23" height="23" viewBox="0 0 23 23" fill="none" xmlns="http://www.w3.org/2000/svg">
<g clip-path="url(#clip0)">
<path d="M5.09729 13.8994L4.29669 16.8881L1.37052 16.95C0.496027 15.328 0 13.4722 0 11.5002C0 9.59319 0.463773 7.79488 1.28584 6.21143H1.28647L3.89158 6.68903L5.03278 9.27851C4.79393 9.97485 4.66374 10.7223 4.66374 11.5002C4.66383 12.3443 4.81675 13.1532 5.09729 13.8994Z" fill="#FBBB00"/>
<path d="M22.7982 9.35193C22.9303 10.0476 22.9991 10.766 22.9991 11.5003C22.9991 12.3236 22.9126 13.1267 22.7477 13.9014C22.1878 16.5375 20.7251 18.8394 18.6987 20.4684L18.698 20.4678L15.4168 20.3003L14.9524 17.4013C16.297 16.6127 17.3478 15.3787 17.9013 13.9014H11.752V9.35193H17.991H22.7982Z" fill="#518EF8"/>
<path d="M18.6994 20.4677L18.7001 20.4683C16.7293 22.0524 14.2258 23.0002 11.5006 23.0002C7.12109 23.0002 3.31347 20.5523 1.37109 16.9501L5.09786 13.8994C6.06902 16.4913 8.56933 18.3364 11.5006 18.3364C12.7605 18.3364 13.9409 17.9958 14.9537 17.4012L18.6994 20.4677Z" fill="#28B446"/>
<path d="M18.8397 2.64752L15.1142 5.69753C14.066 5.0423 12.8268 4.66379 11.4993 4.66379C8.50172 4.66379 5.95465 6.5935 5.03214 9.27834L1.28579 6.21126H1.28516C3.1991 2.52115 7.05474 0 11.4993 0C14.2896 0 16.8481 0.993941 18.8397 2.64752Z" fill="#F14336"/>
</g>
<defs>
<clipPath id="clip0">
<rect width="23" height="23" fill="white"/>
</clipPath>
</defs>
</svg>
