<svg width="16" height="16" viewBox="0 0 16 16" fill="none" xmlns="http://www.w3.org/2000/svg">
<path d="M0.418617 7.88056C0.418617 7.61691 0.632587 7.40294 0.896229 7.40294H10.0692L8.03677 5.41608C7.85026 5.22957 7.85026 4.94993 8.03677 4.76342C8.22303 4.57692 8.5256 4.58814 8.71211 4.77465L11.7722 7.84044C11.8617 7.92999 11.9121 8.05441 11.9121 8.18097C11.9121 8.30754 11.8617 8.43053 11.7722 8.52008L8.71187 11.5804C8.6185 11.6737 8.49647 11.7206 8.3742 11.7206C8.25193 11.7206 8.12966 11.6742 8.03629 11.5809C7.84978 11.3943 7.84978 11.0466 8.03629 10.8601L10.4934 8.35817H0.896229C0.632587 8.35817 0.418617 8.1442 0.418617 7.88056Z" fill="white"/>
<path d="M5.07457 14.1567V11.3149C5.07457 11.0512 5.28854 10.8373 5.55218 10.8373C5.81582 10.8373 6.02979 11.0512 6.02979 11.3149V14.1567C6.02979 14.7993 6.516 15.0448 7.11421 15.0448H13.3234C13.8937 15.0448 14.6268 14.8294 14.6268 14.1567V2.27845C14.6268 1.63367 13.9431 0.955224 13.3234 0.955224H7.11421C6.49522 0.955224 6.02979 1.64513 6.02979 2.27845V5.10591C6.02979 5.36955 5.81582 5.58352 5.55218 5.58352C5.28854 5.58352 5.07457 5.36955 5.07457 5.10591V2.27845C5.07457 1.11307 5.96412 0 7.11421 0H13.3234C14.463 0 15.582 1.11307 15.582 2.27845V14.1567C15.582 15.2592 14.543 16 13.3234 16H7.11421C5.8834 16 5.07457 15.2592 5.07457 14.1567Z" fill="white"/>
</svg>
