<svg width="15" height="15" viewBox="0 0 15 15" fill="none" xmlns="http://www.w3.org/2000/svg">
<g clip-path="url(#clip0)">
<path d="M14.3291 9.85638C14.3291 9.85317 14.3294 9.85002 14.3294 9.84681C14.3294 9.84611 14.3294 9.84541 14.3293 9.84467C14.3293 9.83948 14.3289 9.83429 14.3285 9.82906C14.3283 9.82652 14.3282 9.82399 14.3279 9.82148C14.3275 9.81699 14.3267 9.81253 14.3259 9.80804C14.3254 9.80483 14.3249 9.80159 14.3242 9.79841C14.3234 9.79496 14.3224 9.79154 14.3215 9.78809C14.3204 9.78396 14.3194 9.77984 14.3181 9.77583C14.3172 9.77321 14.3162 9.77058 14.3152 9.76795C14.3135 9.76328 14.3118 9.75866 14.3097 9.75414C14.3094 9.75344 14.3092 9.7527 14.3089 9.75197L11.8851 4.41954V3.7206H11.9004C12.1615 3.7206 12.3739 3.50815 12.3739 3.247V3.2107C12.3739 2.97702 12.2065 2.7804 11.9758 2.74316L7.97408 2.09738V1.68707C8.12597 1.51684 8.21852 1.2926 8.21852 1.04707C8.21852 0.516363 7.78675 0.0845947 7.25605 0.0845947C6.72534 0.0845947 6.29358 0.516363 6.29358 1.04707C6.29358 1.2926 6.38613 1.51684 6.53801 1.68707V2.07511L2.53386 2.74248C2.30458 2.78071 2.13814 2.97717 2.13814 3.20964V3.247C2.13814 3.50815 2.35059 3.7206 2.61174 3.7206H2.62702V4.41954L0.20318 9.75197C0.202844 9.75267 0.20263 9.75344 0.202325 9.75414C0.200339 9.75863 0.198597 9.76328 0.196886 9.76792C0.195908 9.77055 0.19487 9.77318 0.193984 9.77583C0.19267 9.77984 0.1916 9.78396 0.190531 9.78809C0.189614 9.79154 0.188636 9.79496 0.187873 9.79841C0.1872 9.80159 0.186712 9.80483 0.186162 9.80804C0.185398 9.81253 0.184603 9.81699 0.184114 9.82148C0.183839 9.82399 0.183748 9.82656 0.183534 9.82909C0.183137 9.83429 0.182801 9.83948 0.182739 9.84464C0.182739 9.84538 0.182617 9.84608 0.182617 9.84678C0.182617 9.85002 0.182953 9.85317 0.182984 9.85641C0.183106 9.85897 0.183076 9.86157 0.183289 9.86414C0.197589 10.8067 1.36618 11.5426 2.85618 11.5426C4.34618 11.5426 5.51477 10.8067 5.52904 9.86417C5.52925 9.8616 5.52922 9.859 5.52934 9.85641C5.52937 9.8532 5.52971 9.85005 5.52971 9.84684C5.52971 9.84614 5.52962 9.84544 5.52959 9.8447C5.52956 9.83951 5.52919 9.83432 5.52879 9.82909C5.52861 9.82656 5.52849 9.82402 5.52821 9.82151C5.52772 9.81702 5.52693 9.81256 5.52617 9.80807C5.52562 9.80486 5.52516 9.80162 5.52445 9.79844C5.52369 9.79499 5.52271 9.79157 5.5218 9.78812C5.5207 9.78399 5.51966 9.77987 5.51834 9.77586C5.51749 9.77324 5.51642 9.77061 5.51547 9.76798C5.51376 9.76331 5.51202 9.75869 5.51 9.75417C5.5097 9.75347 5.50948 9.75274 5.50915 9.752L3.08534 4.41954V3.7206H6.53801V8.69933C6.39242 8.78021 6.29358 8.93546 6.29358 9.1135V12.4894L4.84192 12.943C4.54056 13.0372 4.33808 13.3126 4.33808 13.6284V14.0022C4.33808 14.1288 4.44065 14.2314 4.56724 14.2314H9.94485C10.0714 14.2314 10.174 14.1288 10.174 14.0022V13.6284C10.174 13.3126 9.97153 13.0372 9.67017 12.943L8.21852 12.4894V9.1135C8.21852 8.93546 8.11967 8.78021 7.97408 8.69933V3.7206H11.4268V4.41954L9.00292 9.752C9.00258 9.7527 9.00237 9.75347 9.00206 9.75417C9.00008 9.75866 8.99833 9.76331 8.99662 9.76795C8.99564 9.77058 8.99461 9.77321 8.99372 9.77586C8.99241 9.77987 8.99134 9.78399 8.99027 9.78812C8.98935 9.79157 8.98837 9.79499 8.98761 9.79844C8.98694 9.80162 8.98645 9.80486 8.9859 9.80807C8.98513 9.81256 8.98434 9.81702 8.98385 9.82151C8.98357 9.82402 8.98348 9.82658 8.98327 9.82912C8.98287 9.83432 8.98254 9.83951 8.98248 9.84467C8.98248 9.84541 8.98235 9.84611 8.98235 9.84681C8.98235 9.85005 8.98269 9.8532 8.98272 9.85644C8.98284 9.859 8.98281 9.8616 8.98302 9.86417C8.99732 10.8067 10.1659 11.5426 11.6559 11.5426C13.1459 11.5426 14.3145 10.8067 14.3288 9.86417C14.329 9.86157 14.329 9.85897 14.3291 9.85638ZM2.85618 5.02299L4.94465 9.61765H0.767708L2.85618 5.02299ZM2.85618 11.0843C1.79508 11.0843 0.879538 10.6418 0.680872 10.076H5.03152C4.83282 10.6418 3.91728 11.0843 2.85618 11.0843ZM7.7602 9.1135V12.4287H6.75189V9.1135C6.75189 9.10507 6.75877 9.09822 6.76717 9.09822H7.74492C7.75332 9.09822 7.7602 9.10507 7.7602 9.1135ZM6.99633 8.6399V1.97364C7.07901 1.99686 7.16606 2.00954 7.25605 2.00954C7.34603 2.00954 7.43308 1.99686 7.51576 1.97364V8.6399H6.99633ZM7.25605 0.542915C7.53403 0.542915 7.7602 0.769081 7.7602 1.04707C7.7602 1.32505 7.53403 1.55122 7.25605 1.55122C6.97806 1.55122 6.75189 1.32505 6.75189 1.04707C6.75189 0.769081 6.97806 0.542915 7.25605 0.542915ZM2.61174 3.26228C2.60334 3.26228 2.59646 3.25544 2.59646 3.247V3.20964C2.59646 3.20212 2.60184 3.19579 2.60924 3.19457L6.53801 2.53978V3.26228H2.61174ZM9.71569 13.6284V13.7731H4.7964V13.6284C4.7964 13.5141 4.86964 13.4145 4.97866 13.3805L6.55772 12.887H7.9544L9.53347 13.3805C9.64246 13.4145 9.71569 13.5141 9.71569 13.6284ZM7.97408 2.56166L11.9028 3.19564C11.9102 3.19683 11.9156 3.20319 11.9156 3.21074V3.24703C11.9156 3.25547 11.9088 3.26231 11.9004 3.26231H7.97408V2.56166ZM11.6559 5.02299L13.7444 9.61765H9.56744L11.6559 5.02299ZM11.6559 11.0843C10.5948 11.0843 9.67927 10.6418 9.48061 10.076H13.8313C13.6326 10.6418 12.717 11.0843 11.6559 11.0843Z" fill="black"/>
</g>
<defs>
<clipPath id="clip0">
<rect x="0.183594" y="0.0845947" width="14.1468" height="14.1468" fill="white"/>
</clipPath>
</defs>
</svg>
