<svg width="24" height="24" viewBox="0 0 24 24" fill="none" xmlns="http://www.w3.org/2000/svg">
<g opacity="0.1">
<g clip-path="url(#clip0)">
<path d="M16.2551 19.059C17.511 19.059 18.5385 20.0865 18.5385 21.3424C18.5385 22.5983 17.511 23.6259 16.2551 23.6259C14.9992 23.6259 13.9716 22.5983 13.9716 21.3424C13.9716 20.0865 14.9992 19.059 16.2551 19.059ZM23.1055 0.79126V3.07472H20.822L16.7118 11.7519L18.3102 14.492C18.4244 14.8346 18.5385 15.2913 18.5385 15.6338C18.5385 16.8897 17.511 17.9172 16.2551 17.9172H2.55429V15.6338H15.7984C15.9126 15.6338 16.0267 15.5196 16.0267 15.4054V15.2912L14.9992 13.3503H6.55035C5.63697 13.3503 4.95193 12.8936 4.60941 12.2085L0.499172 4.78732C0.270826 4.55898 0.270826 4.4448 0.270826 4.21646C0.270826 3.53142 0.727518 3.07472 1.41256 3.07472H18.3102L19.3378 0.79126H23.1055ZM4.83776 19.059C6.09366 19.059 7.12122 20.0865 7.12122 21.3424C7.12122 22.5983 6.09366 23.6259 4.83776 23.6259C3.58185 23.6259 2.55429 22.5983 2.55429 21.3424C2.55429 20.0865 3.58185 19.059 4.83776 19.059Z" fill="black"/>
</g>
</g>
<defs>
<clipPath id="clip0">
<rect width="22.8346" height="22.8346" transform="matrix(-1 0 0 1 23.1055 0.79126)" fill="white"/>
</clipPath>
</defs>
</svg>
