<svg width="15" height="15" viewBox="0 0 15 15" fill="none" xmlns="http://www.w3.org/2000/svg">
<path d="M7.5 15C3.36447 15 0 11.6355 0 7.5C0 3.36447 3.36447 -9.53674e-07 7.5 -9.53674e-07C11.6355 -9.53674e-07 15 3.36447 15 7.5C15 11.6355 11.6355 15 7.5 15ZM7.5 1.17302C4.01127 1.17302 1.17302 4.01127 1.17302 7.5C1.17302 10.9887 4.01127 13.827 7.5 13.827C10.9887 13.827 13.827 10.9887 13.827 7.5C13.827 4.01127 10.9887 1.17302 7.5 1.17302Z" fill="#232323"/>
<path d="M3.88857 7.19634L5.23395 8.03568C5.46293 8.17856 5.4049 8.52694 5.14199 8.58779L4.625 8.70751C5.08795 9.87178 6.22539 10.6786 7.53245 10.6786C8.81668 10.6786 9.95654 9.90892 10.4362 8.71783C10.5572 8.41738 10.899 8.27201 11.1994 8.39291C11.4999 8.51389 11.6454 8.85563 11.5243 9.15608C10.8649 10.7935 9.29793 11.8517 7.53245 11.8517C5.67384 11.8517 4.0646 10.6648 3.4727 8.97449L2.95719 9.09391C2.69428 9.15482 2.489 8.86743 2.63179 8.63846L3.47113 7.29308C3.55973 7.15107 3.74656 7.10774 3.88857 7.19634Z" fill="#232323"/>
<path d="M12.3708 6.12687L11.5572 7.48797C11.4713 7.63155 11.2853 7.67839 11.1417 7.59252L9.78057 6.77891C9.54894 6.64042 9.60032 6.29101 9.86206 6.22517L10.3821 6.09426C9.86511 5.01148 8.7559 4.2993 7.50303 4.32205C6.26964 4.34442 5.16082 5.09265 4.67823 6.22845C4.55155 6.52656 4.20723 6.66568 3.90904 6.53891C3.61094 6.41223 3.47197 6.06791 3.59858 5.76972C4.26189 4.20858 5.78619 3.17992 7.48176 3.14919C7.50858 3.14872 7.53509 3.14848 7.56176 3.14848C9.33498 3.14848 10.8842 4.21734 11.536 5.80374L12.0366 5.67768C12.2985 5.61176 12.5093 5.89516 12.3708 6.12687Z" fill="#232323"/>
</svg>
