<svg width="16" height="16" viewBox="0 0 16 16" fill="none" xmlns="http://www.w3.org/2000/svg">
<g clip-path="url(#clip0)">
<path d="M10.3069 5.71157C9.54412 4.2949 8.01848 1.39618 8.01848 1.13464L5.73002 5.38464L0.826172 6.36541L4.42233 9.96157L3.76848 14.8654L8.01848 12.577L12.9223 15.1923L11.6146 10.2885L15.5377 6.36541L10.3069 5.71157Z" fill="#232323"/>
<path d="M3.40615 15.4545C3.34808 15.4545 3.29002 15.4366 3.24121 15.4009C3.15482 15.3381 3.11162 15.2318 3.12985 15.1266L3.99688 10.0725L0.324837 6.49361C0.248541 6.419 0.221051 6.30764 0.25387 6.20638C0.286969 6.10483 0.374766 6.03078 0.480515 6.01535L5.55479 5.27792L7.82433 0.679652C7.87145 0.583721 7.96907 0.523132 8.07566 0.523132C8.18253 0.523132 8.28014 0.583721 8.32699 0.679652L10.5962 5.27792L15.6708 6.01535C15.7765 6.03078 15.8641 6.10455 15.8974 6.20638C15.9303 6.30764 15.9031 6.41928 15.8265 6.49361L12.1544 10.0731L13.0212 15.1269C13.0391 15.2321 12.9959 15.3384 12.9098 15.4012C12.8234 15.4646 12.7087 15.4727 12.6142 15.4225L8.07566 13.0366L3.53658 15.4225C3.49563 15.4439 3.45075 15.4545 3.40615 15.4545ZM1.12343 6.48856L4.49393 9.77408C4.55985 9.83831 4.59014 9.93144 4.57444 10.0223L3.77865 14.6613L7.94522 12.4711C8.02685 12.4279 8.12418 12.4279 8.20637 12.4711L12.3724 14.6613L11.5769 10.0223C11.5612 9.93144 11.5915 9.83859 11.6574 9.77408L15.0279 6.48856L10.3702 5.81171C10.2787 5.79853 10.1999 5.74102 10.1589 5.65828L8.07566 1.43785L5.99237 5.65856C5.95142 5.7413 5.8726 5.79881 5.78115 5.81199L1.12343 6.48856Z" fill="#232323"/>
</g>
<defs>
<clipPath id="clip0">
<rect x="0.240234" y="0.153809" width="15.6708" height="15.6708" fill="white"/>
</clipPath>
</defs>
</svg>
