<svg width="15" height="15" viewBox="0 0 15 15" fill="none" xmlns="http://www.w3.org/2000/svg">
<g clip-path="url(#clip0)">
<path d="M3.61975 13.8973C3.56733 13.8973 3.51491 13.8811 3.47085 13.8489C3.39286 13.7922 3.35386 13.6963 3.37032 13.6013L4.15304 9.03872L0.838094 5.80785C0.769217 5.74049 0.744401 5.63997 0.774028 5.54855C0.803909 5.45688 0.883168 5.39003 0.978633 5.37611L5.55944 4.71038L7.60827 0.559298C7.65081 0.472695 7.73893 0.417999 7.83515 0.417999C7.93163 0.417999 8.01975 0.472695 8.06204 0.559298L10.1106 4.71038L14.6917 5.37611C14.7871 5.39003 14.8661 5.45663 14.8963 5.54855C14.9259 5.63997 14.9013 5.74075 14.8322 5.80785L11.5173 9.03923L12.2997 13.6016C12.3159 13.6965 12.2769 13.7925 12.1992 13.8492C12.1212 13.9064 12.0176 13.9138 11.9323 13.8684L7.83515 11.7145L3.7375 13.8684C3.70053 13.8877 3.66001 13.8973 3.61975 13.8973ZM1.55902 5.80329L4.60175 8.7693C4.66126 8.82728 4.6886 8.91135 4.67442 8.9934L3.95603 13.1812L7.7174 11.204C7.79109 11.165 7.87896 11.165 7.95316 11.204L11.714 13.1812L10.9959 8.9934C10.9817 8.91135 11.0091 8.82754 11.0686 8.7693L14.1113 5.80329L9.90652 5.19227C9.82397 5.18037 9.75281 5.12846 9.71584 5.05375L7.83515 1.24376L5.95447 5.05401C5.9175 5.12871 5.84634 5.18062 5.76379 5.19252L1.55902 5.80329Z" fill="black"/>
</g>
<defs>
<clipPath id="clip0">
<rect x="0.761719" y="0.0845947" width="14.1468" height="14.1468" fill="white"/>
</clipPath>
</defs>
</svg>
