<svg width="27" height="27" viewBox="0 0 27 27" fill="none" xmlns="http://www.w3.org/2000/svg">
<path d="M13.4017 14.5484C13.4296 14.5484 13.4576 14.5484 13.4911 14.5484C13.5023 14.5484 13.5135 14.5484 13.5247 14.5484C13.5415 14.5484 13.5638 14.5484 13.5806 14.5484C15.2188 14.5204 16.5439 13.9445 17.5224 12.843C19.675 10.4164 19.3172 6.25658 19.2781 5.8596C19.1383 2.87948 17.7293 1.45372 16.5663 0.788362C15.6997 0.290743 14.6877 0.0223649 13.5582 0H13.5191C13.5135 0 13.5023 0 13.4967 0H13.4632C12.8426 0 11.6237 0.100642 10.4551 0.765997C9.28095 1.43135 7.8496 2.85711 7.70982 5.8596C7.67068 6.25658 7.31284 10.4164 9.46546 12.843C10.4383 13.9445 11.7635 14.5204 13.4017 14.5484ZM9.20268 5.99938C9.20268 5.98261 9.20827 5.96583 9.20827 5.95465C9.39278 1.94574 12.2387 1.51522 13.4576 1.51522H13.48C13.4911 1.51522 13.5079 1.51522 13.5247 1.51522C15.0343 1.54877 17.6007 2.1638 17.774 5.95465C17.774 5.97142 17.774 5.9882 17.7796 5.99938C17.7852 6.03852 18.1766 9.84055 16.3986 11.8422C15.6941 12.6362 14.7548 13.0275 13.5191 13.0387C13.5079 13.0387 13.5023 13.0387 13.4911 13.0387C13.48 13.0387 13.4744 13.0387 13.4632 13.0387C12.2331 13.0275 11.2882 12.6362 10.5893 11.8422C8.81688 9.85173 9.19708 6.03293 9.20268 5.99938Z" fill="#DADADA"/>
<path d="M24.9813 21.4481C24.9813 21.4425 24.9813 21.437 24.9813 21.4314C24.9813 21.3866 24.9757 21.3419 24.9757 21.2916C24.9421 20.1845 24.8694 17.5958 22.4429 16.7683C22.4261 16.7627 22.4037 16.7571 22.3869 16.7515C19.8653 16.1085 17.7686 14.6548 17.7462 14.638C17.4052 14.3976 16.9355 14.4815 16.6951 14.8225C16.4547 15.1636 16.5385 15.6333 16.8796 15.8737C16.9746 15.9408 19.1999 17.4895 21.9844 18.2052C23.2871 18.6693 23.4325 20.0615 23.4716 21.3363C23.4716 21.3866 23.4716 21.4314 23.4772 21.4761C23.4828 21.9793 23.4493 22.7565 23.3598 23.2038C22.454 23.7182 18.9036 25.4962 13.5025 25.4962C8.12374 25.4962 4.55095 23.7126 3.63958 23.1982C3.55012 22.7509 3.51098 21.9737 3.52216 21.4705C3.52216 21.4258 3.52775 21.381 3.52775 21.3307C3.56689 20.0559 3.71226 18.6637 5.01502 18.1996C7.79944 17.484 10.0248 15.9296 10.1198 15.8681C10.4609 15.6277 10.5447 15.158 10.3043 14.8169C10.0639 14.4759 9.59423 14.392 9.25316 14.6324C9.2308 14.6492 7.14527 16.1029 4.61245 16.7459C4.59008 16.7515 4.57331 16.7571 4.55654 16.7627C2.12995 17.5958 2.05726 20.1845 2.02371 21.286C2.02371 21.3363 2.02371 21.381 2.01812 21.4258C2.01812 21.4314 2.01812 21.437 2.01812 21.4425C2.01253 21.7333 2.00694 23.2261 2.30328 23.9754C2.35919 24.1207 2.45983 24.2437 2.59402 24.3276C2.76176 24.4394 6.78184 27.0002 13.5081 27.0002C20.2343 27.0002 24.2544 24.4338 24.4221 24.3276C24.5507 24.2437 24.657 24.1207 24.7129 23.9754C24.9924 23.2317 24.9869 21.7389 24.9813 21.4481Z" fill="#DADADA"/>
</svg>
