<svg width="25" height="24" viewBox="0 0 25 24" fill="none" xmlns="http://www.w3.org/2000/svg">
<path d="M5.4455 23.4007C5.3567 23.4007 5.26789 23.3732 5.19325 23.3187C5.06111 23.2226 4.99505 23.0601 5.02293 22.8992L6.34898 15.1694L0.732908 9.69577C0.616219 9.58166 0.574177 9.41134 0.62437 9.25647C0.674993 9.10117 0.80927 8.98792 0.971004 8.96432L8.73166 7.83647L12.2027 0.803836C12.2748 0.657118 12.4241 0.564453 12.5871 0.564453C12.7506 0.564453 12.8998 0.657118 12.9715 0.803836L16.4421 7.83647L24.2032 8.96432C24.3649 8.98792 24.4988 9.10074 24.5498 9.25647C24.6 9.41134 24.5584 9.58208 24.4413 9.69577L18.8252 15.1703L20.1508 22.8996C20.1783 23.0605 20.1122 23.2231 19.9805 23.3192C19.8484 23.4161 19.6729 23.4286 19.5284 23.3518L12.5871 19.7027L5.64499 23.3518C5.58235 23.3844 5.51371 23.4007 5.4455 23.4007ZM1.95428 9.68805L7.10917 14.713C7.20999 14.8112 7.25632 14.9536 7.2323 15.0926L6.01521 22.1875L12.3876 18.8378C12.5125 18.7717 12.6613 18.7717 12.787 18.8378L19.1586 22.1875L17.9419 15.0926C17.9179 14.9536 17.9642 14.8116 18.065 14.713L23.2199 9.68805L16.0963 8.65287C15.9565 8.6327 15.8359 8.54476 15.7733 8.4182L12.5871 1.96343L9.4009 8.41863C9.33827 8.54519 9.21772 8.63313 9.07786 8.6533L1.95428 9.68805Z" fill="#6F6F6F"/>
</svg>
