<svg id="svg" version="1.1" xmlns="http://www.w3.org/2000/svg" xmlns:xlink="http://www.w3.org/1999/xlink" width="400" height="129.26553672316385" viewBox="0, 0, 400,129.26553672316385"><g id="svgg"><path id="path0" d="M193.155 7.624 C 192.195 8.208,192.167 8.392,192.167 13.997 L 192.167 19.135 192.697 19.734 C 193.193 20.294,193.292 20.333,194.210 20.333 C 196.248 20.333,196.401 19.787,196.308 12.839 L 196.250 8.462 195.597 7.898 C 194.859 7.259,193.927 7.155,193.155 7.624 M164.753 19.393 C 163.730 19.785,163.273 20.891,163.656 22.050 C 163.939 22.909,170.736 29.583,171.471 29.724 C 172.716 29.962,174.000 28.847,174.000 27.527 C 174.000 26.432,166.309 19.015,165.350 19.184 C 165.295 19.194,165.026 19.288,164.753 19.393 M222.193 19.437 C 221.584 19.703,215.521 25.597,214.993 26.436 C 213.840 28.271,215.722 30.484,217.597 29.497 C 218.106 29.229,224.286 23.101,224.729 22.425 C 225.448 21.328,224.842 19.791,223.517 19.354 C 222.847 19.133,222.898 19.129,222.193 19.437 M191.114 27.775 C 191.046 27.842,190.487 27.993,189.871 28.109 C 187.864 28.488,187.513 28.585,185.583 29.292 C 184.884 29.548,184.833 29.573,182.833 30.616 C 181.369 31.380,179.459 32.776,178.166 34.029 C 176.977 35.180,175.500 36.776,175.500 36.910 C 175.500 36.967,175.211 37.405,174.858 37.882 C 174.504 38.359,174.166 38.862,174.106 39.000 C 174.046 39.137,173.848 39.475,173.667 39.750 C 173.485 40.025,173.291 40.362,173.235 40.500 C 173.179 40.637,172.953 41.113,172.733 41.557 C 172.513 42.001,172.333 42.467,172.333 42.593 C 172.333 42.719,172.228 43.068,172.100 43.369 C 171.883 43.876,171.617 44.757,171.177 46.417 C 170.682 48.287,170.680 53.912,171.174 55.750 C 171.886 58.398,171.895 58.421,172.898 60.500 C 173.518 61.785,174.183 63.017,174.338 63.166 C 174.608 63.426,175.501 64.653,175.508 64.774 C 175.513 64.852,175.812 65.217,176.174 65.583 C 176.535 65.950,176.831 66.306,176.832 66.374 C 176.833 66.442,176.976 66.667,177.150 66.874 C 177.324 67.081,177.755 67.595,178.108 68.016 C 178.461 68.438,179.088 69.179,179.500 69.663 C 179.912 70.147,180.318 70.683,180.400 70.855 C 180.483 71.026,180.614 71.167,180.692 71.167 C 180.770 71.167,180.833 71.265,180.833 71.385 C 180.833 71.506,181.058 71.820,181.333 72.083 C 181.608 72.347,181.833 72.635,181.833 72.724 C 181.833 72.813,182.004 73.117,182.213 73.401 C 182.421 73.685,182.740 74.216,182.921 74.581 C 183.102 74.946,183.344 75.345,183.458 75.468 C 183.573 75.590,183.667 75.784,183.667 75.897 C 183.667 76.011,183.854 76.493,184.083 76.968 C 184.313 77.443,184.500 78.005,184.500 78.216 C 184.500 78.427,184.573 78.673,184.662 78.762 C 184.751 78.851,184.894 79.410,184.979 80.004 C 185.064 80.597,185.160 81.188,185.192 81.317 C 185.226 81.454,184.938 81.719,184.491 81.962 C 183.056 82.741,182.739 84.117,183.731 85.264 L 184.295 85.917 193.189 85.971 C 203.393 86.034,203.973 86.002,204.716 85.338 C 205.793 84.376,205.156 82.077,203.739 81.808 C 203.022 81.672,203.696 78.118,204.840 76.000 C 204.915 75.862,205.207 75.288,205.490 74.724 C 205.963 73.782,208.031 70.779,208.594 70.216 C 208.726 70.084,208.835 69.925,208.836 69.863 C 208.838 69.801,209.156 69.403,209.544 68.979 C 209.933 68.555,210.621 67.739,211.075 67.166 C 211.529 66.592,211.979 66.039,212.075 65.936 C 213.206 64.725,214.976 61.966,215.833 60.078 C 216.916 57.695,217.081 57.183,217.334 55.416 C 217.413 54.865,217.557 54.204,217.655 53.947 C 217.883 53.346,217.887 49.264,217.661 48.499 C 217.566 48.179,217.419 47.467,217.334 46.917 C 217.147 45.697,216.793 44.246,216.529 43.614 C 216.421 43.356,216.333 43.074,216.333 42.987 C 216.333 42.825,216.265 42.666,215.778 41.695 C 215.625 41.389,215.500 41.033,215.500 40.903 C 215.500 40.773,215.425 40.667,215.333 40.667 C 215.242 40.667,215.167 40.521,215.167 40.343 C 215.167 40.165,215.101 39.979,215.021 39.930 C 214.941 39.880,214.570 39.332,214.197 38.711 C 213.824 38.091,213.327 37.365,213.093 37.099 C 212.858 36.833,212.667 36.550,212.667 36.470 C 212.667 36.187,209.232 32.904,208.250 32.250 C 207.700 31.883,207.213 31.535,207.167 31.477 C 207.121 31.418,206.764 31.204,206.374 31.001 C 205.984 30.798,205.623 30.565,205.573 30.483 C 205.522 30.401,205.341 30.333,205.171 30.333 C 205.000 30.333,204.836 30.277,204.806 30.208 C 204.682 29.931,201.871 28.821,200.417 28.475 C 198.007 27.902,197.019 27.782,194.243 27.720 C 192.589 27.683,191.181 27.708,191.114 27.775 M188.307 32.787 C 190.092 33.812,189.627 35.375,187.167 36.617 C 186.479 36.964,185.879 37.292,185.833 37.345 C 185.787 37.398,185.488 37.586,185.167 37.763 C 184.242 38.271,181.439 41.154,180.719 42.338 C 179.884 43.710,179.000 45.530,179.000 45.878 C 179.000 46.026,178.925 46.193,178.833 46.250 C 178.742 46.307,178.667 46.556,178.667 46.803 C 178.667 47.324,178.005 48.110,177.360 48.355 C 175.908 48.907,174.191 46.946,175.089 45.760 C 175.223 45.582,175.333 45.262,175.333 45.049 C 175.333 44.836,175.405 44.532,175.493 44.373 C 175.580 44.214,175.870 43.596,176.135 43.000 C 176.717 41.698,177.866 39.799,178.667 38.819 C 179.756 37.485,182.752 34.667,183.081 34.667 C 183.137 34.667,183.573 34.418,184.050 34.114 C 184.527 33.810,185.292 33.389,185.750 33.178 C 186.208 32.967,186.696 32.732,186.833 32.657 C 187.240 32.434,187.773 32.481,188.307 32.787 M293.333 41.417 C 293.200 41.577,292.831 41.667,292.301 41.667 C 291.790 41.667,291.381 41.762,291.226 41.917 C 291.089 42.054,290.798 42.167,290.581 42.167 C 290.364 42.167,290.145 42.233,290.095 42.315 C 290.044 42.396,289.814 42.511,289.582 42.569 C 288.414 42.862,284.333 46.366,284.333 47.076 C 284.333 47.218,284.258 47.333,284.167 47.333 C 284.075 47.333,284.000 47.403,284.000 47.489 C 284.000 47.575,283.912 47.856,283.805 48.114 C 282.831 50.454,282.754 51.794,282.768 66.167 C 282.782 81.246,282.807 81.558,284.184 84.054 C 284.276 84.221,284.512 84.665,284.708 85.041 C 285.102 85.798,286.985 87.762,287.553 88.008 C 287.753 88.095,288.064 88.260,288.244 88.375 C 289.302 89.050,289.863 89.333,290.143 89.333 C 290.317 89.333,290.553 89.446,290.667 89.583 C 290.786 89.727,291.149 89.833,291.520 89.833 C 291.876 89.833,292.167 89.908,292.167 90.000 C 292.167 90.103,293.000 90.167,294.333 90.167 C 295.667 90.167,296.500 90.103,296.500 90.000 C 296.500 89.908,296.756 89.833,297.070 89.833 C 297.565 89.833,298.327 89.539,298.907 89.123 C 300.021 88.325,300.879 87.549,301.172 87.075 C 301.989 85.752,302.264 85.879,302.910 87.875 L 303.383 89.333 307.026 89.333 L 310.669 89.333 310.626 76.792 L 310.583 64.250 303.833 64.250 L 297.083 64.250 297.038 67.534 L 296.993 70.818 298.122 70.867 L 299.250 70.917 299.250 75.083 C 299.250 79.827,299.106 80.800,298.261 81.750 C 297.324 82.803,295.756 82.573,294.903 81.257 C 294.570 80.745,294.296 54.797,294.588 51.530 C 294.745 49.775,295.285 49.167,296.684 49.167 C 298.637 49.167,298.833 49.721,298.833 55.245 L 298.833 59.500 304.776 59.500 L 310.719 59.500 310.618 55.958 C 310.496 51.721,310.144 49.675,309.172 47.569 C 308.701 46.550,305.825 43.679,305.018 43.422 C 304.825 43.361,304.667 43.241,304.667 43.155 C 304.667 43.070,304.565 43.000,304.441 43.000 C 304.318 43.000,303.886 42.824,303.482 42.609 C 303.078 42.395,302.467 42.166,302.124 42.102 C 301.781 42.038,301.500 41.913,301.500 41.826 C 301.500 41.738,301.102 41.667,300.615 41.667 C 300.095 41.667,299.597 41.566,299.407 41.422 C 298.927 41.059,293.634 41.055,293.333 41.417 M7.833 65.917 L 7.833 89.333 12.889 89.333 L 17.946 89.333 18.056 81.556 C 18.117 77.278,18.167 70.546,18.167 66.596 C 18.167 59.730,18.181 59.405,18.482 59.217 C 18.899 58.956,19.000 59.088,19.000 59.896 C 19.000 60.266,19.109 61.285,19.241 62.159 C 19.454 63.561,19.838 66.282,20.066 68.000 C 20.447 70.875,20.538 71.522,20.665 72.250 C 20.812 73.097,21.087 75.236,21.340 77.500 C 21.416 78.188,21.559 79.012,21.656 79.332 C 21.754 79.652,21.833 80.270,21.833 80.705 C 21.833 81.140,21.904 81.815,21.991 82.206 C 22.135 82.855,22.256 83.711,22.678 87.083 C 22.758 87.725,22.867 88.494,22.919 88.792 L 23.015 89.333 26.643 89.333 L 30.271 89.333 30.482 87.292 C 30.598 86.169,30.761 84.875,30.843 84.417 C 30.926 83.958,31.066 82.908,31.154 82.083 C 31.242 81.258,31.431 79.758,31.574 78.750 C 31.717 77.742,31.954 75.942,32.100 74.750 C 32.447 71.921,32.597 70.722,32.818 69.000 C 32.919 68.221,33.118 66.646,33.262 65.500 C 33.406 64.354,33.591 63.079,33.673 62.667 C 33.754 62.254,33.870 61.335,33.930 60.625 C 33.990 59.915,34.100 59.333,34.175 59.333 C 34.250 59.333,34.360 59.178,34.421 58.987 C 34.707 58.087,34.756 59.875,34.833 74.055 L 34.917 89.250 40.042 89.294 L 45.168 89.338 45.126 65.961 L 45.083 42.583 37.563 42.540 C 28.846 42.490,29.745 42.246,29.510 44.728 C 29.416 45.715,29.292 46.599,29.233 46.695 C 29.174 46.790,29.060 47.479,28.981 48.226 C 28.580 52.001,28.405 53.319,28.292 53.432 C 28.223 53.500,28.167 53.899,28.166 54.319 C 28.166 54.740,28.054 55.721,27.917 56.500 C 27.779 57.279,27.667 58.232,27.667 58.617 C 27.667 59.002,27.554 59.749,27.417 60.277 C 27.279 60.805,27.158 61.652,27.147 62.160 C 27.129 63.021,26.897 64.359,26.853 63.857 C 26.842 63.730,26.726 63.672,26.589 63.725 C 26.411 63.793,26.320 63.653,26.251 63.201 C 26.199 62.861,26.087 62.208,26.003 61.750 C 25.918 61.292,25.768 60.317,25.670 59.583 C 25.337 57.097,25.166 55.919,25.006 55.000 C 24.639 52.896,24.483 51.841,24.338 50.500 C 24.254 49.721,24.065 48.371,23.917 47.500 C 23.769 46.629,23.583 45.354,23.504 44.667 C 23.425 43.979,23.281 43.210,23.185 42.958 L 23.008 42.500 15.421 42.500 L 7.833 42.500 7.833 65.917 M50.689 42.648 C 50.314 42.888,50.516 80.191,50.900 81.583 C 51.409 83.428,52.788 85.763,53.917 86.691 C 54.264 86.977,54.939 87.538,55.285 87.830 C 55.395 87.924,55.592 88.000,55.723 88.000 C 55.853 88.000,56.053 88.112,56.167 88.250 C 56.281 88.388,56.515 88.500,56.687 88.500 C 56.859 88.500,57.000 88.575,57.000 88.667 C 57.000 88.758,57.190 88.833,57.422 88.833 C 57.654 88.833,57.887 88.946,57.940 89.083 C 57.996 89.230,58.251 89.336,58.559 89.339 C 58.848 89.342,59.229 89.454,59.407 89.589 C 59.596 89.732,60.094 89.833,60.605 89.833 C 61.087 89.833,61.527 89.908,61.583 90.000 C 61.646 90.101,62.860 90.167,64.667 90.167 C 66.474 90.167,67.688 90.101,67.750 90.000 C 67.807 89.908,68.205 89.831,68.635 89.828 C 69.065 89.825,69.562 89.713,69.740 89.578 C 69.918 89.443,70.268 89.333,70.518 89.333 C 70.768 89.333,70.997 89.272,71.028 89.197 C 71.058 89.122,71.572 88.824,72.169 88.536 C 74.504 87.406,76.515 84.998,77.395 82.279 C 77.923 80.645,78.016 76.949,77.966 59.583 L 77.917 42.583 72.417 42.537 C 69.392 42.511,66.750 42.531,66.547 42.580 L 66.177 42.670 66.130 61.793 C 66.091 77.794,66.045 80.984,65.851 81.326 C 65.068 82.704,63.598 82.692,62.461 81.297 C 62.440 81.271,62.384 72.550,62.336 61.917 L 62.250 42.583 56.583 42.543 C 53.467 42.521,50.814 42.568,50.689 42.648 M83.278 42.611 C 83.217 42.672,83.167 53.210,83.167 66.028 L 83.167 89.333 92.753 89.333 L 102.339 89.333 102.294 84.708 L 102.250 80.083 98.667 80.000 L 95.083 79.917 95.041 61.343 C 95.008 46.737,94.954 42.741,94.791 42.637 C 94.540 42.478,83.436 42.453,83.278 42.611 M103.958 42.614 C 103.690 42.685,103.667 43.049,103.667 47.259 L 103.667 51.827 107.208 51.872 L 110.750 51.917 110.833 70.583 L 110.917 89.250 116.874 89.294 L 122.832 89.338 122.874 70.627 L 122.917 51.917 126.544 51.872 L 130.172 51.827 130.128 47.205 L 130.083 42.583 117.167 42.560 C 110.063 42.548,104.119 42.572,103.958 42.614 M133.375 42.610 C 133.210 42.677,133.167 47.514,133.167 66.014 L 133.167 89.333 139.083 89.333 L 145.000 89.333 145.000 66.018 C 145.000 44.911,144.975 42.693,144.736 42.601 C 144.422 42.480,133.675 42.489,133.375 42.610 M243.780 42.609 C 243.718 42.671,243.667 53.210,243.667 66.028 L 243.667 89.333 253.253 89.333 L 262.839 89.333 262.794 84.708 L 262.750 80.083 259.226 80.038 C 256.544 80.004,255.658 79.941,255.518 79.772 C 255.388 79.615,255.323 74.226,255.292 61.067 L 255.250 42.583 249.572 42.540 C 246.448 42.515,243.842 42.547,243.780 42.609 M266.208 42.637 C 266.042 42.743,266.007 47.529,266.041 66.010 L 266.083 89.250 271.959 89.294 L 277.834 89.338 277.792 65.960 L 277.750 42.583 272.083 42.543 C 268.967 42.521,266.323 42.563,266.208 42.637 M316.113 42.609 C 316.051 42.671,316.000 53.210,316.000 66.028 L 316.000 89.333 321.832 89.333 L 327.664 89.333 327.707 79.458 L 327.750 69.583 329.750 69.583 L 331.750 69.583 331.793 79.460 L 331.836 89.338 337.710 89.294 L 343.583 89.250 343.583 65.917 L 343.583 42.583 337.750 42.583 L 331.917 42.583 331.873 50.856 L 331.830 59.129 331.457 59.229 C 330.862 59.388,328.563 59.349,328.096 59.171 L 327.670 59.009 327.627 50.796 L 327.583 42.583 321.905 42.540 C 318.782 42.515,316.176 42.547,316.113 42.609 M347.125 42.614 C 346.856 42.685,346.833 43.049,346.833 47.259 L 346.833 51.827 350.375 51.872 L 353.917 51.917 354.000 70.583 L 354.083 89.250 360.041 89.294 L 365.999 89.338 366.041 70.627 L 366.083 51.917 369.711 51.872 L 373.339 51.827 373.294 47.205 L 373.250 42.583 360.333 42.560 C 353.229 42.548,347.285 42.572,347.125 42.614 M152.459 48.307 C 152.207 48.459,152.000 48.668,152.000 48.771 C 152.000 48.875,151.887 49.053,151.750 49.167 C 150.904 49.868,151.812 51.625,153.199 51.971 C 154.293 52.245,162.183 52.232,163.096 51.956 C 164.694 51.472,165.114 49.780,163.946 48.542 L 163.435 48.000 158.176 48.015 C 153.591 48.029,152.858 48.066,152.459 48.307 M224.826 48.272 C 223.783 48.920,223.521 50.392,224.294 51.263 C 224.993 52.050,225.785 52.167,230.417 52.167 C 236.407 52.167,237.012 51.915,236.841 49.500 C 236.824 49.271,236.559 48.840,236.250 48.542 L 235.689 48.000 230.469 48.004 C 226.009 48.008,225.188 48.047,224.826 48.272 M171.167 70.527 C 170.095 70.827,163.728 77.384,163.587 78.333 C 163.284 80.370,165.137 81.549,166.767 80.358 C 167.589 79.758,173.228 74.086,173.669 73.417 C 174.715 71.828,173.116 69.982,171.167 70.527 M216.022 70.500 C 215.054 70.729,214.750 71.186,214.750 72.418 L 214.750 73.494 218.167 76.902 C 220.046 78.776,221.782 80.427,222.026 80.571 C 223.380 81.373,224.984 80.362,224.994 78.699 L 225.000 77.815 221.324 74.158 C 219.171 72.015,217.520 70.500,217.338 70.500 C 217.167 70.500,216.927 70.470,216.805 70.434 C 216.683 70.398,216.331 70.428,216.022 70.500 M184.727 87.616 C 183.551 87.771,182.614 89.834,183.417 90.500 C 183.554 90.614,183.669 90.792,183.671 90.895 C 183.687 91.620,184.350 91.667,194.465 91.661 L 204.083 91.656 204.603 91.120 C 205.553 90.139,205.482 88.530,204.462 87.913 C 203.944 87.600,186.804 87.342,184.727 87.616 M183.758 93.776 C 182.762 94.802,183.129 96.771,184.368 97.045 C 184.578 97.091,185.228 97.230,185.813 97.354 C 187.033 97.611,188.024 98.359,188.721 99.548 C 189.164 100.304,190.085 101.167,190.449 101.167 C 190.569 101.167,190.667 101.231,190.667 101.309 C 190.667 101.747,194.732 101.975,196.653 101.644 C 198.119 101.392,198.839 100.854,200.040 99.115 C 200.743 98.098,201.581 97.587,203.107 97.247 C 205.018 96.822,205.222 96.634,205.238 95.286 C 205.249 94.248,205.224 94.178,204.667 93.686 L 204.083 93.172 194.216 93.169 L 184.349 93.167 183.758 93.776 " stroke="none" fill="#050507" fill-rule="evenodd"></path></g></svg>