<svg id="svg" version="1.1" xmlns="http://www.w3.org/2000/svg" xmlns:xlink="http://www.w3.org/1999/xlink" width="400" height="273.3333333333333" viewBox="0, 0, 400,273.3333333333333"><g id="svgg"><path id="path0" d="M72.727 39.290 C 72.201 39.349,71.401 39.561,70.950 39.761 C 70.499 39.961,69.470 40.208,68.664 40.308 C 67.858 40.409,66.936 40.656,66.614 40.858 C 66.292 41.059,65.580 41.302,65.031 41.398 C 64.482 41.494,63.893 41.742,63.721 41.949 C 63.549 42.156,63.103 42.402,62.729 42.496 C 62.356 42.589,61.346 43.155,60.485 43.752 C 59.624 44.350,58.828 44.839,58.715 44.839 C 58.602 44.839,58.273 45.055,57.983 45.318 C 57.693 45.581,57.290 45.919,57.089 46.070 C 55.338 47.375,50.313 52.602,50.309 53.121 C 50.308 53.327,50.082 53.692,48.718 55.696 C 48.389 56.179,48.120 56.744,48.120 56.953 C 48.120 57.161,47.886 57.543,47.601 57.802 C 47.315 58.061,46.998 58.713,46.897 59.251 C 46.796 59.790,46.547 60.489,46.345 60.806 C 46.142 61.122,45.886 61.996,45.777 62.748 C 45.669 63.500,45.382 64.417,45.141 64.786 C 44.461 65.828,44.469 217.615,45.149 218.865 C 45.394 219.316,45.681 220.201,45.785 220.832 C 45.890 221.462,46.212 222.441,46.501 223.008 C 46.790 223.575,47.027 224.209,47.027 224.417 C 47.027 224.624,47.273 225.107,47.573 225.489 C 47.874 225.872,48.120 226.357,48.120 226.569 C 48.120 226.933,48.290 227.226,49.710 229.312 C 50.039 229.795,50.308 230.287,50.309 230.406 C 50.311 230.734,54.153 234.963,55.390 235.999 C 55.989 236.500,56.698 237.095,56.966 237.321 C 57.235 237.546,57.658 237.946,57.906 238.209 C 58.155 238.472,58.496 238.688,58.665 238.688 C 58.834 238.688,59.195 238.934,59.467 239.234 C 59.739 239.535,60.111 239.781,60.293 239.781 C 60.475 239.781,60.927 240.020,61.297 240.311 C 61.668 240.603,62.294 240.922,62.690 241.021 C 63.085 241.121,63.552 241.374,63.727 241.585 C 63.902 241.796,64.312 241.969,64.637 241.969 C 64.963 241.969,65.684 242.200,66.240 242.484 C 66.796 242.767,67.811 243.083,68.495 243.186 C 69.180 243.288,70.197 243.579,70.756 243.832 C 72.321 244.542,335.508 244.545,336.569 243.835 C 336.945 243.584,337.867 243.294,338.619 243.191 C 339.371 243.087,340.234 242.848,340.537 242.658 C 340.840 242.469,341.517 242.222,342.041 242.111 C 342.565 241.999,343.178 241.751,343.404 241.560 C 343.630 241.369,344.122 241.120,344.498 241.006 C 344.874 240.893,345.475 240.571,345.833 240.290 C 346.192 240.010,346.597 239.781,346.733 239.781 C 347.306 239.781,351.897 236.233,353.372 234.650 C 355.650 232.205,356.254 231.523,356.254 231.396 C 356.254 231.263,357.889 228.851,358.168 228.571 C 358.243 228.496,358.657 227.697,359.088 226.794 C 359.519 225.892,360.103 224.699,360.387 224.143 C 360.670 223.587,360.903 222.910,360.904 222.639 C 360.905 222.368,361.099 221.777,361.336 221.326 C 361.573 220.875,361.950 219.398,362.175 218.045 C 362.399 216.692,362.688 214.969,362.816 214.217 C 363.144 212.296,363.126 70.765,362.797 69.036 C 362.654 68.284,362.358 66.580,362.140 65.248 C 361.921 63.917,361.631 62.687,361.495 62.514 C 361.359 62.342,361.096 61.555,360.911 60.766 C 360.726 59.976,360.472 59.330,360.347 59.330 C 360.221 59.330,360.044 59.053,359.952 58.715 C 359.725 57.876,358.384 55.197,357.963 54.740 C 357.775 54.537,357.621 54.264,357.621 54.135 C 357.621 54.006,357.463 53.738,357.270 53.540 C 357.077 53.341,356.492 52.575,355.971 51.838 C 354.389 49.600,351.270 46.640,348.735 44.971 C 345.878 43.089,342.354 41.285,341.535 41.285 C 341.246 41.285,340.864 41.108,340.684 40.892 C 340.505 40.676,339.659 40.417,338.805 40.317 C 337.951 40.217,336.883 39.932,336.432 39.685 C 335.668 39.265,76.413 38.877,72.727 39.290 M330.887 57.211 C 331.446 57.474,332.200 57.690,332.562 57.690 C 332.924 57.690,333.364 57.862,333.539 58.073 C 333.714 58.284,334.183 58.538,334.582 58.638 C 336.251 59.057,341.490 64.057,341.490 65.231 C 341.490 65.407,341.667 65.698,341.883 65.877 C 342.099 66.057,342.352 66.552,342.445 66.978 C 342.539 67.404,342.854 68.221,343.146 68.794 C 343.668 69.817,343.677 71.091,343.677 141.763 C 343.677 212.436,343.668 213.710,343.146 214.733 C 342.854 215.306,342.539 216.123,342.445 216.549 C 342.352 216.975,342.099 217.470,341.883 217.650 C 341.667 217.829,341.490 218.125,341.490 218.309 C 341.490 218.492,341.244 218.938,340.943 219.301 C 340.641 219.663,340.006 220.428,339.531 221.002 C 337.885 222.991,333.516 225.835,332.101 225.839 C 331.776 225.840,331.203 226.001,330.827 226.196 C 327.481 227.934,320.314 227.414,321.635 225.528 C 321.878 225.180,322.081 224.461,322.084 223.931 C 322.087 223.401,322.333 222.430,322.631 221.775 C 322.928 221.119,323.172 220.182,323.172 219.691 C 323.172 219.201,323.418 218.030,323.718 217.088 C 324.019 216.147,324.265 214.866,324.265 214.241 C 324.265 213.617,324.452 212.433,324.681 211.611 C 325.700 207.949,325.863 187.650,324.902 184.039 C 324.677 183.193,324.391 181.359,324.267 179.962 C 324.142 178.565,323.909 177.264,323.749 177.070 C 323.588 176.876,323.334 175.856,323.185 174.802 C 323.035 173.749,322.726 172.528,322.497 172.089 C 322.268 171.651,322.081 170.921,322.080 170.468 C 322.079 170.014,321.850 169.215,321.571 168.690 C 321.292 168.166,320.975 167.252,320.865 166.658 C 320.755 166.064,320.491 165.329,320.278 165.025 C 320.065 164.721,319.891 164.220,319.891 163.913 C 319.891 163.606,319.663 162.926,319.384 162.402 C 319.105 161.878,318.794 161.000,318.693 160.451 C 318.592 159.902,318.328 159.303,318.106 159.119 C 317.885 158.935,317.703 158.622,317.703 158.423 C 317.703 158.223,317.415 157.517,317.062 156.853 C 316.709 156.190,316.343 155.414,316.249 155.130 C 316.156 154.846,315.965 154.429,315.826 154.204 C 315.687 153.978,315.179 152.994,314.696 152.016 C 314.214 151.039,313.533 149.747,313.183 149.146 C 312.833 148.544,312.349 147.683,312.108 147.232 C 311.866 146.781,311.368 145.919,311.001 145.318 C 310.633 144.716,310.183 143.917,310.000 143.541 C 309.817 143.165,309.287 142.365,308.820 141.763 C 308.087 140.818,307.396 139.826,305.400 136.861 C 305.026 136.305,303.469 134.350,302.801 133.597 C 302.650 133.427,302.040 132.642,301.446 131.852 C 300.852 131.063,300.264 130.417,300.140 130.417 C 300.016 130.417,299.841 130.226,299.752 129.993 C 299.392 129.056,293.443 123.096,287.355 117.574 C 286.070 116.409,281.646 112.872,280.793 112.327 C 280.417 112.088,279.796 111.600,279.414 111.243 C 278.572 110.458,273.742 107.177,273.428 107.177 C 273.305 107.177,273.052 106.993,272.865 106.768 C 272.570 106.412,269.950 104.825,267.715 103.649 C 267.314 103.438,266.924 103.177,266.849 103.070 C 266.774 102.962,264.805 101.922,262.474 100.759 C 260.144 99.595,257.375 98.208,256.323 97.677 C 255.270 97.145,254.040 96.551,253.589 96.356 C 253.137 96.161,252.215 95.759,251.538 95.463 C 250.861 95.166,250.000 94.836,249.624 94.729 C 249.248 94.621,248.770 94.396,248.561 94.228 C 248.352 94.060,247.675 93.779,247.057 93.603 C 246.439 93.427,244.703 92.842,243.199 92.303 C 241.695 91.765,240.280 91.322,240.055 91.320 C 239.829 91.318,239.275 91.123,238.824 90.888 C 238.373 90.652,237.395 90.344,236.651 90.203 C 235.907 90.061,235.221 89.821,235.127 89.669 C 235.033 89.517,234.245 89.277,233.376 89.135 C 232.506 88.994,231.649 88.757,231.471 88.609 C 231.293 88.462,230.296 88.205,229.255 88.038 C 228.214 87.872,227.234 87.631,227.078 87.503 C 226.922 87.374,226.179 87.190,225.427 87.094 C 224.675 86.997,223.260 86.739,222.283 86.519 C 219.069 85.798,212.307 84.775,208.857 84.487 C 206.993 84.331,204.484 84.089,203.281 83.949 C 199.661 83.526,181.763 83.601,178.342 84.054 C 176.720 84.268,174.347 84.520,173.069 84.613 C 171.791 84.706,169.392 85.015,167.738 85.299 C 166.083 85.583,164.053 85.896,163.226 85.994 C 162.399 86.092,161.107 86.338,160.355 86.540 C 159.604 86.743,158.312 86.992,157.485 87.094 C 156.658 87.196,155.835 87.397,155.658 87.540 C 155.480 87.683,154.547 87.912,153.585 88.049 C 152.622 88.185,151.476 88.484,151.037 88.713 C 150.598 88.941,149.868 89.129,149.415 89.130 C 148.962 89.131,148.132 89.378,147.570 89.679 C 147.009 89.979,146.211 90.226,145.797 90.227 C 145.383 90.228,144.675 90.429,144.224 90.673 C 143.773 90.917,142.973 91.218,142.447 91.341 C 141.023 91.675,138.032 92.685,137.252 93.096 C 136.876 93.294,136.112 93.542,135.553 93.647 C 134.995 93.751,134.402 94.001,134.236 94.201 C 134.069 94.401,133.542 94.651,133.064 94.756 C 132.585 94.861,131.765 95.176,131.241 95.457 C 130.717 95.738,130.086 95.967,129.839 95.967 C 129.592 95.967,129.244 96.144,129.064 96.360 C 128.885 96.576,128.387 96.830,127.956 96.924 C 127.526 97.019,127.034 97.265,126.863 97.471 C 126.691 97.677,126.192 97.925,125.753 98.021 C 125.314 98.118,124.897 98.291,124.825 98.407 C 124.754 98.522,122.753 99.589,120.379 100.776 C 118.005 101.964,115.940 103.031,115.789 103.147 C 115.277 103.541,113.442 104.716,113.338 104.716 C 113.211 104.716,109.704 107.022,108.954 107.599 C 108.653 107.831,108.131 108.090,107.792 108.175 C 107.454 108.260,107.177 108.446,107.177 108.588 C 107.177 108.730,106.839 108.968,106.425 109.117 C 106.012 109.265,105.452 109.690,105.182 110.059 L 104.691 110.731 107.096 110.737 C 108.419 110.741,110.793 110.931,112.372 111.160 C 113.951 111.389,116.456 111.750,117.939 111.963 C 119.421 112.175,121.021 112.471,121.493 112.621 C 121.965 112.770,123.151 113.030,124.129 113.198 C 125.106 113.366,126.521 113.699,127.273 113.938 C 130.713 115.030,132.784 115.780,133.280 116.112 C 133.577 116.310,134.071 116.473,134.378 116.473 C 134.685 116.473,135.395 116.719,135.957 117.020 C 136.518 117.321,137.107 117.567,137.267 117.567 C 137.624 117.567,144.903 121.156,146.411 122.075 C 147.013 122.442,147.905 122.933,148.394 123.166 C 148.882 123.398,149.282 123.710,149.282 123.859 C 149.282 124.007,149.416 124.129,149.579 124.129 C 149.828 124.129,152.119 125.598,152.563 126.042 C 152.638 126.118,153.311 126.606,154.059 127.128 C 154.806 127.650,155.621 128.265,155.869 128.495 C 156.118 128.725,156.859 129.344,157.518 129.870 C 159.045 131.091,163.306 135.352,164.730 137.081 C 165.332 137.811,166.016 138.610,166.251 138.856 C 166.658 139.282,169.699 143.727,170.130 144.527 C 170.243 144.736,170.459 145.123,170.610 145.386 C 170.762 145.649,171.034 146.172,171.215 146.548 C 171.396 146.924,171.764 147.525,172.033 147.884 C 172.302 148.242,172.522 148.777,172.522 149.071 C 172.522 149.365,172.768 149.919,173.069 150.301 C 173.370 150.684,173.616 151.237,173.616 151.532 C 173.616 151.826,173.862 152.380,174.163 152.762 C 174.463 153.144,174.710 153.779,174.711 154.172 C 174.712 154.565,174.908 155.256,175.147 155.707 C 175.385 156.159,175.695 157.318,175.834 158.284 C 175.974 159.249,176.222 160.201,176.386 160.399 C 177.201 161.381,177.201 177.649,176.386 178.630 C 176.222 178.828,175.970 179.819,175.827 180.833 C 175.683 181.846,175.438 182.830,175.282 183.018 C 175.126 183.205,174.863 183.989,174.698 184.758 C 174.533 185.528,174.222 186.303,174.007 186.482 C 173.792 186.660,173.616 187.044,173.616 187.334 C 173.616 187.624,173.380 188.317,173.092 188.873 C 172.803 189.429,172.435 190.191,172.273 190.567 C 172.112 190.943,171.864 191.435,171.724 191.661 C 171.583 191.887,171.400 192.256,171.317 192.481 C 171.034 193.252,167.039 199.333,166.251 200.193 C 166.016 200.449,165.332 201.235,164.730 201.939 C 163.220 203.707,158.968 207.974,157.399 209.296 C 156.685 209.897,155.951 210.517,155.767 210.673 C 155.584 210.828,154.822 211.382,154.073 211.903 C 152.338 213.111,152.310 213.132,151.333 213.883 C 149.954 214.944,147.925 216.187,146.549 216.815 C 146.173 216.986,145.681 217.284,145.455 217.477 C 144.645 218.168,137.805 221.462,137.176 221.464 C 136.992 221.464,136.439 221.710,135.947 222.011 C 135.455 222.311,134.838 222.556,134.576 222.556 C 134.314 222.556,133.641 222.802,133.080 223.103 C 132.519 223.404,131.844 223.654,131.580 223.659 C 131.316 223.664,130.608 223.906,130.007 224.197 C 129.405 224.487,128.569 224.729,128.148 224.734 C 127.727 224.740,127.050 224.915,126.644 225.125 C 126.238 225.335,124.983 225.695,123.855 225.924 C 122.727 226.153,121.273 226.476,120.622 226.642 C 119.972 226.807,118.434 227.061,117.205 227.205 C 115.975 227.349,114.231 227.621,113.329 227.808 C 110.584 228.379,91.574 228.289,88.448 227.690 C 87.095 227.430,84.880 227.037,83.527 226.815 C 79.579 226.167,76.747 225.536,75.953 225.125 C 75.547 224.915,74.895 224.744,74.503 224.744 C 71.286 224.744,66.987 220.345,64.918 214.937 L 64.252 213.195 64.252 141.763 L 64.252 70.332 64.915 68.568 C 65.733 66.397,66.621 64.668,67.140 64.237 C 67.356 64.058,67.532 63.792,67.532 63.647 C 67.532 62.927,72.160 58.936,73.336 58.641 C 73.741 58.539,74.215 58.284,74.390 58.073 C 74.565 57.862,75.031 57.682,75.427 57.672 C 75.822 57.662,76.822 57.423,77.649 57.142 C 79.920 56.370,329.243 56.438,330.887 57.211 M304.495 195.936 C 304.795 196.717,304.188 197.261,302.912 197.353 C 300.894 197.500,300.752 197.790,300.752 201.765 C 300.752 205.394,300.607 205.878,299.522 205.878 C 298.438 205.878,298.291 205.392,298.291 201.812 C 298.291 197.730,298.125 197.403,296.053 197.403 C 294.634 197.403,293.885 196.629,294.528 195.830 C 294.994 195.253,304.271 195.351,304.495 195.936 M308.557 196.160 C 308.926 196.529,309.228 197.117,309.228 197.466 C 309.228 197.815,309.431 198.392,309.680 198.747 C 309.929 199.103,310.211 199.776,310.306 200.243 C 310.550 201.436,311.663 201.455,312.043 200.273 C 312.188 199.822,312.460 199.269,312.649 199.043 C 312.837 198.817,313.084 198.325,313.199 197.949 C 313.825 195.896,315.903 194.715,316.600 196.018 C 317.091 196.934,316.967 205.195,316.457 205.618 C 315.425 206.475,314.567 205.634,314.484 203.686 C 314.378 201.172,314.195 200.872,313.569 202.187 C 311.899 205.698,310.726 206.579,309.997 204.871 C 309.817 204.448,309.518 203.917,309.335 203.691 C 309.151 203.465,308.896 202.874,308.768 202.376 C 308.375 200.844,308.004 201.269,307.861 203.412 C 307.711 205.643,306.907 206.515,305.826 205.618 C 305.316 205.195,305.192 196.934,305.683 196.018 C 306.105 195.228,307.704 195.307,308.557 196.160 M191.000 203.812 C 191.531 204.538,191.518 207.343,190.983 207.788 C 190.721 208.005,190.163 208.064,189.410 207.955 C 185.090 207.331,183.673 207.558,183.515 208.900 C 183.414 209.756,184.564 210.676,186.087 210.957 C 186.672 211.065,187.578 211.381,188.103 211.660 C 188.627 211.939,189.180 212.171,189.333 212.175 C 189.724 212.188,190.855 213.257,191.654 214.369 C 193.215 216.542,192.327 221.054,190.053 222.499 C 189.659 222.749,189.265 223.055,189.176 223.178 C 188.628 223.943,182.205 224.832,181.044 224.304 C 180.793 224.190,179.985 223.966,179.247 223.805 C 177.485 223.422,177.290 223.059,177.602 220.742 L 177.854 218.865 179.138 218.908 C 179.845 218.932,180.703 219.147,181.045 219.387 C 182.053 220.093,184.517 219.956,185.441 219.143 C 186.238 218.442,186.487 217.088,185.820 217.088 C 185.614 217.088,185.146 216.852,184.780 216.564 C 184.413 216.275,183.645 215.952,183.072 215.844 C 181.909 215.626,179.631 214.443,179.631 214.057 C 179.631 213.920,179.463 213.807,179.258 213.807 C 178.646 213.807,177.497 211.850,177.297 210.468 C 176.876 207.550,178.167 205.245,180.998 203.860 C 182.992 202.885,190.297 202.849,191.000 203.812 M200.448 203.940 C 201.044 204.422,201.104 204.711,201.230 207.699 L 201.367 210.936 202.871 211.022 C 203.698 211.069,204.774 211.033,205.263 210.941 L 206.152 210.775 206.152 207.704 C 206.152 203.618,206.287 203.418,209.038 203.418 C 212.344 203.418,212.167 202.869,212.167 213.101 C 212.167 217.826,212.241 221.886,212.333 222.124 C 212.598 222.816,212.929 222.627,213.129 221.668 C 213.231 221.179,213.470 220.531,213.662 220.228 C 213.853 219.925,214.103 219.249,214.218 218.725 C 214.333 218.201,214.657 217.343,214.937 216.819 C 215.218 216.295,215.448 215.648,215.448 215.382 C 215.448 215.116,215.694 214.440,215.995 213.879 C 216.295 213.318,216.541 212.702,216.541 212.512 C 216.541 212.321,216.787 211.706,217.088 211.145 C 217.389 210.583,217.635 209.964,217.635 209.768 C 217.635 209.571,217.881 208.929,218.182 208.339 C 218.483 207.750,218.729 207.025,218.729 206.729 C 218.729 206.433,218.882 206.028,219.070 205.830 C 219.258 205.631,219.625 205.007,219.886 204.443 L 220.360 203.418 223.369 203.418 L 226.377 203.418 227.060 204.499 C 227.436 205.094,227.852 206.066,227.985 206.658 C 228.118 207.251,228.428 208.021,228.673 208.371 C 228.918 208.721,229.118 209.259,229.118 209.566 C 229.118 209.873,229.364 210.583,229.665 211.145 C 229.966 211.706,230.212 212.366,230.212 212.612 C 230.212 212.858,230.445 213.443,230.729 213.912 C 231.014 214.381,231.337 215.193,231.449 215.717 C 231.560 216.241,231.807 216.918,231.998 217.221 C 232.189 217.524,232.435 218.201,232.545 218.725 C 232.655 219.249,232.901 219.925,233.092 220.228 C 233.283 220.531,233.523 221.179,233.624 221.668 C 233.756 222.298,233.963 222.556,234.335 222.556 C 234.965 222.556,234.934 223.041,234.974 212.397 C 235.011 202.501,234.430 203.418,240.657 203.418 C 244.002 203.418,245.480 203.520,246.015 203.789 C 246.421 203.993,247.179 204.241,247.700 204.340 C 248.778 204.546,250.444 206.134,250.444 206.956 C 250.444 207.248,250.567 207.563,250.718 207.656 C 251.784 208.314,250.815 211.311,248.971 213.059 L 247.886 214.087 248.443 214.841 C 248.750 215.256,249.096 215.900,249.212 216.273 C 249.329 216.646,249.592 217.194,249.798 217.491 C 250.003 217.787,250.171 218.281,250.171 218.588 C 250.171 218.896,250.398 219.576,250.676 220.100 C 252.193 222.965,251.678 223.699,248.222 223.592 L 245.671 223.513 245.427 222.693 C 245.293 222.242,245.024 221.565,244.831 221.189 C 244.638 220.813,244.393 220.014,244.287 219.412 C 244.040 218.006,243.525 217.200,242.553 216.698 C 241.334 216.067,241.148 216.503,241.148 220.004 C 241.148 222.769,241.094 223.113,240.619 223.367 C 239.942 223.730,235.493 223.738,235.270 223.377 C 235.177 223.226,234.808 223.103,234.450 223.103 C 234.092 223.103,233.722 223.226,233.630 223.377 C 233.375 223.788,228.427 223.727,228.087 223.308 C 227.933 223.120,227.677 222.488,227.518 221.903 C 226.962 219.869,226.391 219.549,223.319 219.549 C 220.050 219.549,219.408 219.856,219.130 221.549 C 218.789 223.628,218.848 223.610,212.484 223.607 C 205.639 223.603,206.152 223.924,206.152 219.645 C 206.152 215.763,206.123 215.721,203.422 215.721 C 201.171 215.721,201.230 215.621,201.230 219.422 C 201.230 223.665,201.242 223.650,197.985 223.650 C 196.493 223.650,195.475 223.527,195.270 223.322 C 194.618 222.670,194.822 204.632,195.489 203.964 C 196.262 203.192,199.504 203.176,200.448 203.940 M258.910 203.946 C 259.066 204.237,259.193 205.898,259.193 207.638 C 259.193 211.329,259.222 211.352,260.834 208.984 C 261.511 207.990,262.280 206.946,262.543 206.664 C 262.806 206.382,263.021 206.080,263.021 205.993 C 263.021 205.905,263.467 205.290,264.011 204.626 L 265.001 203.418 270.661 203.418 L 276.321 203.418 277.027 204.495 C 277.415 205.088,277.876 206.009,278.052 206.542 C 278.228 207.075,278.477 207.576,278.606 207.656 C 278.734 207.735,278.989 208.253,279.172 208.807 C 279.354 209.361,279.781 210.113,280.119 210.478 L 280.734 211.141 280.918 210.306 C 281.019 209.846,281.265 209.335,281.465 209.168 C 281.666 209.002,281.907 208.452,282.002 207.947 C 282.097 207.441,282.348 206.883,282.560 206.707 C 282.772 206.531,283.023 206.030,283.119 205.593 C 283.458 204.050,284.640 203.418,287.184 203.418 C 289.943 203.418,290.911 204.197,289.680 205.428 C 289.455 205.653,289.148 206.123,288.997 206.473 C 288.649 207.281,288.199 207.995,287.423 208.973 C 287.085 209.399,286.808 209.914,286.808 210.118 C 286.808 210.321,286.624 210.671,286.399 210.896 C 286.174 211.121,285.867 211.591,285.716 211.941 C 285.426 212.615,285.182 213.033,284.090 214.728 C 283.470 215.690,283.399 216.108,283.307 219.376 C 283.184 223.702,283.224 223.650,280.091 223.650 C 277.280 223.650,277.322 223.707,277.175 219.686 C 277.051 216.296,276.926 215.841,275.445 213.397 C 275.080 212.796,274.598 211.912,274.374 211.434 C 274.149 210.955,273.839 210.485,273.684 210.390 C 273.529 210.294,273.219 209.824,272.995 209.346 C 272.770 208.867,272.285 207.984,271.916 207.382 C 271.547 206.781,271.109 205.960,270.942 205.559 L 270.639 204.829 269.906 205.631 C 269.503 206.072,268.960 206.708,268.700 207.044 C 266.560 209.810,265.401 211.209,265.011 211.494 C 264.146 212.126,264.435 213.561,265.769 215.260 C 266.438 216.112,267.724 217.803,268.626 219.017 C 269.528 220.231,270.543 221.542,270.882 221.930 C 272.106 223.335,271.538 223.650,267.778 223.650 L 264.716 223.650 264.146 222.761 C 263.833 222.273,262.773 220.766,261.792 219.412 C 260.811 218.059,259.933 216.736,259.842 216.473 C 259.424 215.265,259.203 216.288,259.133 219.754 L 259.057 223.513 256.500 223.592 C 254.850 223.643,253.808 223.559,253.561 223.354 C 252.960 222.855,253.000 204.888,253.604 204.025 C 254.209 203.162,258.457 203.099,258.910 203.946 M241.331 208.248 C 241.230 208.348,241.148 209.216,241.148 210.176 L 241.148 211.922 242.545 211.839 C 243.825 211.764,243.990 211.675,244.509 210.776 L 245.077 209.795 244.461 208.930 C 243.860 208.086,241.916 207.662,241.331 208.248 M222.717 210.972 C 222.629 211.202,222.556 211.601,222.556 211.858 C 222.556 212.115,222.310 212.807,222.010 213.397 C 221.076 215.228,221.203 215.448,223.194 215.448 C 225.179 215.448,225.440 215.306,224.917 214.509 C 224.711 214.194,224.455 213.507,224.349 212.983 C 224.027 211.394,223.949 211.221,223.404 210.880 C 222.976 210.613,222.849 210.630,222.717 210.972 " stroke="none" fill="#050505" fill-rule="evenodd"></path></g></svg>