<svg id="svg" version="1.1" xmlns="http://www.w3.org/2000/svg" xmlns:xlink="http://www.w3.org/1999/xlink" width="400" height="133.33333333333334" viewBox="0, 0, 400,133.33333333333334"><g id="svgg"><path id="path0" d="M373.083 36.667 C 373.027 36.758,372.833 36.833,372.654 36.833 C 372.158 36.833,370.167 38.899,370.167 39.414 C 370.167 39.644,370.092 39.833,370.000 39.833 C 369.900 39.833,369.833 40.497,369.833 41.490 C 369.833 42.415,369.907 43.193,370.000 43.250 C 370.092 43.307,370.167 43.509,370.167 43.699 C 370.167 43.889,370.298 44.166,370.459 44.314 C 370.621 44.462,370.858 44.789,370.987 45.040 C 371.115 45.291,371.434 45.590,371.694 45.705 C 371.954 45.821,372.167 45.971,372.167 46.041 C 372.167 46.110,372.317 46.167,372.500 46.167 C 372.683 46.167,372.833 46.242,372.833 46.333 C 372.833 46.425,373.054 46.500,373.323 46.500 C 373.593 46.500,373.860 46.575,373.917 46.667 C 373.973 46.758,374.503 46.833,375.093 46.833 C 375.698 46.833,376.167 46.761,376.167 46.667 C 376.167 46.575,376.410 46.498,376.708 46.496 C 377.006 46.494,377.438 46.346,377.667 46.167 C 377.896 45.987,378.142 45.839,378.214 45.837 C 378.455 45.830,379.500 44.681,379.500 44.422 C 379.500 44.282,379.575 44.167,379.667 44.167 C 379.758 44.167,379.833 44.017,379.833 43.833 C 379.833 43.650,379.908 43.500,380.000 43.500 C 380.102 43.500,380.167 42.722,380.167 41.500 C 380.167 40.278,380.102 39.500,380.000 39.500 C 379.908 39.500,379.833 39.350,379.833 39.167 C 379.833 38.983,379.758 38.833,379.667 38.833 C 379.575 38.833,379.500 38.728,379.500 38.600 C 379.500 38.297,378.370 37.167,378.067 37.167 C 377.938 37.167,377.833 37.092,377.833 37.000 C 377.833 36.908,377.683 36.833,377.500 36.833 C 377.317 36.833,377.167 36.758,377.167 36.667 C 377.167 36.565,376.392 36.500,375.177 36.500 C 374.030 36.500,373.143 36.571,373.083 36.667 M27.417 37.000 C 27.360 37.092,26.981 37.167,26.573 37.167 C 26.166 37.167,25.833 37.242,25.833 37.333 C 25.833 37.425,25.608 37.500,25.333 37.500 C 25.058 37.500,24.833 37.575,24.833 37.667 C 24.833 37.758,24.683 37.833,24.500 37.833 C 24.317 37.833,24.167 37.908,24.167 38.000 C 24.167 38.092,24.033 38.167,23.870 38.167 C 23.707 38.167,23.465 38.317,23.333 38.500 C 23.201 38.683,23.016 38.836,22.922 38.839 C 22.670 38.846,21.974 39.498,21.503 40.167 C 21.277 40.487,20.959 40.895,20.796 41.073 C 20.633 41.251,20.500 41.495,20.500 41.615 C 20.500 41.735,20.425 41.833,20.333 41.833 C 20.242 41.833,20.167 41.979,20.167 42.157 C 20.167 42.335,20.092 42.527,20.000 42.583 C 19.908 42.640,19.833 42.865,19.833 43.083 C 19.833 43.302,19.758 43.527,19.667 43.583 C 19.436 43.726,19.436 89.774,19.667 89.917 C 19.758 89.973,19.833 90.198,19.833 90.417 C 19.833 90.635,19.908 90.860,20.000 90.917 C 20.092 90.973,20.167 91.151,20.167 91.312 C 20.167 91.472,20.317 91.765,20.500 91.962 C 20.683 92.158,20.833 92.405,20.833 92.509 C 20.833 92.614,21.058 92.910,21.333 93.167 C 21.608 93.424,21.833 93.718,21.833 93.822 C 21.833 93.926,21.965 94.060,22.125 94.120 C 22.285 94.180,22.606 94.422,22.838 94.656 C 23.236 95.060,23.565 95.283,24.333 95.667 C 24.517 95.758,24.816 95.908,24.998 96.000 C 25.180 96.092,25.475 96.167,25.655 96.167 C 25.834 96.167,26.027 96.242,26.083 96.333 C 26.226 96.564,71.833 96.564,71.833 96.333 C 71.833 96.242,72.058 96.167,72.333 96.167 C 72.608 96.167,72.833 96.092,72.833 96.000 C 72.833 95.908,72.983 95.833,73.167 95.833 C 73.350 95.833,73.500 95.758,73.500 95.667 C 73.500 95.575,73.650 95.500,73.833 95.500 C 74.017 95.500,74.167 95.425,74.167 95.333 C 74.167 95.242,74.270 95.167,74.397 95.167 C 74.721 95.167,76.833 93.082,76.833 92.763 C 76.833 92.618,76.894 92.500,76.969 92.500 C 77.163 92.500,77.833 91.196,77.833 90.818 C 77.833 90.643,77.908 90.500,78.000 90.500 C 78.092 90.500,78.167 90.279,78.167 90.010 C 78.167 89.740,78.242 89.473,78.333 89.417 C 78.443 89.349,78.500 81.609,78.500 66.740 C 78.500 51.802,78.444 44.167,78.333 44.167 C 78.242 44.167,78.167 43.946,78.167 43.677 C 78.167 43.407,78.092 43.140,78.000 43.083 C 77.908 43.027,77.833 42.797,77.833 42.573 C 77.833 42.350,77.758 42.167,77.667 42.167 C 77.575 42.167,77.500 42.017,77.500 41.833 C 77.500 41.650,77.425 41.500,77.333 41.500 C 77.242 41.500,77.167 41.395,77.167 41.267 C 77.167 40.943,74.749 38.500,74.428 38.500 C 74.284 38.500,74.167 38.439,74.167 38.364 C 74.167 38.170,72.862 37.500,72.484 37.500 C 72.310 37.500,72.167 37.425,72.167 37.333 C 72.167 37.242,71.792 37.167,71.333 37.167 C 70.875 37.167,70.500 37.092,70.500 37.000 C 70.500 36.890,63.226 36.833,49.010 36.833 C 34.863 36.833,27.484 36.890,27.417 37.000 M375.167 38.000 C 375.167 38.092,375.428 38.167,375.746 38.167 C 376.478 38.167,378.167 39.739,378.167 40.420 C 378.167 40.647,378.242 40.833,378.333 40.833 C 378.425 40.833,378.500 41.133,378.500 41.500 C 378.500 41.867,378.425 42.167,378.333 42.167 C 378.242 42.167,378.167 42.360,378.167 42.595 C 378.167 42.981,377.839 43.500,377.595 43.500 C 377.543 43.500,377.500 43.275,377.500 43.000 C 377.500 42.725,377.434 42.500,377.353 42.500 C 377.098 42.500,377.036 41.680,377.268 41.375 C 377.653 40.868,377.557 39.708,377.091 39.242 C 376.708 38.860,376.568 38.833,374.924 38.833 C 373.864 38.833,373.167 38.767,373.167 38.667 C 373.167 38.575,373.317 38.500,373.500 38.500 C 373.683 38.500,373.833 38.425,373.833 38.333 C 373.833 38.242,374.058 38.167,374.333 38.167 C 374.608 38.167,374.833 38.092,374.833 38.000 C 374.833 37.908,374.908 37.833,375.000 37.833 C 375.092 37.833,375.167 37.908,375.167 38.000 M372.833 41.500 C 372.833 42.783,372.790 43.833,372.738 43.833 C 372.543 43.833,372.167 43.348,372.167 43.095 C 372.167 42.951,372.092 42.833,372.000 42.833 C 371.903 42.833,371.833 42.278,371.833 41.500 C 371.833 40.722,371.903 40.167,372.000 40.167 C 372.092 40.167,372.167 40.051,372.167 39.910 C 372.167 39.636,372.500 39.184,372.708 39.173 C 372.777 39.170,372.833 40.217,372.833 41.500 M375.469 40.542 C 375.512 40.768,375.410 40.833,375.012 40.833 C 374.606 40.833,374.500 40.762,374.500 40.489 C 374.500 40.042,375.383 40.090,375.469 40.542 M110.167 42.000 C 110.167 42.096,109.642 42.167,108.927 42.167 C 108.244 42.167,107.640 42.242,107.583 42.333 C 107.527 42.425,107.185 42.500,106.823 42.500 C 106.462 42.500,106.167 42.575,106.167 42.667 C 106.167 42.758,105.909 42.833,105.593 42.833 C 105.278 42.833,104.973 42.908,104.917 43.000 C 104.860 43.092,104.635 43.167,104.417 43.167 C 104.198 43.167,103.973 43.242,103.917 43.333 C 103.860 43.425,103.668 43.500,103.490 43.500 C 103.312 43.500,103.167 43.575,103.167 43.667 C 103.167 43.758,103.053 43.833,102.914 43.833 C 102.776 43.833,102.532 43.900,102.373 43.982 C 102.214 44.065,101.577 44.376,100.958 44.674 C 100.340 44.972,99.833 45.280,99.833 45.358 C 99.833 45.436,99.683 45.500,99.500 45.500 C 99.317 45.500,99.167 45.562,99.167 45.639 C 99.167 45.715,98.960 45.883,98.708 46.012 C 98.456 46.142,98.129 46.379,97.980 46.541 C 97.832 46.702,97.620 46.833,97.509 46.833 C 97.398 46.833,97.019 47.133,96.667 47.500 C 96.314 47.867,95.964 48.167,95.888 48.168 C 95.688 48.171,94.403 49.429,93.872 50.141 C 93.622 50.476,93.211 50.949,92.959 51.192 C 92.706 51.435,92.500 51.697,92.500 51.775 C 92.499 51.853,92.275 52.179,92.000 52.500 C 91.725 52.821,91.501 53.171,91.500 53.278 C 91.500 53.385,91.444 53.497,91.375 53.528 C 91.219 53.597,90.677 54.485,90.554 54.875 C 90.503 55.035,90.395 55.167,90.314 55.167 C 90.233 55.167,90.167 55.317,90.167 55.500 C 90.167 55.683,90.092 55.833,90.000 55.833 C 89.908 55.833,89.833 55.983,89.833 56.167 C 89.833 56.350,89.758 56.500,89.667 56.500 C 89.575 56.500,89.500 56.683,89.500 56.907 C 89.500 57.131,89.425 57.360,89.333 57.417 C 89.242 57.473,89.167 57.665,89.167 57.843 C 89.167 58.021,89.092 58.167,89.000 58.167 C 88.908 58.167,88.833 58.392,88.833 58.667 C 88.833 58.942,88.758 59.167,88.667 59.167 C 88.575 59.167,88.500 59.387,88.500 59.657 C 88.500 59.926,88.425 60.193,88.333 60.250 C 88.242 60.307,88.167 60.644,88.167 61.000 C 88.167 61.356,88.092 61.693,88.000 61.750 C 87.908 61.807,87.833 62.257,87.833 62.750 C 87.833 63.243,87.758 63.693,87.667 63.750 C 87.564 63.813,87.500 65.165,87.500 67.250 C 87.500 69.335,87.564 70.687,87.667 70.750 C 87.758 70.807,87.833 71.299,87.833 71.843 C 87.833 72.392,87.908 72.833,88.000 72.833 C 88.092 72.833,88.167 73.133,88.167 73.500 C 88.167 73.867,88.242 74.167,88.333 74.167 C 88.425 74.167,88.500 74.387,88.500 74.657 C 88.500 74.926,88.575 75.193,88.667 75.250 C 88.758 75.307,88.833 75.536,88.833 75.760 C 88.833 75.984,88.908 76.167,89.000 76.167 C 89.092 76.167,89.167 76.392,89.167 76.667 C 89.167 76.942,89.242 77.167,89.333 77.167 C 89.425 77.167,89.500 77.317,89.500 77.500 C 89.500 77.683,89.575 77.833,89.667 77.833 C 89.758 77.833,89.833 77.983,89.833 78.167 C 89.833 78.350,89.908 78.500,90.000 78.500 C 90.092 78.500,90.167 78.650,90.167 78.833 C 90.167 79.017,90.242 79.167,90.333 79.167 C 90.425 79.167,90.500 79.317,90.500 79.500 C 90.500 79.683,90.575 79.833,90.667 79.833 C 90.758 79.833,90.833 79.983,90.833 80.167 C 90.833 80.350,90.896 80.500,90.972 80.500 C 91.048 80.500,91.217 80.706,91.347 80.958 C 91.477 81.210,91.715 81.562,91.875 81.740 C 92.035 81.917,92.167 82.145,92.167 82.245 C 92.167 82.345,92.317 82.535,92.500 82.667 C 92.683 82.799,92.833 83.000,92.833 83.115 C 92.833 83.358,96.600 87.167,96.840 87.167 C 96.930 87.167,97.238 87.392,97.526 87.667 C 97.814 87.942,98.116 88.167,98.198 88.167 C 98.280 88.167,98.508 88.317,98.705 88.500 C 98.902 88.683,99.161 88.833,99.281 88.833 C 99.402 88.833,99.500 88.908,99.500 89.000 C 99.500 89.092,99.650 89.167,99.833 89.167 C 100.017 89.167,100.167 89.233,100.167 89.314 C 100.167 89.395,100.298 89.503,100.458 89.554 C 100.619 89.604,100.975 89.775,101.250 89.932 C 102.048 90.387,102.312 90.500,102.581 90.500 C 102.720 90.500,102.833 90.575,102.833 90.667 C 102.833 90.758,102.983 90.833,103.167 90.833 C 103.350 90.833,103.500 90.908,103.500 91.000 C 103.500 91.092,103.725 91.167,104.000 91.167 C 104.275 91.167,104.500 91.242,104.500 91.333 C 104.500 91.425,104.721 91.500,104.990 91.500 C 105.260 91.500,105.527 91.575,105.583 91.667 C 105.640 91.758,105.940 91.833,106.250 91.833 C 106.560 91.833,106.860 91.908,106.917 92.000 C 106.973 92.092,107.428 92.167,107.927 92.167 C 108.425 92.167,108.833 92.242,108.833 92.333 C 108.833 92.439,110.191 92.500,112.573 92.500 C 114.887 92.500,116.353 92.436,116.417 92.333 C 116.473 92.242,116.886 92.167,117.333 92.167 C 117.781 92.167,118.193 92.092,118.250 92.000 C 118.307 91.908,118.644 91.833,119.000 91.833 C 119.356 91.833,119.693 91.758,119.750 91.667 C 119.807 91.575,120.074 91.500,120.343 91.500 C 120.613 91.500,120.833 91.425,120.833 91.333 C 120.833 91.242,121.058 91.167,121.333 91.167 C 121.608 91.167,121.833 91.092,121.833 91.000 C 121.833 90.908,121.983 90.833,122.167 90.833 C 122.350 90.833,122.500 90.758,122.500 90.667 C 122.500 90.575,122.639 90.500,122.810 90.500 C 123.190 90.500,125.167 89.498,125.167 89.306 C 125.167 89.229,125.317 89.167,125.500 89.167 C 125.683 89.167,125.833 89.092,125.833 89.000 C 125.833 88.908,125.927 88.833,126.042 88.833 C 126.156 88.833,126.513 88.608,126.833 88.333 C 127.154 88.059,127.472 87.834,127.539 87.834 C 127.870 87.833,132.167 83.520,132.167 83.189 C 132.167 83.112,132.392 82.814,132.667 82.526 C 132.942 82.238,133.167 81.924,133.167 81.828 C 133.167 81.732,133.317 81.492,133.500 81.295 C 133.683 81.098,133.833 80.839,133.833 80.719 C 133.833 80.598,133.908 80.500,134.000 80.500 C 134.092 80.500,134.167 80.350,134.167 80.167 C 134.167 79.983,134.233 79.833,134.314 79.833 C 134.395 79.833,134.503 79.702,134.554 79.542 C 134.604 79.381,134.775 79.025,134.932 78.750 C 135.387 77.952,135.500 77.688,135.500 77.419 C 135.500 77.280,135.575 77.167,135.667 77.167 C 135.758 77.167,135.833 76.942,135.833 76.667 L 135.833 76.167 129.536 76.167 L 123.239 76.167 122.955 76.646 C 122.595 77.256,121.748 78.167,121.541 78.167 C 121.454 78.167,121.147 78.392,120.860 78.667 C 120.572 78.942,120.223 79.167,120.085 79.167 C 119.947 79.167,119.833 79.242,119.833 79.333 C 119.833 79.425,119.683 79.500,119.500 79.500 C 119.317 79.500,119.167 79.575,119.167 79.667 C 119.167 79.758,119.017 79.833,118.833 79.833 C 118.650 79.833,118.500 79.908,118.500 80.000 C 118.500 80.092,118.350 80.167,118.167 80.167 C 117.983 80.167,117.833 80.242,117.833 80.333 C 117.833 80.425,117.613 80.500,117.343 80.500 C 117.074 80.500,116.807 80.575,116.750 80.667 C 116.693 80.758,116.356 80.833,116.000 80.833 C 115.644 80.833,115.307 80.908,115.250 81.000 C 115.189 81.099,114.137 81.167,112.657 81.167 C 111.108 81.167,110.167 81.104,110.167 81.000 C 110.167 80.908,109.867 80.833,109.500 80.833 C 109.133 80.833,108.833 80.758,108.833 80.667 C 108.833 80.575,108.608 80.500,108.333 80.500 C 108.058 80.500,107.833 80.425,107.833 80.333 C 107.833 80.242,107.683 80.167,107.500 80.167 C 107.317 80.167,107.167 80.092,107.167 80.000 C 107.167 79.908,107.017 79.833,106.833 79.833 C 106.650 79.833,106.500 79.758,106.500 79.667 C 106.500 79.575,106.350 79.500,106.167 79.500 C 105.983 79.500,105.833 79.425,105.833 79.333 C 105.833 79.242,105.700 79.167,105.537 79.167 C 105.374 79.167,105.132 79.017,105.000 78.833 C 104.868 78.650,104.667 78.500,104.554 78.500 C 104.285 78.500,101.500 75.715,101.500 75.446 C 101.500 75.333,101.350 75.132,101.167 75.000 C 100.983 74.868,100.833 74.626,100.833 74.463 C 100.833 74.300,100.758 74.167,100.667 74.167 C 100.575 74.167,100.500 74.017,100.500 73.833 C 100.500 73.650,100.425 73.500,100.333 73.500 C 100.242 73.500,100.167 73.350,100.167 73.167 C 100.167 72.983,100.092 72.833,100.000 72.833 C 99.908 72.833,99.833 72.683,99.833 72.500 C 99.833 72.317,99.758 72.167,99.667 72.167 C 99.575 72.167,99.500 71.942,99.500 71.667 C 99.500 71.392,99.425 71.167,99.333 71.167 C 99.242 71.167,99.167 70.909,99.167 70.593 C 99.167 70.278,99.092 69.973,99.000 69.917 C 98.900 69.855,98.833 68.748,98.833 67.157 C 98.833 65.497,98.896 64.500,99.000 64.500 C 99.092 64.500,99.167 64.200,99.167 63.833 C 99.167 63.467,99.242 63.167,99.333 63.167 C 99.425 63.167,99.500 63.021,99.500 62.843 C 99.500 62.665,99.575 62.473,99.667 62.417 C 99.758 62.360,99.833 62.131,99.833 61.907 C 99.833 61.683,99.908 61.500,100.000 61.500 C 100.092 61.500,100.167 61.350,100.167 61.167 C 100.167 60.983,100.242 60.833,100.333 60.833 C 100.425 60.833,100.500 60.735,100.500 60.615 C 100.500 60.495,100.650 60.235,100.833 60.038 C 101.017 59.842,101.167 59.593,101.167 59.485 C 101.167 59.377,101.301 59.168,101.466 59.020 C 101.631 58.871,101.947 58.487,102.169 58.167 C 102.668 57.445,102.772 57.340,103.500 56.830 C 103.821 56.605,104.301 56.213,104.566 55.960 C 104.832 55.707,105.151 55.500,105.275 55.500 C 105.399 55.500,105.500 55.425,105.500 55.333 C 105.500 55.242,105.650 55.167,105.833 55.167 C 106.017 55.167,106.167 55.110,106.168 55.042 C 106.170 54.892,106.977 54.500,107.283 54.500 C 107.402 54.500,107.500 54.425,107.500 54.333 C 107.500 54.242,107.646 54.167,107.823 54.167 C 108.001 54.167,108.193 54.092,108.250 54.000 C 108.307 53.908,108.569 53.833,108.833 53.833 C 109.098 53.833,109.360 53.758,109.417 53.667 C 109.473 53.575,109.848 53.500,110.250 53.500 C 110.652 53.500,111.027 53.425,111.083 53.333 C 111.140 53.242,111.852 53.167,112.667 53.167 C 113.481 53.167,114.193 53.242,114.250 53.333 C 114.307 53.425,114.761 53.500,115.260 53.500 C 115.759 53.500,116.167 53.575,116.167 53.667 C 116.167 53.758,116.467 53.833,116.833 53.833 C 117.200 53.833,117.500 53.908,117.500 54.000 C 117.500 54.092,117.683 54.167,117.907 54.167 C 118.131 54.167,118.360 54.242,118.417 54.333 C 118.473 54.425,118.665 54.500,118.843 54.500 C 119.021 54.500,119.167 54.575,119.167 54.667 C 119.167 54.758,119.317 54.833,119.500 54.833 C 119.683 54.833,119.833 54.896,119.833 54.972 C 119.833 55.048,120.040 55.214,120.292 55.342 C 120.544 55.469,121.411 56.233,122.219 57.039 L 123.688 58.504 129.886 58.460 C 135.978 58.417,136.082 58.411,136.030 58.083 C 135.882 57.158,135.782 56.833,135.648 56.833 C 135.566 56.833,135.500 56.683,135.500 56.500 C 135.500 56.317,135.425 56.167,135.333 56.167 C 135.242 56.167,135.167 56.017,135.167 55.833 C 135.167 55.650,135.092 55.500,135.000 55.500 C 134.908 55.500,134.833 55.350,134.833 55.167 C 134.833 54.983,134.758 54.833,134.667 54.833 C 134.575 54.833,134.500 54.718,134.500 54.576 C 134.500 54.435,134.350 54.158,134.167 53.962 C 133.983 53.765,133.833 53.505,133.833 53.385 C 133.833 53.265,133.758 53.167,133.667 53.167 C 133.575 53.167,133.500 53.065,133.500 52.941 C 133.500 52.817,133.275 52.481,133.000 52.193 C 132.725 51.905,132.500 51.595,132.500 51.503 C 132.500 51.411,132.053 50.866,131.507 50.293 C 130.961 49.719,130.417 49.148,130.299 49.023 C 129.533 48.215,127.580 46.500,127.426 46.500 C 127.324 46.500,127.132 46.350,127.000 46.167 C 126.868 45.983,126.661 45.833,126.540 45.833 C 126.418 45.833,126.158 45.683,125.962 45.500 C 125.765 45.317,125.505 45.167,125.385 45.167 C 125.265 45.167,125.167 45.092,125.167 45.000 C 125.167 44.908,125.017 44.833,124.833 44.833 C 124.650 44.833,124.500 44.758,124.500 44.667 C 124.500 44.575,124.350 44.500,124.167 44.500 C 123.983 44.500,123.833 44.425,123.833 44.333 C 123.833 44.242,123.683 44.167,123.500 44.167 C 123.317 44.167,123.167 44.092,123.167 44.000 C 123.167 43.908,123.021 43.833,122.843 43.833 C 122.665 43.833,122.473 43.758,122.417 43.667 C 122.360 43.575,122.131 43.500,121.907 43.500 C 121.683 43.500,121.500 43.425,121.500 43.333 C 121.500 43.242,121.275 43.167,121.000 43.167 C 120.725 43.167,120.500 43.092,120.500 43.000 C 120.500 42.908,120.200 42.833,119.833 42.833 C 119.467 42.833,119.167 42.758,119.167 42.667 C 119.167 42.575,118.792 42.500,118.333 42.500 C 117.875 42.500,117.500 42.425,117.500 42.333 C 117.500 42.237,116.976 42.167,116.260 42.167 C 115.578 42.167,114.973 42.092,114.917 42.000 C 114.856 41.902,113.859 41.833,112.490 41.833 C 111.052 41.833,110.167 41.897,110.167 42.000 M161.917 42.000 C 161.860 42.092,161.298 42.167,160.667 42.167 C 160.036 42.167,159.473 42.242,159.417 42.333 C 159.360 42.425,158.981 42.500,158.573 42.500 C 158.166 42.500,157.833 42.575,157.833 42.667 C 157.833 42.758,157.613 42.833,157.343 42.833 C 157.074 42.833,156.807 42.908,156.750 43.000 C 156.693 43.092,156.468 43.167,156.250 43.167 C 156.032 43.167,155.807 43.242,155.750 43.333 C 155.693 43.425,155.464 43.500,155.240 43.500 C 155.016 43.500,154.833 43.575,154.833 43.667 C 154.833 43.758,154.683 43.833,154.500 43.833 C 154.317 43.833,154.167 43.908,154.167 44.000 C 154.167 44.092,154.061 44.167,153.932 44.167 C 153.655 44.167,152.274 44.862,152.194 45.042 C 152.164 45.110,151.995 45.167,151.819 45.167 C 151.644 45.167,151.500 45.242,151.500 45.333 C 151.500 45.425,151.367 45.500,151.203 45.500 C 151.040 45.500,150.799 45.650,150.667 45.833 C 150.535 46.017,150.310 46.167,150.167 46.167 C 150.024 46.167,149.799 46.317,149.667 46.500 C 149.535 46.683,149.343 46.833,149.241 46.833 C 148.813 46.833,144.167 51.415,144.167 51.837 C 144.167 51.929,143.942 52.238,143.667 52.526 C 143.392 52.814,143.167 53.151,143.167 53.275 C 143.167 53.399,143.092 53.500,143.000 53.500 C 142.908 53.500,142.833 53.616,142.833 53.757 C 142.833 53.898,142.683 54.175,142.500 54.372 C 142.317 54.569,142.167 54.828,142.167 54.948 C 142.167 55.068,142.092 55.167,142.000 55.167 C 141.908 55.167,141.833 55.317,141.833 55.500 C 141.833 55.683,141.758 55.833,141.667 55.833 C 141.575 55.833,141.500 55.983,141.500 56.167 C 141.500 56.350,141.425 56.500,141.333 56.500 C 141.242 56.500,141.167 56.683,141.167 56.907 C 141.167 57.131,141.092 57.360,141.000 57.417 C 140.908 57.473,140.833 57.665,140.833 57.843 C 140.833 58.021,140.758 58.167,140.667 58.167 C 140.575 58.167,140.500 58.392,140.500 58.667 C 140.500 58.942,140.425 59.167,140.333 59.167 C 140.242 59.167,140.167 59.392,140.167 59.667 C 140.167 59.942,140.092 60.167,140.000 60.167 C 139.908 60.167,139.833 60.462,139.833 60.823 C 139.833 61.185,139.758 61.527,139.667 61.583 C 139.575 61.640,139.500 62.090,139.500 62.583 C 139.500 63.077,139.425 63.527,139.333 63.583 C 139.230 63.647,139.167 65.082,139.167 67.333 C 139.167 69.585,139.230 71.020,139.333 71.083 C 139.425 71.140,139.500 71.632,139.500 72.177 C 139.500 72.726,139.574 73.167,139.667 73.167 C 139.758 73.167,139.833 73.467,139.833 73.833 C 139.833 74.200,139.908 74.500,140.000 74.500 C 140.092 74.500,140.167 74.758,140.167 75.073 C 140.167 75.389,140.242 75.693,140.333 75.750 C 140.425 75.807,140.500 76.032,140.500 76.250 C 140.500 76.468,140.575 76.693,140.667 76.750 C 140.758 76.807,140.833 76.999,140.833 77.177 C 140.833 77.354,140.908 77.500,141.000 77.500 C 141.092 77.500,141.167 77.683,141.167 77.907 C 141.167 78.131,141.242 78.360,141.333 78.417 C 141.425 78.473,141.500 78.665,141.500 78.843 C 141.500 79.021,141.575 79.167,141.667 79.167 C 141.758 79.167,141.833 79.310,141.833 79.486 C 141.833 79.662,141.890 79.831,141.958 79.861 C 142.115 79.931,142.656 80.818,142.780 81.208 C 142.831 81.369,142.938 81.500,143.019 81.500 C 143.100 81.500,143.167 81.594,143.167 81.708 C 143.167 81.823,143.392 82.179,143.667 82.500 C 143.941 82.821,144.166 83.138,144.166 83.206 C 144.168 83.601,148.459 87.833,148.858 87.833 C 148.961 87.833,149.166 87.965,149.314 88.126 C 149.462 88.287,149.790 88.525,150.042 88.654 C 150.294 88.784,150.500 88.952,150.500 89.028 C 150.500 89.104,150.650 89.167,150.833 89.167 C 151.017 89.167,151.167 89.242,151.167 89.333 C 151.167 89.425,151.317 89.500,151.500 89.500 C 151.683 89.500,151.833 89.575,151.833 89.667 C 151.833 89.758,151.983 89.833,152.167 89.833 C 152.350 89.833,152.500 89.908,152.500 90.000 C 152.500 90.092,152.650 90.167,152.833 90.167 C 153.017 90.167,153.167 90.242,153.167 90.333 C 153.167 90.425,153.317 90.500,153.500 90.500 C 153.683 90.500,153.833 90.575,153.833 90.667 C 153.833 90.758,154.016 90.833,154.240 90.833 C 154.464 90.833,154.693 90.908,154.750 91.000 C 154.807 91.092,155.032 91.167,155.250 91.167 C 155.468 91.167,155.693 91.242,155.750 91.333 C 155.807 91.425,156.074 91.500,156.343 91.500 C 156.613 91.500,156.833 91.575,156.833 91.667 C 156.833 91.758,157.129 91.833,157.490 91.833 C 157.851 91.833,158.193 91.908,158.250 92.000 C 158.307 92.092,158.757 92.167,159.250 92.167 C 159.743 92.167,160.193 92.242,160.250 92.333 C 160.314 92.437,161.804 92.500,164.167 92.500 C 166.529 92.500,168.020 92.437,168.083 92.333 C 168.140 92.242,168.552 92.167,169.000 92.167 C 169.448 92.167,169.860 92.092,169.917 92.000 C 169.973 91.908,170.273 91.833,170.583 91.833 C 170.893 91.833,171.193 91.758,171.250 91.667 C 171.307 91.575,171.569 91.500,171.833 91.500 C 172.098 91.500,172.360 91.425,172.417 91.333 C 172.473 91.242,172.698 91.167,172.917 91.167 C 173.135 91.167,173.360 91.092,173.417 91.000 C 173.473 90.908,173.665 90.833,173.843 90.833 C 174.021 90.833,174.167 90.758,174.167 90.667 C 174.167 90.575,174.317 90.500,174.500 90.500 C 174.683 90.500,174.833 90.425,174.833 90.333 C 174.833 90.242,174.983 90.167,175.167 90.167 C 175.350 90.167,175.500 90.092,175.500 90.000 C 175.500 89.908,175.650 89.833,175.833 89.833 C 176.017 89.833,176.167 89.758,176.167 89.667 C 176.167 89.575,176.317 89.500,176.500 89.500 C 176.683 89.500,176.833 89.425,176.833 89.333 C 176.833 89.242,176.932 89.167,177.052 89.167 C 177.172 89.167,177.431 89.017,177.628 88.833 C 178.140 88.357,178.167 88.390,178.167 89.500 L 178.167 90.500 183.833 90.500 L 189.500 90.500 189.500 77.843 C 189.500 69.585,189.442 65.151,189.333 65.083 C 189.242 65.027,189.167 64.427,189.167 63.750 C 189.167 63.073,189.092 62.473,189.000 62.417 C 188.908 62.360,188.833 61.981,188.833 61.573 C 188.833 61.166,188.758 60.833,188.667 60.833 C 188.575 60.833,188.500 60.575,188.500 60.260 C 188.500 59.944,188.425 59.640,188.333 59.583 C 188.242 59.527,188.167 59.302,188.167 59.083 C 188.167 58.865,188.092 58.640,188.000 58.583 C 187.908 58.527,187.833 58.335,187.833 58.157 C 187.833 57.979,187.758 57.833,187.667 57.833 C 187.575 57.833,187.500 57.608,187.500 57.333 C 187.500 57.058,187.425 56.833,187.333 56.833 C 187.242 56.833,187.167 56.683,187.167 56.500 C 187.167 56.317,187.092 56.167,187.000 56.167 C 186.908 56.167,186.833 56.017,186.833 55.833 C 186.833 55.650,186.758 55.500,186.667 55.500 C 186.575 55.500,186.500 55.350,186.500 55.167 C 186.500 54.983,186.425 54.833,186.333 54.833 C 186.242 54.833,186.167 54.735,186.167 54.615 C 186.167 54.495,186.017 54.235,185.833 54.038 C 185.650 53.842,185.500 53.565,185.500 53.424 C 185.500 53.282,185.438 53.167,185.361 53.167 C 185.285 53.167,185.117 52.962,184.986 52.711 C 184.856 52.461,184.544 52.037,184.292 51.770 C 184.040 51.503,183.833 51.216,183.833 51.134 C 183.833 50.935,180.021 47.167,179.820 47.167 C 179.734 47.167,179.428 46.942,179.140 46.667 C 178.853 46.392,178.516 46.167,178.392 46.167 C 178.268 46.167,178.167 46.092,178.167 46.000 C 178.167 45.908,178.068 45.833,177.948 45.833 C 177.828 45.833,177.569 45.683,177.372 45.500 C 177.175 45.317,176.898 45.167,176.757 45.167 C 176.616 45.167,176.500 45.092,176.500 45.000 C 176.500 44.908,176.350 44.833,176.167 44.833 C 175.983 44.833,175.833 44.758,175.833 44.667 C 175.833 44.575,175.683 44.500,175.500 44.500 C 175.317 44.500,175.167 44.425,175.167 44.333 C 175.167 44.242,175.017 44.167,174.833 44.167 C 174.650 44.167,174.500 44.092,174.500 44.000 C 174.500 43.908,174.350 43.833,174.167 43.833 C 173.983 43.833,173.833 43.758,173.833 43.667 C 173.833 43.575,173.608 43.500,173.333 43.500 C 173.058 43.500,172.833 43.425,172.833 43.333 C 172.833 43.242,172.608 43.167,172.333 43.167 C 172.058 43.167,171.833 43.092,171.833 43.000 C 171.833 42.908,171.613 42.833,171.343 42.833 C 171.074 42.833,170.807 42.758,170.750 42.667 C 170.693 42.575,170.314 42.500,169.907 42.500 C 169.500 42.500,169.167 42.425,169.167 42.333 C 169.167 42.238,168.670 42.167,168.010 42.167 C 167.374 42.167,166.807 42.092,166.750 42.000 C 166.689 41.902,165.696 41.833,164.333 41.833 C 162.971 41.833,161.977 41.902,161.917 42.000 M214.083 42.000 C 214.027 42.092,213.572 42.167,213.073 42.167 C 212.575 42.167,212.167 42.242,212.167 42.333 C 212.167 42.425,211.942 42.500,211.667 42.500 C 211.392 42.500,211.167 42.575,211.167 42.667 C 211.167 42.758,211.024 42.833,210.849 42.833 C 210.471 42.833,209.167 43.503,209.167 43.698 C 209.167 43.772,209.047 43.833,208.900 43.833 C 208.754 43.833,208.435 44.040,208.192 44.292 C 207.949 44.545,207.469 44.961,207.125 45.217 L 206.500 45.684 206.500 44.925 L 206.500 44.167 200.833 44.167 L 195.167 44.167 195.167 67.333 L 195.167 90.500 200.833 90.500 L 206.500 90.500 206.500 76.010 C 206.500 66.530,206.558 61.484,206.667 61.417 C 206.758 61.360,206.833 61.098,206.833 60.833 C 206.833 60.569,206.908 60.307,207.000 60.250 C 207.092 60.193,207.167 60.001,207.167 59.823 C 207.167 59.646,207.242 59.500,207.333 59.500 C 207.425 59.500,207.500 59.350,207.500 59.167 C 207.500 58.983,207.575 58.833,207.667 58.833 C 207.758 58.833,207.833 58.683,207.833 58.500 C 207.833 58.317,207.896 58.167,207.972 58.167 C 208.048 58.167,208.217 57.962,208.347 57.711 C 208.630 57.165,210.586 55.167,210.837 55.167 C 210.934 55.167,211.175 55.017,211.372 54.833 C 211.569 54.650,211.828 54.500,211.948 54.500 C 212.068 54.500,212.167 54.425,212.167 54.333 C 212.167 54.242,212.350 54.167,212.573 54.167 C 212.797 54.167,213.027 54.092,213.083 54.000 C 213.140 53.908,213.407 53.833,213.677 53.833 C 213.946 53.833,214.167 53.758,214.167 53.667 C 214.167 53.566,214.886 53.500,215.990 53.500 C 217.026 53.500,217.858 53.572,217.917 53.667 C 217.973 53.758,218.278 53.833,218.593 53.833 C 218.909 53.833,219.167 53.908,219.167 54.000 C 219.167 54.092,219.317 54.167,219.500 54.167 C 219.683 54.167,219.833 54.242,219.833 54.333 C 219.833 54.425,219.947 54.500,220.086 54.500 C 220.381 54.500,220.929 54.796,221.398 55.208 C 221.580 55.369,221.797 55.500,221.879 55.500 C 222.072 55.500,223.833 57.329,223.833 57.529 C 223.833 57.613,223.983 57.842,224.167 58.038 C 224.350 58.235,224.500 58.495,224.500 58.615 C 224.500 58.735,224.575 58.833,224.667 58.833 C 224.758 58.833,224.833 58.979,224.833 59.157 C 224.833 59.335,224.908 59.527,225.000 59.583 C 225.092 59.640,225.167 59.865,225.167 60.083 C 225.167 60.302,225.242 60.527,225.333 60.583 C 225.425 60.640,225.500 61.015,225.500 61.417 C 225.500 61.818,225.575 62.193,225.667 62.250 C 225.776 62.317,225.833 67.224,225.833 76.427 L 225.833 90.500 231.500 90.500 L 237.167 90.500 237.167 76.000 C 237.167 66.444,237.223 61.500,237.333 61.500 C 237.425 61.500,237.500 61.200,237.500 60.833 C 237.500 60.467,237.575 60.167,237.667 60.167 C 237.758 60.167,237.833 60.017,237.833 59.833 C 237.833 59.650,237.908 59.500,238.000 59.500 C 238.092 59.500,238.167 59.402,238.167 59.283 C 238.167 58.977,238.559 58.170,238.708 58.168 C 238.777 58.167,238.833 58.058,238.833 57.925 C 238.833 57.609,241.276 55.167,241.591 55.167 C 241.724 55.167,241.833 55.103,241.833 55.026 C 241.833 54.949,242.190 54.716,242.625 54.508 C 243.060 54.300,243.547 54.063,243.706 53.982 C 243.865 53.900,244.184 53.833,244.414 53.833 C 244.645 53.833,244.833 53.758,244.833 53.667 C 244.833 53.566,245.552 53.500,246.657 53.500 C 247.693 53.500,248.525 53.572,248.583 53.667 C 248.640 53.758,248.902 53.833,249.167 53.833 C 249.431 53.833,249.693 53.908,249.750 54.000 C 249.807 54.092,249.999 54.167,250.177 54.167 C 250.354 54.167,250.500 54.242,250.500 54.333 C 250.500 54.425,250.650 54.500,250.833 54.500 C 251.017 54.500,251.167 54.562,251.167 54.639 C 251.167 54.715,251.371 54.883,251.620 55.014 C 252.614 55.532,254.833 57.772,254.833 58.256 C 254.833 58.390,254.908 58.500,255.000 58.500 C 255.092 58.500,255.167 58.650,255.167 58.833 C 255.167 59.017,255.242 59.167,255.333 59.167 C 255.425 59.167,255.500 59.317,255.500 59.500 C 255.500 59.683,255.575 59.833,255.667 59.833 C 255.758 59.833,255.833 60.058,255.833 60.333 C 255.833 60.608,255.908 60.833,256.000 60.833 C 256.101 60.833,256.167 61.556,256.167 62.667 C 256.167 63.778,256.232 64.500,256.333 64.500 C 256.443 64.500,256.500 68.944,256.500 77.500 L 256.500 90.500 262.167 90.500 L 267.833 90.500 267.833 75.927 C 267.833 66.391,267.776 61.317,267.667 61.250 C 267.575 61.193,267.500 60.626,267.500 59.990 C 267.500 59.330,267.428 58.833,267.333 58.833 C 267.242 58.833,267.167 58.538,267.167 58.177 C 267.167 57.815,267.092 57.473,267.000 57.417 C 266.908 57.360,266.833 57.130,266.833 56.905 C 266.833 56.680,266.747 56.328,266.641 56.123 C 266.226 55.320,266.167 55.160,266.167 54.836 C 266.167 54.651,266.092 54.500,266.000 54.500 C 265.908 54.500,265.833 54.350,265.833 54.167 C 265.833 53.983,265.758 53.833,265.667 53.833 C 265.575 53.833,265.500 53.683,265.500 53.500 C 265.500 53.317,265.425 53.167,265.333 53.167 C 265.242 53.167,265.167 53.017,265.167 52.833 C 265.167 52.650,265.092 52.500,265.000 52.500 C 264.908 52.500,264.833 52.402,264.833 52.281 C 264.833 52.161,264.683 51.902,264.500 51.705 C 264.317 51.508,264.166 51.288,264.166 51.215 C 264.166 51.143,263.941 50.821,263.667 50.500 C 263.392 50.179,263.167 49.857,263.167 49.783 C 263.166 49.583,259.669 46.167,259.465 46.167 C 259.368 46.167,259.168 46.035,259.020 45.874 C 258.871 45.713,258.544 45.475,258.292 45.346 C 258.040 45.216,257.833 45.048,257.833 44.972 C 257.833 44.896,257.683 44.833,257.500 44.833 C 257.317 44.833,257.167 44.767,257.167 44.686 C 257.167 44.605,257.035 44.497,256.875 44.446 C 256.715 44.396,256.358 44.225,256.083 44.068 C 255.286 43.613,255.021 43.500,254.752 43.500 C 254.614 43.500,254.500 43.425,254.500 43.333 C 254.500 43.242,254.317 43.167,254.093 43.167 C 253.869 43.167,253.640 43.092,253.583 43.000 C 253.527 42.908,253.260 42.833,252.990 42.833 C 252.721 42.833,252.500 42.758,252.500 42.667 C 252.500 42.575,252.200 42.500,251.833 42.500 C 251.467 42.500,251.167 42.425,251.167 42.333 C 251.167 42.241,250.726 42.167,250.177 42.167 C 249.632 42.167,249.140 42.092,249.083 42.000 C 249.023 41.902,248.054 41.833,246.740 41.833 C 245.358 41.833,244.500 41.897,244.500 42.000 C 244.500 42.094,244.031 42.167,243.427 42.167 C 242.836 42.167,242.307 42.242,242.250 42.333 C 242.193 42.425,241.851 42.500,241.490 42.500 C 241.129 42.500,240.833 42.575,240.833 42.667 C 240.833 42.758,240.608 42.833,240.333 42.833 C 240.058 42.833,239.833 42.908,239.833 43.000 C 239.833 43.092,239.608 43.167,239.333 43.167 C 239.058 43.167,238.833 43.242,238.833 43.333 C 238.833 43.425,238.683 43.500,238.500 43.500 C 238.317 43.500,238.167 43.575,238.167 43.667 C 238.167 43.758,238.061 43.833,237.932 43.833 C 237.655 43.833,236.274 44.528,236.194 44.708 C 236.164 44.777,235.995 44.833,235.819 44.833 C 235.644 44.833,235.500 44.908,235.500 45.000 C 235.500 45.092,235.406 45.167,235.292 45.167 C 235.177 45.167,234.821 45.392,234.500 45.667 C 234.179 45.941,233.862 46.166,233.794 46.166 C 233.727 46.166,233.390 46.425,233.044 46.740 C 232.699 47.055,232.103 47.585,231.719 47.916 L 231.022 48.519 229.831 47.343 C 229.177 46.696,228.571 46.167,228.486 46.167 C 228.400 46.167,228.095 45.942,227.807 45.667 C 227.519 45.392,227.183 45.167,227.059 45.167 C 226.935 45.167,226.833 45.092,226.833 45.000 C 226.833 44.908,226.735 44.833,226.615 44.833 C 226.495 44.833,226.235 44.683,226.038 44.500 C 225.842 44.317,225.565 44.167,225.424 44.167 C 225.282 44.167,225.167 44.092,225.167 44.000 C 225.167 43.908,225.017 43.833,224.833 43.833 C 224.650 43.833,224.500 43.758,224.500 43.667 C 224.500 43.575,224.354 43.500,224.177 43.500 C 223.999 43.500,223.807 43.425,223.750 43.333 C 223.693 43.242,223.464 43.167,223.240 43.167 C 223.016 43.167,222.833 43.092,222.833 43.000 C 222.833 42.908,222.608 42.833,222.333 42.833 C 222.058 42.833,221.833 42.758,221.833 42.667 C 221.833 42.575,221.533 42.500,221.167 42.500 C 220.800 42.500,220.500 42.425,220.500 42.333 C 220.500 42.239,220.031 42.167,219.427 42.167 C 218.836 42.167,218.307 42.092,218.250 42.000 C 218.191 41.904,217.307 41.833,216.167 41.833 C 215.026 41.833,214.143 41.904,214.083 42.000 M294.167 42.000 C 294.167 42.092,293.726 42.167,293.177 42.167 C 292.632 42.167,292.140 42.242,292.083 42.333 C 292.027 42.425,291.689 42.500,291.333 42.500 C 290.977 42.500,290.640 42.575,290.583 42.667 C 290.527 42.758,290.260 42.833,289.990 42.833 C 289.721 42.833,289.500 42.908,289.500 43.000 C 289.500 43.092,289.275 43.167,289.000 43.167 C 288.725 43.167,288.500 43.242,288.500 43.333 C 288.500 43.425,288.317 43.500,288.093 43.500 C 287.869 43.500,287.640 43.575,287.583 43.667 C 287.527 43.758,287.335 43.833,287.157 43.833 C 286.979 43.833,286.833 43.908,286.833 44.000 C 286.833 44.092,286.683 44.167,286.500 44.167 C 286.317 44.167,286.167 44.242,286.167 44.333 C 286.167 44.425,286.017 44.500,285.833 44.500 C 285.650 44.500,285.500 44.575,285.500 44.667 C 285.500 44.758,285.367 44.833,285.203 44.833 C 285.040 44.833,284.799 44.983,284.667 45.167 C 284.535 45.350,284.293 45.500,284.130 45.500 C 283.967 45.500,283.833 45.562,283.833 45.639 C 283.833 45.715,283.628 45.883,283.378 46.014 C 283.127 46.144,282.704 46.456,282.436 46.708 C 282.169 46.960,281.883 47.167,281.801 47.167 C 281.602 47.167,277.500 51.311,277.500 51.512 C 277.500 51.599,277.275 51.905,277.000 52.193 C 276.725 52.481,276.500 52.783,276.500 52.865 C 276.500 52.947,276.350 53.175,276.167 53.372 C 275.983 53.569,275.833 53.828,275.833 53.948 C 275.833 54.068,275.758 54.167,275.667 54.167 C 275.575 54.167,275.500 54.317,275.500 54.500 C 275.500 54.683,275.444 54.834,275.375 54.835 C 275.225 54.836,274.833 55.643,274.833 55.950 C 274.833 56.069,274.758 56.167,274.667 56.167 C 274.575 56.167,274.500 56.317,274.500 56.500 C 274.500 56.683,274.425 56.833,274.333 56.833 C 274.242 56.833,274.167 56.983,274.167 57.167 C 274.167 57.350,274.092 57.500,274.000 57.500 C 273.908 57.500,273.833 57.725,273.833 58.000 C 273.833 58.275,273.758 58.500,273.667 58.500 C 273.575 58.500,273.500 58.725,273.500 59.000 C 273.500 59.275,273.425 59.500,273.333 59.500 C 273.242 59.500,273.167 59.758,273.167 60.073 C 273.167 60.389,273.092 60.693,273.000 60.750 C 272.908 60.807,272.833 61.149,272.833 61.510 C 272.833 61.871,272.758 62.167,272.667 62.167 C 272.574 62.167,272.500 62.608,272.500 63.157 C 272.500 63.701,272.425 64.193,272.333 64.250 C 272.232 64.312,272.167 65.526,272.167 67.333 C 272.167 69.140,272.232 70.354,272.333 70.417 C 272.425 70.473,272.500 70.965,272.500 71.510 C 272.500 72.059,272.574 72.500,272.667 72.500 C 272.758 72.500,272.833 72.796,272.833 73.157 C 272.833 73.518,272.908 73.860,273.000 73.917 C 273.092 73.973,273.167 74.278,273.167 74.593 C 273.167 74.909,273.242 75.167,273.333 75.167 C 273.425 75.167,273.500 75.392,273.500 75.667 C 273.500 75.942,273.575 76.167,273.667 76.167 C 273.758 76.167,273.833 76.312,273.833 76.490 C 273.833 76.668,273.908 76.860,274.000 76.917 C 274.092 76.973,274.167 77.203,274.167 77.427 C 274.167 77.650,274.242 77.833,274.333 77.833 C 274.425 77.833,274.500 77.983,274.500 78.167 C 274.500 78.350,274.575 78.500,274.667 78.500 C 274.758 78.500,274.833 78.650,274.833 78.833 C 274.833 79.017,274.908 79.167,275.000 79.167 C 275.092 79.167,275.167 79.317,275.167 79.500 C 275.167 79.683,275.242 79.833,275.333 79.833 C 275.425 79.833,275.500 79.932,275.500 80.052 C 275.500 80.172,275.650 80.431,275.833 80.628 C 276.017 80.825,276.167 81.085,276.167 81.206 C 276.167 81.327,276.317 81.535,276.500 81.667 C 276.683 81.799,276.833 81.992,276.833 82.095 C 276.833 82.199,277.040 82.501,277.293 82.767 C 277.547 83.033,277.938 83.512,278.164 83.833 C 278.654 84.531,280.971 86.833,281.184 86.833 C 281.266 86.833,281.642 87.133,282.020 87.500 C 282.398 87.867,282.776 88.167,282.860 88.167 C 282.945 88.167,283.175 88.317,283.372 88.500 C 283.569 88.683,283.828 88.833,283.948 88.833 C 284.068 88.833,284.167 88.908,284.167 89.000 C 284.167 89.092,284.317 89.167,284.500 89.167 C 284.683 89.167,284.833 89.229,284.833 89.306 C 284.833 89.498,286.810 90.500,287.190 90.500 C 287.361 90.500,287.500 90.575,287.500 90.667 C 287.500 90.758,287.650 90.833,287.833 90.833 C 288.017 90.833,288.167 90.908,288.167 91.000 C 288.167 91.092,288.392 91.167,288.667 91.167 C 288.942 91.167,289.167 91.242,289.167 91.333 C 289.167 91.425,289.392 91.500,289.667 91.500 C 289.942 91.500,290.167 91.575,290.167 91.667 C 290.167 91.758,290.467 91.833,290.833 91.833 C 291.200 91.833,291.500 91.908,291.500 92.000 C 291.500 92.092,291.875 92.167,292.333 92.167 C 292.792 92.167,293.167 92.242,293.167 92.333 C 293.167 92.440,294.608 92.500,297.157 92.500 C 299.637 92.500,301.186 92.437,301.250 92.333 C 301.307 92.242,301.719 92.167,302.167 92.167 C 302.614 92.167,303.027 92.092,303.083 92.000 C 303.140 91.908,303.402 91.833,303.667 91.833 C 303.931 91.833,304.193 91.758,304.250 91.667 C 304.307 91.575,304.537 91.500,304.762 91.500 C 304.987 91.500,305.320 91.425,305.502 91.333 C 305.684 91.242,305.982 91.092,306.164 91.000 C 306.346 90.908,306.646 90.833,306.831 90.833 C 307.016 90.833,307.167 90.758,307.167 90.667 C 307.167 90.575,307.272 90.500,307.401 90.500 C 307.679 90.500,309.059 89.805,309.139 89.625 C 309.169 89.556,309.338 89.500,309.514 89.500 C 309.690 89.500,309.833 89.425,309.833 89.333 C 309.833 89.242,309.983 89.167,310.167 89.167 C 310.350 89.167,310.500 89.104,310.500 89.028 C 310.500 88.952,310.706 88.784,310.958 88.654 C 311.210 88.525,311.538 88.287,311.686 88.126 C 311.834 87.965,312.047 87.833,312.158 87.833 C 312.269 87.833,312.648 87.533,313.000 87.167 C 313.352 86.800,313.705 86.500,313.783 86.500 C 313.963 86.500,316.167 84.288,316.167 84.108 C 316.167 84.034,316.467 83.686,316.833 83.333 C 317.200 82.981,317.500 82.631,317.500 82.555 C 317.501 82.479,317.725 82.154,318.000 81.833 C 318.275 81.512,318.499 81.191,318.500 81.118 C 318.500 81.045,318.650 80.825,318.833 80.628 C 319.017 80.431,319.167 80.172,319.167 80.052 C 319.167 79.932,319.242 79.833,319.333 79.833 C 319.425 79.833,319.500 79.683,319.500 79.500 C 319.500 79.317,319.566 79.167,319.647 79.167 C 319.728 79.167,319.836 79.035,319.887 78.875 C 319.938 78.715,320.108 78.358,320.265 78.083 C 320.720 77.286,320.833 77.021,320.833 76.752 C 320.833 76.614,320.908 76.500,321.000 76.500 C 321.092 76.500,321.167 76.354,321.167 76.177 C 321.167 75.999,321.242 75.807,321.333 75.750 C 321.425 75.693,321.500 75.468,321.500 75.250 C 321.500 75.032,321.575 74.807,321.667 74.750 C 321.758 74.693,321.833 74.389,321.833 74.073 C 321.833 73.758,321.908 73.500,322.000 73.500 C 322.092 73.500,322.167 73.204,322.167 72.843 C 322.167 72.482,322.242 72.140,322.333 72.083 C 322.425 72.027,322.500 71.497,322.500 70.907 C 322.500 70.302,322.573 69.833,322.667 69.833 C 322.770 69.833,322.833 68.948,322.833 67.510 C 322.833 66.141,322.765 65.144,322.667 65.083 C 322.575 65.027,322.500 64.464,322.500 63.833 C 322.500 63.202,322.425 62.640,322.333 62.583 C 322.242 62.527,322.167 62.189,322.167 61.833 C 322.167 61.477,322.092 61.140,322.000 61.083 C 321.908 61.027,321.833 60.722,321.833 60.407 C 321.833 60.091,321.758 59.833,321.667 59.833 C 321.575 59.833,321.500 59.608,321.500 59.333 C 321.500 59.058,321.425 58.833,321.333 58.833 C 321.242 58.833,321.167 58.608,321.167 58.333 C 321.167 58.058,321.092 57.833,321.000 57.833 C 320.908 57.833,320.833 57.650,320.833 57.427 C 320.833 57.203,320.758 56.973,320.667 56.917 C 320.575 56.860,320.500 56.668,320.500 56.490 C 320.500 56.312,320.425 56.167,320.333 56.167 C 320.242 56.167,320.167 56.017,320.167 55.833 C 320.167 55.650,320.092 55.500,320.000 55.500 C 319.908 55.500,319.833 55.350,319.833 55.167 C 319.833 54.983,319.758 54.833,319.667 54.833 C 319.575 54.833,319.500 54.683,319.500 54.500 C 319.500 54.317,319.425 54.167,319.333 54.167 C 319.242 54.167,319.167 54.017,319.167 53.833 C 319.167 52.850,318.387 53.444,314.249 57.582 C 310.106 61.726,309.650 62.328,310.333 62.750 C 310.425 62.807,310.500 62.999,310.500 63.177 C 310.500 63.354,310.575 63.500,310.667 63.500 C 310.758 63.500,310.833 63.800,310.833 64.167 C 310.833 64.533,310.908 64.833,311.000 64.833 C 311.104 64.833,311.167 65.833,311.167 67.500 C 311.167 69.167,311.104 70.167,311.000 70.167 C 310.908 70.167,310.833 70.467,310.833 70.833 C 310.833 71.200,310.758 71.500,310.667 71.500 C 310.575 71.500,310.500 71.614,310.500 71.752 C 310.500 72.021,310.387 72.286,309.932 73.083 C 309.775 73.358,309.604 73.715,309.554 73.875 C 309.503 74.035,309.395 74.167,309.314 74.167 C 309.233 74.167,309.167 74.280,309.167 74.418 C 309.167 74.557,308.942 74.905,308.667 75.193 C 308.392 75.481,308.167 75.781,308.167 75.861 C 308.167 76.050,306.050 78.167,305.861 78.167 C 305.781 78.167,305.481 78.392,305.193 78.667 C 304.905 78.942,304.557 79.167,304.418 79.167 C 304.280 79.167,304.167 79.242,304.167 79.333 C 304.167 79.425,304.017 79.500,303.833 79.500 C 303.650 79.500,303.500 79.575,303.500 79.667 C 303.500 79.758,303.350 79.833,303.167 79.833 C 302.983 79.833,302.833 79.908,302.833 80.000 C 302.833 80.092,302.683 80.167,302.500 80.167 C 302.317 80.167,302.167 80.242,302.167 80.333 C 302.167 80.425,301.942 80.500,301.667 80.500 C 301.392 80.500,301.167 80.575,301.167 80.667 C 301.167 80.758,300.909 80.833,300.593 80.833 C 300.278 80.833,299.973 80.908,299.917 81.000 C 299.855 81.099,298.779 81.167,297.250 81.167 C 295.721 81.167,294.645 81.099,294.583 81.000 C 294.527 80.908,294.259 80.833,293.988 80.833 C 293.717 80.833,293.346 80.758,293.164 80.667 C 292.982 80.575,292.684 80.425,292.502 80.333 C 292.320 80.242,292.020 80.167,291.836 80.167 C 291.651 80.167,291.500 80.092,291.500 80.000 C 291.500 79.908,291.350 79.833,291.167 79.833 C 290.983 79.833,290.833 79.758,290.833 79.667 C 290.833 79.575,290.735 79.500,290.615 79.500 C 290.495 79.500,290.235 79.350,290.038 79.167 C 289.842 78.983,289.621 78.833,289.549 78.833 C 289.334 78.833,288.500 78.061,288.500 77.863 C 288.500 77.763,294.650 71.526,302.167 64.004 C 309.683 56.482,315.833 50.249,315.833 50.152 C 315.833 49.914,313.348 47.500,313.103 47.500 C 312.995 47.500,312.799 47.350,312.667 47.167 C 312.535 46.983,312.345 46.833,312.245 46.833 C 312.145 46.833,311.917 46.702,311.740 46.542 C 311.562 46.381,311.210 46.144,310.958 46.014 C 310.706 45.883,310.500 45.715,310.500 45.639 C 310.500 45.562,310.350 45.500,310.167 45.500 C 309.983 45.500,309.833 45.425,309.833 45.333 C 309.833 45.242,309.683 45.167,309.500 45.167 C 309.317 45.167,309.166 45.110,309.165 45.042 C 309.164 44.892,308.357 44.500,308.050 44.500 C 307.931 44.500,307.833 44.425,307.833 44.333 C 307.833 44.242,307.683 44.167,307.500 44.167 C 307.317 44.167,307.167 44.092,307.167 44.000 C 307.167 43.908,307.021 43.833,306.843 43.833 C 306.665 43.833,306.473 43.758,306.417 43.667 C 306.360 43.575,306.131 43.500,305.907 43.500 C 305.683 43.500,305.500 43.425,305.500 43.333 C 305.500 43.242,305.275 43.167,305.000 43.167 C 304.725 43.167,304.500 43.092,304.500 43.000 C 304.500 42.908,304.242 42.833,303.927 42.833 C 303.611 42.833,303.307 42.758,303.250 42.667 C 303.193 42.575,302.851 42.500,302.490 42.500 C 302.129 42.500,301.833 42.425,301.833 42.333 C 301.833 42.241,301.392 42.167,300.843 42.167 C 300.299 42.167,299.807 42.092,299.750 42.000 C 299.688 41.900,298.554 41.833,296.907 41.833 C 295.191 41.833,294.167 41.896,294.167 42.000 M348.583 42.000 C 348.527 42.092,347.960 42.167,347.323 42.167 C 346.663 42.167,346.167 42.238,346.167 42.333 C 346.167 42.425,345.834 42.500,345.427 42.500 C 345.019 42.500,344.640 42.575,344.583 42.667 C 344.527 42.758,344.260 42.833,343.990 42.833 C 343.721 42.833,343.500 42.908,343.500 43.000 C 343.500 43.092,343.275 43.167,343.000 43.167 C 342.725 43.167,342.500 43.242,342.500 43.333 C 342.500 43.425,342.275 43.500,342.000 43.500 C 341.725 43.500,341.500 43.575,341.500 43.667 C 341.500 43.758,341.350 43.833,341.167 43.833 C 340.983 43.833,340.833 43.908,340.833 44.000 C 340.833 44.092,340.683 44.167,340.500 44.167 C 340.317 44.167,340.167 44.242,340.167 44.333 C 340.167 44.425,340.017 44.500,339.833 44.500 C 339.650 44.500,339.500 44.575,339.500 44.667 C 339.500 44.758,339.350 44.833,339.167 44.833 C 338.983 44.833,338.833 44.908,338.833 45.000 C 338.833 45.092,338.683 45.167,338.500 45.167 C 338.317 45.167,338.167 45.242,338.167 45.333 C 338.167 45.425,338.068 45.500,337.948 45.500 C 337.828 45.500,337.569 45.650,337.372 45.833 C 337.175 46.017,336.947 46.167,336.865 46.167 C 336.783 46.167,336.481 46.392,336.193 46.667 C 335.905 46.942,335.599 47.167,335.512 47.167 C 335.311 47.167,331.167 51.269,331.167 51.468 C 331.167 51.550,330.942 51.853,330.667 52.140 C 330.392 52.428,330.167 52.760,330.167 52.878 C 330.167 52.996,330.017 53.201,329.833 53.333 C 329.650 53.465,329.500 53.707,329.500 53.870 C 329.500 54.033,329.425 54.167,329.333 54.167 C 329.242 54.167,329.167 54.317,329.167 54.500 C 329.167 54.683,329.092 54.833,329.000 54.833 C 328.908 54.833,328.832 54.927,328.830 55.042 C 328.828 55.156,328.679 55.438,328.500 55.667 C 328.321 55.896,328.172 56.252,328.170 56.458 C 328.168 56.665,328.092 56.833,328.000 56.833 C 327.908 56.833,327.833 56.983,327.833 57.167 C 327.833 57.350,327.758 57.500,327.667 57.500 C 327.575 57.500,327.500 57.646,327.500 57.823 C 327.500 58.001,327.425 58.193,327.333 58.250 C 327.242 58.307,327.167 58.532,327.167 58.750 C 327.167 58.968,327.092 59.193,327.000 59.250 C 326.908 59.307,326.833 59.611,326.833 59.927 C 326.833 60.242,326.758 60.500,326.667 60.500 C 326.575 60.500,326.500 60.800,326.500 61.167 C 326.500 61.533,326.425 61.833,326.333 61.833 C 326.239 61.833,326.167 62.302,326.167 62.907 C 326.167 63.497,326.092 64.027,326.000 64.083 C 325.899 64.146,325.833 65.387,325.833 67.250 C 325.833 69.113,325.899 70.354,326.000 70.417 C 326.092 70.473,326.167 70.961,326.167 71.500 C 326.167 72.039,326.242 72.527,326.333 72.583 C 326.425 72.640,326.500 72.977,326.500 73.333 C 326.500 73.689,326.575 74.027,326.667 74.083 C 326.758 74.140,326.833 74.407,326.833 74.677 C 326.833 74.946,326.908 75.167,327.000 75.167 C 327.092 75.167,327.167 75.392,327.167 75.667 C 327.167 75.942,327.242 76.167,327.333 76.167 C 327.425 76.167,327.500 76.312,327.500 76.490 C 327.500 76.668,327.575 76.860,327.667 76.917 C 327.758 76.973,327.833 77.203,327.833 77.427 C 327.833 77.650,327.908 77.833,328.000 77.833 C 328.092 77.833,328.167 77.983,328.167 78.167 C 328.167 78.350,328.242 78.500,328.333 78.500 C 328.425 78.500,328.500 78.650,328.500 78.833 C 328.500 79.017,328.575 79.167,328.667 79.167 C 328.758 79.167,328.833 79.317,328.833 79.500 C 328.833 79.683,328.908 79.833,329.000 79.833 C 329.092 79.833,329.167 79.932,329.167 80.052 C 329.167 80.172,329.317 80.431,329.500 80.628 C 329.683 80.825,329.833 81.085,329.833 81.206 C 329.833 81.327,329.983 81.535,330.167 81.667 C 330.350 81.799,330.500 81.992,330.500 82.095 C 330.500 82.199,330.707 82.501,330.960 82.767 C 331.213 83.033,331.606 83.512,331.833 83.833 C 332.364 84.583,333.751 85.970,334.500 86.500 C 334.821 86.727,335.301 87.120,335.566 87.373 C 335.832 87.626,336.134 87.833,336.238 87.833 C 336.342 87.833,336.535 87.983,336.667 88.167 C 336.799 88.350,337.006 88.500,337.127 88.500 C 337.248 88.500,337.508 88.650,337.705 88.833 C 337.902 89.017,338.161 89.167,338.281 89.167 C 338.402 89.167,338.500 89.242,338.500 89.333 C 338.500 89.425,338.650 89.500,338.833 89.500 C 339.017 89.500,339.167 89.575,339.167 89.667 C 339.167 89.758,339.317 89.833,339.500 89.833 C 339.683 89.833,339.833 89.908,339.833 90.000 C 339.833 90.092,339.983 90.167,340.167 90.167 C 340.350 90.167,340.500 90.242,340.500 90.333 C 340.500 90.425,340.650 90.500,340.833 90.500 C 341.017 90.500,341.167 90.575,341.167 90.667 C 341.167 90.758,341.318 90.833,341.502 90.833 C 341.826 90.833,341.987 90.893,342.789 91.307 C 342.994 91.413,343.388 91.500,343.664 91.500 C 343.941 91.500,344.167 91.575,344.167 91.667 C 344.167 91.758,344.467 91.833,344.833 91.833 C 345.200 91.833,345.500 91.908,345.500 92.000 C 345.500 92.092,345.871 92.167,346.323 92.167 C 346.776 92.167,347.193 92.242,347.250 92.333 C 347.314 92.436,348.748 92.500,351.000 92.500 C 353.252 92.500,354.686 92.436,354.750 92.333 C 354.807 92.242,355.219 92.167,355.667 92.167 C 356.114 92.167,356.527 92.092,356.583 92.000 C 356.640 91.908,356.940 91.833,357.250 91.833 C 357.560 91.833,357.860 91.758,357.917 91.667 C 357.973 91.575,358.236 91.500,358.500 91.500 C 358.764 91.500,359.027 91.425,359.083 91.333 C 359.140 91.242,359.365 91.167,359.583 91.167 C 359.802 91.167,360.027 91.092,360.083 91.000 C 360.140 90.908,360.332 90.833,360.510 90.833 C 360.688 90.833,360.833 90.758,360.833 90.667 C 360.833 90.575,360.983 90.500,361.167 90.500 C 361.350 90.500,361.500 90.425,361.500 90.333 C 361.500 90.242,361.650 90.167,361.833 90.167 C 362.017 90.167,362.167 90.092,362.167 90.000 C 362.167 89.908,362.317 89.833,362.500 89.833 C 362.683 89.833,362.833 89.758,362.833 89.667 C 362.833 89.575,362.983 89.500,363.167 89.500 C 363.350 89.500,363.500 89.425,363.500 89.333 C 363.500 89.242,363.633 89.167,363.797 89.167 C 363.960 89.167,364.201 89.017,364.333 88.833 C 364.465 88.650,364.690 88.500,364.833 88.500 C 364.976 88.500,365.201 88.350,365.333 88.167 C 365.465 87.983,365.677 87.833,365.803 87.833 C 365.930 87.833,366.243 87.608,366.500 87.333 C 366.757 87.058,367.040 86.833,367.129 86.833 C 367.353 86.833,370.167 84.037,370.167 83.815 C 370.167 83.715,370.392 83.424,370.667 83.167 C 370.942 82.910,371.167 82.636,371.167 82.558 C 371.167 82.480,371.392 82.154,371.667 81.833 C 371.941 81.512,372.166 81.156,372.166 81.042 C 372.166 80.927,372.242 80.833,372.333 80.833 C 372.425 80.833,372.500 80.718,372.500 80.576 C 372.500 80.435,372.650 80.158,372.833 79.962 C 373.017 79.765,373.167 79.505,373.167 79.385 C 373.167 79.265,373.242 79.167,373.333 79.167 C 373.425 79.167,373.500 79.017,373.500 78.833 C 373.500 78.650,373.575 78.500,373.667 78.500 C 373.758 78.500,373.833 78.354,373.833 78.177 C 373.833 77.999,373.908 77.807,374.000 77.750 C 374.092 77.693,374.167 77.464,374.167 77.240 C 374.167 77.016,374.242 76.833,374.333 76.833 C 374.425 76.833,374.500 76.688,374.500 76.510 C 374.500 76.332,374.575 76.140,374.667 76.083 C 374.758 76.027,374.833 75.802,374.833 75.583 C 374.833 75.365,374.908 75.140,375.000 75.083 C 375.092 75.027,375.167 74.722,375.167 74.407 C 375.167 74.091,375.242 73.833,375.333 73.833 C 375.425 73.833,375.500 73.538,375.500 73.177 C 375.500 72.815,375.575 72.473,375.667 72.417 C 375.758 72.360,375.833 71.831,375.833 71.240 C 375.833 70.636,375.906 70.167,376.000 70.167 C 376.105 70.167,376.167 69.087,376.167 67.260 C 376.167 65.502,376.101 64.312,376.000 64.250 C 375.908 64.193,375.833 63.706,375.833 63.167 C 375.833 62.627,375.758 62.140,375.667 62.083 C 375.575 62.027,375.500 61.647,375.500 61.240 C 375.500 60.833,375.425 60.500,375.333 60.500 C 375.242 60.500,375.167 60.275,375.167 60.000 C 375.167 59.725,375.092 59.500,375.000 59.500 C 374.908 59.500,374.833 59.275,374.833 59.000 C 374.833 58.725,374.758 58.500,374.667 58.500 C 374.575 58.500,374.500 58.275,374.500 58.000 C 374.500 57.725,374.425 57.500,374.333 57.500 C 374.242 57.500,374.167 57.350,374.167 57.167 C 374.167 56.983,374.092 56.833,374.000 56.833 C 373.908 56.833,373.833 56.683,373.833 56.500 C 373.833 56.317,373.758 56.167,373.667 56.167 C 373.575 56.167,373.500 56.017,373.500 55.833 C 373.500 55.650,373.425 55.500,373.333 55.500 C 373.242 55.500,373.167 55.350,373.167 55.167 C 373.167 54.983,373.092 54.833,373.000 54.833 C 372.908 54.833,372.833 54.683,372.833 54.500 C 372.833 54.317,372.758 54.167,372.667 54.167 C 372.575 54.167,372.500 54.068,372.500 53.948 C 372.500 53.828,372.350 53.569,372.167 53.372 C 371.983 53.175,371.833 52.955,371.833 52.882 C 371.833 52.809,371.608 52.487,371.333 52.167 C 371.059 51.846,370.834 51.526,370.834 51.457 C 370.833 51.280,366.703 47.167,366.526 47.167 C 366.447 47.167,366.147 46.942,365.860 46.667 C 365.572 46.392,365.240 46.167,365.122 46.167 C 365.004 46.167,364.799 46.017,364.667 45.833 C 364.535 45.650,364.293 45.500,364.130 45.500 C 363.967 45.500,363.833 45.425,363.833 45.333 C 363.833 45.242,363.690 45.167,363.514 45.167 C 363.338 45.167,363.169 45.110,363.139 45.042 C 363.059 44.862,361.679 44.167,361.401 44.167 C 361.272 44.167,361.167 44.092,361.167 44.000 C 361.167 43.908,361.017 43.833,360.833 43.833 C 360.650 43.833,360.500 43.758,360.500 43.667 C 360.500 43.575,360.317 43.500,360.093 43.500 C 359.869 43.500,359.640 43.425,359.583 43.333 C 359.527 43.242,359.302 43.167,359.083 43.167 C 358.865 43.167,358.640 43.092,358.583 43.000 C 358.527 42.908,358.260 42.833,357.990 42.833 C 357.721 42.833,357.500 42.758,357.500 42.667 C 357.500 42.575,357.167 42.500,356.760 42.500 C 356.353 42.500,355.973 42.425,355.917 42.333 C 355.860 42.242,355.298 42.167,354.667 42.167 C 354.036 42.167,353.473 42.092,353.417 42.000 C 353.356 41.902,352.363 41.833,351.000 41.833 C 349.637 41.833,348.644 41.902,348.583 42.000 M375.262 42.738 C 375.393 42.869,375.500 43.169,375.500 43.405 C 375.500 43.640,375.575 43.833,375.667 43.833 C 375.758 43.833,375.833 43.983,375.833 44.167 C 375.833 44.389,375.944 44.500,376.167 44.500 C 376.350 44.500,376.500 44.575,376.500 44.667 C 376.500 44.758,376.317 44.833,376.093 44.833 C 375.869 44.833,375.640 44.908,375.583 45.000 C 375.527 45.092,375.260 45.167,374.990 45.167 C 374.721 45.167,374.500 45.092,374.500 45.000 C 374.500 44.908,374.317 44.833,374.093 44.833 C 373.869 44.833,373.640 44.758,373.583 44.667 C 373.523 44.569,373.693 44.500,373.990 44.500 L 374.500 44.500 374.500 43.500 C 374.500 42.443,374.734 42.210,375.262 42.738 M69.927 44.625 C 70.376 45.316,70.681 45.489,71.458 45.495 C 71.848 45.498,72.167 45.575,72.167 45.667 C 72.167 45.758,72.285 45.833,72.429 45.833 C 73.202 45.833,73.377 46.712,72.667 47.027 C 72.392 47.148,72.167 47.305,72.167 47.374 C 72.167 47.443,72.057 47.500,71.923 47.500 C 71.635 47.500,71.273 48.101,71.419 48.337 C 71.474 48.427,71.440 48.500,71.343 48.500 C 71.246 48.500,71.167 48.616,71.167 48.758 C 71.167 49.038,70.611 49.628,70.035 49.958 C 69.600 50.208,68.833 50.234,68.833 50.000 C 68.833 49.908,68.608 49.833,68.333 49.833 C 68.058 49.833,67.833 49.896,67.833 49.972 C 67.833 50.048,67.627 50.217,67.375 50.347 C 67.123 50.477,66.641 50.865,66.305 51.208 C 65.723 51.803,65.167 52.027,65.167 51.667 C 65.167 51.324,63.974 51.478,63.882 51.833 C 63.834 52.017,63.728 52.167,63.647 52.167 C 63.444 52.167,63.461 53.290,63.667 53.417 C 63.758 53.473,63.833 53.736,63.833 54.000 C 63.833 54.264,63.908 54.527,64.000 54.583 C 64.092 54.640,64.167 54.944,64.167 55.260 C 64.167 55.575,64.242 55.833,64.333 55.833 C 64.425 55.833,64.500 56.058,64.500 56.333 C 64.500 56.608,64.575 56.833,64.667 56.833 C 64.758 56.833,64.833 57.058,64.833 57.333 C 64.833 57.608,64.903 57.833,64.989 57.833 C 65.075 57.833,65.168 58.040,65.197 58.292 C 65.328 59.424,68.500 57.605,68.500 56.397 C 68.500 56.270,68.575 56.167,68.667 56.167 C 68.758 56.167,68.833 55.867,68.833 55.500 C 68.833 55.133,68.908 54.833,69.000 54.833 C 69.092 54.833,69.167 55.058,69.167 55.333 C 69.167 55.759,69.230 55.833,69.593 55.833 C 69.835 55.833,69.975 55.905,69.917 56.000 C 69.860 56.092,69.703 56.167,69.568 56.167 C 69.280 56.167,68.167 57.235,68.167 57.511 C 68.167 57.615,67.942 57.910,67.667 58.167 C 67.392 58.424,67.167 58.705,67.167 58.792 C 67.167 58.879,66.942 59.186,66.667 59.474 C 66.392 59.762,66.167 60.054,66.166 60.123 C 66.166 60.193,65.980 60.466,65.753 60.731 C 65.259 61.304,64.833 61.111,64.833 60.313 C 64.833 60.049,64.758 59.833,64.667 59.833 C 64.575 59.833,64.500 59.613,64.500 59.343 C 64.500 59.074,64.425 58.807,64.333 58.750 C 64.242 58.693,64.167 58.431,64.167 58.167 C 64.167 57.902,64.092 57.640,64.000 57.583 C 63.908 57.527,63.833 57.260,63.833 56.990 C 63.833 56.721,63.758 56.500,63.667 56.500 C 63.575 56.500,63.500 56.275,63.500 56.000 C 63.500 55.725,63.425 55.500,63.333 55.500 C 63.242 55.500,63.167 55.307,63.167 55.071 C 63.167 54.625,62.829 54.167,62.500 54.167 C 62.224 54.167,61.833 54.600,61.833 54.905 C 61.833 55.049,61.758 55.167,61.667 55.167 C 61.575 55.167,61.500 55.265,61.500 55.385 C 61.500 55.505,61.350 55.765,61.167 55.962 C 60.983 56.158,60.833 56.435,60.833 56.576 C 60.833 56.718,60.758 56.833,60.667 56.833 C 60.575 56.833,60.500 56.983,60.500 57.167 C 60.500 57.350,60.425 57.500,60.333 57.500 C 60.242 57.500,60.167 57.644,60.167 57.819 C 60.167 57.995,60.110 58.164,60.042 58.194 C 59.871 58.270,59.450 59.014,58.737 60.500 C 58.407 61.188,58.069 61.880,57.985 62.039 C 57.902 62.199,57.833 62.442,57.833 62.581 C 57.833 62.720,57.758 62.833,57.667 62.833 C 57.575 62.833,57.500 62.983,57.500 63.167 C 57.500 63.350,57.425 63.500,57.333 63.500 C 57.242 63.500,57.167 63.650,57.167 63.833 C 57.167 64.017,57.092 64.167,57.000 64.167 C 56.908 64.167,56.833 64.312,56.833 64.490 C 56.833 64.668,56.758 64.860,56.667 64.917 C 56.575 64.973,56.500 65.203,56.500 65.427 C 56.500 65.650,56.425 65.833,56.333 65.833 C 56.242 65.833,56.167 65.979,56.167 66.157 C 56.167 66.335,56.092 66.527,56.000 66.583 C 55.908 66.640,55.833 66.869,55.833 67.093 C 55.833 67.317,55.758 67.500,55.667 67.500 C 55.575 67.500,55.500 67.650,55.500 67.833 C 55.500 68.017,55.425 68.167,55.333 68.167 C 55.242 68.167,55.167 68.317,55.167 68.500 C 55.167 68.683,55.092 68.833,55.000 68.833 C 54.908 68.833,54.833 68.983,54.833 69.167 C 54.833 69.350,54.758 69.500,54.667 69.500 C 54.575 69.500,54.500 69.650,54.500 69.833 C 54.500 70.017,54.425 70.167,54.333 70.167 C 54.242 70.167,54.167 70.317,54.167 70.500 C 54.167 70.683,54.092 70.833,54.000 70.833 C 53.908 70.833,53.833 70.983,53.833 71.167 C 53.833 71.350,53.758 71.500,53.667 71.500 C 53.575 71.500,53.500 71.650,53.500 71.833 C 53.500 72.017,53.425 72.167,53.333 72.167 C 53.242 72.167,53.167 72.392,53.167 72.667 L 53.167 73.167 54.240 73.167 C 54.831 73.167,55.360 73.092,55.417 73.000 C 55.473 72.908,56.040 72.833,56.677 72.833 L 57.833 72.833 57.833 73.833 C 57.833 74.389,57.759 74.833,57.667 74.833 C 57.575 74.833,57.500 75.054,57.500 75.323 C 57.500 75.593,57.425 75.860,57.333 75.917 C 57.242 75.973,57.167 76.203,57.167 76.427 C 57.167 76.650,57.092 76.833,57.000 76.833 C 56.908 76.833,56.833 77.058,56.833 77.333 C 56.833 77.608,56.758 77.833,56.667 77.833 C 56.575 77.833,56.500 78.058,56.500 78.333 C 56.500 78.608,56.425 78.833,56.333 78.833 C 56.242 78.833,56.167 78.979,56.167 79.157 C 56.167 79.335,56.092 79.527,56.000 79.583 C 55.908 79.640,55.833 79.869,55.833 80.093 C 55.833 80.317,55.758 80.500,55.667 80.500 C 55.575 80.500,55.500 80.725,55.500 81.000 C 55.500 81.275,55.425 81.500,55.333 81.500 C 55.242 81.500,55.167 81.275,55.167 81.000 C 55.167 80.725,55.242 80.500,55.333 80.500 C 55.425 80.500,55.500 80.242,55.500 79.927 C 55.500 79.611,55.575 79.307,55.667 79.250 C 55.758 79.193,55.833 78.931,55.833 78.667 C 55.833 78.402,55.908 78.140,56.000 78.083 C 56.092 78.027,56.167 77.727,56.167 77.417 C 56.167 77.107,56.242 76.807,56.333 76.750 C 56.425 76.693,56.500 76.389,56.500 76.073 L 56.500 75.500 55.667 75.500 C 55.208 75.500,54.833 75.575,54.833 75.667 C 54.833 75.758,54.425 75.833,53.927 75.833 C 53.428 75.833,52.973 75.908,52.917 76.000 C 52.860 76.092,52.478 76.167,52.068 76.167 C 51.279 76.167,50.167 76.992,50.167 77.578 C 50.167 77.718,50.104 77.833,50.028 77.833 C 49.952 77.833,49.783 78.040,49.653 78.292 C 49.523 78.544,49.285 78.895,49.125 79.073 C 48.965 79.251,48.833 79.495,48.833 79.615 C 48.833 79.735,48.771 79.833,48.695 79.833 C 48.619 79.833,48.450 80.040,48.321 80.292 C 48.192 80.544,47.954 80.871,47.793 81.020 C 47.632 81.168,47.500 81.363,47.500 81.453 C 47.500 81.543,47.293 81.835,47.040 82.100 C 46.787 82.366,46.394 82.846,46.166 83.167 C 45.663 83.877,43.061 86.500,42.860 86.500 C 42.781 86.500,42.481 86.725,42.193 87.000 C 41.905 87.275,41.573 87.500,41.455 87.500 C 41.337 87.500,41.132 87.650,41.000 87.833 C 40.868 88.017,40.626 88.167,40.463 88.167 C 40.300 88.167,40.167 88.242,40.167 88.333 C 40.167 88.425,40.017 88.500,39.833 88.500 C 39.650 88.500,39.500 88.575,39.500 88.667 C 39.500 88.758,39.350 88.833,39.167 88.833 C 38.983 88.833,38.833 88.908,38.833 89.000 C 38.833 89.092,38.650 89.167,38.427 89.167 C 38.203 89.167,37.973 89.242,37.917 89.333 C 37.860 89.425,37.593 89.500,37.323 89.500 C 37.054 89.500,36.833 89.575,36.833 89.667 C 36.833 89.769,36.003 89.833,34.677 89.833 C 33.418 89.833,32.477 89.764,32.417 89.667 C 32.360 89.575,32.098 89.500,31.833 89.500 C 31.569 89.500,31.307 89.425,31.250 89.333 C 31.193 89.242,31.001 89.167,30.823 89.167 C 30.646 89.167,30.500 89.092,30.500 89.000 C 30.500 88.908,30.350 88.833,30.167 88.833 C 29.983 88.833,29.833 88.758,29.833 88.667 C 29.833 88.575,29.726 88.500,29.595 88.500 C 29.273 88.500,26.500 85.765,26.500 85.447 C 26.500 85.308,26.444 85.169,26.375 85.139 C 26.195 85.059,25.500 83.679,25.500 83.401 C 25.500 83.272,25.425 83.167,25.333 83.167 C 25.242 83.167,25.167 82.867,25.167 82.500 C 25.167 82.133,25.092 81.833,25.000 81.833 C 24.897 81.833,24.833 80.948,24.833 79.510 C 24.833 78.141,24.902 77.144,25.000 77.083 C 25.092 77.027,25.167 76.722,25.167 76.407 C 25.167 76.091,25.242 75.833,25.333 75.833 C 25.425 75.833,25.500 75.688,25.500 75.510 C 25.500 75.332,25.575 75.140,25.667 75.083 C 25.758 75.027,25.833 74.832,25.833 74.650 C 25.833 74.468,25.983 74.158,26.167 73.962 C 26.350 73.765,26.500 73.505,26.500 73.385 C 26.500 73.265,26.562 73.167,26.639 73.167 C 26.715 73.167,26.883 72.961,27.014 72.710 C 27.276 72.204,28.579 70.833,28.798 70.833 C 28.874 70.833,29.083 70.702,29.260 70.542 C 29.675 70.168,30.961 69.500,31.266 69.500 C 31.395 69.500,31.500 69.425,31.500 69.333 C 31.500 69.235,32.108 69.167,32.990 69.167 C 33.810 69.167,34.527 69.242,34.583 69.333 C 34.649 69.440,34.113 69.500,33.093 69.500 C 32.142 69.500,31.500 69.567,31.500 69.667 C 31.500 69.758,31.350 69.833,31.167 69.833 C 30.983 69.833,30.833 69.908,30.833 70.000 C 30.833 70.092,30.683 70.167,30.500 70.167 C 30.317 70.167,30.167 70.242,30.167 70.333 C 30.167 70.425,30.053 70.500,29.914 70.500 C 29.584 70.500,27.500 72.584,27.500 72.914 C 27.500 73.053,27.439 73.167,27.364 73.167 C 27.170 73.167,26.500 74.471,26.500 74.849 C 26.500 75.024,26.425 75.167,26.333 75.167 C 26.242 75.167,26.167 75.392,26.167 75.667 C 26.167 75.942,26.092 76.167,26.000 76.167 C 25.908 76.167,25.833 76.542,25.833 77.000 C 25.833 77.458,25.758 77.833,25.667 77.833 C 25.446 77.833,25.446 80.947,25.667 81.083 C 25.758 81.140,25.833 81.515,25.833 81.917 C 25.833 82.318,25.908 82.693,26.000 82.750 C 26.092 82.807,26.167 82.999,26.167 83.177 C 26.167 83.354,26.242 83.500,26.333 83.500 C 26.425 83.500,26.500 83.633,26.500 83.797 C 26.500 83.960,26.650 84.201,26.833 84.333 C 27.017 84.465,27.167 84.666,27.167 84.778 C 27.167 84.891,27.448 85.193,27.792 85.450 C 28.135 85.707,28.442 85.973,28.472 86.042 C 28.503 86.110,28.615 86.168,28.722 86.170 C 28.829 86.172,29.104 86.321,29.333 86.500 C 29.563 86.679,29.919 86.828,30.125 86.830 C 30.331 86.832,30.500 86.908,30.500 87.000 C 30.500 87.092,30.796 87.167,31.157 87.167 C 31.518 87.167,31.860 87.242,31.917 87.333 C 31.974 87.425,32.724 87.500,33.593 87.500 C 34.531 87.500,35.167 87.433,35.167 87.333 C 35.167 87.242,35.542 87.167,36.000 87.167 C 36.458 87.167,36.833 87.092,36.833 87.000 C 36.833 86.908,37.058 86.833,37.333 86.833 C 37.608 86.833,37.833 86.758,37.833 86.667 C 37.833 86.575,37.983 86.500,38.167 86.500 C 38.350 86.500,38.500 86.425,38.500 86.333 C 38.500 86.242,38.650 86.167,38.833 86.167 C 39.017 86.167,39.167 86.092,39.167 86.000 C 39.167 85.908,39.268 85.833,39.392 85.833 C 39.516 85.833,39.853 85.608,40.140 85.333 C 40.428 85.058,40.735 84.833,40.823 84.833 C 41.039 84.833,43.167 82.692,43.167 82.474 C 43.167 82.379,43.392 82.090,43.667 81.833 C 43.942 81.576,44.167 81.263,44.167 81.137 C 44.167 81.010,44.317 80.799,44.500 80.667 C 44.683 80.535,44.833 80.293,44.833 80.130 C 44.833 79.967,44.894 79.833,44.969 79.833 C 45.163 79.833,45.833 78.529,45.833 78.151 C 45.833 77.976,45.908 77.833,46.000 77.833 C 46.092 77.833,46.167 77.608,46.167 77.333 C 46.167 76.817,45.190 76.557,44.917 77.000 C 44.860 77.092,44.113 77.167,43.250 77.167 C 42.387 77.167,41.640 77.241,41.583 77.333 C 41.527 77.425,41.110 77.500,40.657 77.500 C 40.204 77.500,39.833 77.575,39.833 77.667 C 39.833 77.758,39.683 77.833,39.500 77.833 C 39.317 77.833,39.167 77.908,39.167 78.000 C 39.167 78.092,38.984 78.167,38.760 78.167 C 38.536 78.167,38.307 78.242,38.250 78.333 C 38.193 78.425,38.001 78.500,37.823 78.500 C 37.646 78.500,37.500 78.575,37.500 78.667 C 37.500 78.758,37.350 78.833,37.167 78.833 C 36.983 78.833,36.833 78.908,36.833 79.000 C 36.833 79.092,36.683 79.167,36.500 79.167 C 36.317 79.167,36.167 79.242,36.167 79.333 C 36.167 79.425,36.017 79.500,35.833 79.500 C 35.650 79.500,35.500 79.575,35.500 79.667 C 35.500 79.758,35.350 79.833,35.167 79.833 C 34.924 79.833,34.833 79.944,34.833 80.240 C 34.833 80.464,34.758 80.693,34.667 80.750 C 34.575 80.807,34.500 81.224,34.500 81.677 C 34.500 82.364,34.449 82.500,34.195 82.500 C 33.814 82.500,33.308 81.649,33.625 81.542 C 34.066 81.394,33.881 79.896,33.375 79.519 C 33.020 79.254,32.982 79.176,33.208 79.172 C 33.369 79.169,33.500 79.242,33.500 79.333 C 33.500 79.661,35.244 79.525,35.628 79.167 C 35.825 78.983,36.065 78.833,36.161 78.833 C 36.258 78.833,36.572 78.608,36.860 78.333 C 37.147 78.058,37.454 77.833,37.541 77.833 C 37.628 77.833,37.910 77.608,38.167 77.333 C 38.424 77.058,38.705 76.833,38.792 76.833 C 38.879 76.833,39.170 76.627,39.438 76.375 C 40.068 75.782,41.255 75.167,41.766 75.167 C 41.986 75.167,42.167 75.092,42.167 75.000 C 42.167 74.908,42.462 74.833,42.823 74.833 C 43.185 74.833,43.527 74.758,43.583 74.667 C 43.640 74.575,44.015 74.500,44.417 74.500 C 44.818 74.500,45.193 74.425,45.250 74.333 C 45.307 74.242,45.650 74.167,46.012 74.167 C 47.041 74.167,47.833 73.628,47.833 72.929 C 47.833 72.693,47.908 72.500,48.000 72.500 C 48.092 72.500,48.167 72.275,48.167 72.000 C 48.167 71.725,48.242 71.500,48.333 71.500 C 48.425 71.500,48.500 71.275,48.500 71.000 C 48.500 70.725,48.575 70.500,48.667 70.500 C 48.758 70.500,48.833 70.275,48.833 70.000 C 48.833 69.725,48.908 69.500,49.000 69.500 C 49.092 69.500,49.167 69.275,49.167 69.000 C 49.167 68.725,49.242 68.500,49.333 68.500 C 49.425 68.500,49.500 68.275,49.500 68.000 C 49.500 67.725,49.575 67.500,49.667 67.500 C 49.758 67.500,49.833 67.275,49.833 67.000 C 49.833 66.725,49.908 66.500,50.000 66.500 C 50.092 66.500,50.167 66.275,50.167 66.000 C 50.167 65.725,50.242 65.500,50.333 65.500 C 50.425 65.500,50.500 65.354,50.500 65.177 C 50.500 64.999,50.575 64.807,50.667 64.750 C 50.758 64.693,50.833 64.464,50.833 64.240 C 50.833 64.016,50.908 63.833,51.000 63.833 C 51.092 63.833,51.167 63.650,51.167 63.427 C 51.167 63.203,51.242 62.973,51.333 62.917 C 51.425 62.860,51.500 62.668,51.500 62.490 C 51.500 62.312,51.575 62.167,51.667 62.167 C 51.758 62.167,51.833 62.017,51.833 61.833 C 51.833 61.650,51.908 61.500,52.000 61.500 C 52.092 61.500,52.167 61.354,52.167 61.177 C 52.167 60.999,52.242 60.807,52.333 60.750 C 52.425 60.693,52.500 60.464,52.500 60.240 C 52.500 60.016,52.575 59.833,52.667 59.833 C 52.758 59.833,52.833 59.683,52.833 59.500 C 52.833 59.317,52.908 59.167,53.000 59.167 C 53.092 59.167,53.167 59.017,53.167 58.833 C 53.167 58.650,53.242 58.500,53.333 58.500 C 53.425 58.500,53.500 58.384,53.500 58.243 C 53.500 58.102,53.650 57.825,53.833 57.628 C 54.017 57.431,54.167 57.172,54.167 57.052 C 54.167 56.932,54.242 56.833,54.333 56.833 C 54.425 56.833,54.500 56.700,54.500 56.537 C 54.500 56.374,54.650 56.132,54.833 56.000 C 55.017 55.868,55.167 55.675,55.167 55.571 C 55.167 55.468,55.392 55.147,55.667 54.860 C 55.942 54.572,56.167 54.269,56.167 54.187 C 56.167 54.105,56.989 53.185,57.995 52.144 C 60.221 49.839,60.329 49.500,58.843 49.500 C 58.299 49.500,57.807 49.425,57.750 49.333 C 57.693 49.241,56.943 49.167,56.073 49.167 C 55.136 49.167,54.500 49.234,54.500 49.333 C 54.500 49.425,54.350 49.500,54.167 49.500 C 53.983 49.500,53.833 49.575,53.833 49.667 C 53.833 49.758,53.683 49.833,53.500 49.833 C 53.317 49.833,53.167 49.908,53.167 50.000 C 53.167 50.092,53.068 50.167,52.948 50.167 C 52.828 50.167,52.569 50.317,52.372 50.500 C 52.175 50.683,51.898 50.833,51.757 50.833 C 51.616 50.833,51.500 50.908,51.500 51.000 C 51.500 51.092,51.402 51.167,51.281 51.167 C 51.161 51.167,50.902 51.317,50.705 51.500 C 50.508 51.683,50.248 51.833,50.127 51.833 C 50.006 51.833,49.799 51.983,49.667 52.167 C 49.535 52.350,49.325 52.500,49.201 52.500 C 49.077 52.500,48.869 52.607,48.738 52.738 C 48.465 53.011,48.419 53.500,48.667 53.500 C 48.758 53.500,48.833 53.575,48.833 53.667 C 48.833 53.914,48.345 53.868,48.071 53.595 C 47.940 53.464,47.833 53.239,47.833 53.095 C 47.833 52.951,47.758 52.833,47.667 52.833 C 47.575 52.833,47.500 52.709,47.500 52.558 C 47.500 52.305,47.527 52.306,47.817 52.569 C 48.131 52.853,48.833 52.663,48.833 52.293 C 48.833 52.224,48.927 52.166,49.042 52.166 C 49.156 52.166,49.512 51.941,49.833 51.667 C 50.154 51.392,50.494 51.167,50.588 51.167 C 50.683 51.167,50.868 51.017,51.000 50.833 C 51.132 50.650,51.357 50.500,51.500 50.500 C 51.643 50.500,51.868 50.350,52.000 50.167 C 52.132 49.983,52.322 49.833,52.422 49.833 C 52.522 49.833,52.749 49.702,52.927 49.542 C 53.105 49.381,53.456 49.144,53.708 49.014 C 53.960 48.883,54.167 48.715,54.167 48.639 C 54.167 48.562,54.312 48.500,54.490 48.500 C 54.668 48.500,54.860 48.425,54.917 48.333 C 54.973 48.242,55.353 48.167,55.760 48.167 C 56.167 48.167,56.500 48.242,56.500 48.333 C 56.500 48.433,57.167 48.500,58.167 48.500 C 59.167 48.500,59.833 48.567,59.833 48.667 C 59.833 48.759,60.278 48.833,60.833 48.833 C 61.383 48.833,61.833 48.767,61.833 48.686 C 61.833 48.605,61.983 48.500,62.167 48.452 C 62.530 48.357,62.659 47.285,62.332 47.083 C 61.984 46.867,62.653 46.500,63.395 46.500 C 63.809 46.500,64.193 46.425,64.250 46.333 C 64.307 46.242,64.719 46.167,65.167 46.167 C 65.614 46.167,66.027 46.092,66.083 46.000 C 66.140 45.908,66.407 45.833,66.677 45.833 C 67.006 45.833,67.167 45.750,67.167 45.577 C 67.167 45.203,67.668 44.500,67.936 44.500 C 68.063 44.500,68.167 44.425,68.167 44.333 C 68.167 43.916,69.622 44.158,69.927 44.625 M298.548 52.736 C 298.819 52.942,298.133 53.679,290.839 61.022 L 282.833 69.081 282.833 67.124 C 282.833 65.930,282.898 65.167,283.000 65.167 C 283.092 65.167,283.167 64.867,283.167 64.500 C 283.167 64.133,283.242 63.833,283.333 63.833 C 283.425 63.833,283.500 63.650,283.500 63.427 C 283.500 63.203,283.575 62.973,283.667 62.917 C 283.758 62.860,283.833 62.668,283.833 62.490 C 283.833 62.312,283.908 62.167,284.000 62.167 C 284.092 62.167,284.167 62.017,284.167 61.833 C 284.167 61.650,284.242 61.500,284.333 61.500 C 284.425 61.500,284.500 61.402,284.500 61.281 C 284.500 61.161,284.650 60.902,284.833 60.705 C 285.017 60.508,285.167 60.268,285.167 60.172 C 285.167 60.076,285.392 59.762,285.667 59.474 C 285.942 59.186,286.167 58.886,286.167 58.806 C 286.167 58.629,289.279 55.500,289.456 55.500 C 289.526 55.499,289.846 55.275,290.167 55.000 C 290.487 54.725,290.844 54.501,290.958 54.500 C 291.073 54.500,291.167 54.425,291.167 54.333 C 291.167 54.242,291.317 54.167,291.500 54.167 C 291.683 54.167,291.833 54.092,291.833 54.000 C 291.833 53.908,291.983 53.833,292.167 53.833 C 292.350 53.833,292.500 53.758,292.500 53.667 C 292.500 53.575,292.650 53.500,292.833 53.500 C 293.017 53.500,293.167 53.425,293.167 53.333 C 293.167 53.242,293.392 53.167,293.667 53.167 C 293.942 53.167,294.167 53.092,294.167 53.000 C 294.167 52.908,294.500 52.833,294.907 52.833 C 295.314 52.833,295.693 52.758,295.750 52.667 C 295.907 52.413,298.197 52.470,298.548 52.736 M165.750 53.333 C 165.807 53.425,166.224 53.500,166.677 53.500 C 167.129 53.500,167.500 53.575,167.500 53.667 C 167.500 53.758,167.725 53.833,168.000 53.833 C 168.275 53.833,168.500 53.908,168.500 54.000 C 168.500 54.092,168.725 54.167,169.000 54.167 C 169.275 54.167,169.500 54.242,169.500 54.333 C 169.500 54.425,169.650 54.500,169.833 54.500 C 170.017 54.500,170.167 54.575,170.167 54.667 C 170.167 54.758,170.317 54.833,170.500 54.833 C 170.683 54.833,170.833 54.908,170.833 55.000 C 170.833 55.092,170.927 55.167,171.042 55.167 C 171.156 55.167,171.512 55.392,171.833 55.667 C 172.154 55.941,172.478 56.166,172.552 56.166 C 172.741 56.167,175.500 58.995,175.500 59.189 C 175.500 59.276,175.650 59.508,175.833 59.705 C 176.017 59.902,176.167 60.161,176.167 60.281 C 176.167 60.402,176.242 60.500,176.333 60.500 C 176.425 60.500,176.500 60.650,176.500 60.833 C 176.500 61.017,176.575 61.167,176.667 61.167 C 176.758 61.167,176.833 61.317,176.833 61.500 C 176.833 61.683,176.908 61.833,177.000 61.833 C 177.092 61.833,177.167 62.016,177.167 62.240 C 177.167 62.464,177.242 62.693,177.333 62.750 C 177.425 62.807,177.500 63.032,177.500 63.250 C 177.500 63.468,177.575 63.693,177.667 63.750 C 177.758 63.807,177.833 64.149,177.833 64.510 C 177.833 64.871,177.908 65.167,178.000 65.167 C 178.103 65.167,178.167 66.000,178.167 67.333 C 178.167 68.667,178.103 69.500,178.000 69.500 C 177.908 69.500,177.833 69.833,177.833 70.240 C 177.833 70.647,177.758 71.027,177.667 71.083 C 177.575 71.140,177.500 71.407,177.500 71.677 C 177.500 71.946,177.425 72.167,177.333 72.167 C 177.242 72.167,177.167 72.317,177.167 72.500 C 177.167 72.683,177.092 72.833,177.000 72.833 C 176.908 72.833,176.833 72.931,176.833 73.050 C 176.833 73.357,176.441 74.164,176.292 74.165 C 176.223 74.166,176.167 74.317,176.167 74.500 C 176.167 74.683,176.104 74.833,176.028 74.833 C 175.952 74.833,175.783 75.038,175.653 75.288 C 175.396 75.784,172.757 78.500,172.534 78.500 C 172.458 78.500,172.251 78.631,172.073 78.792 C 171.670 79.155,169.699 80.167,169.393 80.167 C 169.269 80.167,169.167 80.242,169.167 80.333 C 169.167 80.425,168.942 80.500,168.667 80.500 C 168.392 80.500,168.167 80.575,168.167 80.667 C 168.167 80.758,167.867 80.833,167.500 80.833 C 167.133 80.833,166.833 80.908,166.833 81.000 C 166.833 81.104,165.889 81.167,164.333 81.167 C 162.778 81.167,161.833 81.104,161.833 81.000 C 161.833 80.908,161.533 80.833,161.167 80.833 C 160.800 80.833,160.500 80.758,160.500 80.667 C 160.500 80.575,160.275 80.500,160.000 80.500 C 159.725 80.500,159.500 80.425,159.500 80.333 C 159.500 80.242,159.350 80.167,159.167 80.167 C 158.983 80.167,158.833 80.092,158.833 80.000 C 158.833 79.908,158.683 79.833,158.500 79.833 C 158.317 79.833,158.167 79.758,158.167 79.667 C 158.167 79.575,158.017 79.500,157.833 79.500 C 157.650 79.500,157.500 79.425,157.500 79.333 C 157.500 79.242,157.367 79.167,157.203 79.167 C 157.040 79.167,156.799 79.017,156.667 78.833 C 156.535 78.650,156.334 78.500,156.220 78.500 C 155.952 78.500,153.167 75.715,153.167 75.446 C 153.167 75.333,153.017 75.132,152.833 75.000 C 152.650 74.868,152.500 74.633,152.500 74.477 C 152.500 74.322,152.444 74.169,152.375 74.139 C 152.195 74.059,151.500 72.679,151.500 72.401 C 151.500 72.272,151.425 72.167,151.333 72.167 C 151.242 72.167,151.167 71.984,151.167 71.760 C 151.167 71.536,151.092 71.307,151.000 71.250 C 150.908 71.193,150.833 70.931,150.833 70.667 C 150.833 70.402,150.758 70.140,150.667 70.083 C 150.566 70.021,150.500 68.887,150.500 67.240 C 150.500 65.524,150.562 64.500,150.667 64.500 C 150.758 64.500,150.833 64.200,150.833 63.833 C 150.833 63.467,150.908 63.167,151.000 63.167 C 151.092 63.167,151.167 62.984,151.167 62.760 C 151.167 62.536,151.242 62.307,151.333 62.250 C 151.425 62.193,151.500 62.001,151.500 61.823 C 151.500 61.646,151.575 61.500,151.667 61.500 C 151.758 61.500,151.833 61.350,151.833 61.167 C 151.833 60.983,151.908 60.833,152.000 60.833 C 152.092 60.833,152.167 60.700,152.167 60.537 C 152.167 60.374,152.317 60.132,152.500 60.000 C 152.683 59.868,152.833 59.654,152.833 59.524 C 152.833 59.395,152.968 59.168,153.133 59.020 C 153.298 58.871,153.615 58.487,153.838 58.167 C 154.327 57.462,154.934 56.833,155.124 56.833 C 155.201 56.833,155.595 56.533,156.000 56.167 C 156.405 55.800,156.833 55.500,156.952 55.500 C 157.070 55.500,157.167 55.425,157.167 55.333 C 157.167 55.242,157.317 55.167,157.500 55.167 C 157.683 55.167,157.834 55.110,157.835 55.042 C 157.836 54.892,158.643 54.500,158.950 54.500 C 159.069 54.500,159.167 54.425,159.167 54.333 C 159.167 54.242,159.312 54.167,159.490 54.167 C 159.668 54.167,159.860 54.092,159.917 54.000 C 159.973 53.908,160.236 53.833,160.500 53.833 C 160.764 53.833,161.027 53.758,161.083 53.667 C 161.140 53.575,161.557 53.500,162.010 53.500 C 162.463 53.500,162.833 53.425,162.833 53.333 C 162.833 53.235,163.413 53.167,164.240 53.167 C 165.014 53.167,165.693 53.242,165.750 53.333 M352.500 53.333 C 352.500 53.425,352.875 53.500,353.333 53.500 C 353.792 53.500,354.167 53.575,354.167 53.667 C 354.167 53.758,354.387 53.833,354.657 53.833 C 354.926 53.833,355.193 53.908,355.250 54.000 C 355.307 54.092,355.536 54.167,355.760 54.167 C 355.984 54.167,356.167 54.242,356.167 54.333 C 356.167 54.425,356.317 54.500,356.500 54.500 C 356.683 54.500,356.833 54.575,356.833 54.667 C 356.833 54.758,356.983 54.833,357.167 54.833 C 357.350 54.833,357.500 54.908,357.500 55.000 C 357.500 55.092,357.633 55.167,357.797 55.167 C 357.960 55.167,358.201 55.317,358.333 55.500 C 358.465 55.683,358.672 55.833,358.793 55.833 C 359.079 55.833,362.012 58.780,362.320 59.376 C 362.450 59.627,362.619 59.833,362.695 59.833 C 362.771 59.833,362.833 59.983,362.833 60.167 C 362.833 60.350,362.890 60.501,362.958 60.501 C 363.108 60.503,363.500 61.310,363.500 61.617 C 363.500 61.736,363.575 61.833,363.667 61.833 C 363.758 61.833,363.833 61.983,363.833 62.167 C 363.833 62.350,363.908 62.500,364.000 62.500 C 364.092 62.500,364.167 62.725,364.167 63.000 C 364.167 63.275,364.242 63.500,364.333 63.500 C 364.425 63.500,364.500 63.800,364.500 64.167 C 364.500 64.533,364.575 64.833,364.667 64.833 C 364.770 64.833,364.833 65.719,364.833 67.157 C 364.833 68.526,364.765 69.523,364.667 69.583 C 364.575 69.640,364.500 69.940,364.500 70.250 C 364.500 70.560,364.425 70.860,364.333 70.917 C 364.242 70.973,364.167 71.198,364.167 71.417 C 364.167 71.635,364.092 71.860,364.000 71.917 C 363.908 71.973,363.833 72.203,363.833 72.427 C 363.833 72.650,363.758 72.833,363.667 72.833 C 363.575 72.833,363.500 72.983,363.500 73.167 C 363.500 73.350,363.425 73.500,363.333 73.500 C 363.242 73.500,363.167 73.633,363.167 73.797 C 363.167 73.960,363.017 74.201,362.833 74.333 C 362.650 74.465,362.500 74.670,362.500 74.788 C 362.500 74.906,362.275 75.238,362.000 75.526 C 361.725 75.814,361.500 76.120,361.500 76.206 C 361.500 76.412,359.670 78.167,359.456 78.167 C 359.364 78.167,359.168 78.298,359.020 78.459 C 358.871 78.621,358.544 78.858,358.292 78.988 C 358.040 79.117,357.833 79.285,357.833 79.361 C 357.833 79.438,357.683 79.500,357.500 79.500 C 357.317 79.500,357.167 79.575,357.167 79.667 C 357.167 79.758,357.017 79.833,356.833 79.833 C 356.650 79.833,356.500 79.908,356.500 80.000 C 356.500 80.092,356.354 80.167,356.177 80.167 C 355.999 80.167,355.807 80.242,355.750 80.333 C 355.693 80.425,355.468 80.500,355.250 80.500 C 355.032 80.500,354.807 80.575,354.750 80.667 C 354.693 80.758,354.393 80.833,354.083 80.833 C 353.773 80.833,353.473 80.908,353.417 81.000 C 353.279 81.222,348.721 81.222,348.583 81.000 C 348.527 80.908,348.185 80.833,347.823 80.833 C 347.462 80.833,347.167 80.758,347.167 80.667 C 347.167 80.575,346.984 80.500,346.760 80.500 C 346.536 80.500,346.307 80.425,346.250 80.333 C 346.193 80.242,346.001 80.167,345.823 80.167 C 345.646 80.167,345.500 80.092,345.500 80.000 C 345.500 79.908,345.350 79.833,345.167 79.833 C 344.983 79.833,344.833 79.758,344.833 79.667 C 344.833 79.575,344.718 79.500,344.576 79.500 C 344.435 79.500,344.158 79.350,343.962 79.167 C 343.765 78.983,343.505 78.833,343.385 78.833 C 343.265 78.833,343.167 78.771,343.167 78.695 C 343.167 78.619,342.962 78.450,342.711 78.320 C 342.148 78.027,340.167 76.077,340.167 75.814 C 340.167 75.709,340.035 75.501,339.874 75.353 C 339.713 75.205,339.475 74.877,339.346 74.625 C 339.216 74.373,339.048 74.167,338.972 74.167 C 338.896 74.167,338.833 74.017,338.833 73.833 C 338.833 73.650,338.758 73.500,338.667 73.500 C 338.575 73.500,338.500 73.350,338.500 73.167 C 338.500 72.983,338.425 72.833,338.333 72.833 C 338.242 72.833,338.167 72.688,338.167 72.510 C 338.167 72.332,338.092 72.140,338.000 72.083 C 337.908 72.027,337.833 71.797,337.833 71.573 C 337.833 71.350,337.758 71.167,337.667 71.167 C 337.575 71.167,337.500 70.867,337.500 70.500 C 337.500 70.133,337.425 69.833,337.333 69.833 C 337.230 69.833,337.167 68.892,337.167 67.343 C 337.167 65.863,337.234 64.811,337.333 64.750 C 337.425 64.693,337.500 64.393,337.500 64.083 C 337.500 63.773,337.575 63.473,337.667 63.417 C 337.758 63.360,337.833 63.131,337.833 62.907 C 337.833 62.683,337.908 62.500,338.000 62.500 C 338.092 62.500,338.167 62.352,338.167 62.171 C 338.167 61.990,338.357 61.522,338.591 61.129 C 338.824 60.737,339.058 60.285,339.110 60.125 C 339.163 59.965,339.272 59.833,339.353 59.833 C 339.434 59.833,339.500 59.719,339.500 59.580 C 339.500 59.267,342.747 55.995,343.375 55.676 C 343.627 55.548,343.833 55.381,343.833 55.305 C 343.833 55.229,343.983 55.167,344.167 55.167 C 344.350 55.167,344.500 55.092,344.500 55.000 C 344.500 54.908,344.650 54.833,344.833 54.833 C 345.017 54.833,345.167 54.758,345.167 54.667 C 345.167 54.575,345.317 54.500,345.500 54.500 C 345.683 54.500,345.833 54.425,345.833 54.333 C 345.833 54.242,346.016 54.167,346.240 54.167 C 346.464 54.167,346.693 54.092,346.750 54.000 C 346.807 53.908,347.074 53.833,347.343 53.833 C 347.613 53.833,347.833 53.758,347.833 53.667 C 347.833 53.575,348.208 53.500,348.667 53.500 C 349.125 53.500,349.500 53.425,349.500 53.333 C 349.500 53.235,350.111 53.167,351.000 53.167 C 351.889 53.167,352.500 53.235,352.500 53.333 M35.833 71.000 C 35.833 71.092,36.058 71.167,36.333 71.167 C 36.877 71.167,36.927 71.320,36.840 72.733 C 36.798 73.419,36.233 74.167,35.758 74.167 C 35.616 74.167,35.500 74.242,35.500 74.333 C 35.500 74.563,35.069 74.542,34.632 74.292 C 34.082 73.977,33.500 73.376,33.500 73.124 C 33.500 73.001,33.410 72.810,33.300 72.700 C 33.144 72.544,33.144 72.500,33.300 72.500 C 33.410 72.500,33.500 72.385,33.500 72.244 C 33.500 71.869,34.002 71.167,34.269 71.167 C 34.396 71.167,34.500 71.092,34.500 71.000 C 34.500 70.908,34.800 70.833,35.167 70.833 C 35.533 70.833,35.833 70.908,35.833 71.000 M53.833 80.833 C 53.833 81.017,53.908 81.167,54.000 81.167 C 54.092 81.167,54.167 81.325,54.167 81.519 C 54.167 81.816,54.246 81.860,54.667 81.798 C 55.150 81.727,55.167 81.746,55.167 82.379 C 55.167 83.009,56.365 84.500,56.872 84.500 C 57.045 84.500,57.500 84.922,57.500 85.083 C 57.500 85.141,57.282 85.034,57.016 84.845 C 56.750 84.655,56.450 84.500,56.349 84.500 C 56.249 84.500,56.167 84.425,56.167 84.333 C 56.167 84.242,56.017 84.167,55.833 84.167 C 55.650 84.167,55.500 84.104,55.500 84.028 C 55.500 83.952,55.294 83.783,55.042 83.653 C 54.388 83.316,54.167 83.072,54.167 82.688 C 54.167 82.504,54.092 82.307,54.000 82.250 C 53.908 82.193,53.833 81.968,53.833 81.750 C 53.833 81.532,53.758 81.307,53.667 81.250 C 53.575 81.193,53.500 81.001,53.500 80.823 C 53.500 80.646,53.575 80.500,53.667 80.500 C 53.758 80.500,53.833 80.650,53.833 80.833 " stroke="none" fill="#040404" fill-rule="evenodd"></path><path id="path1" d="" stroke="none" fill="#080404" fill-rule="evenodd"></path><path id="path2" d="" stroke="none" fill="#080404" fill-rule="evenodd"></path><path id="path3" d="" stroke="none" fill="#080404" fill-rule="evenodd"></path><path id="path4" d="" stroke="none" fill="#080404" fill-rule="evenodd"></path></g></svg>