<svg id="svg" version="1.1" xmlns="http://www.w3.org/2000/svg" xmlns:xlink="http://www.w3.org/1999/xlink" width="400" height="54.976303317535546" viewBox="0, 0, 400,54.976303317535546"><g id="svgg"><path id="path0" d="M202.111 8.778 C 202.050 8.839,202.000 9.251,202.000 9.694 L 202.000 10.500 183.791 10.500 C 165.866 10.500,164.626 10.534,164.306 11.039 C 164.098 11.366,164.143 14.493,164.363 15.104 C 164.521 15.540,164.703 15.690,165.280 15.860 L 166.000 16.073 166.000 32.184 L 166.000 48.294 165.625 48.395 C 165.419 48.450,165.108 48.496,164.935 48.498 C 163.847 48.506,163.809 53.442,164.895 53.734 C 165.090 53.786,173.931 53.830,184.542 53.831 L 203.833 53.833 203.833 54.333 L 203.833 54.833 204.833 54.833 L 205.833 54.833 205.833 54.333 C 205.833 53.844,205.852 53.833,206.667 53.833 L 207.500 53.833 207.500 47.533 C 207.500 42.856,207.449 41.182,207.300 41.033 C 207.163 40.896,206.349 40.833,204.723 40.833 C 202.061 40.833,202.000 40.861,202.000 42.072 L 202.000 42.667 190.583 42.667 L 179.167 42.667 179.167 39.750 L 179.167 36.833 185.833 36.833 L 192.500 36.833 192.500 37.633 C 192.500 38.801,192.573 38.833,195.200 38.833 C 198.492 38.833,198.167 39.653,198.167 31.352 C 198.167 22.962,198.514 23.804,195.083 23.869 L 192.583 23.917 192.533 24.792 L 192.483 25.667 185.825 25.667 L 179.167 25.667 179.167 22.750 L 179.167 19.833 189.644 19.833 L 200.121 19.833 200.401 20.565 C 200.766 21.521,201.320 21.667,204.586 21.667 C 207.828 21.667,207.500 22.376,207.500 15.368 C 207.500 8.053,207.773 8.667,204.516 8.667 C 203.254 8.667,202.172 8.717,202.111 8.778 M114.934 10.764 C 114.879 10.909,114.833 12.027,114.833 13.250 C 114.833 16.023,114.825 16.000,115.851 16.000 L 116.667 16.000 116.667 32.158 L 116.667 48.316 115.792 48.366 L 114.917 48.417 114.917 51.083 L 114.917 53.750 123.120 53.793 L 131.323 53.836 131.592 53.317 C 131.915 52.691,131.887 48.986,131.556 48.656 C 131.450 48.549,131.018 48.424,130.598 48.376 L 129.833 48.290 129.833 42.562 L 129.833 36.833 141.077 36.833 C 153.721 36.833,152.667 36.946,152.667 35.594 L 152.667 35.000 154.075 35.000 C 155.966 35.000,156.333 34.823,156.333 33.909 L 156.333 33.205 157.070 33.094 C 158.141 32.933,158.240 32.730,158.309 30.558 C 158.355 29.117,158.423 28.667,158.593 28.667 C 158.716 28.667,159.026 28.385,159.282 28.042 C 159.538 27.698,159.824 27.363,159.916 27.298 C 160.018 27.225,160.083 25.924,160.083 23.948 C 160.083 20.298,160.045 20.167,158.980 20.167 L 158.333 20.167 158.333 18.246 C 158.333 16.350,158.328 16.323,157.917 16.167 C 157.688 16.080,157.500 15.895,157.500 15.756 C 157.500 15.617,157.238 15.334,156.919 15.127 C 156.599 14.919,156.337 14.656,156.335 14.542 C 156.334 14.427,156.240 14.332,156.125 14.331 C 156.010 14.330,155.747 14.068,155.540 13.748 C 155.333 13.428,155.050 13.167,154.911 13.167 C 154.772 13.167,154.587 12.979,154.500 12.750 C 154.344 12.340,154.311 12.333,152.504 12.333 L 150.667 12.333 150.667 11.610 C 150.667 10.997,150.602 10.857,150.242 10.693 C 149.497 10.354,115.065 10.422,114.934 10.764 M215.252 10.663 C 215.194 10.757,214.965 10.833,214.742 10.833 C 213.287 10.833,213.153 14.120,214.558 15.375 C 214.737 15.535,214.985 15.667,215.109 15.667 C 215.232 15.667,215.333 15.742,215.333 15.833 C 215.333 15.925,215.746 16.000,216.250 16.000 L 217.167 16.000 217.167 32.167 L 217.167 48.333 216.328 48.333 C 215.451 48.333,214.470 48.658,213.964 49.116 C 213.529 49.510,213.527 52.455,213.962 52.956 C 214.697 53.803,215.000 53.833,222.851 53.833 L 230.160 53.833 230.253 53.458 C 230.304 53.252,230.324 52.033,230.298 50.750 L 230.250 48.417 229.375 48.366 L 228.500 48.316 228.500 42.575 L 228.500 36.833 232.333 36.833 L 236.167 36.833 236.167 37.511 C 236.167 38.567,236.386 38.833,237.256 38.833 L 238.000 38.833 238.000 39.669 C 238.000 40.129,238.070 40.635,238.157 40.794 C 238.243 40.953,238.355 41.283,238.406 41.528 C 238.477 41.867,238.677 42.040,239.250 42.259 C 239.996 42.544,240.000 42.550,240.000 43.350 C 240.000 44.267,240.249 44.500,241.230 44.500 L 241.816 44.500 241.866 45.373 C 241.907 46.087,241.976 46.258,242.244 46.309 C 242.424 46.344,242.818 46.618,243.119 46.919 L 243.667 47.467 243.667 50.328 C 243.667 54.306,242.510 53.833,252.253 53.833 L 260.494 53.833 260.586 53.458 C 260.637 53.252,260.658 52.033,260.631 50.750 L 260.583 48.417 259.708 48.366 L 258.833 48.316 258.833 47.730 C 258.833 46.742,258.603 46.500,257.661 46.500 L 256.833 46.500 256.833 45.500 L 256.833 44.500 255.937 44.500 L 255.040 44.500 254.971 42.934 C 254.890 41.078,254.747 40.833,253.738 40.833 L 253.017 40.833 252.967 39.875 L 252.917 38.917 252.042 38.866 L 251.167 38.816 251.167 37.499 C 251.167 35.656,251.777 35.000,253.492 35.000 C 254.799 35.000,255.000 34.851,255.000 33.883 L 255.000 33.167 255.917 33.167 L 256.833 33.167 256.833 32.167 L 256.833 31.167 257.511 31.167 C 258.933 31.167,258.833 31.721,258.833 23.827 C 258.833 15.887,258.882 16.167,257.509 16.167 L 256.851 16.167 256.800 15.292 L 256.750 14.417 255.875 14.366 L 255.000 14.316 255.000 13.658 C 255.000 12.542,254.635 12.333,252.677 12.333 L 251.020 12.333 250.968 11.710 C 250.870 10.519,251.954 10.589,232.637 10.538 C 220.996 10.507,215.323 10.548,215.252 10.663 M283.833 10.833 C 283.631 11.036,283.500 11.389,283.500 11.733 L 283.500 12.300 281.375 12.358 C 278.783 12.429,278.117 12.699,278.032 13.708 L 277.981 14.317 277.032 14.367 L 276.083 14.417 276.033 15.292 L 275.983 16.167 275.059 16.167 C 274.276 16.167,274.122 16.217,274.048 16.500 C 274.000 16.683,273.882 16.833,273.785 16.833 C 273.265 16.833,272.185 18.329,272.134 19.118 L 272.083 19.917 271.250 20.000 L 270.417 20.083 270.333 20.996 L 270.250 21.909 269.519 22.033 C 268.439 22.216,268.333 22.674,268.333 27.184 C 268.333 30.139,268.314 30.332,268.004 30.498 C 267.334 30.857,267.279 31.280,267.829 31.855 L 268.333 32.383 268.333 36.360 C 268.333 38.548,268.400 40.468,268.482 40.627 C 268.564 40.786,268.715 41.129,268.818 41.390 C 268.944 41.706,269.226 41.949,269.670 42.123 L 270.333 42.384 270.333 43.341 C 270.333 44.409,270.425 44.500,271.505 44.500 L 272.149 44.500 272.200 45.375 L 272.250 46.250 273.117 46.300 L 273.983 46.350 274.033 47.217 L 274.083 48.083 275.042 48.133 L 276.000 48.183 276.000 49.002 C 276.000 50.057,276.203 50.167,278.156 50.167 L 279.667 50.167 279.667 50.911 C 279.667 51.898,279.892 52.000,282.067 52.000 C 283.718 52.000,283.833 52.022,284.017 52.375 C 284.290 52.900,284.772 53.333,285.082 53.333 C 285.226 53.333,285.387 53.446,285.440 53.583 C 285.523 53.801,286.592 53.833,293.659 53.833 C 302.762 53.833,302.333 53.893,302.333 52.630 L 302.333 52.036 304.930 51.976 C 307.827 51.909,308.000 51.838,308.000 50.718 L 308.000 50.167 308.907 50.167 C 309.406 50.167,309.860 50.092,309.917 50.000 C 309.973 49.908,310.235 49.833,310.498 49.833 C 311.057 49.833,311.667 49.170,311.667 48.561 C 311.667 48.201,311.737 48.167,312.467 48.167 C 313.447 48.167,313.667 47.966,313.667 47.072 L 313.667 46.377 314.431 46.291 C 315.400 46.181,315.508 46.064,315.641 44.976 C 315.736 44.196,315.801 44.076,316.152 44.027 C 316.983 43.909,317.500 42.820,317.500 41.187 C 317.500 40.113,317.515 40.075,318.013 39.854 C 318.295 39.730,318.570 39.505,318.625 39.355 C 318.680 39.206,318.900 38.918,319.113 38.716 L 319.500 38.349 319.487 32.133 C 319.472 24.805,319.414 24.444,318.197 24.038 L 317.500 23.806 317.500 22.357 C 317.500 20.615,317.295 20.211,316.372 20.135 C 315.763 20.084,315.749 20.068,315.697 19.334 C 315.626 18.334,315.299 18.000,314.391 18.000 L 313.667 18.000 313.667 17.283 C 313.667 16.389,313.450 16.167,312.578 16.167 C 311.890 16.167,311.889 16.166,311.736 15.381 C 311.554 14.445,311.393 14.374,309.375 14.350 L 308.000 14.333 308.000 13.506 C 308.000 12.436,307.804 12.333,305.761 12.333 C 304.291 12.333,304.167 12.308,304.167 12.008 C 304.167 10.538,303.887 10.500,293.056 10.500 C 284.389 10.500,284.158 10.508,283.833 10.833 M327.782 10.617 C 327.349 10.729,327.166 11.353,327.168 12.719 C 327.171 15.468,327.402 16.000,328.591 16.000 L 329.000 16.000 329.000 32.139 L 329.000 48.277 328.218 48.430 C 327.228 48.624,327.102 49.011,327.203 51.531 C 327.305 54.080,326.486 53.833,334.834 53.833 L 341.961 53.833 342.062 53.458 C 342.255 52.737,342.178 48.745,341.967 48.533 C 341.857 48.423,341.444 48.333,341.050 48.333 L 340.333 48.333 340.333 38.819 C 340.333 31.283,340.377 29.320,340.542 29.374 C 340.656 29.412,340.776 29.618,340.807 29.832 C 340.877 30.310,341.073 30.502,341.875 30.872 C 342.382 31.107,342.500 31.250,342.500 31.633 C 342.500 32.222,342.995 32.769,343.661 32.915 C 344.175 33.028,344.500 33.417,344.500 33.918 C 344.500 34.327,344.853 34.602,345.546 34.732 C 346.122 34.840,346.167 34.890,346.167 35.432 C 346.167 36.173,346.782 36.833,347.473 36.833 C 347.973 36.833,348.159 37.126,348.164 37.918 C 348.167 38.306,348.537 38.575,349.297 38.742 C 349.698 38.830,349.859 38.972,349.932 39.305 C 349.987 39.550,350.064 39.874,350.105 40.027 C 350.151 40.198,350.495 40.379,351.006 40.502 C 351.815 40.696,351.833 40.713,351.833 41.324 C 351.833 42.103,352.239 42.500,353.033 42.500 C 353.611 42.500,353.625 42.516,353.709 43.264 C 353.815 44.196,353.941 44.335,354.794 44.449 C 355.427 44.534,355.466 44.573,355.551 45.206 C 355.665 46.058,355.804 46.186,356.728 46.290 L 357.484 46.375 357.534 47.229 L 357.583 48.083 358.439 48.133 L 359.294 48.183 359.403 50.133 C 359.632 54.233,358.679 53.833,368.230 53.833 L 375.825 53.833 376.093 53.315 C 376.415 52.691,376.386 48.985,376.056 48.656 C 375.950 48.549,375.518 48.424,375.098 48.376 L 374.333 48.290 374.333 32.145 L 374.333 16.000 374.958 15.997 C 376.120 15.993,376.333 15.508,376.333 12.876 C 376.333 10.262,377.086 10.488,368.540 10.540 L 361.417 10.583 361.417 13.250 L 361.417 15.917 362.292 15.967 L 363.167 16.017 363.139 25.634 C 363.123 30.923,363.084 34.950,363.053 34.583 C 362.932 33.196,362.910 33.167,362.006 33.167 L 361.184 33.167 361.134 32.292 L 361.083 31.417 360.125 31.367 L 359.167 31.317 359.167 30.408 L 359.167 29.500 358.258 29.500 L 357.350 29.500 357.300 28.542 L 357.250 27.583 356.375 27.533 L 355.500 27.483 355.500 26.642 C 355.500 25.972,355.439 25.786,355.199 25.723 C 355.033 25.680,354.762 25.393,354.596 25.086 C 354.431 24.778,354.116 24.482,353.898 24.427 C 353.679 24.372,353.500 24.216,353.500 24.080 C 353.500 23.944,353.406 23.830,353.292 23.827 C 353.177 23.824,352.878 23.524,352.627 23.160 C 352.375 22.797,352.057 22.500,351.918 22.500 C 351.780 22.500,351.667 22.390,351.667 22.254 C 351.667 21.745,350.871 20.609,350.332 20.350 C 349.776 20.081,349.695 19.983,349.300 19.096 C 349.168 18.799,348.888 18.545,348.583 18.448 C 347.890 18.227,347.667 18.019,347.667 17.595 C 347.667 17.038,347.274 16.620,346.564 16.421 C 345.999 16.262,345.909 16.166,345.821 15.629 C 345.681 14.768,345.402 14.500,344.646 14.500 L 344.000 14.500 344.000 12.601 C 344.000 11.023,343.955 10.685,343.736 10.601 C 343.432 10.484,328.235 10.499,327.782 10.617 M386.033 10.700 C 385.823 10.911,385.738 15.224,385.934 15.736 C 386.009 15.932,386.269 16.000,386.934 16.000 L 387.833 16.000 387.833 32.167 L 387.833 48.333 387.097 48.333 C 385.792 48.333,385.833 48.248,385.833 50.921 C 385.833 52.233,385.879 53.425,385.934 53.570 C 386.025 53.804,386.805 53.833,393.018 53.833 L 400.000 53.833 400.000 51.083 L 400.000 48.333 399.500 48.333 L 399.000 48.333 399.000 32.167 L 399.000 16.000 399.500 16.000 L 400.000 16.000 400.000 13.250 L 400.000 10.500 393.117 10.500 C 387.985 10.500,386.182 10.551,386.033 10.700 M36.558 16.783 C 36.061 17.031,35.550 17.773,35.744 17.966 C 35.793 18.015,35.833 17.971,35.833 17.869 C 35.833 17.598,36.639 16.833,36.924 16.833 C 37.058 16.833,37.167 16.758,37.167 16.667 C 37.167 16.467,37.207 16.460,36.558 16.783 M241.839 20.583 C 241.982 21.654,242.007 21.667,243.927 21.667 L 245.667 21.667 245.667 22.321 C 245.667 23.125,245.942 23.422,246.822 23.562 L 247.500 23.671 247.500 24.669 L 247.500 25.667 246.847 25.667 C 245.787 25.667,245.667 25.770,245.667 26.684 L 245.667 27.500 237.083 27.500 L 228.500 27.500 228.500 23.665 L 228.500 19.830 235.125 19.873 L 241.750 19.917 241.839 20.583 M294.258 20.392 C 294.575 20.699,294.833 21.034,294.833 21.136 C 294.833 21.545,295.574 21.667,298.072 21.667 L 300.667 21.667 300.667 22.494 C 300.667 23.455,300.905 23.667,301.987 23.667 C 302.600 23.667,302.685 23.720,302.903 24.243 C 303.064 24.629,303.353 24.919,303.775 25.118 C 304.245 25.340,304.451 25.567,304.578 26.000 C 304.827 26.845,304.941 26.969,305.674 27.188 C 306.333 27.386,306.333 27.387,306.333 28.256 C 306.333 29.977,306.873 31.000,307.780 31.000 C 308.170 31.000,308.180 31.034,308.133 32.118 L 308.083 33.236 307.433 33.371 C 306.493 33.565,306.345 33.858,306.339 35.526 L 306.333 36.969 305.504 37.083 C 304.674 37.197,304.339 37.635,304.334 38.612 C 304.334 38.719,304.090 38.856,303.792 38.916 C 302.728 39.130,302.713 39.144,302.598 40.005 L 302.489 40.833 301.578 40.833 C 300.735 40.833,300.667 40.862,300.667 41.222 C 300.667 41.466,300.512 41.693,300.250 41.833 C 300.021 41.956,299.833 42.148,299.833 42.260 C 299.833 42.636,299.334 42.667,293.236 42.667 L 287.167 42.667 287.167 41.950 C 287.167 40.914,287.015 40.833,285.058 40.833 L 283.350 40.833 283.300 39.875 L 283.250 38.917 282.399 38.867 L 281.548 38.818 281.446 37.491 C 281.320 35.855,281.171 35.565,280.331 35.313 L 279.667 35.114 279.667 31.974 C 279.667 29.343,279.706 28.833,279.908 28.833 C 280.249 28.833,281.000 28.100,281.000 27.767 C 281.000 27.615,281.112 27.446,281.250 27.394 C 281.429 27.325,281.500 27.044,281.500 26.399 L 281.500 25.500 282.153 25.500 C 283.210 25.500,283.333 25.395,283.333 24.497 L 283.333 23.696 284.292 23.616 C 286.169 23.459,286.736 23.173,286.971 22.264 L 287.104 21.750 289.510 21.663 C 292.434 21.557,292.833 21.377,292.833 20.159 C 292.833 19.624,293.596 19.749,294.258 20.392 M0.208 20.615 C 0.369 20.657,0.631 20.657,0.792 20.615 C 0.952 20.573,0.821 20.539,0.500 20.539 C 0.179 20.539,0.048 20.573,0.208 20.615 M147.000 23.667 L 147.000 25.667 146.283 25.667 C 145.383 25.667,145.167 25.883,145.167 26.783 L 145.167 27.500 137.500 27.500 L 129.833 27.500 129.833 24.583 L 129.833 21.667 138.417 21.667 L 147.000 21.667 147.000 23.667 M18.858 24.434 C 18.520 24.816,18.696 24.848,19.143 24.486 C 19.368 24.304,19.440 24.169,19.310 24.173 C 19.185 24.176,18.982 24.294,18.858 24.434 M35.833 29.615 C 35.833 29.707,35.983 29.917,36.167 30.083 C 36.350 30.249,36.500 30.347,36.500 30.301 C 36.500 30.255,36.350 30.045,36.167 29.833 C 35.983 29.622,35.833 29.524,35.833 29.615 M46.390 43.250 C 46.391 43.983,46.420 44.263,46.456 43.871 C 46.491 43.479,46.490 42.879,46.454 42.537 C 46.419 42.196,46.390 42.517,46.390 43.250 M56.500 50.242 C 56.500 50.284,56.582 50.498,56.683 50.719 C 56.856 51.098,58.000 51.806,58.000 51.534 C 58.000 51.464,57.776 51.322,57.502 51.218 C 57.222 51.113,56.931 50.840,56.839 50.598 C 56.696 50.223,56.500 50.017,56.500 50.242 M44.899 52.418 C 44.651 52.648,44.490 52.879,44.541 52.930 C 44.678 53.066,45.333 52.620,45.333 52.390 C 45.333 52.283,45.427 52.157,45.542 52.110 C 45.694 52.049,45.696 52.023,45.550 52.013 C 45.440 52.006,45.147 52.188,44.899 52.418 M19.872 54.333 C 19.872 54.654,19.906 54.785,19.948 54.625 C 19.990 54.465,19.990 54.202,19.948 54.042 C 19.906 53.881,19.872 54.012,19.872 54.333 " stroke="none" fill="#fcfcfc" fill-rule="evenodd"></path><path id="path1" d="M38.833 0.488 L 38.833 0.975 35.446 1.029 C 31.634 1.090,31.594 1.103,31.400 2.317 L 31.291 3.000 28.593 3.000 C 25.440 3.000,24.668 3.223,24.235 4.260 L 23.996 4.833 21.539 4.850 C 18.327 4.872,18.263 4.891,18.200 5.866 L 18.150 6.636 15.033 6.696 C 11.347 6.767,10.937 6.892,10.751 7.996 L 10.637 8.667 7.912 8.667 C 4.915 8.667,4.988 8.641,4.839 9.750 L 4.750 10.417 2.375 10.463 L 0.000 10.509 0.000 13.265 L 0.000 16.021 1.792 15.959 C 2.916 15.921,3.925 15.785,4.500 15.596 C 5.959 15.117,7.170 15.077,7.964 15.481 C 9.043 16.032,10.075 16.090,16.583 15.964 C 23.855 15.822,23.102 15.824,31.000 15.928 C 34.569 15.975,37.393 15.945,37.583 15.859 C 38.551 15.421,38.940 15.333,39.911 15.333 C 40.602 15.333,41.244 15.450,41.750 15.667 C 42.541 16.006,58.068 16.210,58.392 15.886 C 58.986 15.291,61.408 15.163,62.577 15.664 C 64.047 16.294,78.315 16.157,79.083 15.506 C 79.560 15.102,80.707 14.812,81.448 14.909 C 81.797 14.955,82.590 15.027,83.208 15.069 L 84.333 15.145 84.333 13.085 C 84.333 10.360,84.500 10.500,81.258 10.500 C 78.451 10.500,78.509 10.524,78.502 9.381 C 78.498 8.751,78.025 8.667,74.511 8.667 L 71.167 8.667 71.167 8.000 C 71.167 6.767,70.915 6.667,67.828 6.667 C 65.429 6.667,65.147 6.637,65.066 6.375 C 64.678 5.118,63.884 4.849,60.545 4.840 L 57.840 4.833 57.746 4.375 C 57.694 4.123,57.559 3.729,57.445 3.500 L 57.237 3.083 53.702 3.038 L 50.167 2.993 50.167 2.256 C 50.167 1.052,49.998 1.000,46.130 1.000 L 42.833 1.000 42.833 0.500 L 42.833 0.000 40.833 0.000 L 38.833 0.000 38.833 0.488 M64.667 16.457 C 64.804 16.510,65.008 16.673,65.120 16.819 C 65.231 16.964,65.325 17.005,65.328 16.908 C 65.336 16.647,64.969 16.332,64.675 16.346 C 64.451 16.358,64.449 16.372,64.667 16.457 M35.958 16.921 C 35.727 17.152,35.498 17.546,35.450 17.796 C 35.323 18.455,35.409 18.424,35.739 17.692 C 35.915 17.301,36.237 16.943,36.557 16.784 C 36.992 16.567,37.022 16.519,36.731 16.511 C 36.537 16.505,36.189 16.689,35.958 16.921 M85.156 18.399 C 85.571 18.549,85.785 18.763,85.935 19.178 C 86.101 19.640,86.144 19.676,86.154 19.367 C 86.170 18.874,85.459 18.163,84.966 18.179 C 84.657 18.190,84.694 18.232,85.156 18.399 M0.208 20.448 C 0.369 20.490,0.631 20.490,0.792 20.448 C 0.952 20.406,0.821 20.372,0.500 20.372 C 0.179 20.372,0.048 20.406,0.208 20.448 M10.113 24.351 C 10.039 24.726,9.854 25.023,9.622 25.142 C 9.290 25.312,9.286 25.327,9.582 25.289 C 9.954 25.241,10.389 24.477,10.294 24.037 C 10.259 23.876,10.180 24.013,10.113 24.351 M18.406 24.920 C 18.248 25.335,18.155 25.710,18.199 25.755 C 18.243 25.799,18.379 25.535,18.500 25.167 C 18.621 24.800,18.783 24.500,18.860 24.500 C 18.937 24.500,19.000 24.425,19.000 24.333 C 19.000 23.910,18.666 24.239,18.406 24.920 M35.501 29.448 C 35.502 29.912,36.193 30.640,36.750 30.765 C 37.228 30.872,37.218 30.854,36.542 30.354 C 36.152 30.067,35.833 29.724,35.833 29.592 C 35.833 29.461,35.758 29.307,35.667 29.250 C 35.575 29.193,35.500 29.283,35.501 29.448 M45.738 37.420 C 45.914 37.554,46.100 37.622,46.150 37.573 C 46.254 37.468,45.831 37.170,45.583 37.175 C 45.492 37.176,45.561 37.287,45.738 37.420 M27.015 39.298 C 26.890 39.600,26.591 39.958,26.352 40.093 L 25.917 40.339 26.317 40.294 C 26.796 40.241,27.390 39.501,27.305 39.063 C 27.257 38.819,27.193 38.871,27.015 39.298 M46.394 40.417 C 46.395 41.333,46.423 41.687,46.456 41.203 C 46.490 40.718,46.490 39.968,46.456 39.536 C 46.421 39.104,46.394 39.500,46.394 40.417 M75.625 41.095 C 75.373 41.232,75.168 41.473,75.170 41.630 C 75.173 41.867,75.225 41.850,75.466 41.537 C 75.627 41.329,75.981 41.091,76.254 41.010 C 76.585 40.911,76.639 40.859,76.417 40.854 C 76.233 40.850,75.877 40.959,75.625 41.095 M75.055 44.417 C 75.055 45.058,75.086 45.300,75.122 44.955 C 75.158 44.609,75.157 44.084,75.120 43.788 C 75.083 43.492,75.054 43.775,75.055 44.417 M7.340 46.808 C 6.634 47.479,6.459 47.896,6.958 47.719 C 7.400 47.563,7.809 47.166,8.072 46.640 C 8.397 45.988,8.139 46.048,7.340 46.808 M85.905 46.847 C 85.783 47.285,85.574 47.504,85.004 47.792 C 84.261 48.167,84.429 48.312,85.247 48.001 C 85.676 47.838,86.249 46.829,86.124 46.456 C 86.091 46.357,85.993 46.533,85.905 46.847 M35.667 47.917 C 35.781 48.054,35.992 48.167,36.136 48.167 C 36.345 48.167,36.333 48.118,36.074 47.922 C 35.650 47.602,35.403 47.599,35.667 47.917 M16.665 49.042 C 16.041 50.066,16.489 51.834,17.373 51.833 C 17.716 51.832,17.703 51.803,17.233 51.517 C 16.307 50.952,16.307 49.381,17.233 48.817 C 17.703 48.530,17.716 48.501,17.373 48.501 C 17.125 48.500,16.881 48.687,16.665 49.042 M56.006 49.417 C 56.002 50.206,56.796 51.428,57.481 51.690 C 58.121 51.935,58.097 51.707,57.450 51.399 C 57.001 51.185,56.756 50.892,56.433 50.184 C 56.198 49.670,56.006 49.325,56.006 49.417 M75.244 50.458 C 75.390 51.046,75.852 51.538,76.479 51.774 C 76.877 51.925,76.958 51.918,76.891 51.742 C 76.844 51.622,76.591 51.448,76.327 51.356 C 76.013 51.247,75.761 50.983,75.599 50.594 C 75.305 49.891,75.082 49.806,75.244 50.458 M45.542 52.110 C 45.427 52.157,45.333 52.288,45.333 52.402 C 45.333 52.517,45.146 52.711,44.917 52.833 C 44.540 53.035,44.350 53.333,44.599 53.333 C 44.856 53.333,45.636 52.636,45.714 52.336 C 45.763 52.151,45.790 52.006,45.776 52.013 C 45.762 52.020,45.656 52.064,45.542 52.110 M64.583 52.500 C 64.441 52.775,64.266 53.000,64.194 53.000 C 64.122 53.000,63.918 53.118,63.740 53.261 C 63.432 53.510,63.440 53.518,63.907 53.417 C 64.470 53.295,65.000 52.757,65.000 52.308 C 65.000 51.870,64.881 51.925,64.583 52.500 M78.833 53.068 C 78.833 53.328,79.428 53.891,79.615 53.809 C 79.689 53.776,79.544 53.549,79.292 53.302 C 79.040 53.056,78.833 52.951,78.833 53.068 M82.118 53.166 C 82.071 53.349,81.856 53.570,81.641 53.656 C 81.372 53.763,81.337 53.815,81.530 53.823 C 81.868 53.836,82.333 53.400,82.333 53.071 C 82.333 52.729,82.220 52.779,82.118 53.166 " stroke="none" fill="#e40414" fill-rule="evenodd"></path><path id="path2" d="M79.975 15.061 C 79.641 15.165,79.228 15.375,79.058 15.527 C 78.889 15.679,78.375 15.858,77.917 15.925 C 76.760 16.093,76.839 15.166,76.836 28.701 L 76.833 40.985 76.278 41.089 C 75.259 41.280,75.175 41.636,75.126 45.956 C 75.091 49.112,75.126 49.833,75.327 50.075 C 75.461 50.237,75.650 50.528,75.747 50.723 C 75.844 50.917,76.078 51.154,76.266 51.248 C 76.455 51.342,76.740 51.550,76.900 51.709 C 77.098 51.907,77.453 52.000,78.012 52.000 C 78.643 52.000,78.833 52.060,78.833 52.258 C 78.833 54.046,81.956 54.407,82.252 52.654 C 82.360 52.016,82.380 52.000,83.056 51.997 C 84.190 51.993,84.240 51.908,84.333 49.812 L 84.417 47.943 84.917 47.781 C 86.237 47.351,86.225 47.477,86.291 33.560 C 86.360 18.911,86.338 18.672,84.900 18.403 L 84.333 18.296 84.333 16.731 C 84.333 15.601,84.276 15.161,84.125 15.148 C 84.010 15.138,83.654 15.104,83.333 15.074 C 81.460 14.896,80.515 14.892,79.975 15.061 M5.000 15.412 C 4.172 15.714,2.867 16.120,2.057 16.327 C 1.172 16.554,1.000 17.005,1.000 19.108 L 1.000 20.667 0.500 20.667 L 0.000 20.667 0.000 37.250 L 0.000 53.833 2.107 53.833 C 4.486 53.833,4.652 53.755,4.661 52.625 L 4.667 52.000 5.405 52.000 C 6.572 52.000,6.667 51.809,6.667 49.456 L 6.667 47.437 7.542 46.628 L 8.417 45.820 8.469 35.577 C 8.517 26.100,8.542 25.333,8.802 25.327 C 10.087 25.300,10.452 24.066,10.483 19.649 C 10.508 16.000,10.532 16.089,9.458 15.945 C 9.022 15.887,8.369 15.688,8.006 15.503 C 7.250 15.117,5.918 15.077,5.000 15.412 M38.333 15.531 C 37.293 15.969,37.167 16.068,37.167 16.445 C 37.167 16.674,37.067 16.833,36.924 16.833 C 36.706 16.833,36.294 17.196,35.712 17.898 C 34.908 18.868,34.974 28.012,35.794 29.309 C 36.138 29.855,36.797 30.500,37.009 30.500 C 37.104 30.500,37.167 32.174,37.167 34.728 L 37.167 38.956 36.480 39.048 C 35.371 39.197,35.166 39.852,35.168 43.231 C 35.170 46.806,35.421 47.696,36.520 48.026 L 37.167 48.219 37.167 49.704 C 37.167 51.539,37.276 51.762,38.245 51.907 C 38.958 52.014,39.000 52.050,39.002 52.552 C 39.008 53.884,38.896 53.833,41.853 53.833 L 44.500 53.833 44.500 53.335 C 44.500 52.717,44.908 52.223,45.610 51.991 C 46.511 51.694,46.580 50.989,46.397 43.978 L 46.239 37.962 45.777 37.564 C 45.523 37.346,45.131 37.167,44.907 37.167 L 44.500 37.167 44.498 27.292 C 44.495 16.317,44.532 16.693,43.413 16.424 C 43.048 16.337,42.711 16.210,42.663 16.143 C 42.205 15.498,39.365 15.097,38.333 15.531 M59.035 15.572 C 58.733 15.682,58.338 15.898,58.158 16.052 C 57.977 16.207,57.685 16.333,57.509 16.333 C 55.950 16.333,55.999 15.771,56.004 33.550 C 56.008 48.127,56.064 49.993,56.502 50.140 C 56.604 50.174,56.759 50.388,56.846 50.616 C 56.932 50.844,57.227 51.115,57.502 51.218 C 57.974 51.396,58.000 51.456,58.000 52.344 C 58.000 53.771,58.122 53.833,60.945 53.833 C 63.274 53.833,63.280 53.832,63.470 53.417 C 63.574 53.188,63.741 53.000,63.842 53.000 C 64.073 53.000,64.403 52.668,64.546 52.292 C 64.607 52.131,64.809 52.000,64.995 52.000 C 65.333 52.000,65.333 51.978,65.333 34.775 C 65.333 15.632,65.390 16.579,64.237 16.406 C 63.831 16.345,63.500 16.239,63.500 16.170 C 63.500 15.551,60.281 15.120,59.035 15.572 M22.333 15.909 C 22.012 16.032,21.452 16.196,21.087 16.274 C 20.067 16.493,20.006 16.742,19.999 20.667 L 19.993 24.083 19.462 24.333 C 19.135 24.487,18.785 24.865,18.549 25.318 L 18.167 26.052 18.167 37.256 L 18.167 48.460 17.679 48.662 C 16.214 49.269,16.214 51.065,17.679 51.672 C 18.140 51.863,18.167 51.927,18.167 52.858 L 18.167 53.842 20.875 53.796 L 23.583 53.750 23.633 52.792 C 23.683 51.836,23.685 51.833,24.217 51.831 C 25.527 51.825,25.574 51.614,25.639 45.470 L 25.695 40.189 26.154 40.029 C 26.439 39.930,26.764 39.593,27.008 39.143 L 27.402 38.417 27.461 27.917 C 27.529 15.944,27.558 16.384,26.702 16.248 C 26.362 16.194,25.783 16.068,25.417 15.969 C 24.385 15.690,22.977 15.663,22.333 15.909 " stroke="none" fill="#9c9c9c" fill-rule="evenodd"></path><path id="path3" d="" stroke="none" fill="#cc100d0" fill-rule="evenodd"></path><path id="path4" d="" stroke="none" fill="#cc100d0" fill-rule="evenodd"></path></g></svg>