<svg id="svg" version="1.1" xmlns="http://www.w3.org/2000/svg" xmlns:xlink="http://www.w3.org/1999/xlink" width="400" height="143.11926605504587" viewBox="0, 0, 400,143.11926605504587"><g id="svgg"><path id="path0" d="M164.083 51.356 C 163.285 51.542,162.098 52.097,161.844 52.403 C 161.704 52.573,161.876 52.850,162.591 53.603 C 163.160 54.204,163.746 55.062,164.105 55.821 L 164.691 57.059 164.637 59.370 C 164.575 62.023,164.548 61.980,166.184 61.763 C 168.660 61.435,170.667 59.078,170.667 56.500 C 170.667 53.102,167.432 50.574,164.083 51.356 M215.306 51.977 C 214.322 52.457,213.508 53.116,213.503 53.438 C 213.501 53.541,213.389 53.718,213.254 53.830 C 213.119 53.942,212.961 54.289,212.902 54.602 C 212.844 54.915,212.729 55.211,212.648 55.262 C 212.407 55.410,212.479 57.089,212.749 57.606 C 213.177 58.427,212.894 59.990,212.153 60.897 C 211.377 61.847,210.355 62.895,210.083 63.020 C 209.900 63.104,209.419 63.358,209.015 63.586 C 208.212 64.039,207.259 64.124,206.846 63.781 C 206.702 63.661,206.246 63.429,205.833 63.266 C 205.421 63.103,204.858 62.868,204.583 62.745 C 204.308 62.622,203.821 62.470,203.500 62.408 C 203.179 62.346,202.837 62.231,202.739 62.153 C 202.433 61.908,199.668 61.598,197.554 61.572 C 192.475 61.509,189.566 56.354,192.460 52.543 C 192.810 52.083,192.832 51.989,192.609 51.903 C 192.216 51.753,190.496 51.916,189.833 52.167 C 189.512 52.288,188.838 52.538,188.333 52.721 C 185.334 53.813,183.950 54.985,185.635 55.005 C 185.882 55.008,186.229 55.121,186.407 55.255 C 186.585 55.390,186.858 55.500,187.014 55.500 C 187.170 55.500,187.671 55.836,188.127 56.246 C 190.572 58.445,190.533 62.904,188.056 64.417 C 184.936 66.322,182.131 69.647,180.744 73.083 C 180.596 73.450,180.370 73.975,180.241 74.250 C 180.112 74.525,179.956 75.087,179.894 75.500 C 179.741 76.518,179.304 77.491,178.753 78.038 C 178.190 78.597,176.599 79.667,176.330 79.667 C 176.222 79.667,175.897 79.774,175.609 79.904 C 174.334 80.481,171.149 80.883,170.781 80.514 C 170.681 80.415,170.439 80.333,170.242 80.333 C 170.044 80.333,169.388 79.958,168.782 79.500 C 168.177 79.042,167.580 78.667,167.456 78.667 C 167.332 78.667,167.085 78.557,166.907 78.422 C 166.729 78.287,166.292 78.175,165.935 78.172 C 164.557 78.161,163.049 76.892,162.265 75.083 C 162.105 74.717,161.871 74.192,161.743 73.917 C 161.616 73.642,161.463 73.192,161.404 72.917 C 161.345 72.642,161.187 72.079,161.052 71.667 C 160.912 71.237,160.784 70.072,160.752 68.940 C 160.688 66.659,160.630 66.548,159.634 66.800 C 159.240 66.900,158.701 67.027,158.438 67.082 C 158.175 67.138,157.851 67.292,157.718 67.425 C 157.585 67.558,157.341 67.667,157.175 67.667 C 157.010 67.667,156.781 67.779,156.667 67.917 C 156.553 68.054,156.363 68.167,156.244 68.167 C 155.193 68.167,154.926 69.854,155.903 70.327 C 156.925 70.821,159.500 73.434,159.500 73.976 C 159.500 74.066,159.556 74.164,159.625 74.194 C 159.845 74.292,160.500 75.311,160.500 75.556 C 160.500 75.686,160.612 75.886,160.750 76.000 C 160.887 76.114,161.000 76.330,161.001 76.479 C 161.002 76.628,161.114 76.965,161.251 77.227 C 161.706 78.099,161.573 78.906,160.772 80.134 C 160.372 80.748,159.991 81.493,159.926 81.790 C 159.861 82.087,159.738 82.372,159.654 82.425 C 158.938 82.867,160.111 86.403,161.371 87.599 C 164.311 90.388,170.333 89.149,170.333 85.756 C 170.333 85.391,170.486 84.954,171.038 83.733 C 171.220 83.332,172.713 82.167,173.046 82.167 C 173.167 82.167,173.349 82.084,173.451 81.983 C 173.776 81.657,175.713 81.270,177.000 81.273 C 178.755 81.278,179.280 81.572,179.411 82.624 C 179.465 83.060,179.576 83.642,179.658 83.917 C 179.740 84.192,179.857 84.735,179.918 85.124 C 179.979 85.513,180.089 85.869,180.162 85.914 C 180.236 85.959,180.342 86.246,180.400 86.551 C 180.510 87.138,181.868 89.900,182.265 90.346 C 182.869 91.024,182.360 92.312,181.205 93.030 C 180.614 93.398,180.454 93.414,177.965 93.372 L 175.347 93.327 174.261 93.840 C 173.151 94.365,171.506 95.941,171.495 96.492 C 171.492 96.634,171.379 96.896,171.245 97.074 C 170.499 98.059,170.995 100.877,172.220 102.619 C 173.223 104.044,172.520 105.685,169.818 108.229 C 168.195 109.756,168.083 110.031,168.798 110.716 C 169.995 111.863,172.891 112.582,174.236 112.066 C 174.567 111.939,174.572 111.193,174.245 110.760 C 174.110 110.582,174.000 110.166,174.000 109.835 C 174.000 109.504,173.918 109.151,173.817 109.050 C 173.344 108.577,173.927 106.013,174.686 105.230 C 175.219 104.680,175.264 104.667,176.606 104.667 C 177.362 104.667,178.022 104.600,178.072 104.518 C 178.122 104.437,178.345 104.325,178.566 104.269 C 179.754 103.971,181.810 101.983,181.827 101.117 C 181.831 100.952,181.954 100.584,182.101 100.299 C 182.366 99.787,182.360 99.065,182.074 97.083 C 181.924 96.046,182.374 94.621,183.100 93.837 C 183.903 92.969,184.221 92.993,185.333 94.007 C 186.738 95.288,189.862 97.333,190.414 97.333 C 190.540 97.333,190.742 97.430,190.863 97.548 C 190.984 97.667,191.458 97.858,191.917 97.973 C 192.375 98.088,193.200 98.297,193.750 98.437 C 196.190 99.058,199.521 99.126,201.696 98.598 C 204.474 97.925,206.299 102.505,204.528 105.705 C 202.881 108.684,204.708 113.074,207.843 113.668 C 209.386 113.961,211.314 113.775,212.000 113.268 C 213.953 111.824,215.592 112.633,219.484 116.961 C 220.906 118.543,221.550 118.767,222.117 117.875 C 222.277 117.623,222.504 117.357,222.621 117.283 C 222.738 117.210,222.833 116.976,222.833 116.762 C 222.833 116.549,222.946 116.281,223.083 116.167 C 223.221 116.053,223.336 115.725,223.339 115.438 C 223.342 115.151,223.452 114.729,223.583 114.500 C 224.316 113.218,223.652 110.930,222.833 111.917 C 222.719 112.054,222.500 112.167,222.346 112.167 C 222.192 112.167,221.980 112.254,221.874 112.360 C 221.318 112.916,217.699 112.972,217.044 112.435 C 215.540 111.202,214.833 109.887,214.833 108.325 C 214.833 105.919,213.311 103.879,211.000 103.185 C 205.997 101.685,204.459 98.100,207.951 96.078 C 209.211 95.348,209.984 94.714,211.417 93.238 C 212.943 91.665,214.319 89.785,214.761 88.667 C 214.816 88.529,215.004 88.108,215.180 87.732 C 215.356 87.355,215.500 86.924,215.500 86.773 C 215.500 86.623,215.565 86.500,215.645 86.500 C 215.724 86.500,215.869 86.144,215.966 85.708 C 216.063 85.273,216.217 84.617,216.307 84.250 C 216.742 82.493,216.653 76.195,216.185 75.594 C 216.109 75.497,215.999 75.154,215.940 74.833 C 215.880 74.512,215.724 74.025,215.593 73.750 C 215.461 73.475,215.109 72.725,214.810 72.083 C 214.110 70.578,212.911 68.815,211.660 67.449 C 210.668 66.367,210.330 65.395,210.836 65.082 C 210.929 65.024,211.113 64.718,211.246 64.401 C 211.620 63.505,213.870 61.373,214.582 61.239 C 214.906 61.179,215.214 61.059,215.267 60.973 C 215.323 60.882,215.840 60.863,216.498 60.928 C 218.651 61.140,220.187 60.472,221.324 58.831 C 222.122 57.677,222.283 57.592,223.674 57.588 C 224.407 57.585,225.155 57.679,225.433 57.809 C 227.075 58.576,227.496 58.849,228.424 59.750 C 228.991 60.300,229.681 61.107,229.957 61.543 L 230.460 62.336 230.770 61.876 C 231.345 61.024,231.914 56.339,231.596 55.075 C 231.414 54.350,230.969 54.292,230.315 54.909 C 228.337 56.775,223.989 56.812,222.195 54.977 C 221.904 54.680,221.667 54.371,221.667 54.292 C 221.667 54.212,221.399 53.795,221.072 53.365 C 219.709 51.575,217.314 50.998,215.306 51.977 M144.917 62.446 C 144.733 62.495,144.482 62.619,144.357 62.720 C 144.108 62.922,143.698 63.163,142.872 63.592 C 141.716 64.191,141.315 65.445,142.057 66.142 C 142.533 66.589,143.371 66.851,143.686 66.651 C 143.813 66.571,144.130 66.504,144.391 66.503 C 144.653 66.501,145.103 66.395,145.391 66.266 C 145.680 66.137,146.125 65.985,146.380 65.928 C 147.480 65.682,147.845 63.769,146.960 62.885 C 146.546 62.470,145.589 62.264,144.917 62.446 M383.922 66.216 C 383.851 66.380,383.839 66.561,383.896 66.618 C 384.065 66.788,384.202 66.550,384.124 66.221 C 384.055 65.930,384.046 65.930,383.922 66.216 M380.867 67.875 L 380.901 69.583 380.957 68.200 C 380.999 67.181,381.078 66.793,381.257 66.724 C 381.619 66.585,381.551 66.167,381.167 66.167 C 380.853 66.167,380.835 66.266,380.867 67.875 M201.083 69.903 C 201.358 70.047,201.669 70.165,201.773 70.166 C 203.694 70.176,208.333 75.083,208.333 77.104 C 208.333 77.285,208.413 77.513,208.510 77.610 C 208.983 78.083,208.615 79.574,208.000 79.675 C 207.679 79.728,207.267 79.851,207.083 79.947 C 206.900 80.044,206.460 80.175,206.104 80.239 C 205.749 80.304,205.337 80.421,205.188 80.500 C 205.039 80.579,204.354 80.808,203.667 81.010 C 202.979 81.212,202.134 81.480,201.788 81.605 C 201.443 81.731,200.989 81.833,200.780 81.833 C 200.571 81.833,200.329 81.901,200.242 81.984 C 200.098 82.121,199.240 82.384,197.417 82.849 C 197.050 82.943,196.679 83.090,196.592 83.176 C 196.505 83.263,196.220 83.333,195.958 83.333 C 195.697 83.333,195.281 83.436,195.033 83.561 C 194.786 83.686,194.302 83.840,193.958 83.902 C 192.965 84.082,193.364 84.768,195.052 85.783 L 196.083 86.403 198.000 86.395 C 199.996 86.388,200.094 86.361,201.583 85.422 C 202.306 84.967,203.333 83.968,203.333 83.720 C 203.333 83.604,203.558 83.392,203.833 83.250 L 204.333 82.992 204.611 83.687 C 204.764 84.070,205.177 84.938,205.528 85.617 C 205.879 86.296,206.167 86.982,206.167 87.142 C 206.167 87.961,202.169 90.667,200.960 90.667 C 200.740 90.667,200.212 90.785,199.786 90.930 C 198.006 91.537,193.716 90.659,192.320 89.404 C 192.175 89.273,191.981 89.167,191.889 89.167 C 191.492 89.167,188.667 86.142,188.667 85.718 C 188.667 85.635,188.579 85.479,188.472 85.372 C 188.224 85.124,187.898 84.242,187.478 82.681 C 186.513 79.098,188.041 74.355,190.872 72.144 C 191.263 71.838,191.674 71.501,191.786 71.395 C 191.897 71.289,192.328 71.038,192.743 70.837 C 193.158 70.636,193.540 70.403,193.592 70.319 C 193.644 70.235,193.839 70.167,194.026 70.167 C 194.213 70.167,194.603 70.058,194.891 69.925 C 195.969 69.430,200.152 69.415,201.083 69.903 M140.668 70.174 C 139.571 70.333,138.019 70.819,137.654 71.118 C 137.509 71.236,137.334 71.333,137.265 71.333 C 137.084 71.333,135.674 72.478,135.050 73.132 C 134.349 73.867,133.457 75.221,132.995 76.254 C 132.790 76.710,132.548 77.229,132.456 77.408 C 132.364 77.587,132.225 78.149,132.147 78.658 C 132.069 79.167,131.915 80.127,131.805 80.792 C 131.650 81.732,131.650 82.268,131.805 83.208 C 131.915 83.873,132.072 84.829,132.153 85.333 C 132.478 87.356,133.965 90.069,135.485 91.414 C 136.132 91.987,137.461 92.871,138.000 93.087 C 138.137 93.143,138.475 93.294,138.750 93.423 C 139.978 94.002,144.311 94.055,145.583 93.507 C 147.041 92.880,147.687 92.529,148.356 92.004 C 149.260 91.295,151.000 89.346,151.000 89.043 C 151.000 88.928,151.059 88.833,151.130 88.833 C 151.202 88.833,151.359 88.590,151.479 88.292 C 151.599 87.994,151.850 87.375,152.036 86.917 C 152.907 84.768,153.010 79.658,152.222 77.583 C 150.153 72.130,145.917 69.414,140.668 70.174 M44.667 70.288 C 43.149 70.379,42.179 70.835,41.007 72.009 C 39.734 73.284,39.500 73.574,39.500 73.873 C 39.500 73.994,39.372 74.276,39.215 74.500 C 38.734 75.187,38.688 78.700,39.148 79.708 C 39.341 80.134,39.502 80.542,39.506 80.616 C 39.534 81.303,41.995 82.873,43.917 83.429 C 47.219 84.385,48.306 85.781,47.326 87.809 C 46.293 89.948,43.550 89.693,40.951 87.215 L 40.152 86.453 39.826 86.803 C 39.647 86.995,39.500 87.263,39.500 87.398 C 39.500 87.533,39.406 87.742,39.291 87.863 C 39.176 87.984,38.872 88.496,38.614 89.000 C 38.356 89.504,38.057 90.054,37.948 90.222 C 37.574 90.799,39.803 92.449,42.167 93.345 C 44.598 94.267,48.410 93.442,50.260 91.593 C 51.037 90.816,51.313 90.360,52.062 88.619 C 52.424 87.777,52.440 84.123,52.083 83.500 C 51.952 83.271,51.842 82.945,51.839 82.776 C 51.833 82.438,50.738 80.966,50.319 80.731 C 49.410 80.223,48.143 79.666,47.886 79.661 C 47.719 79.658,47.438 79.546,47.260 79.411 C 47.082 79.277,46.744 79.164,46.510 79.161 C 46.275 79.158,45.938 79.046,45.760 78.911 C 45.582 78.777,45.335 78.667,45.211 78.667 C 44.522 78.667,43.500 77.414,43.500 76.570 C 43.500 75.035,45.779 73.892,47.312 74.658 C 47.461 74.733,47.931 74.954,48.357 75.149 C 48.782 75.345,49.221 75.615,49.333 75.749 C 49.631 76.109,50.115 75.783,50.258 75.126 C 50.323 74.828,50.479 74.435,50.605 74.255 C 50.730 74.074,50.836 73.774,50.839 73.588 C 50.842 73.402,50.954 73.104,51.089 72.926 C 51.516 72.362,50.938 71.333,50.194 71.333 C 50.110 71.333,49.947 71.221,49.833 71.083 C 49.719 70.946,49.481 70.833,49.305 70.833 C 49.128 70.833,48.781 70.731,48.533 70.606 C 48.076 70.375,46.031 70.207,44.667 70.288 M251.417 70.329 C 250.465 70.451,249.871 70.643,248.750 71.189 C 247.914 71.596,247.169 72.076,247.168 72.208 C 247.167 72.277,247.080 72.333,246.974 72.333 C 246.582 72.333,243.833 75.619,243.833 76.088 C 243.833 76.200,243.721 76.386,243.583 76.500 C 243.446 76.614,243.333 76.883,243.333 77.098 C 243.333 77.313,243.229 77.735,243.101 78.036 C 242.336 79.839,242.333 84.194,243.097 85.722 C 243.227 85.981,243.333 86.300,243.333 86.431 C 243.333 87.502,245.967 90.764,247.777 91.935 C 250.149 93.469,255.110 94.016,256.517 92.898 C 256.645 92.796,256.966 92.661,257.230 92.598 C 258.592 92.272,261.273 89.845,262.218 88.083 C 262.657 87.265,263.167 86.034,263.167 85.792 C 263.167 85.668,263.260 85.473,263.375 85.359 C 263.827 84.908,263.755 79.537,263.278 78.137 C 261.351 72.474,256.997 69.608,251.417 70.329 M339.172 70.284 C 338.670 70.322,338.183 70.417,338.088 70.495 C 337.994 70.573,337.638 70.689,337.298 70.753 C 336.957 70.816,336.592 70.973,336.486 71.101 C 336.379 71.229,336.155 71.333,335.988 71.333 C 335.820 71.333,335.623 71.428,335.550 71.543 C 335.477 71.659,335.117 71.952,334.750 72.194 C 333.111 73.278,330.838 76.362,330.834 77.508 C 330.834 77.650,330.752 77.848,330.653 77.947 C 329.984 78.616,329.979 85.046,330.647 85.713 C 330.749 85.816,330.831 86.016,330.829 86.158 C 330.805 87.632,334.083 91.429,336.253 92.438 C 338.767 93.609,342.010 93.807,344.083 92.917 C 346.367 91.937,346.335 91.959,347.897 90.397 C 349.287 89.007,349.422 88.843,349.574 88.362 C 349.637 88.163,349.754 88.000,349.833 88.000 C 349.913 88.000,350.025 87.831,350.084 87.625 C 350.142 87.419,350.288 87.025,350.408 86.750 C 351.771 83.624,351.588 79.086,349.976 76.021 C 348.623 73.450,346.733 71.809,343.750 70.617 C 343.048 70.336,340.711 70.166,339.172 70.284 M55.740 70.883 C 55.694 71.002,55.678 72.146,55.703 73.425 L 55.750 75.750 57.583 75.791 C 58.592 75.814,59.585 75.871,59.790 75.919 L 60.164 76.006 60.207 84.544 L 60.250 93.083 62.792 93.129 L 65.333 93.175 65.333 84.768 C 65.333 80.144,65.379 76.242,65.434 76.097 C 65.519 75.877,65.861 75.833,67.484 75.833 C 68.778 75.833,69.501 75.766,69.633 75.633 C 69.966 75.301,69.908 70.898,69.570 70.768 C 68.992 70.546,55.827 70.656,55.740 70.883 M98.000 70.822 C 97.689 71.028,97.600 92.821,97.910 93.039 C 98.251 93.280,105.395 93.181,106.777 92.917 C 107.495 92.779,108.259 92.667,108.475 92.667 C 108.871 92.667,109.473 92.439,110.827 91.779 C 112.596 90.916,114.906 87.911,115.270 85.999 C 115.330 85.678,115.460 85.316,115.557 85.193 C 115.799 84.886,115.906 80.250,115.691 79.417 C 115.596 79.050,115.437 78.412,115.337 78.000 C 115.172 77.318,114.326 75.438,113.917 74.844 C 112.918 73.395,109.948 71.333,108.860 71.333 C 108.656 71.333,108.245 71.231,107.946 71.106 C 107.258 70.819,98.387 70.565,98.000 70.822 M221.266 70.807 C 221.159 70.980,221.474 72.190,221.682 72.408 C 221.765 72.495,221.834 72.683,221.834 72.825 C 221.835 72.967,221.947 73.298,222.084 73.561 C 222.221 73.823,222.333 74.165,222.333 74.321 C 222.333 74.476,222.443 74.749,222.578 74.926 C 222.713 75.104,222.828 75.362,222.834 75.500 C 222.840 75.637,222.990 76.050,223.167 76.417 C 223.344 76.783,223.494 77.196,223.500 77.333 C 223.506 77.471,223.621 77.729,223.755 77.907 C 223.890 78.085,224.000 78.397,224.000 78.602 C 224.000 78.806,224.112 79.204,224.250 79.486 C 224.387 79.769,224.612 80.231,224.750 80.514 C 224.887 80.796,225.000 81.157,225.000 81.315 C 225.000 81.473,225.110 81.749,225.245 81.926 C 225.379 82.104,225.492 82.404,225.495 82.593 C 225.498 82.782,225.610 83.082,225.745 83.260 C 225.879 83.438,225.992 83.696,225.995 83.833 C 226.002 84.111,226.724 85.946,226.893 86.115 C 226.952 86.174,227.003 86.341,227.006 86.486 C 227.009 86.631,227.156 87.050,227.333 87.417 C 227.510 87.783,227.660 88.233,227.666 88.417 C 227.672 88.600,227.787 88.896,227.922 89.074 C 228.057 89.251,228.169 89.551,228.172 89.740 C 228.175 89.929,228.287 90.229,228.422 90.407 C 228.557 90.585,228.667 90.837,228.667 90.967 C 228.667 91.336,229.395 92.832,229.582 92.846 C 232.661 93.076,233.522 92.870,233.746 91.853 C 233.811 91.555,233.970 91.110,234.098 90.864 C 234.226 90.618,234.332 90.298,234.332 90.153 C 234.333 90.008,234.382 89.841,234.441 89.782 C 234.609 89.613,235.331 87.778,235.338 87.500 C 235.341 87.362,235.454 87.104,235.589 86.926 C 235.723 86.749,235.833 86.444,235.833 86.250 C 235.833 86.056,235.943 85.751,236.078 85.574 C 236.213 85.396,236.326 85.137,236.329 85.000 C 236.333 84.862,236.440 84.549,236.569 84.303 C 236.697 84.057,236.852 83.627,236.914 83.346 C 236.975 83.066,237.095 82.794,237.179 82.742 C 237.264 82.690,237.336 82.520,237.339 82.365 C 237.342 82.210,237.490 81.783,237.667 81.417 C 237.844 81.050,237.991 80.659,237.994 80.547 C 238.000 80.333,238.388 79.382,238.771 78.641 C 238.897 78.398,239.000 78.072,239.000 77.917 C 239.000 77.762,239.102 77.436,239.227 77.192 C 239.530 76.601,239.853 75.686,239.954 75.130 C 239.999 74.881,240.141 74.591,240.268 74.485 C 240.396 74.379,240.500 74.182,240.500 74.046 C 240.500 73.911,240.609 73.564,240.743 73.275 C 241.102 72.498,241.495 71.291,241.498 70.958 C 241.500 70.694,241.272 70.667,239.032 70.667 C 236.334 70.667,236.092 70.739,235.953 71.583 C 235.908 71.858,235.781 72.346,235.670 72.667 C 235.235 73.927,235.129 74.277,234.965 75.000 C 234.871 75.412,234.737 75.825,234.666 75.917 C 234.596 76.008,234.485 76.402,234.421 76.792 C 234.357 77.181,234.245 77.500,234.173 77.500 C 234.101 77.500,233.994 77.803,233.935 78.174 C 233.876 78.545,233.759 78.976,233.675 79.132 C 233.591 79.289,233.446 79.717,233.352 80.083 C 233.067 81.197,232.710 82.375,232.152 84.042 C 232.052 84.340,231.908 84.836,231.832 85.145 C 231.543 86.312,231.054 85.991,230.570 84.319 C 230.440 83.869,230.214 83.106,230.068 82.625 C 229.923 82.144,229.728 81.450,229.635 81.083 C 229.542 80.717,229.361 80.180,229.233 79.891 C 229.105 79.603,229.000 79.217,229.000 79.036 C 229.000 78.854,228.888 78.490,228.751 78.227 C 228.614 77.965,228.502 77.611,228.501 77.442 C 228.500 77.272,228.395 76.897,228.267 76.609 C 228.032 76.079,227.755 75.108,227.511 73.961 C 227.439 73.619,227.302 73.244,227.208 73.128 C 227.115 73.012,226.982 72.581,226.914 72.170 C 226.669 70.682,226.637 70.667,223.824 70.667 C 222.465 70.667,221.314 70.730,221.266 70.807 M303.542 70.776 C 303.198 70.916,303.250 75.266,303.597 75.399 C 303.742 75.454,304.664 75.500,305.647 75.500 C 306.814 75.500,307.503 75.569,307.633 75.700 C 307.784 75.850,307.833 77.964,307.833 84.186 C 307.833 88.744,307.872 92.573,307.919 92.695 C 308.050 93.037,312.621 93.009,312.838 92.664 C 312.930 92.519,312.996 89.046,312.997 84.229 C 313.000 74.592,312.698 75.618,315.566 75.500 L 317.583 75.417 317.583 73.083 L 317.583 70.750 310.667 70.721 C 306.862 70.704,303.656 70.729,303.542 70.776 M355.458 70.847 C 355.036 71.092,355.003 92.324,355.424 92.673 C 355.623 92.838,359.707 93.067,360.037 92.932 C 360.058 92.924,360.114 89.654,360.162 85.667 C 360.214 81.357,360.313 78.417,360.405 78.417 C 360.561 78.417,362.817 81.639,362.828 81.877 C 362.831 81.946,363.082 82.359,363.385 82.793 C 363.689 83.228,363.990 83.696,364.054 83.833 C 364.118 83.971,364.319 84.308,364.500 84.583 C 364.681 84.858,364.882 85.196,364.947 85.333 C 365.011 85.471,365.380 86.047,365.767 86.614 C 366.154 87.181,366.520 87.800,366.580 87.989 C 366.640 88.178,366.759 88.333,366.845 88.333 C 366.930 88.333,367.000 88.409,367.000 88.502 C 367.000 88.594,367.244 89.026,367.543 89.460 C 367.842 89.895,368.190 90.452,368.317 90.699 C 368.443 90.947,368.818 91.540,369.150 92.018 L 369.752 92.888 372.210 92.915 L 374.667 92.943 374.667 81.800 L 374.667 70.658 372.292 70.704 L 369.917 70.750 369.873 77.523 C 369.821 85.703,369.824 85.691,368.104 82.833 C 367.464 81.770,367.269 81.459,367.116 81.259 C 366.841 80.900,364.333 76.995,364.333 76.927 C 364.333 76.859,362.644 74.254,361.980 73.298 C 361.808 73.050,361.667 72.806,361.667 72.755 C 361.667 72.609,360.466 70.929,360.265 70.794 C 359.988 70.607,355.790 70.653,355.458 70.847 M125.839 71.076 C 125.722 71.218,125.494 71.333,125.333 71.333 C 125.172 71.333,124.947 71.446,124.833 71.583 C 124.719 71.721,124.529 71.833,124.410 71.833 C 124.291 71.833,123.981 71.939,123.722 72.069 C 123.462 72.198,122.820 72.500,122.294 72.740 C 121.058 73.302,121.151 72.391,121.204 83.500 L 121.250 93.083 123.750 93.083 L 126.250 93.083 126.293 82.093 C 126.334 71.451,126.296 70.526,125.839 71.076 M287.083 71.137 C 286.808 71.275,286.471 71.451,286.333 71.528 C 286.196 71.605,285.971 71.715,285.833 71.771 C 284.275 72.409,282.932 73.063,282.794 73.250 C 282.220 74.032,282.771 87.563,283.432 88.889 C 283.561 89.148,283.667 89.470,283.667 89.604 C 283.667 89.923,284.266 90.767,285.030 91.524 C 286.724 93.201,290.196 93.830,294.500 93.240 C 297.237 92.865,299.184 90.944,299.993 87.820 C 300.344 86.468,300.542 70.833,300.208 70.833 C 300.140 70.834,299.558 71.095,298.917 71.414 C 298.275 71.733,297.656 71.996,297.542 71.997 C 297.427 71.999,297.333 72.075,297.333 72.167 C 297.333 72.258,297.255 72.333,297.160 72.333 C 296.715 72.333,295.346 73.115,295.263 73.417 C 295.213 73.600,295.170 76.460,295.169 79.773 C 295.167 84.788,295.125 85.875,294.918 86.273 C 294.781 86.535,294.668 86.873,294.668 87.024 C 294.663 88.359,291.161 89.216,289.609 88.262 C 288.044 87.301,287.952 86.778,287.842 78.222 C 287.741 70.343,287.788 70.784,287.083 71.137 M325.333 71.071 C 324.387 71.589,322.393 72.500,322.204 72.500 C 322.092 72.500,322.000 72.569,322.000 72.653 C 322.000 72.738,321.783 72.855,321.517 72.913 C 321.213 72.980,320.998 73.154,320.936 73.385 C 320.775 73.986,320.820 92.330,320.984 92.636 C 321.130 92.910,322.209 92.964,325.375 92.855 L 326.000 92.833 326.000 81.833 C 326.000 75.783,325.944 70.835,325.875 70.838 C 325.806 70.840,325.563 70.945,325.333 71.071 M77.500 71.677 C 76.721 72.045,75.871 72.456,75.611 72.590 C 75.352 72.724,75.033 72.833,74.903 72.833 C 74.773 72.833,74.517 72.983,74.333 73.167 C 73.951 73.549,73.835 82.448,74.179 85.000 C 74.271 85.688,74.411 86.801,74.490 87.475 C 74.569 88.149,74.716 88.783,74.817 88.883 C 74.918 88.984,75.000 89.234,75.000 89.438 C 75.000 89.642,75.094 89.909,75.209 90.030 C 75.323 90.151,75.620 90.563,75.869 90.945 C 76.572 92.027,77.809 92.807,79.667 93.341 C 80.859 93.684,85.368 93.744,85.984 93.425 C 86.259 93.283,86.629 93.167,86.807 93.167 C 88.185 93.167,91.167 90.532,91.167 89.314 C 91.167 89.164,91.271 88.788,91.399 88.479 C 91.856 87.375,92.151 71.584,91.722 71.155 C 91.610 71.043,91.284 71.120,90.736 71.388 C 88.940 72.265,87.325 73.000,87.194 73.000 C 86.745 73.000,86.669 73.953,86.627 80.083 C 86.578 87.224,86.577 87.226,85.233 88.251 C 84.263 88.992,81.820 88.981,80.887 88.233 C 79.482 87.107,79.319 86.016,79.323 77.778 C 79.325 71.875,79.287 70.995,79.024 71.003 C 78.965 71.005,78.279 71.308,77.500 71.677 M270.994 71.764 C 268.943 72.750,268.387 73.000,268.250 73.000 C 268.179 73.000,268.020 73.131,267.899 73.292 C 267.592 73.695,267.559 92.581,267.865 92.769 C 268.259 93.013,279.361 92.949,279.608 92.701 C 279.774 92.536,279.833 91.913,279.833 90.341 C 279.833 87.772,280.204 88.005,276.131 88.002 C 273.384 88.000,273.166 87.978,273.006 87.678 C 272.894 87.468,272.833 84.522,272.833 79.261 C 272.833 69.946,273.038 70.782,270.994 71.764 M195.981 74.303 C 194.493 74.864,193.235 76.054,192.511 77.585 C 191.916 78.845,191.796 80.120,192.292 79.915 C 192.452 79.848,192.883 79.720,193.250 79.630 C 193.617 79.540,194.153 79.361,194.442 79.233 C 194.731 79.105,195.116 79.000,195.298 79.000 C 195.480 79.000,195.843 78.888,196.106 78.751 C 196.369 78.614,196.759 78.502,196.974 78.501 C 197.189 78.500,197.564 78.397,197.808 78.270 C 198.051 78.144,198.588 77.955,199.000 77.850 C 199.412 77.744,200.125 77.544,200.583 77.405 C 201.042 77.265,201.735 77.073,202.125 76.979 C 203.424 76.663,202.649 75.546,200.333 74.397 C 199.482 73.975,196.995 73.921,195.981 74.303 M254.178 75.099 C 260.719 77.020,259.851 88.667,253.167 88.667 C 249.484 88.667,247.145 85.027,247.809 80.328 C 248.074 78.453,248.877 77.108,250.567 75.709 C 250.882 75.448,252.426 74.925,253.095 74.853 C 253.193 74.842,253.680 74.953,254.178 75.099 M341.819 75.117 C 343.697 75.689,345.667 77.605,345.667 78.859 C 345.667 79.013,345.760 79.170,345.875 79.208 C 346.238 79.329,346.159 83.918,345.779 84.750 C 345.125 86.185,344.890 86.546,344.157 87.242 C 341.400 89.857,337.293 88.796,335.805 85.083 C 335.137 83.415,335.119 79.710,335.774 78.755 C 335.898 78.574,336.000 78.305,336.000 78.158 C 336.000 77.770,337.698 75.953,338.356 75.637 C 339.518 75.080,340.035 74.903,340.652 74.853 C 340.781 74.842,341.306 74.961,341.819 75.117 M143.669 75.321 C 145.312 75.658,146.786 77.314,147.590 79.729 C 147.900 80.659,147.960 83.773,147.674 84.059 C 147.579 84.155,147.500 84.336,147.500 84.461 C 147.500 85.341,146.043 87.352,144.671 88.366 C 143.912 88.926,140.644 88.953,140.094 88.403 C 139.964 88.273,139.793 88.167,139.715 88.167 C 139.529 88.167,137.976 86.526,137.713 86.053 C 135.173 81.479,138.339 74.367,142.583 75.113 C 142.858 75.161,143.347 75.255,143.669 75.321 M105.583 75.498 C 105.950 75.580,106.601 75.732,107.031 75.835 C 108.322 76.145,109.969 77.825,110.215 79.083 C 110.269 79.358,110.389 79.921,110.482 80.333 C 111.360 84.214,109.474 87.584,106.089 88.182 C 102.631 88.792,102.922 89.349,102.893 82.055 C 102.863 74.727,102.804 74.873,105.583 75.498 " stroke="none" fill="#212121" fill-rule="evenodd"></path><path id="path1" d="M182.083 29.995 C 181.808 30.078,181.291 30.219,180.935 30.310 C 179.999 30.549,177.942 31.613,177.493 32.091 C 177.281 32.316,177.024 32.500,176.920 32.500 C 176.650 32.500,174.567 34.682,174.435 35.103 C 174.375 35.297,174.177 35.590,173.996 35.754 C 173.815 35.918,173.667 36.155,173.667 36.281 C 173.667 36.407,173.556 36.553,173.420 36.605 C 173.284 36.657,173.100 36.936,173.012 37.225 C 172.923 37.514,172.685 38.200,172.483 38.750 C 172.185 39.565,171.835 41.476,171.844 42.250 C 171.857 43.411,172.065 45.452,172.182 45.575 C 172.265 45.662,172.333 45.970,172.333 46.260 C 172.333 46.766,173.816 49.892,174.226 50.250 C 174.331 50.342,174.639 50.743,174.910 51.143 C 175.610 52.172,177.422 53.530,179.304 54.434 C 180.191 54.860,181.047 55.274,181.206 55.354 C 181.365 55.434,181.761 55.500,182.086 55.500 C 182.411 55.500,182.947 55.612,183.276 55.750 C 183.953 56.033,186.434 56.091,186.833 55.833 C 187.028 55.708,186.980 55.671,186.620 55.669 C 186.365 55.668,186.116 55.563,186.068 55.436 C 186.019 55.310,185.688 55.159,185.333 55.103 C 184.977 55.046,184.647 54.936,184.599 54.858 C 184.470 54.650,185.503 53.651,186.114 53.395 C 186.405 53.272,186.691 53.096,186.748 53.003 C 186.806 52.909,187.017 52.831,187.218 52.828 C 187.419 52.825,187.729 52.713,187.907 52.578 C 188.085 52.443,188.422 52.331,188.657 52.328 C 188.891 52.325,189.229 52.213,189.407 52.078 C 189.585 51.943,190.019 51.833,190.371 51.833 C 190.723 51.833,191.191 51.716,191.411 51.572 C 192.056 51.149,192.905 51.315,192.969 51.876 C 193.004 52.175,192.931 52.370,192.761 52.435 C 192.546 52.518,192.366 53.167,192.558 53.167 C 193.019 53.167,193.990 52.358,194.697 51.386 C 194.910 51.094,195.389 50.457,195.762 49.970 C 196.517 48.984,196.968 48.168,197.174 47.417 C 197.249 47.142,197.432 46.585,197.581 46.180 C 197.893 45.331,197.952 41.006,197.673 39.532 C 197.527 38.764,197.434 38.513,196.981 37.667 C 196.907 37.529,196.661 37.042,196.433 36.583 C 196.205 36.125,195.827 35.547,195.593 35.299 C 195.358 35.051,195.167 34.765,195.167 34.664 C 195.167 34.332,192.647 32.022,192.171 31.918 C 191.917 31.862,191.540 31.636,191.333 31.417 C 191.127 31.197,190.724 30.967,190.437 30.905 C 190.151 30.843,189.542 30.602,189.083 30.370 C 188.179 29.913,183.242 29.648,182.083 29.995 M182.405 32.647 C 182.578 32.928,181.792 33.684,180.857 34.136 C 177.243 35.881,175.289 39.091,175.306 43.255 C 175.313 45.186,174.440 45.720,174.117 43.983 C 173.589 41.148,174.872 37.428,177.158 35.169 C 178.974 33.373,181.965 31.936,182.405 32.647 M238.833 48.938 C 236.027 49.117,234.494 49.811,232.380 51.859 C 230.928 53.265,230.747 53.670,231.313 54.239 L 231.750 54.679 231.706 57.548 C 231.664 60.344,231.600 60.742,231.017 61.833 C 230.944 61.971,230.704 62.176,230.484 62.289 C 230.250 62.408,230.106 62.610,230.138 62.773 C 230.221 63.195,231.202 64.898,231.449 65.050 C 231.569 65.123,231.667 65.286,231.667 65.412 C 231.667 65.644,232.596 66.667,232.806 66.667 C 232.869 66.667,233.121 66.853,233.367 67.081 C 233.612 67.309,234.137 67.658,234.532 67.858 C 234.927 68.058,235.362 68.313,235.500 68.424 C 235.637 68.535,236.105 68.677,236.538 68.739 C 236.971 68.802,237.369 68.923,237.423 69.010 C 237.595 69.289,241.261 69.205,241.500 68.917 C 241.614 68.779,241.867 68.662,242.062 68.657 C 242.257 68.651,242.754 68.469,243.167 68.252 C 243.579 68.034,244.149 67.748,244.432 67.614 C 245.913 66.919,247.735 64.571,248.774 62.018 C 249.447 60.365,249.005 55.268,248.142 54.735 C 248.064 54.687,248.000 54.539,248.000 54.407 C 248.000 54.275,247.885 54.035,247.744 53.875 C 247.603 53.715,247.243 53.246,246.945 52.835 C 246.006 51.540,243.347 49.667,242.449 49.667 C 242.319 49.667,242.026 49.521,241.800 49.343 C 241.351 48.990,240.291 48.845,238.833 48.938 M237.611 51.595 C 237.798 52.082,237.319 52.646,236.516 52.883 C 235.622 53.148,234.701 53.859,233.709 55.051 C 233.251 55.602,232.942 55.621,232.711 55.114 C 232.526 54.707,232.630 54.396,233.144 53.826 C 233.294 53.660,233.501 53.425,233.605 53.304 C 234.220 52.583,235.790 51.681,236.448 51.672 C 236.649 51.669,236.860 51.592,236.917 51.500 C 237.075 51.244,237.498 51.302,237.611 51.595 M152.552 52.164 C 150.999 52.279,149.205 52.934,148.666 53.584 C 148.552 53.721,148.366 53.833,148.252 53.833 C 148.139 53.833,147.717 54.203,147.314 54.654 C 145.573 56.609,144.622 58.498,144.699 59.851 L 144.750 60.750 145.778 60.799 C 146.422 60.830,146.880 60.939,147.006 61.091 C 147.117 61.224,147.292 61.335,147.395 61.336 C 147.612 61.340,148.134 61.882,148.547 62.536 C 149.273 63.683,148.691 66.373,147.556 67.117 C 146.889 67.554,147.930 69.095,148.933 69.156 C 149.033 69.162,149.251 69.317,149.417 69.500 C 149.583 69.683,149.805 69.833,149.911 69.833 C 150.017 69.833,150.493 70.021,150.968 70.250 C 151.728 70.617,152.051 70.667,153.666 70.667 C 155.687 70.667,155.673 70.674,155.090 69.911 L 154.680 69.373 155.325 68.728 C 156.177 67.876,156.368 67.731,156.838 67.582 C 157.056 67.513,157.337 67.353,157.462 67.228 C 157.588 67.103,157.901 67.000,158.158 67.000 C 158.415 67.000,158.719 66.887,158.833 66.750 C 159.170 66.345,160.734 66.412,161.021 66.844 C 161.276 67.226,162.500 65.710,162.500 65.012 C 162.500 64.837,162.650 64.344,162.833 63.917 C 163.239 62.971,163.293 60.240,162.934 58.889 C 162.678 57.929,162.009 56.500,161.815 56.500 C 161.746 56.500,161.636 56.331,161.570 56.125 C 161.008 54.352,156.363 51.752,154.250 52.028 C 154.158 52.040,153.394 52.101,152.552 52.164 M153.958 54.272 C 154.842 54.509,154.420 55.067,153.042 55.482 C 150.965 56.107,150.834 56.178,149.686 57.281 C 148.613 58.313,148.119 58.550,147.952 58.114 C 147.758 57.611,148.079 56.973,148.893 56.245 C 149.365 55.823,149.869 55.370,150.014 55.239 C 150.159 55.108,150.426 55.000,150.607 55.000 C 150.788 55.000,151.082 54.890,151.260 54.755 C 151.438 54.621,151.771 54.507,152.000 54.503 C 152.229 54.498,152.529 54.422,152.667 54.333 C 152.953 54.148,153.416 54.126,153.958 54.272 M168.086 106.535 C 167.904 106.641,167.363 106.747,166.884 106.771 C 165.775 106.827,163.830 107.303,163.487 107.603 C 163.342 107.730,163.097 107.833,162.942 107.833 C 162.687 107.833,162.223 108.101,161.000 108.954 C 156.426 112.142,154.598 117.872,156.437 123.256 C 156.563 123.625,156.667 124.051,156.667 124.202 C 156.667 124.353,156.761 124.575,156.877 124.696 C 156.993 124.818,157.180 125.104,157.292 125.333 C 158.036 126.844,159.710 128.757,161.048 129.626 C 161.434 129.877,161.831 130.158,161.929 130.250 C 162.027 130.342,162.402 130.559,162.762 130.733 C 163.122 130.907,163.554 131.117,163.721 131.201 C 165.697 132.184,170.064 132.422,172.167 131.662 C 176.858 129.965,180.016 126.873,180.995 123.019 C 181.079 122.688,181.225 122.117,181.320 121.750 C 181.415 121.383,181.494 120.619,181.496 120.052 C 181.498 119.484,181.575 118.973,181.667 118.917 C 181.758 118.860,181.833 118.635,181.833 118.417 C 181.833 118.198,181.758 117.973,181.667 117.917 C 181.575 117.860,181.500 117.612,181.499 117.365 C 181.498 117.118,181.386 116.702,181.249 116.439 C 181.112 116.177,181.000 115.813,181.000 115.631 C 181.000 115.190,179.729 112.558,179.184 111.869 C 178.183 110.606,177.444 109.833,177.235 109.833 C 177.112 109.833,176.930 109.680,176.829 109.492 C 176.729 109.304,176.482 109.076,176.282 108.985 C 175.872 108.799,175.471 108.561,174.777 108.094 C 173.959 107.544,173.654 109.110,174.333 110.377 C 174.754 111.162,174.774 111.979,174.375 112.097 C 174.215 112.145,173.871 112.292,173.611 112.425 C 173.001 112.738,172.263 112.734,172.000 112.417 C 171.882 112.274,171.518 112.167,171.156 112.167 C 170.806 112.167,170.473 112.091,170.415 111.997 C 170.358 111.904,170.072 111.726,169.780 111.601 C 168.942 111.242,168.265 110.422,168.283 109.785 C 168.299 109.206,169.466 107.833,169.942 107.833 C 170.071 107.833,170.242 107.665,170.321 107.458 C 170.648 106.603,169.084 105.957,168.086 106.535 M231.126 106.763 C 231.067 106.822,230.396 106.930,229.634 107.002 C 228.021 107.155,226.947 107.409,226.864 107.658 C 226.832 107.754,226.629 107.833,226.413 107.833 C 226.196 107.833,225.973 107.909,225.915 108.003 C 225.858 108.096,225.572 108.285,225.280 108.424 C 224.989 108.562,224.595 108.767,224.406 108.879 C 223.662 109.321,221.196 111.761,221.352 111.901 C 221.619 112.139,222.160 112.148,222.290 111.917 C 222.385 111.748,222.703 111.640,223.177 111.618 L 223.917 111.583 223.882 113.296 C 223.856 114.522,223.773 115.112,223.590 115.375 C 223.449 115.576,223.333 115.940,223.333 116.183 C 223.333 116.427,223.221 116.719,223.083 116.833 C 222.946 116.947,222.833 117.166,222.833 117.320 C 222.833 117.473,222.548 117.878,222.198 118.219 L 221.563 118.839 220.990 118.563 C 220.675 118.411,220.179 118.064,219.889 117.792 C 219.599 117.519,219.291 117.340,219.203 117.394 C 218.703 117.703,218.873 121.423,219.438 122.533 C 219.564 122.781,219.667 123.128,219.667 123.305 C 219.667 123.481,219.779 123.719,219.917 123.833 C 220.054 123.947,220.167 124.145,220.167 124.272 C 220.167 125.929,225.957 130.500,228.056 130.500 C 228.288 130.500,228.681 130.577,228.928 130.671 C 232.070 131.865,237.946 129.474,240.614 125.917 C 242.999 122.737,243.670 116.458,241.897 113.921 C 241.770 113.740,241.667 113.420,241.667 113.210 C 241.667 112.111,238.970 109.351,236.923 108.355 C 236.154 107.981,235.478 107.599,235.419 107.504 C 235.361 107.410,235.108 107.333,234.857 107.333 C 234.606 107.333,234.329 107.264,234.242 107.180 C 234.155 107.095,233.558 106.998,232.917 106.963 C 232.275 106.928,231.634 106.845,231.491 106.778 C 231.349 106.711,231.184 106.704,231.126 106.763 M233.625 109.529 C 234.106 109.742,234.500 110.010,234.500 110.125 C 234.500 110.244,234.709 110.333,234.990 110.333 C 235.556 110.333,235.732 110.532,235.583 111.001 C 235.457 111.399,234.803 111.448,234.500 111.083 C 234.386 110.946,234.123 110.833,233.917 110.833 C 233.710 110.833,233.455 110.730,233.351 110.605 C 233.190 110.410,231.953 110.130,231.417 110.166 C 229.073 110.323,227.529 110.659,226.952 111.137 C 226.577 111.449,225.743 111.650,225.487 111.492 C 224.818 111.079,226.116 109.859,227.641 109.468 C 227.976 109.382,228.475 109.251,228.750 109.178 C 229.781 108.901,232.682 109.110,233.625 109.529 M165.746 109.436 C 166.116 109.807,165.781 110.296,164.965 110.577 C 163.667 111.023,160.500 113.625,160.500 114.245 C 160.500 114.488,159.687 115.248,159.269 115.396 C 158.892 115.529,158.975 114.352,159.399 113.539 C 160.488 111.450,164.905 108.595,165.746 109.436 " stroke="none" fill="#fbcd09" fill-rule="evenodd"></path></g></svg>