<svg id="svg" version="1.1" xmlns="http://www.w3.org/2000/svg" xmlns:xlink="http://www.w3.org/1999/xlink" width="400" height="91.35683244809272" viewBox="0, 0, 400,91.35683244809272"><g id="svgg"><path id="path0" d="M322.503 0.252 C 320.883 0.502,319.167 0.987,319.167 1.193 C 319.167 1.270,319.073 1.334,318.958 1.335 C 318.703 1.337,316.958 2.139,316.837 2.310 C 316.789 2.377,316.403 2.633,315.978 2.879 C 315.553 3.124,315.162 3.439,315.108 3.579 C 315.054 3.719,314.912 3.833,314.792 3.833 C 314.557 3.833,312.500 5.835,312.500 6.064 C 312.500 6.140,312.313 6.350,312.083 6.530 C 311.854 6.710,311.667 6.946,311.666 7.054 C 311.666 7.162,311.495 7.449,311.286 7.692 C 311.076 7.936,310.721 8.536,310.496 9.026 C 310.271 9.516,310.032 9.957,309.966 10.006 C 309.678 10.219,308.833 13.577,308.833 14.508 C 308.833 14.779,308.758 15.000,308.667 15.000 C 308.556 15.000,308.500 25.361,308.500 45.750 C 308.500 62.663,308.560 76.500,308.633 76.500 C 308.707 76.500,308.857 77.123,308.967 77.885 C 309.185 79.396,309.774 81.333,310.015 81.333 C 310.099 81.333,310.167 81.440,310.167 81.570 C 310.167 81.919,311.015 83.562,311.276 83.717 C 311.399 83.790,311.501 83.940,311.502 84.050 C 311.508 84.584,315.377 88.484,315.917 88.501 C 316.008 88.503,316.247 88.673,316.446 88.878 C 316.645 89.083,317.245 89.434,317.779 89.658 C 318.313 89.883,318.787 90.119,318.833 90.184 C 318.879 90.248,319.667 90.514,320.583 90.775 L 322.250 91.250 354.250 91.250 C 380.490 91.250,386.415 91.210,387.167 91.026 C 388.660 90.661,389.833 90.280,389.833 90.161 C 389.833 90.100,390.289 89.870,390.845 89.650 C 391.402 89.430,391.983 89.137,392.137 88.999 C 392.291 88.860,392.642 88.607,392.917 88.436 C 393.921 87.810,396.624 85.131,397.007 84.383 C 397.138 84.126,397.386 83.763,397.558 83.574 C 397.730 83.386,398.058 82.786,398.288 82.241 C 398.517 81.696,398.763 81.212,398.835 81.167 C 398.907 81.121,399.179 80.371,399.440 79.500 L 399.913 77.917 399.960 46.507 C 400.000 18.833,399.975 14.919,399.749 13.591 C 399.455 11.867,399.050 10.526,398.724 10.200 C 398.601 10.077,398.500 9.875,398.500 9.752 C 398.500 9.431,397.676 7.833,397.510 7.833 C 397.434 7.833,397.249 7.575,397.099 7.258 C 396.677 6.370,393.736 3.476,392.417 2.651 C 392.142 2.479,391.804 2.263,391.667 2.172 C 390.419 1.342,387.844 0.472,385.750 0.173 C 383.846 -0.099,324.289 -0.025,322.503 0.252 M388.567 8.817 C 392.004 10.455,392.060 15.547,388.654 16.671 C 388.294 16.790,388.000 16.950,388.000 17.027 C 388.000 17.104,387.512 17.167,386.917 17.167 C 386.306 17.167,385.833 17.094,385.833 17.000 C 385.833 16.908,385.748 16.833,385.643 16.833 C 385.140 16.833,383.963 16.046,383.545 15.430 C 383.292 15.056,383.040 14.713,382.986 14.667 C 382.392 14.162,382.393 11.333,382.987 10.833 C 383.042 10.787,383.273 10.463,383.501 10.113 C 383.902 9.499,385.193 8.667,385.744 8.667 C 385.885 8.667,386.000 8.592,386.000 8.500 C 386.000 8.141,387.550 8.333,388.567 8.817 M385.244 9.234 C 382.402 10.471,382.504 15.496,385.387 16.358 C 387.228 16.908,390.132 15.913,390.162 14.722 C 390.164 14.615,390.248 14.501,390.348 14.467 C 390.834 14.305,390.838 11.196,390.353 11.034 C 390.250 11.000,390.164 10.885,390.162 10.778 C 390.130 9.514,386.916 8.505,385.244 9.234 M388.238 10.928 C 388.865 11.556,388.685 12.572,387.912 12.766 C 387.390 12.897,387.394 13.144,387.929 13.652 C 388.547 14.238,388.923 15.000,388.593 15.000 C 388.457 15.000,388.256 14.831,388.148 14.625 C 388.039 14.419,387.901 14.213,387.842 14.167 C 387.783 14.121,387.564 13.840,387.356 13.542 C 387.054 13.109,386.862 13.000,386.405 13.000 L 385.833 13.000 385.833 14.000 C 385.833 14.889,385.796 15.000,385.500 15.000 C 385.184 15.000,385.167 14.889,385.167 12.833 L 385.167 10.667 386.571 10.667 C 387.626 10.667,388.041 10.732,388.238 10.928 M385.833 11.917 L 385.833 12.667 386.667 12.667 C 387.278 12.667,387.589 12.578,387.833 12.333 C 388.535 11.632,388.074 11.167,386.678 11.167 L 385.833 11.167 385.833 11.917 M158.167 14.917 C 158.167 15.054,158.105 15.167,158.031 15.167 C 157.886 15.167,157.167 16.790,157.167 17.116 C 157.167 17.223,157.072 17.409,156.955 17.530 C 156.839 17.651,156.608 18.087,156.441 18.500 C 156.274 18.912,155.925 19.700,155.664 20.250 C 155.404 20.800,155.065 21.569,154.911 21.958 L 154.630 22.667 152.315 22.667 L 150.000 22.667 150.000 27.833 L 150.000 33.000 151.992 33.000 L 153.984 33.000 154.034 46.808 C 154.070 56.807,154.136 60.680,154.273 60.849 C 154.377 60.978,154.517 61.417,154.585 61.824 C 154.774 62.973,155.264 64.256,155.823 65.069 C 156.104 65.477,156.333 65.859,156.333 65.918 C 156.333 66.061,157.775 67.500,157.918 67.500 C 157.979 67.500,158.346 67.728,158.733 68.006 C 159.431 68.507,161.248 69.163,161.944 69.165 C 162.143 69.166,162.337 69.260,162.375 69.375 C 162.471 69.663,170.098 69.674,170.683 69.387 C 170.903 69.279,171.496 69.100,172.000 68.990 C 173.647 68.630,173.500 69.207,173.500 63.077 C 173.500 60.102,173.458 57.667,173.406 57.667 C 173.109 57.667,171.564 58.253,171.464 58.404 C 171.391 58.515,170.621 58.583,169.454 58.583 L 167.563 58.583 166.990 57.935 C 166.164 57.000,166.201 57.609,166.183 44.792 L 166.167 33.000 169.667 33.000 L 173.167 33.000 173.167 27.833 L 173.167 22.667 169.667 22.667 L 166.167 22.667 166.167 18.667 L 166.167 14.667 162.167 14.667 C 158.722 14.667,158.167 14.701,158.167 14.917 M191.167 21.833 C 191.167 21.928,190.680 22.000,190.042 22.001 C 188.080 22.002,184.675 22.653,184.196 23.119 C 184.075 23.237,183.873 23.333,183.747 23.333 C 182.171 23.333,178.609 27.127,177.928 29.530 C 177.764 30.109,177.544 30.763,177.440 30.984 C 177.075 31.753,177.181 58.689,177.554 59.917 C 178.055 61.567,178.534 62.833,178.655 62.833 C 178.718 62.833,178.910 63.152,179.081 63.542 C 179.373 64.204,181.670 66.667,181.996 66.667 C 182.077 66.667,182.253 66.777,182.387 66.911 C 182.671 67.195,184.433 68.000,184.771 68.000 C 184.897 68.000,185.000 68.069,185.000 68.153 C 185.000 68.368,187.713 68.980,189.237 69.109 C 189.938 69.168,190.551 69.280,190.599 69.358 C 190.714 69.545,197.121 69.543,197.236 69.356 C 197.284 69.278,198.058 69.160,198.954 69.094 C 200.902 68.953,204.353 68.377,204.575 68.157 C 204.662 68.071,204.868 68.000,205.033 68.000 C 205.316 68.000,205.333 67.691,205.333 62.667 C 205.333 59.733,205.277 57.334,205.208 57.335 C 205.140 57.336,204.483 57.485,203.750 57.667 C 203.017 57.848,202.060 58.044,201.625 58.103 C 201.190 58.162,200.833 58.264,200.833 58.331 C 200.833 58.737,194.215 58.987,192.188 58.658 C 189.519 58.225,188.979 57.365,188.872 53.375 L 188.796 50.500 197.648 50.500 L 206.500 50.500 206.499 42.042 C 206.498 37.390,206.426 32.963,206.339 32.205 C 206.171 30.744,205.699 28.640,205.508 28.500 C 205.445 28.454,205.228 28.070,205.026 27.647 C 204.130 25.772,201.151 23.182,199.875 23.169 C 199.760 23.168,199.667 23.104,199.667 23.027 C 199.667 22.697,195.831 22.009,193.958 22.003 C 193.322 22.001,192.833 21.928,192.833 21.833 C 192.833 21.742,192.458 21.667,192.000 21.667 C 191.542 21.667,191.167 21.742,191.167 21.833 M69.583 22.337 C 67.507 22.460,65.145 22.794,65.000 22.985 C 64.954 23.045,64.504 23.197,64.000 23.322 C 62.988 23.574,61.638 24.113,61.503 24.321 C 61.456 24.394,61.154 24.586,60.833 24.749 C 60.345 24.997,59.426 25.857,58.234 27.184 C 57.920 27.533,57.167 29.098,57.167 29.402 C 57.167 29.532,57.092 29.664,57.000 29.695 C 56.018 30.022,56.023 41.667,57.006 41.667 C 57.073 41.667,57.292 42.071,57.492 42.564 C 57.693 43.058,57.983 43.602,58.137 43.773 C 58.291 43.944,58.612 44.320,58.851 44.609 C 59.458 45.344,61.188 46.867,61.757 47.167 C 62.018 47.304,62.416 47.585,62.640 47.792 C 62.865 47.998,63.136 48.167,63.243 48.167 C 63.350 48.167,63.583 48.298,63.760 48.458 C 64.177 48.834,65.454 49.666,65.621 49.670 C 65.692 49.671,65.927 49.859,66.142 50.086 C 66.358 50.314,66.622 50.500,66.728 50.500 C 66.833 50.500,67.107 50.669,67.335 50.875 C 67.563 51.081,68.162 51.533,68.667 51.879 C 71.094 53.546,71.315 53.838,71.326 55.391 C 71.338 56.967,70.610 57.780,68.909 58.093 C 68.547 58.160,68.200 58.292,68.139 58.386 C 67.989 58.617,60.842 58.614,60.692 58.383 C 60.632 58.290,60.096 58.161,59.500 58.095 C 58.904 58.029,57.967 57.869,57.417 57.740 C 56.867 57.611,56.323 57.504,56.208 57.502 C 55.953 57.499,55.900 68.252,56.154 68.409 C 56.473 68.606,59.660 69.009,61.708 69.112 C 62.877 69.170,63.833 69.282,63.833 69.359 C 63.833 69.543,68.287 69.543,68.401 69.359 C 68.449 69.281,69.259 69.169,70.202 69.109 C 71.961 68.996,74.993 68.437,75.158 68.194 C 75.209 68.120,75.613 67.959,76.057 67.837 C 77.650 67.399,79.814 65.840,81.389 63.996 C 81.729 63.599,82.496 62.026,82.498 61.722 C 82.499 61.615,82.575 61.503,82.667 61.472 C 83.852 61.077,83.704 51.702,82.474 49.221 C 81.851 47.965,78.424 44.333,77.862 44.333 C 77.789 44.333,77.584 44.201,77.406 44.039 C 77.229 43.877,76.671 43.486,76.167 43.170 C 75.662 42.853,75.212 42.544,75.167 42.482 C 75.121 42.421,74.740 42.156,74.320 41.894 C 73.900 41.631,73.195 41.192,72.755 40.917 C 72.314 40.642,71.758 40.258,71.519 40.065 C 71.279 39.872,70.858 39.598,70.583 39.457 C 70.308 39.315,69.596 38.735,69.000 38.168 L 67.917 37.136 67.917 35.979 C 67.917 35.342,67.993 34.768,68.087 34.702 C 68.181 34.637,68.387 34.380,68.545 34.132 C 69.309 32.931,75.404 32.638,79.750 33.594 C 80.392 33.735,81.160 33.894,81.458 33.947 L 82.000 34.044 82.000 28.707 L 82.000 23.370 81.375 23.254 C 81.031 23.189,80.670 23.071,80.573 22.991 C 80.016 22.531,73.178 22.124,69.583 22.337 M134.250 22.336 C 131.936 22.473,129.500 22.814,129.500 23.001 C 129.500 23.072,129.219 23.181,128.875 23.245 C 128.149 23.379,126.124 24.155,125.996 24.349 C 125.948 24.421,125.699 24.590,125.442 24.723 C 124.779 25.067,123.167 26.502,123.167 26.748 C 123.167 26.862,122.992 27.134,122.778 27.352 C 122.564 27.571,122.209 28.200,121.988 28.750 C 121.767 29.300,121.536 29.788,121.475 29.834 C 120.570 30.515,120.597 39.402,121.510 41.458 C 122.003 42.567,122.517 43.568,122.644 43.667 C 122.703 43.712,122.958 44.027,123.211 44.366 C 123.817 45.180,124.864 46.163,125.125 46.165 C 125.240 46.166,125.333 46.241,125.333 46.331 C 125.333 46.421,125.650 46.703,126.037 46.956 C 126.424 47.209,126.874 47.548,127.037 47.708 C 127.200 47.869,127.418 48.000,127.521 48.000 C 127.625 48.000,128.215 48.375,128.833 48.833 C 129.452 49.292,130.017 49.667,130.090 49.667 C 130.163 49.667,130.341 49.779,130.486 49.915 C 130.909 50.313,133.388 52.000,133.708 52.108 C 133.869 52.162,134.000 52.271,134.000 52.351 C 134.000 52.431,134.291 52.680,134.647 52.904 C 136.973 54.373,136.217 57.676,133.456 58.107 C 133.068 58.168,132.701 58.293,132.640 58.385 C 132.490 58.615,125.795 58.616,125.296 58.386 C 125.087 58.290,124.167 58.087,123.250 57.936 C 122.333 57.785,121.377 57.617,121.125 57.561 L 120.667 57.461 120.667 62.960 L 120.667 68.458 122.434 68.733 C 123.406 68.885,125.134 69.056,126.274 69.114 C 127.413 69.171,128.385 69.282,128.433 69.359 C 128.557 69.561,132.791 69.537,132.917 69.333 C 132.973 69.242,133.422 69.167,133.914 69.167 C 135.726 69.167,139.358 68.524,140.083 68.075 C 140.267 67.961,140.604 67.814,140.833 67.749 C 141.353 67.600,142.388 67.135,142.500 67.000 C 142.546 66.944,142.883 66.720,143.250 66.501 C 144.693 65.639,147.000 62.820,147.000 61.920 C 147.000 61.781,147.066 61.667,147.146 61.667 C 148.218 61.667,148.255 50.186,147.186 49.510 C 147.105 49.459,146.877 49.072,146.680 48.650 C 146.129 47.476,143.415 44.772,142.209 44.197 C 141.911 44.055,141.667 43.884,141.667 43.818 C 141.667 43.752,141.240 43.458,140.719 43.164 C 140.198 42.870,139.666 42.523,139.535 42.392 C 139.405 42.262,139.006 42.007,138.649 41.824 C 138.292 41.642,138.000 41.432,138.000 41.358 C 138.000 41.284,137.794 41.117,137.542 40.986 C 136.911 40.661,134.458 38.999,134.252 38.757 C 134.159 38.649,133.874 38.430,133.618 38.272 C 133.363 38.113,133.035 37.706,132.890 37.367 C 132.745 37.028,132.560 36.620,132.480 36.461 C 132.284 36.073,132.294 35.667,132.500 35.667 C 132.592 35.667,132.670 35.498,132.675 35.292 C 132.693 34.439,133.212 33.783,134.111 33.473 C 136.022 32.816,141.254 32.915,144.742 33.675 C 145.563 33.854,146.333 34.000,146.453 34.000 C 146.629 34.000,146.663 32.984,146.627 28.708 L 146.583 23.417 145.917 23.257 C 145.550 23.170,145.212 23.045,145.166 22.981 C 144.865 22.559,137.664 22.134,134.250 22.336 M277.000 22.336 C 274.792 22.461,272.500 22.788,272.500 22.977 C 272.500 23.040,272.089 23.186,271.587 23.303 C 270.511 23.553,269.000 24.157,269.000 24.337 C 269.000 24.407,268.825 24.508,268.612 24.561 C 268.038 24.705,266.061 26.585,265.546 27.476 C 265.300 27.902,265.041 28.291,264.969 28.342 C 264.781 28.474,264.228 30.141,264.085 31.009 C 264.017 31.417,263.877 31.855,263.773 31.984 C 263.540 32.271,263.507 38.916,263.735 39.417 C 263.819 39.600,264.016 40.218,264.173 40.789 C 264.738 42.845,266.958 45.740,268.905 46.959 C 269.278 47.192,269.621 47.435,269.667 47.498 C 269.712 47.561,270.123 47.829,270.580 48.094 C 271.036 48.360,271.524 48.674,271.663 48.793 C 272.086 49.155,274.563 50.766,274.875 50.881 C 275.035 50.941,275.167 51.065,275.167 51.157 C 275.167 51.249,275.410 51.451,275.707 51.604 C 276.458 51.993,278.457 53.608,278.663 53.993 C 279.623 55.787,278.045 58.160,275.889 58.166 C 275.690 58.166,275.499 58.254,275.463 58.361 C 275.416 58.501,274.401 58.556,271.833 58.556 C 269.265 58.556,268.250 58.501,268.204 58.361 C 268.168 58.254,267.939 58.167,267.694 58.166 C 267.450 58.166,266.612 58.050,265.833 57.908 C 265.054 57.766,264.173 57.606,263.875 57.553 L 263.333 57.456 263.333 62.900 C 263.333 67.102,263.381 68.362,263.542 68.422 C 264.085 68.625,267.302 69.016,269.208 69.112 C 270.377 69.170,271.333 69.282,271.333 69.359 C 271.333 69.562,275.624 69.537,275.750 69.333 C 275.807 69.242,276.280 69.166,276.802 69.166 C 278.474 69.164,282.667 68.440,282.667 68.153 C 282.667 68.089,282.873 67.988,283.125 67.929 C 283.915 67.744,285.333 67.135,285.333 66.981 C 285.333 66.900,285.410 66.833,285.504 66.833 C 286.066 66.833,288.061 65.076,288.814 63.917 C 289.052 63.550,289.303 63.209,289.372 63.158 C 289.568 63.013,290.333 61.043,290.333 60.684 C 290.333 60.506,290.402 60.336,290.487 60.306 C 291.194 60.049,291.155 51.952,290.439 50.417 C 290.311 50.142,290.049 49.562,289.857 49.129 C 289.443 48.194,289.332 48.057,287.500 46.226 C 286.721 45.447,285.483 44.415,284.750 43.932 C 284.017 43.449,283.200 42.911,282.936 42.736 C 282.672 42.560,282.147 42.214,281.769 41.966 C 281.392 41.718,280.907 41.381,280.693 41.216 C 280.478 41.051,280.059 40.767,279.761 40.583 C 275.686 38.068,274.763 36.766,275.591 34.697 C 276.375 32.738,281.442 32.456,289.042 33.948 L 289.500 34.038 289.500 28.696 L 289.500 23.354 288.750 23.241 C 288.337 23.179,288.000 23.071,288.000 23.000 C 288.000 22.737,280.469 22.046,279.250 22.197 C 279.158 22.209,278.146 22.271,277.000 22.336 M229.750 22.430 C 227.618 22.726,226.738 22.887,226.667 22.992 C 226.621 23.060,226.021 23.283,225.333 23.487 C 224.646 23.692,223.840 24.001,223.542 24.174 L 223.000 24.489 223.000 23.578 L 223.000 22.667 217.333 22.667 L 211.667 22.667 211.667 45.833 L 211.667 69.000 217.750 69.000 L 223.833 69.000 223.833 51.761 C 223.833 34.669,223.836 34.522,224.167 34.417 C 224.350 34.358,224.500 34.253,224.500 34.182 C 224.500 34.062,225.595 33.779,226.750 33.601 C 227.025 33.558,227.577 33.604,227.977 33.703 C 229.241 34.015,229.167 32.876,229.167 51.995 L 229.167 69.000 235.333 69.000 L 241.500 69.000 241.500 51.734 C 241.500 34.609,241.503 34.468,241.833 34.382 C 242.017 34.334,242.167 34.236,242.167 34.164 C 242.167 33.462,245.733 33.471,246.391 34.175 L 246.917 34.738 246.961 51.869 L 247.006 69.000 253.086 69.000 L 259.167 69.000 259.167 49.500 C 259.167 38.775,259.109 30.000,259.038 30.000 C 258.967 30.000,258.817 29.515,258.705 28.923 C 258.519 27.942,258.066 26.708,257.817 26.500 C 257.762 26.454,257.521 26.104,257.281 25.721 C 257.042 25.339,256.618 24.892,256.339 24.727 C 256.061 24.563,255.833 24.375,255.833 24.310 C 255.833 24.206,255.115 23.836,253.417 23.065 C 251.640 22.258,243.833 22.222,243.833 23.020 C 243.833 23.101,243.709 23.167,243.557 23.167 C 243.110 23.167,240.000 24.187,240.000 24.333 C 240.000 24.451,239.119 24.834,238.850 24.833 C 238.795 24.833,238.525 24.636,238.250 24.395 C 237.732 23.942,236.241 23.171,235.875 23.168 C 235.760 23.167,235.667 23.098,235.667 23.014 C 235.667 22.646,231.298 22.214,229.750 22.430 M0.000 45.750 L 0.000 69.000 9.583 69.000 L 19.167 69.000 19.167 66.667 L 19.167 64.333 12.250 64.333 L 5.333 64.333 5.333 43.417 L 5.333 22.500 2.667 22.500 L 0.000 22.500 0.000 45.750 M23.833 45.764 L 23.833 69.029 31.458 68.950 C 40.349 68.858,41.770 68.631,43.671 67.000 C 44.863 65.977,45.833 64.920,45.833 64.643 C 45.833 64.533,45.959 64.304,46.112 64.135 C 46.491 63.716,46.984 62.271,47.109 61.208 C 47.166 60.727,47.277 60.333,47.356 60.333 C 47.544 60.333,47.545 31.381,47.357 31.265 C 47.279 31.216,47.171 30.812,47.118 30.366 C 47.013 29.479,46.423 27.661,46.192 27.511 C 46.112 27.459,45.929 27.186,45.785 26.905 C 45.451 26.255,44.000 24.667,43.739 24.667 C 43.630 24.667,43.441 24.546,43.319 24.399 C 43.038 24.061,41.515 23.382,40.702 23.232 C 40.362 23.170,40.040 23.052,39.987 22.971 C 39.795 22.677,36.281 22.511,30.125 22.506 L 23.833 22.500 23.833 45.764 M85.500 22.865 C 85.500 23.297,86.067 26.255,86.165 26.333 C 86.222 26.379,86.517 27.879,86.821 29.667 C 87.125 31.454,87.431 32.992,87.501 33.083 C 87.572 33.175,87.834 34.487,88.085 36.000 C 88.336 37.512,88.593 38.787,88.656 38.833 C 88.719 38.879,88.984 40.192,89.244 41.750 C 89.504 43.308,89.767 44.621,89.827 44.667 C 89.887 44.712,90.184 46.212,90.488 48.000 C 90.792 49.788,91.096 51.325,91.163 51.417 C 91.230 51.508,91.493 52.821,91.747 54.333 C 92.000 55.846,92.264 57.158,92.333 57.250 C 92.402 57.342,92.667 58.654,92.923 60.167 C 93.178 61.679,93.436 62.954,93.495 63.000 C 93.555 63.046,93.827 64.396,94.099 66.000 L 94.595 68.917 96.631 68.963 C 98.853 69.015,98.936 69.062,98.448 70.000 C 98.329 70.229,98.016 71.035,97.754 71.792 C 97.491 72.548,97.215 73.167,97.141 73.167 C 97.067 73.167,96.855 73.464,96.670 73.827 C 96.024 75.094,94.591 76.123,93.082 76.406 C 92.716 76.474,92.336 76.597,92.237 76.678 C 91.987 76.885,88.629 77.164,86.375 77.165 L 84.500 77.167 84.500 82.599 L 84.500 88.031 89.923 87.974 C 93.402 87.937,95.388 87.855,95.464 87.744 C 95.530 87.650,96.071 87.478,96.667 87.363 C 98.010 87.103,99.500 86.657,99.500 86.514 C 99.500 86.455,99.884 86.259,100.352 86.078 C 100.821 85.898,101.387 85.581,101.611 85.375 C 101.834 85.169,102.082 85.000,102.161 85.000 C 102.421 85.000,104.977 82.493,105.359 81.864 C 105.564 81.526,105.830 81.190,105.950 81.116 C 106.071 81.042,106.329 80.667,106.524 80.283 C 106.719 79.898,106.929 79.546,106.992 79.500 C 107.169 79.370,108.000 77.627,108.000 77.384 C 108.000 77.264,108.062 77.167,108.137 77.167 C 108.281 77.167,109.062 74.843,109.258 73.833 C 109.321 73.512,109.431 73.175,109.503 73.083 C 109.575 72.992,109.832 71.717,110.073 70.250 C 110.314 68.783,110.578 67.433,110.660 67.250 C 110.743 67.067,111.006 65.717,111.246 64.250 C 111.485 62.783,111.748 61.433,111.829 61.250 C 111.910 61.067,112.174 59.717,112.415 58.250 C 112.657 56.783,112.920 55.433,113.001 55.250 C 113.082 55.067,113.395 53.417,113.697 51.583 C 114.000 49.750,114.293 48.212,114.348 48.167 C 114.403 48.121,114.663 46.771,114.924 45.167 C 115.186 43.563,115.448 42.212,115.508 42.167 C 115.567 42.121,115.829 40.771,116.091 39.167 C 116.353 37.563,116.617 36.212,116.678 36.167 C 116.739 36.121,117.033 34.583,117.331 32.750 C 117.630 30.917,117.932 29.342,118.004 29.250 C 118.076 29.158,118.337 27.808,118.583 26.250 C 118.830 24.692,119.099 23.345,119.182 23.258 C 119.718 22.696,119.431 22.667,113.440 22.667 L 107.546 22.667 107.272 24.458 C 107.121 25.444,106.999 26.381,106.999 26.542 C 107.000 26.702,106.941 26.833,106.869 26.833 C 106.797 26.833,106.521 28.315,106.255 30.125 C 105.988 31.935,105.721 33.454,105.661 33.500 C 105.566 33.573,105.060 36.918,104.728 39.667 C 104.667 40.171,104.567 40.621,104.506 40.667 C 104.445 40.712,104.189 42.438,103.938 44.500 C 103.686 46.563,103.419 48.365,103.344 48.506 C 103.269 48.647,103.112 49.585,102.995 50.590 C 102.707 53.065,102.577 53.348,102.428 51.828 C 102.360 51.145,102.252 50.548,102.188 50.501 C 102.123 50.455,101.818 48.542,101.511 46.250 C 101.203 43.958,100.901 42.046,100.841 42.000 C 100.780 41.954,100.521 40.454,100.264 38.667 C 100.007 36.879,99.743 35.379,99.679 35.333 C 99.614 35.287,99.349 33.787,99.090 32.000 C 98.831 30.212,98.569 28.712,98.508 28.667 C 98.447 28.621,98.308 27.983,98.199 27.250 C 98.090 26.517,97.875 25.185,97.722 24.292 L 97.442 22.667 91.471 22.667 C 86.959 22.667,85.500 22.715,85.500 22.865 M332.833 41.417 L 332.833 60.167 341.250 60.167 L 349.667 60.167 349.667 64.333 L 349.667 68.500 336.750 68.500 L 323.833 68.500 323.833 45.583 L 323.833 22.667 328.333 22.667 L 332.833 22.667 332.833 41.417 M369.864 22.855 C 370.672 22.959,371.333 23.109,371.333 23.188 C 371.333 23.268,371.465 23.335,371.625 23.337 C 372.084 23.342,374.593 24.112,375.026 24.381 C 375.241 24.514,375.848 24.797,376.375 25.009 C 376.902 25.221,377.333 25.454,377.333 25.527 C 377.333 25.599,377.615 25.796,377.958 25.965 C 378.824 26.388,379.315 26.693,379.756 27.083 C 379.963 27.267,380.443 27.679,380.822 28.000 C 381.931 28.940,382.890 29.906,383.404 30.601 C 383.667 30.958,383.966 31.325,384.067 31.417 C 384.167 31.508,384.475 31.921,384.750 32.333 C 385.024 32.746,385.300 33.122,385.361 33.168 C 385.423 33.215,385.679 33.665,385.930 34.168 C 386.180 34.672,386.441 35.121,386.509 35.167 C 386.577 35.212,386.879 35.962,387.180 36.833 C 387.482 37.704,387.779 38.454,387.842 38.500 C 388.990 39.343,388.983 51.198,387.833 52.584 C 387.753 52.680,387.498 53.338,387.267 54.046 C 387.036 54.755,386.638 55.690,386.383 56.125 C 386.127 56.561,385.805 57.115,385.667 57.358 C 385.042 58.459,383.478 60.580,382.921 61.083 C 382.820 61.175,382.524 61.531,382.265 61.875 C 382.006 62.219,381.709 62.500,381.605 62.500 C 381.502 62.500,381.192 62.730,380.917 63.011 C 380.189 63.755,378.621 64.895,377.842 65.246 C 377.470 65.414,377.167 65.611,377.167 65.684 C 377.167 65.837,375.736 66.500,375.407 66.500 C 375.288 66.500,375.065 66.626,374.911 66.780 C 374.620 67.070,371.415 67.981,370.639 67.993 C 370.394 67.997,370.163 68.094,370.125 68.208 C 370.071 68.370,368.297 68.429,362.195 68.470 L 354.333 68.523 354.333 64.345 L 354.333 60.167 361.306 60.167 C 367.988 60.167,370.167 60.038,370.167 59.644 C 370.167 59.565,370.296 59.500,370.455 59.500 C 370.891 59.500,373.000 58.659,373.000 58.485 C 373.000 58.402,373.072 58.333,373.161 58.333 C 373.364 58.333,374.595 57.539,375.236 56.996 C 377.377 55.178,379.186 52.357,379.941 49.657 C 380.606 47.280,380.170 40.236,379.323 39.667 C 379.255 39.621,379.001 39.136,378.759 38.589 C 378.518 38.042,378.259 37.555,378.185 37.506 C 378.111 37.457,377.861 37.115,377.631 36.747 C 377.099 35.898,374.727 33.500,374.419 33.500 C 374.343 33.500,374.030 33.308,373.722 33.073 C 373.414 32.838,372.732 32.462,372.206 32.238 C 371.680 32.013,371.118 31.754,370.956 31.662 C 370.339 31.310,368.155 30.981,365.792 30.883 L 363.333 30.782 363.333 43.141 L 363.333 55.500 358.833 55.500 L 354.333 55.500 354.333 39.083 L 354.333 22.667 361.364 22.667 C 365.615 22.667,368.975 22.741,369.864 22.855 M38.485 27.558 C 38.981 27.701,39.431 27.881,39.485 27.959 C 39.539 28.037,39.865 28.272,40.208 28.481 C 40.552 28.690,40.833 28.924,40.833 29.001 C 40.833 29.078,41.008 29.353,41.222 29.612 C 42.083 30.656,42.083 30.672,42.083 45.833 C 42.083 60.401,42.061 60.915,41.412 61.564 C 41.277 61.699,41.165 61.871,41.162 61.946 C 41.152 62.251,40.030 63.268,39.411 63.535 C 38.119 64.091,37.389 64.165,33.208 64.166 L 29.000 64.167 29.000 45.647 L 29.000 27.127 33.292 27.213 C 36.463 27.276,37.819 27.366,38.485 27.558 M194.017 32.414 C 195.161 32.968,195.243 33.288,195.308 37.458 L 195.365 41.167 192.099 41.167 L 188.833 41.167 188.833 37.636 C 188.833 33.214,189.051 32.590,190.750 32.145 C 191.527 31.942,193.352 32.092,194.017 32.414 " stroke="none" fill="#040404" fill-rule="evenodd"></path><path id="path1" d="" stroke="none" fill="#080404" fill-rule="evenodd"></path><path id="path2" d="" stroke="none" fill="#080404" fill-rule="evenodd"></path><path id="path3" d="" stroke="none" fill="#080404" fill-rule="evenodd"></path><path id="path4" d="" stroke="none" fill="#080404" fill-rule="evenodd"></path></g></svg>