<svg id="svg" version="1.1" xmlns="http://www.w3.org/2000/svg" xmlns:xlink="http://www.w3.org/1999/xlink" width="400" height="321.3114754098361" viewBox="0, 0, 400,321.3114754098361"><g id="svgg"><path id="path0" d="M47.006 50.173 L 46.302 50.829 46.302 72.127 C 46.302 90.884,46.362 93.511,46.803 94.141 L 47.303 94.855 72.155 94.855 C 95.822 94.855,97.032 94.827,97.539 94.267 C 98.023 93.733,98.071 91.740,98.071 72.265 L 98.071 50.851 97.224 50.184 C 95.900 49.143,48.123 49.133,47.006 50.173 M109.244 59.933 C 108.718 60.332,108.682 61.764,108.682 81.915 L 108.682 103.469 107.749 104.468 L 106.816 105.466 78.699 105.466 C 51.868 105.466,50.558 105.493,50.050 106.054 C 49.557 106.598,49.518 113.029,49.518 192.055 L 49.518 277.467 50.221 278.123 C 51.234 279.066,89.897 279.163,90.993 278.224 C 91.638 277.673,91.640 277.413,91.640 203.802 C 91.640 150.350,91.739 129.717,91.997 129.150 C 92.605 127.816,93.512 127.653,100.312 127.653 L 106.703 127.653 107.692 128.642 L 108.682 129.631 108.682 190.500 C 108.682 246.716,108.722 251.402,109.213 251.810 C 110.071 252.522,152.173 252.642,153.252 251.935 L 154.019 251.432 154.019 190.390 L 154.019 129.348 154.867 128.500 L 155.715 127.653 162.399 127.653 L 169.082 127.653 170.072 128.642 L 171.061 129.631 171.061 192.243 C 171.061 240.513,171.149 254.944,171.447 255.241 C 172.187 255.981,339.633 255.781,340.304 255.039 C 340.856 254.429,341.159 178.746,340.630 173.683 C 340.342 170.928,341.551 171.065,317.444 171.063 C 297.212 171.061,296.771 171.074,296.141 171.704 C 295.509 172.337,295.498 172.776,295.498 198.697 L 295.498 225.047 294.738 225.868 L 293.978 226.688 255.875 226.688 L 217.773 226.688 216.925 225.840 L 216.077 224.993 216.077 160.913 L 216.077 96.834 217.067 95.845 L 218.056 94.855 255.683 94.855 C 296.799 94.855,294.931 94.772,295.350 96.621 C 295.430 96.976,295.533 110.536,295.578 126.755 C 295.658 155.818,295.668 156.250,296.302 156.728 C 297.489 157.625,339.244 157.462,340.063 156.558 C 340.964 155.563,341.208 74.256,340.313 73.267 C 339.634 72.516,172.196 72.306,171.447 73.055 C 171.158 73.344,171.061 77.206,171.061 88.455 L 171.061 103.469 170.128 104.468 L 169.195 105.466 162.397 105.466 C 155.607 105.466,155.597 105.465,154.809 104.677 L 154.019 103.888 154.019 82.187 L 154.019 60.487 153.305 59.986 C 152.311 59.290,110.158 59.240,109.244 59.933 " stroke="none" fill="#040404" fill-rule="evenodd"></path></g></svg>