<svg id="svg" version="1.1" xmlns="http://www.w3.org/2000/svg" xmlns:xlink="http://www.w3.org/1999/xlink" width="400" height="80" viewBox="0, 0, 400,80"><g id="svgg"><path id="path0" d="M118.417 4.497 C 118.142 4.581,117.710 4.693,117.458 4.745 C 116.927 4.855,116.869 5.194,117.309 5.619 C 117.674 5.970,118.018 6.918,118.442 8.745 C 118.611 9.475,118.915 10.300,119.118 10.578 C 119.795 11.509,120.292 12.855,120.688 14.832 C 120.831 15.546,120.979 15.898,121.772 17.417 C 121.964 17.783,122.258 18.533,122.425 19.083 C 122.686 19.939,123.163 20.871,123.494 21.167 C 123.842 21.479,124.222 22.708,124.740 25.195 C 124.791 25.441,125.004 25.853,125.214 26.112 C 125.772 26.804,126.096 27.588,126.434 29.068 C 126.600 29.793,126.904 30.618,127.111 30.902 C 127.718 31.737,128.013 32.492,128.352 34.083 C 128.580 35.154,128.832 35.822,129.233 36.417 C 130.000 37.554,130.167 37.907,130.167 38.400 C 130.167 38.632,130.288 39.106,130.437 39.453 C 130.585 39.800,130.802 40.314,130.920 40.595 C 131.202 41.273,132.757 41.602,134.950 41.447 C 137.234 41.285,137.159 41.353,137.909 38.750 C 138.067 38.200,138.400 37.487,138.647 37.167 C 139.074 36.613,139.280 36.060,139.920 33.750 C 140.072 33.200,140.408 32.483,140.665 32.156 C 141.130 31.565,141.667 30.248,141.666 29.703 C 141.664 29.142,142.257 27.744,142.654 27.371 C 143.074 26.976,143.667 25.530,143.667 24.899 C 143.667 24.222,144.329 22.387,144.729 21.955 C 145.158 21.492,145.667 20.185,145.667 19.545 C 145.667 18.526,146.708 17.439,147.474 17.659 C 149.513 18.244,150.060 19.098,150.772 22.806 C 150.813 23.020,151.020 23.357,151.231 23.556 C 151.795 24.085,152.000 24.552,152.429 26.282 C 152.641 27.138,152.987 28.080,153.199 28.375 C 153.712 29.092,154.167 30.120,154.166 30.560 C 154.165 30.756,154.275 31.254,154.410 31.667 C 154.545 32.079,154.692 32.607,154.739 32.841 C 154.785 33.074,155.080 33.599,155.394 34.007 C 155.794 34.527,156.073 35.175,156.325 36.167 C 156.574 37.144,156.906 37.920,157.396 38.667 C 157.786 39.262,158.208 40.073,158.333 40.469 C 158.626 41.396,158.721 41.435,161.028 41.560 C 163.181 41.678,163.885 41.479,164.081 40.698 C 164.135 40.485,164.388 40.105,164.645 39.855 C 164.901 39.604,165.162 39.216,165.226 38.991 C 165.289 38.767,165.536 37.840,165.775 36.932 C 166.177 35.402,166.714 34.167,166.977 34.167 C 167.038 34.167,167.224 33.660,167.390 33.042 C 168.076 30.495,168.271 29.968,168.708 29.486 C 168.960 29.207,169.169 28.853,169.173 28.698 C 169.176 28.543,169.286 28.229,169.417 28.000 C 169.548 27.771,169.658 27.401,169.661 27.178 C 169.669 26.630,170.342 24.667,170.522 24.667 C 170.602 24.667,170.667 24.562,170.667 24.434 C 170.667 24.307,170.765 24.165,170.884 24.119 C 171.004 24.073,171.239 23.446,171.407 22.726 C 171.906 20.582,172.185 19.782,172.646 19.167 C 173.108 18.550,173.667 17.149,173.667 16.607 C 173.667 16.073,174.353 14.361,174.731 13.953 C 174.935 13.732,175.214 13.015,175.394 12.244 C 175.824 10.406,176.209 9.307,176.457 9.211 C 176.572 9.167,176.667 9.051,176.667 8.954 C 176.667 8.856,176.766 8.658,176.887 8.513 C 177.108 8.248,177.506 7.022,177.798 5.704 C 178.049 4.573,177.579 4.333,175.107 4.333 C 172.151 4.333,170.667 4.850,170.667 5.879 C 170.667 6.552,169.981 8.631,169.225 10.250 C 168.821 11.114,168.409 12.430,168.181 13.583 C 168.020 14.399,167.716 15.086,167.215 15.764 C 167.007 16.047,166.791 16.534,166.736 16.847 C 166.465 18.389,165.759 20.248,165.238 20.792 C 164.875 21.171,164.479 22.541,164.183 24.444 C 163.848 26.596,161.651 28.641,160.649 27.734 C 160.254 27.377,159.667 26.098,159.667 25.597 C 159.667 25.042,159.130 23.648,158.667 23.001 C 158.203 22.353,157.673 20.827,157.669 20.128 C 157.666 19.512,157.201 18.376,156.661 17.667 C 156.238 17.110,155.667 15.595,155.667 15.028 C 155.667 14.550,155.121 13.260,154.738 12.833 C 154.215 12.250,153.831 11.262,153.653 10.040 C 153.493 8.945,153.339 8.593,152.683 7.828 C 152.243 7.314,151.844 6.375,151.715 5.552 C 151.578 4.667,151.263 4.522,149.221 4.398 C 146.237 4.217,144.667 4.804,144.667 6.102 C 144.667 6.950,143.866 9.007,143.125 10.063 C 142.873 10.423,142.667 10.868,142.667 11.052 C 142.667 11.860,141.653 14.667,141.361 14.667 C 141.129 14.667,140.721 15.811,140.411 17.333 C 140.125 18.737,139.587 20.167,139.345 20.167 C 139.115 20.167,138.698 21.233,138.400 22.583 C 138.194 23.513,137.913 24.204,137.475 24.865 C 137.128 25.386,136.794 26.024,136.732 26.281 C 136.020 29.242,134.281 29.015,133.395 25.845 C 133.231 25.256,132.930 24.595,132.726 24.375 C 132.299 23.914,131.869 22.778,131.669 21.583 C 131.485 20.479,131.071 19.396,130.668 18.963 C 130.296 18.564,129.828 17.111,129.714 16.000 C 129.616 15.046,129.214 13.934,128.660 13.083 C 128.421 12.717,128.100 11.948,127.946 11.375 C 127.229 8.700,127.072 8.249,126.737 7.887 C 126.380 7.502,125.667 5.777,125.667 5.300 C 125.667 4.522,120.285 3.925,118.417 4.497 M203.000 4.511 C 201.662 4.772,201.552 4.820,200.732 5.498 C 200.287 5.866,199.783 6.167,199.612 6.167 C 199.149 6.167,198.360 7.103,198.232 7.804 C 198.170 8.141,198.018 8.565,197.893 8.745 C 197.553 9.239,197.569 15.140,197.911 15.593 C 198.046 15.771,198.159 16.029,198.162 16.167 C 198.166 16.304,198.281 16.631,198.418 16.894 C 198.555 17.157,198.667 17.465,198.667 17.579 C 198.667 17.693,198.855 18.064,199.085 18.403 C 199.456 18.950,199.475 19.049,199.256 19.268 C 199.119 19.405,198.912 19.649,198.795 19.810 C 198.679 19.972,198.208 20.282,197.750 20.500 C 197.292 20.717,196.574 21.181,196.156 21.531 C 195.738 21.881,195.288 22.169,195.156 22.172 C 195.024 22.175,194.771 22.287,194.593 22.422 C 194.415 22.557,194.142 22.667,193.986 22.667 C 193.830 22.667,193.338 22.992,192.893 23.391 C 192.448 23.789,191.883 24.164,191.638 24.224 C 191.102 24.355,190.167 25.111,190.167 25.412 C 190.167 25.531,189.848 25.915,189.458 26.265 C 188.668 26.976,188.619 27.138,188.328 30.000 C 188.148 31.773,188.190 32.702,188.591 35.805 C 188.732 36.900,188.923 37.682,189.115 37.952 C 189.281 38.186,189.496 38.512,189.593 38.677 C 189.878 39.162,191.107 40.294,191.658 40.579 C 191.938 40.723,192.167 40.907,192.167 40.987 C 192.167 41.340,195.466 41.500,204.167 41.567 C 214.361 41.647,214.646 41.623,215.739 40.625 C 216.015 40.373,216.369 40.167,216.525 40.167 C 216.682 40.167,216.922 40.054,217.060 39.917 C 217.197 39.779,217.352 39.667,217.405 39.667 C 217.522 39.667,218.167 39.032,218.167 38.917 C 218.167 38.809,218.808 38.167,218.915 38.167 C 219.002 38.167,219.492 37.769,220.496 36.886 L 221.099 36.355 221.591 36.733 C 221.862 36.940,222.449 37.254,222.895 37.430 C 223.495 37.667,223.873 37.974,224.346 38.608 C 224.697 39.079,225.270 39.604,225.617 39.774 C 225.965 39.944,226.400 40.320,226.583 40.610 C 226.767 40.899,227.067 41.174,227.250 41.221 C 227.433 41.268,227.913 41.428,228.317 41.578 C 229.591 42.049,237.280 41.885,237.828 41.375 C 238.273 40.959,238.267 40.948,237.167 40.209 C 236.938 40.055,236.419 39.568,236.015 39.126 C 235.611 38.685,235.024 38.202,234.711 38.054 C 234.398 37.905,234.023 37.602,233.877 37.379 C 233.731 37.157,233.219 36.724,232.737 36.416 C 232.256 36.108,231.761 35.645,231.638 35.386 C 231.512 35.125,231.068 34.730,230.635 34.496 C 229.932 34.116,229.167 33.379,229.167 33.081 C 229.167 33.017,228.974 32.813,228.738 32.627 C 228.333 32.309,228.196 32.072,227.934 31.228 C 227.809 30.827,228.789 29.667,229.252 29.667 C 229.394 29.667,229.554 29.554,229.606 29.417 C 229.659 29.279,229.773 29.167,229.859 29.167 C 229.945 29.167,230.181 28.988,230.383 28.769 C 231.538 27.519,233.612 25.794,234.337 25.482 C 235.243 25.093,235.432 24.582,234.922 23.907 C 234.787 23.729,234.675 23.468,234.672 23.328 C 234.669 23.187,234.450 22.944,234.186 22.788 C 233.922 22.632,233.528 22.317,233.311 22.088 C 233.094 21.860,232.842 21.668,232.750 21.663 C 232.658 21.657,232.324 21.431,232.006 21.160 C 231.233 20.499,230.946 20.535,229.965 21.417 C 229.506 21.829,229.026 22.167,228.899 22.167 C 228.771 22.167,228.667 22.237,228.667 22.322 C 228.667 22.408,228.535 22.521,228.375 22.574 C 228.215 22.628,227.689 23.044,227.208 23.501 C 226.726 23.957,226.034 24.518,225.670 24.748 C 225.306 24.978,224.886 25.352,224.737 25.580 C 223.713 27.142,219.197 26.874,219.170 25.249 C 219.168 25.157,218.923 24.976,218.625 24.847 C 218.047 24.598,217.067 23.898,216.250 23.152 C 215.975 22.901,215.412 22.522,215.000 22.310 C 214.103 21.848,213.667 21.495,213.667 21.231 C 213.667 21.124,213.345 20.885,212.951 20.701 C 212.147 20.322,211.167 19.521,211.167 19.241 C 211.167 19.139,210.960 18.960,210.708 18.842 C 210.456 18.724,210.137 18.561,210.000 18.480 C 209.862 18.398,209.637 18.279,209.500 18.216 C 209.169 18.063,208.908 17.854,208.276 17.237 C 207.670 16.646,206.941 16.169,206.631 16.161 C 206.351 16.154,205.667 15.580,205.667 15.354 C 205.667 15.257,205.346 14.936,204.954 14.640 C 203.049 13.204,203.582 11.759,206.169 11.347 C 207.061 11.204,214.534 11.275,215.303 11.433 C 216.224 11.622,216.667 12.396,216.667 13.819 C 216.667 15.516,216.720 15.558,218.960 15.641 C 222.924 15.788,224.160 14.547,223.417 11.167 C 223.286 10.571,223.176 9.885,223.173 9.643 C 223.169 9.393,222.958 8.979,222.685 8.687 C 222.421 8.403,222.153 7.969,222.091 7.721 C 221.916 7.025,221.404 6.408,220.540 5.850 C 220.105 5.570,219.576 5.213,219.363 5.059 C 219.150 4.904,218.625 4.703,218.196 4.612 C 217.208 4.402,204.004 4.315,203.000 4.511 M253.750 4.559 L 252.750 4.750 252.630 20.583 C 252.564 29.292,252.467 37.467,252.414 38.751 C 252.284 41.866,252.327 41.923,254.649 41.756 C 255.530 41.692,263.375 41.580,272.083 41.505 C 287.228 41.377,289.167 41.317,289.167 40.982 C 289.167 40.722,289.727 40.263,290.574 39.829 C 291.192 39.512,291.506 39.207,291.841 38.599 C 292.085 38.154,292.475 37.676,292.705 37.536 C 293.920 36.799,293.892 27.667,292.671 26.500 C 292.432 26.271,292.096 25.765,291.926 25.375 C 291.755 24.985,291.515 24.667,291.391 24.667 C 291.268 24.667,291.167 24.600,291.167 24.518 C 291.167 24.436,290.977 24.322,290.746 24.264 C 289.035 23.834,289.255 21.975,291.241 20.083 C 292.881 18.521,293.003 17.981,292.842 12.957 C 292.741 9.800,292.664 8.938,292.464 8.707 C 292.325 8.547,292.073 8.044,291.903 7.588 C 291.547 6.636,291.222 6.258,290.629 6.110 C 290.398 6.052,289.954 5.742,289.642 5.421 C 289.258 5.026,288.808 4.772,288.246 4.636 C 287.083 4.352,255.199 4.281,253.750 4.559 M284.010 11.515 C 284.768 11.745,285.326 12.037,285.661 12.380 L 286.167 12.897 286.167 14.964 C 286.167 17.382,286.043 17.665,284.621 18.480 C 284.142 18.754,283.584 19.133,283.382 19.323 C 283.019 19.661,282.878 19.667,273.986 19.667 L 264.958 19.667 263.354 19.138 C 260.346 18.147,260.169 17.916,260.168 14.982 L 260.167 12.880 260.732 12.327 C 261.930 11.156,261.614 11.186,272.807 11.176 C 282.542 11.167,282.902 11.178,284.010 11.515 M205.466 22.792 C 205.631 22.952,206.276 23.341,206.900 23.655 C 207.634 24.025,208.102 24.379,208.226 24.655 C 208.451 25.160,208.987 25.653,209.318 25.661 C 209.650 25.669,210.625 26.444,210.742 26.792 C 210.795 26.952,211.142 27.222,211.511 27.393 C 211.880 27.563,212.417 28.013,212.704 28.393 C 212.991 28.774,213.531 29.231,213.904 29.409 C 214.652 29.766,214.816 29.879,215.509 30.519 C 216.331 31.279,215.164 33.781,213.715 34.365 C 211.200 35.378,211.309 35.367,203.909 35.306 L 197.083 35.250 196.405 34.809 C 195.180 34.011,195.080 33.730,195.105 31.126 C 195.123 29.253,195.181 28.751,195.420 28.376 C 195.810 27.763,196.515 27.180,196.875 27.173 C 197.035 27.169,197.167 27.060,197.167 26.929 C 197.167 26.610,198.329 25.667,198.721 25.667 C 199.041 25.667,200.043 25.173,200.135 24.969 C 200.330 24.541,203.113 23.167,203.785 23.167 C 203.903 23.167,204.150 23.017,204.333 22.833 C 204.744 22.423,205.075 22.411,205.466 22.792 M284.043 25.958 C 285.782 26.950,286.167 27.802,286.167 30.655 L 286.167 33.009 285.640 33.588 C 285.350 33.906,285.013 34.167,284.890 34.167 C 284.767 34.167,284.667 34.237,284.667 34.322 C 284.667 34.408,284.498 34.530,284.292 34.594 C 284.085 34.658,283.718 34.851,283.474 35.022 C 283.054 35.318,282.530 35.333,273.097 35.333 C 261.805 35.333,262.396 35.403,260.875 33.883 L 260.167 33.175 260.167 30.864 C 260.167 27.623,260.492 26.709,261.917 25.947 C 262.715 25.520,283.294 25.531,284.043 25.958 M101.919 52.618 C 100.543 52.771,100.586 53.350,102.011 53.852 C 102.825 54.139,103.454 54.167,109.095 54.167 L 115.287 54.167 116.092 54.917 C 116.535 55.329,116.992 55.667,117.108 55.667 C 118.184 55.667,118.385 56.972,118.306 63.424 C 118.240 68.772,118.181 68.945,116.112 69.875 C 115.173 70.297,105.220 70.319,104.581 69.900 C 104.180 69.637,103.167 67.969,103.167 67.572 C 103.167 67.460,103.054 67.326,102.917 67.273 C 102.631 67.163,102.549 65.093,102.824 64.923 C 102.910 64.869,103.153 64.471,103.365 64.038 C 103.577 63.605,103.796 63.212,103.852 63.167 C 103.909 63.121,104.006 62.921,104.068 62.722 C 104.245 62.154,105.031 61.995,108.212 61.884 C 110.881 61.791,111.221 61.746,111.655 61.425 L 112.137 61.070 111.539 60.660 C 110.188 59.733,102.667 60.271,102.667 61.294 C 102.667 61.670,102.018 62.482,101.508 62.746 C 100.467 63.284,100.303 69.167,101.329 69.167 C 101.653 69.167,102.531 70.077,102.782 70.671 C 103.154 71.555,104.075 71.667,110.931 71.661 C 117.726 71.655,117.546 71.683,117.920 70.583 C 118.038 70.237,118.257 70.029,118.632 69.907 C 119.767 69.538,119.750 69.650,119.750 62.333 C 119.750 54.786,119.766 54.892,118.488 54.244 C 118.050 54.022,117.643 53.687,117.583 53.499 C 117.298 52.600,117.171 52.585,109.591 52.563 C 105.737 52.553,102.284 52.577,101.919 52.618 M151.754 52.618 C 150.132 52.755,150.133 52.752,150.198 62.861 L 150.250 70.972 150.651 71.319 C 151.172 71.772,165.223 71.861,166.000 71.417 C 166.229 71.286,166.576 71.176,166.771 71.173 C 167.021 71.168,167.153 71.032,167.220 70.708 C 167.320 70.225,168.192 69.167,168.491 69.167 C 168.587 69.167,168.667 69.079,168.667 68.971 C 168.667 68.864,168.792 68.638,168.945 68.469 C 169.194 68.193,169.219 67.584,169.185 62.479 L 169.147 56.795 168.657 56.383 C 168.335 56.112,168.167 55.814,168.167 55.516 C 168.167 54.984,167.491 54.284,166.750 54.050 C 166.475 53.963,166.157 53.701,166.043 53.467 C 165.602 52.564,165.763 52.585,158.933 52.566 C 155.441 52.556,152.210 52.580,151.754 52.618 M184.631 52.639 C 184.171 52.752,183.687 53.107,182.513 54.191 C 182.152 54.525,181.712 54.900,181.536 55.024 C 180.703 55.612,180.667 55.911,180.668 62.117 C 180.669 67.823,180.774 69.167,181.220 69.167 C 181.609 69.167,182.623 70.156,182.717 70.627 C 182.903 71.559,183.748 71.667,190.861 71.667 L 197.109 71.667 197.471 71.281 C 197.670 71.069,197.833 70.780,197.833 70.640 C 197.833 70.334,198.283 69.913,198.770 69.765 C 199.763 69.464,199.750 69.560,199.750 62.524 C 199.750 55.070,199.749 55.064,198.532 54.476 C 197.761 54.103,197.183 53.580,197.172 53.245 C 197.154 52.677,186.555 52.165,184.631 52.639 M209.583 52.616 C 208.760 52.690,208.218 52.952,208.121 53.324 C 208.080 53.479,207.767 53.739,207.425 53.901 C 206.543 54.320,206.264 54.652,205.930 55.680 C 205.769 56.177,205.521 56.713,205.380 56.871 C 205.177 57.098,205.150 57.343,205.255 58.037 C 205.461 59.401,205.486 64.446,205.294 65.789 C 205.161 66.724,205.169 67.052,205.333 67.249 C 205.449 67.389,205.606 67.836,205.682 68.243 C 205.820 68.984,206.076 69.369,207.174 70.484 C 208.379 71.708,208.104 71.667,214.958 71.667 C 221.862 71.667,222.145 71.620,221.391 70.610 L 221.083 70.198 215.083 70.134 C 208.723 70.067,208.293 70.014,208.111 69.272 C 208.063 69.077,207.865 68.467,207.671 67.917 C 207.338 66.970,207.322 66.649,207.368 61.917 C 207.422 56.357,207.510 55.879,208.581 55.336 C 208.854 55.197,209.154 54.992,209.247 54.880 C 209.773 54.251,210.530 54.167,215.703 54.164 C 221.007 54.161,220.929 54.171,221.371 53.477 C 221.967 52.539,221.711 52.497,215.654 52.528 C 212.682 52.543,209.950 52.583,209.583 52.616 M230.500 52.721 C 230.179 52.842,229.654 53.189,229.333 53.493 C 229.012 53.797,228.438 54.301,228.056 54.614 C 226.655 55.763,226.667 55.683,226.667 63.897 C 226.667 71.882,226.596 71.405,227.744 71.219 C 228.606 71.079,228.574 71.299,228.683 64.583 C 228.784 58.357,228.851 57.660,229.476 56.337 C 229.779 55.697,230.243 55.167,230.500 55.167 C 230.592 55.167,230.667 55.072,230.667 54.957 C 230.667 54.332,231.274 54.251,236.374 54.199 L 241.331 54.148 242.101 54.908 C 242.524 55.325,242.963 55.667,243.076 55.667 C 244.719 55.667,244.733 61.143,243.091 61.833 C 242.812 61.950,242.321 62.155,242.000 62.288 C 241.607 62.450,240.428 62.565,238.383 62.640 C 235.153 62.757,234.642 62.893,235.545 63.393 C 235.891 63.585,236.232 64.000,236.500 64.554 C 236.784 65.143,237.084 65.496,237.445 65.667 C 237.944 65.903,238.354 66.342,238.766 67.082 C 238.866 67.262,239.200 67.461,239.508 67.524 C 240.153 67.656,240.454 68.000,240.599 68.773 C 240.734 69.495,241.032 69.723,241.660 69.585 C 242.193 69.468,242.362 68.975,241.958 68.717 C 241.648 68.518,241.167 67.582,241.167 67.177 C 241.167 66.981,241.060 66.655,240.929 66.452 C 240.164 65.264,240.660 64.167,241.963 64.167 C 243.036 64.167,244.671 63.104,245.423 61.917 C 245.702 61.476,245.738 61.092,245.730 58.667 C 245.718 55.285,245.651 55.044,244.574 54.500 C 243.737 54.077,243.182 53.572,243.172 53.225 C 243.154 52.590,232.027 52.148,230.500 52.721 M252.667 52.609 C 251.676 52.935,251.651 53.003,252.305 53.603 L 252.917 54.165 259.115 54.166 C 265.576 54.167,266.500 54.273,266.500 55.016 C 266.500 55.099,266.640 55.167,266.811 55.167 C 267.255 55.167,267.950 55.761,268.253 56.400 C 268.730 57.405,268.541 67.642,268.024 68.784 C 267.437 70.082,267.430 70.083,260.750 70.083 C 254.738 70.083,254.167 70.009,254.167 69.225 C 254.167 69.095,254.035 68.788,253.875 68.543 C 253.420 67.848,253.465 64.228,253.944 63.083 C 254.453 61.864,255.009 61.687,258.376 61.676 C 260.660 61.668,261.081 61.624,261.615 61.338 L 262.229 61.009 261.620 60.754 C 260.886 60.448,255.316 60.391,254.278 60.679 C 253.689 60.843,252.667 61.623,252.667 61.909 C 252.667 61.977,252.517 62.242,252.335 62.498 C 251.313 63.932,251.328 68.494,252.357 69.523 C 252.527 69.694,252.667 69.892,252.667 69.964 C 252.667 70.036,252.892 70.228,253.167 70.390 C 253.442 70.553,253.669 70.775,253.671 70.884 C 253.685 71.571,254.587 71.667,261.023 71.667 C 267.677 71.667,267.877 71.642,268.259 70.778 C 268.346 70.582,268.585 70.339,268.791 70.238 C 270.126 69.579,270.169 69.328,270.153 62.354 C 270.138 55.635,270.030 54.876,269.000 54.230 C 268.265 53.769,267.736 53.292,267.640 53.005 C 267.502 52.590,253.821 52.229,252.667 52.609 M279.783 52.620 C 279.069 52.679,278.935 52.756,278.533 53.346 C 278.265 53.739,277.904 54.045,277.639 54.104 C 277.394 54.158,276.982 54.425,276.722 54.696 L 276.250 55.188 276.208 63.136 L 276.166 71.083 276.594 71.391 C 277.517 72.055,277.667 71.575,277.667 67.952 C 277.667 63.048,277.199 63.334,285.233 63.331 C 291.952 63.328,291.556 63.412,291.302 62.044 L 291.111 61.019 285.097 60.968 C 277.693 60.905,277.668 60.895,277.668 58.167 C 277.668 56.623,277.989 56.018,279.119 55.431 C 279.558 55.203,280.093 54.825,280.309 54.591 L 280.702 54.167 285.851 54.167 C 291.370 54.167,291.376 54.166,291.706 53.305 C 291.973 52.610,291.774 52.584,286.048 52.569 C 283.042 52.560,280.223 52.583,279.783 52.620 M298.190 52.788 L 297.684 53.033 298.300 53.599 C 298.639 53.910,299.029 54.166,299.167 54.168 C 299.915 54.176,301.260 55.102,301.707 55.917 L 302.165 56.750 302.148 62.853 L 302.131 68.956 302.524 69.409 C 302.740 69.659,303.158 69.963,303.452 70.087 C 303.786 70.227,304.028 70.469,304.093 70.730 C 304.313 71.606,304.633 71.667,309.052 71.667 C 313.215 71.667,313.667 71.596,313.667 70.945 C 313.667 70.289,313.052 70.167,309.708 70.156 C 305.421 70.141,304.803 69.974,304.134 68.649 L 303.681 67.750 303.674 62.036 L 303.667 56.322 304.080 55.506 C 304.781 54.123,304.581 54.167,310.206 54.167 L 315.172 54.167 315.794 53.594 L 316.417 53.021 315.787 52.756 C 314.883 52.376,298.981 52.405,298.190 52.788 M142.806 52.950 C 142.631 53.161,142.566 54.779,142.500 60.567 C 142.382 70.994,143.123 70.083,134.750 70.083 C 128.931 70.083,128.167 69.985,128.167 69.240 C 128.167 69.101,128.035 68.788,127.875 68.544 C 127.613 68.145,127.572 67.374,127.478 61.091 C 127.348 52.419,127.313 52.220,126.164 53.671 L 125.632 54.341 125.645 60.871 C 125.657 67.663,125.760 68.927,126.348 69.515 C 126.523 69.690,126.667 69.892,126.667 69.964 C 126.667 70.036,126.892 70.228,127.167 70.390 C 127.442 70.553,127.669 70.775,127.671 70.884 C 127.685 71.571,128.587 71.667,135.023 71.667 C 141.677 71.667,141.877 71.642,142.259 70.778 C 142.346 70.582,142.585 70.339,142.791 70.238 C 143.386 69.944,143.955 69.177,144.063 68.521 C 144.330 66.907,144.178 54.933,143.878 53.973 C 143.543 52.899,143.155 52.529,142.806 52.950 M174.682 52.954 C 173.970 53.531,173.965 53.667,174.000 70.167 C 174.003 71.326,174.719 71.948,175.338 71.328 C 175.977 70.690,175.780 53.391,175.127 52.738 C 175.083 52.694,174.883 52.791,174.682 52.954 M164.354 54.422 C 165.246 54.736,166.563 56.072,166.753 56.858 C 166.987 57.823,166.975 66.825,166.739 67.583 C 165.909 70.249,166.116 70.181,158.972 70.128 L 153.026 70.083 152.605 69.687 C 151.741 68.875,151.667 68.273,151.667 62.120 C 151.667 56.006,151.667 56.004,152.619 54.708 L 153.017 54.167 158.321 54.167 C 162.661 54.167,163.757 54.213,164.354 54.422 M195.627 54.520 C 196.172 55.186,196.583 55.526,197.112 55.749 C 198.178 56.199,198.180 56.213,198.208 62.395 L 198.233 67.990 197.727 68.615 C 197.449 68.959,196.852 69.430,196.402 69.662 L 195.583 70.083 190.229 70.131 L 184.874 70.180 184.395 69.771 C 184.132 69.547,183.730 69.000,183.503 68.557 C 183.275 68.113,182.975 67.662,182.836 67.555 C 182.164 67.037,182.179 58.310,182.853 57.167 C 182.934 57.029,183.069 56.767,183.152 56.583 C 183.457 55.914,185.001 54.458,185.544 54.329 C 186.972 53.990,195.322 54.148,195.627 54.520 M242.506 69.989 C 241.979 70.974,242.685 71.912,243.587 71.426 C 244.285 71.050,244.286 71.042,243.662 70.431 C 243.390 70.163,243.167 69.882,243.167 69.806 C 243.167 69.535,242.676 69.671,242.506 69.989 " stroke="none" fill="#e8e8e8" fill-rule="evenodd"></path></g></svg>