<svg id="svg" version="1.1" xmlns="http://www.w3.org/2000/svg" xmlns:xlink="http://www.w3.org/1999/xlink" width="400" height="112.02167287504233" viewBox="0, 0, 400,112.02167287504233"><g id="svgg"><path id="path0" d="M335.500 5.674 C 334.996 5.743,334.152 5.808,333.625 5.817 C 333.088 5.826,332.667 5.909,332.667 6.005 C 332.667 6.100,332.423 6.166,332.125 6.152 C 331.411 6.119,328.880 6.584,327.417 7.017 C 324.635 7.840,323.902 8.067,323.667 8.176 C 323.529 8.240,323.117 8.380,322.750 8.488 C 321.994 8.709,320.385 9.377,319.467 9.849 C 319.128 10.024,318.734 10.167,318.592 10.167 C 318.450 10.167,318.333 10.246,318.333 10.343 C 318.333 10.440,318.277 10.486,318.208 10.445 C 318.140 10.405,317.708 10.585,317.250 10.847 C 316.792 11.108,316.117 11.473,315.750 11.659 C 315.033 12.021,314.467 12.361,314.333 12.509 C 314.287 12.559,313.972 12.730,313.633 12.888 C 313.293 13.046,312.918 13.269,312.799 13.384 C 312.681 13.499,312.227 13.816,311.792 14.088 C 311.357 14.361,311.000 14.644,311.000 14.718 C 311.000 14.792,310.930 14.810,310.844 14.756 C 310.758 14.703,310.626 14.755,310.552 14.871 C 310.478 14.988,310.295 15.158,310.146 15.250 C 308.976 15.971,305.643 18.846,304.263 20.324 C 301.175 23.634,301.404 23.375,300.503 24.582 C 300.092 25.133,299.680 25.671,299.586 25.778 C 299.493 25.886,299.285 26.148,299.124 26.362 C 298.962 26.575,298.654 26.975,298.438 27.250 C 298.222 27.525,297.993 27.919,297.928 28.125 C 297.864 28.331,297.736 28.500,297.646 28.500 C 297.555 28.500,297.527 28.575,297.583 28.667 C 297.640 28.758,297.621 28.833,297.541 28.833 C 297.460 28.833,297.220 29.152,297.007 29.542 C 296.793 29.931,296.442 30.489,296.226 30.781 C 296.010 31.072,295.833 31.419,295.833 31.552 C 295.833 31.684,295.722 31.885,295.585 31.998 C 295.449 32.112,295.374 32.265,295.420 32.338 C 295.465 32.411,295.445 32.497,295.376 32.527 C 295.238 32.589,294.333 34.343,294.333 34.550 C 294.333 34.621,294.202 34.879,294.042 35.123 C 293.794 35.501,293.456 36.284,293.267 36.917 C 293.239 37.008,293.167 37.196,293.107 37.333 C 292.403 38.929,291.402 42.184,291.223 43.458 C 291.168 43.848,291.058 44.167,290.978 44.167 C 290.899 44.167,290.833 44.362,290.833 44.601 C 290.833 44.840,290.725 45.459,290.592 45.976 C 289.359 50.773,289.322 59.904,290.512 65.417 C 290.690 66.242,290.835 67.081,290.834 67.282 C 290.834 67.483,290.904 67.690,290.989 67.743 C 291.075 67.796,291.140 67.970,291.134 68.128 C 291.119 68.511,291.463 69.883,291.833 70.917 C 291.997 71.375,292.343 72.387,292.603 73.167 C 292.862 73.946,293.114 74.621,293.163 74.667 C 293.212 74.712,293.351 75.050,293.472 75.417 C 293.701 76.111,295.989 80.854,296.165 81.000 C 296.221 81.046,296.469 81.434,296.716 81.863 C 296.964 82.292,297.285 82.761,297.429 82.905 C 297.573 83.049,297.638 83.167,297.575 83.167 C 297.511 83.167,297.559 83.287,297.681 83.434 C 297.804 83.582,297.982 83.833,298.077 83.994 C 298.469 84.655,299.153 85.607,299.489 85.958 C 299.685 86.165,299.787 86.336,299.715 86.338 C 299.643 86.341,299.715 86.420,299.875 86.513 C 300.035 86.607,300.167 86.773,300.167 86.883 C 300.167 86.993,300.579 87.530,301.083 88.076 C 301.588 88.622,302.000 89.118,302.000 89.177 C 302.000 89.341,306.163 93.481,306.831 93.981 C 307.150 94.221,307.616 94.623,307.867 94.875 C 308.117 95.127,308.397 95.333,308.489 95.333 C 308.580 95.333,308.735 95.483,308.833 95.667 C 308.931 95.850,309.093 96.000,309.192 96.000 C 309.291 96.000,309.616 96.206,309.913 96.458 C 310.899 97.296,311.169 97.500,311.292 97.500 C 311.414 97.500,313.177 98.660,313.333 98.843 C 313.379 98.897,313.529 98.990,313.667 99.050 C 313.804 99.110,314.217 99.348,314.583 99.578 C 315.784 100.331,320.229 102.466,321.417 102.860 C 321.783 102.982,322.121 103.123,322.167 103.173 C 322.270 103.287,326.624 104.702,327.083 104.772 C 327.267 104.799,327.754 104.909,328.167 105.016 C 328.579 105.122,329.048 105.205,329.208 105.199 C 329.369 105.192,329.500 105.258,329.500 105.344 C 329.500 105.430,329.744 105.501,330.042 105.502 C 330.340 105.502,331.333 105.664,332.250 105.861 C 335.961 106.657,348.211 106.302,350.583 105.329 C 350.767 105.254,351.029 105.196,351.167 105.199 C 351.762 105.214,357.815 103.410,358.000 103.162 C 358.046 103.101,358.196 103.045,358.333 103.037 C 358.699 103.018,359.875 102.564,360.572 102.173 C 360.904 101.986,361.268 101.832,361.380 101.830 C 361.492 101.828,361.771 101.679,362.000 101.500 C 362.229 101.321,362.548 101.172,362.708 101.170 C 362.869 101.168,363.000 101.110,363.000 101.041 C 363.000 100.971,363.244 100.809,363.542 100.679 C 363.840 100.550,364.740 100.063,365.542 99.597 C 366.344 99.131,367.207 98.637,367.459 98.499 C 367.842 98.290,368.425 97.879,369.417 97.123 C 369.508 97.053,370.296 96.462,371.167 95.810 C 372.880 94.528,372.886 94.523,374.524 92.918 C 375.132 92.321,375.708 91.833,375.802 91.833 C 375.896 91.833,376.125 91.590,376.311 91.292 C 376.496 90.994,376.990 90.431,377.408 90.040 C 377.825 89.650,378.167 89.258,378.167 89.169 C 378.167 89.080,378.354 88.885,378.583 88.735 C 378.813 88.585,379.000 88.403,379.000 88.331 C 379.000 88.207,379.590 87.462,380.208 86.809 C 380.369 86.639,380.500 86.466,380.500 86.425 C 380.500 86.363,381.835 84.511,382.317 83.904 C 382.395 83.805,382.511 83.561,382.574 83.362 C 382.637 83.163,382.748 83.000,382.819 83.000 C 382.891 83.000,383.085 82.700,383.250 82.333 C 383.415 81.967,383.595 81.666,383.650 81.664 C 383.705 81.663,383.938 81.269,384.167 80.789 C 384.396 80.309,384.622 79.879,384.669 79.833 C 384.753 79.751,386.068 77.062,386.502 76.083 C 386.624 75.808,386.708 75.490,386.688 75.375 C 386.668 75.260,386.730 75.167,386.826 75.167 C 386.922 75.167,387.000 75.032,387.000 74.867 C 387.000 74.702,387.066 74.495,387.146 74.408 C 387.499 74.026,388.602 70.574,388.781 69.292 C 388.829 68.948,388.935 68.667,389.018 68.667 C 389.100 68.667,389.166 68.535,389.165 68.375 C 389.164 68.215,389.312 67.446,389.495 66.667 C 390.833 60.948,391.045 54.113,390.066 48.250 C 389.735 46.272,389.180 43.668,389.000 43.250 C 388.921 43.067,388.818 42.692,388.772 42.417 C 388.554 41.126,387.773 38.759,387.040 37.167 C 386.850 36.754,386.596 36.117,386.476 35.750 C 386.356 35.383,386.087 34.804,385.879 34.462 C 385.671 34.120,385.500 33.736,385.500 33.609 C 385.500 33.482,385.365 33.199,385.200 32.981 C 385.035 32.762,384.656 32.096,384.357 31.500 C 384.059 30.904,383.595 30.079,383.327 29.667 C 383.058 29.254,382.785 28.804,382.719 28.667 C 382.472 28.151,381.593 26.912,381.384 26.783 C 381.264 26.710,381.167 26.568,381.167 26.468 C 381.167 26.368,380.829 25.891,380.417 25.408 C 380.004 24.925,379.667 24.453,379.667 24.358 C 379.667 24.263,379.535 24.088,379.375 23.968 C 379.215 23.848,378.634 23.225,378.084 22.583 C 376.328 20.533,373.575 17.918,371.418 16.250 C 371.181 16.067,370.802 15.745,370.577 15.534 C 370.351 15.324,370.167 15.196,370.167 15.251 C 370.167 15.355,369.151 14.628,368.594 14.125 C 368.416 13.965,368.181 13.833,368.072 13.833 C 367.963 13.833,367.783 13.723,367.671 13.589 C 367.340 13.189,362.000 10.217,362.000 10.432 C 362.000 10.472,361.719 10.327,361.375 10.110 C 361.031 9.893,360.563 9.659,360.333 9.591 C 360.104 9.522,359.542 9.296,359.083 9.087 C 358.058 8.621,357.165 8.306,356.833 8.293 C 356.696 8.287,356.546 8.236,356.500 8.179 C 356.350 7.992,350.986 6.458,350.724 6.527 C 350.647 6.547,350.186 6.474,349.700 6.365 C 349.214 6.256,348.595 6.167,348.323 6.167 C 348.051 6.167,347.699 6.099,347.539 6.016 C 346.717 5.586,337.936 5.337,335.500 5.674 M342.667 15.000 C 342.667 15.098,343.235 15.166,344.042 15.165 C 345.878 15.164,350.540 16.096,352.466 16.850 C 352.677 16.933,352.995 17.000,353.175 17.000 C 353.354 17.000,353.500 17.075,353.500 17.167 C 353.500 17.258,353.616 17.333,353.758 17.333 C 353.900 17.333,354.250 17.454,354.536 17.602 L 355.055 17.870 354.361 18.531 C 353.979 18.894,353.667 19.261,353.667 19.346 C 353.667 19.431,353.597 19.500,353.511 19.500 C 353.308 19.500,351.500 21.308,351.500 21.511 C 351.500 21.597,351.430 21.667,351.344 21.667 C 351.141 21.667,349.333 23.474,349.333 23.678 C 349.333 23.763,349.263 23.833,349.178 23.833 C 348.974 23.833,347.167 25.641,347.167 25.844 C 347.167 25.930,347.097 26.000,347.011 26.000 C 346.808 26.000,345.000 27.808,345.000 28.011 C 345.000 28.097,344.918 28.167,344.819 28.167 C 344.719 28.167,344.325 28.510,343.944 28.930 L 343.250 29.693 339.555 29.675 C 337.175 29.663,335.822 29.717,335.753 29.828 C 335.695 29.923,335.390 30.000,335.076 30.000 C 334.069 30.000,329.971 31.150,329.380 31.597 C 329.217 31.721,328.952 31.825,328.792 31.828 C 328.631 31.831,328.500 31.921,328.500 32.028 C 328.500 32.135,328.453 32.175,328.395 32.117 C 328.337 32.059,328.133 32.122,327.941 32.256 C 327.749 32.390,327.492 32.500,327.368 32.500 C 327.245 32.500,326.899 32.688,326.598 32.917 C 326.298 33.146,326.002 33.333,325.941 33.333 C 325.880 33.333,325.540 33.540,325.185 33.792 C 324.830 34.044,324.369 34.362,324.160 34.500 C 323.144 35.170,320.397 37.816,319.333 39.149 C 319.104 39.437,318.785 39.800,318.625 39.956 C 318.465 40.113,318.333 40.300,318.333 40.372 C 318.333 40.444,318.071 40.877,317.750 41.333 C 317.429 41.790,317.167 42.233,317.167 42.318 C 317.167 42.403,317.109 42.497,317.038 42.528 C 316.913 42.582,315.596 45.186,315.114 46.333 C 313.917 49.182,313.086 53.771,313.213 56.833 C 313.376 60.791,314.612 65.438,316.383 68.750 C 316.481 68.933,316.675 69.308,316.813 69.583 C 316.952 69.858,317.277 70.383,317.536 70.750 C 317.794 71.117,318.282 71.821,318.619 72.316 C 319.248 73.240,321.466 75.559,322.501 76.376 C 322.821 76.628,323.245 76.966,323.443 77.126 C 324.209 77.746,327.109 79.500,327.368 79.500 C 327.450 79.500,327.795 79.644,328.134 79.819 C 329.929 80.749,330.820 81.076,332.125 81.284 C 332.423 81.331,332.667 81.427,332.667 81.497 C 332.667 81.566,332.985 81.665,333.375 81.716 C 333.765 81.766,334.608 81.925,335.250 82.068 C 337.737 82.622,344.724 82.303,346.833 81.540 C 346.971 81.490,347.158 81.432,347.250 81.410 C 348.086 81.213,349.556 80.737,350.167 80.466 C 353.200 79.118,354.851 78.201,356.163 77.137 C 356.482 76.878,356.807 76.667,356.886 76.667 C 357.248 76.667,361.191 72.729,361.750 71.809 C 361.842 71.658,362.198 71.125,362.542 70.625 C 362.885 70.125,363.167 69.639,363.167 69.545 C 363.167 69.451,363.278 69.281,363.415 69.168 C 363.551 69.055,363.622 68.896,363.572 68.814 C 363.521 68.733,363.541 68.666,363.615 68.664 C 363.743 68.662,364.081 67.999,364.933 66.083 C 365.391 65.052,365.763 63.819,365.700 63.542 C 365.674 63.427,365.730 63.333,365.826 63.333 C 365.922 63.333,366.000 63.177,366.000 62.986 C 366.000 62.795,366.164 62.026,366.364 61.278 C 366.908 59.243,366.907 52.395,366.363 50.461 C 366.163 49.753,366.000 49.021,366.000 48.836 C 366.000 48.651,365.921 48.500,365.823 48.500 C 365.726 48.500,365.693 48.425,365.750 48.333 C 366.311 47.425,363.847 49.801,354.066 59.600 L 342.653 71.034 340.451 68.855 C 339.241 67.656,337.144 65.583,335.792 64.248 C 334.440 62.913,333.333 61.767,333.333 61.702 C 333.333 61.637,341.331 53.586,351.106 43.811 L 368.879 26.038 370.265 27.436 C 371.027 28.206,371.857 29.116,372.108 29.459 C 372.359 29.803,372.644 30.158,372.740 30.250 C 372.837 30.342,373.136 30.717,373.404 31.083 C 373.673 31.450,373.993 31.863,374.117 32.000 C 374.241 32.137,374.769 32.925,375.291 33.750 C 375.812 34.575,376.304 35.296,376.384 35.352 C 376.463 35.408,376.515 35.483,376.499 35.519 C 376.457 35.610,376.825 36.505,377.107 37.000 C 377.339 37.405,378.013 38.823,378.375 39.667 C 378.742 40.521,379.685 43.273,379.831 43.917 C 379.914 44.283,380.098 44.958,380.239 45.417 C 380.381 45.875,380.497 46.494,380.498 46.792 C 380.499 47.090,380.567 47.333,380.650 47.333 C 380.732 47.333,380.800 47.585,380.800 47.893 C 380.800 48.201,380.890 48.888,381.000 49.419 C 381.286 50.794,381.312 57.717,381.039 59.500 C 380.919 60.279,380.819 61.198,380.817 61.542 C 380.814 61.885,380.742 62.167,380.656 62.167 C 380.570 62.167,380.500 62.373,380.501 62.625 C 380.501 63.257,379.205 67.926,378.812 68.706 C 378.732 68.865,378.667 69.146,378.667 69.331 C 378.667 69.516,378.592 69.667,378.500 69.667 C 378.408 69.667,378.333 69.772,378.333 69.901 C 378.333 70.190,376.812 73.545,376.618 73.683 C 376.541 73.738,376.460 73.888,376.438 74.017 C 376.399 74.248,376.194 74.630,375.418 75.917 C 375.197 76.283,374.886 76.827,374.727 77.125 C 374.568 77.423,374.373 77.667,374.293 77.667 C 374.213 77.667,374.193 77.742,374.250 77.833 C 374.307 77.925,374.290 78.000,374.212 78.000 C 374.135 78.000,373.939 78.225,373.776 78.500 C 373.614 78.775,373.260 79.242,372.991 79.537 C 372.721 79.833,372.500 80.164,372.500 80.273 C 372.500 80.383,372.434 80.497,372.352 80.528 C 372.271 80.558,371.740 81.146,371.171 81.833 C 369.823 83.464,366.981 86.226,365.500 87.345 C 365.087 87.657,364.659 87.988,364.547 88.081 C 364.062 88.486,363.871 88.629,363.083 89.174 C 362.093 89.859,361.706 90.097,361.225 90.316 C 361.027 90.406,360.819 90.555,360.761 90.648 C 360.704 90.741,360.191 91.054,359.620 91.343 C 359.050 91.632,358.546 91.924,358.500 91.992 C 358.454 92.059,358.042 92.252,357.583 92.420 C 357.125 92.589,356.551 92.863,356.308 93.030 C 356.064 93.197,355.748 93.333,355.604 93.333 C 355.461 93.333,355.076 93.483,354.750 93.667 C 354.424 93.850,354.046 94.000,353.912 94.000 C 353.777 94.000,353.667 94.075,353.667 94.167 C 353.667 94.258,353.529 94.333,353.361 94.333 C 353.193 94.333,352.236 94.586,351.236 94.894 C 348.839 95.633,346.499 96.167,345.658 96.167 C 345.233 96.167,345.020 96.231,345.087 96.339 C 345.154 96.447,344.985 96.502,344.639 96.484 C 344.333 96.468,343.020 96.552,341.720 96.671 C 339.266 96.895,333.333 96.638,333.333 96.307 C 333.333 96.230,333.025 96.167,332.648 96.167 C 331.820 96.167,329.724 95.676,327.250 94.903 C 326.242 94.588,325.323 94.331,325.208 94.332 C 325.094 94.333,325.000 94.258,325.000 94.167 C 325.000 94.075,324.890 94.000,324.754 94.000 C 324.619 94.000,324.151 93.837,323.713 93.637 C 321.731 92.734,320.412 92.073,320.361 91.958 C 320.331 91.890,320.162 91.833,319.986 91.833 C 319.810 91.833,319.667 91.770,319.667 91.693 C 319.667 91.616,319.460 91.460,319.208 91.346 C 318.604 91.073,316.932 89.973,316.861 89.801 C 316.831 89.727,316.711 89.667,316.595 89.667 C 316.480 89.667,316.249 89.517,316.083 89.333 C 315.917 89.150,315.718 89.000,315.641 89.000 C 315.563 89.000,315.363 88.869,315.196 88.708 C 315.029 88.548,314.602 88.192,314.246 87.917 C 313.890 87.642,313.305 87.135,312.946 86.792 C 312.588 86.448,312.261 86.167,312.220 86.167 C 312.054 86.167,310.333 84.371,310.333 84.198 C 310.333 84.095,310.181 83.930,309.995 83.831 C 309.810 83.731,309.200 83.072,308.641 82.367 C 308.082 81.661,307.559 81.058,307.479 81.028 C 307.399 80.997,307.333 80.878,307.333 80.762 C 307.333 80.646,307.183 80.416,307.000 80.250 C 306.817 80.084,306.667 79.882,306.667 79.800 C 306.667 79.719,306.378 79.262,306.026 78.785 C 305.673 78.307,305.250 77.654,305.086 77.333 C 304.921 77.012,304.741 76.712,304.685 76.667 C 304.629 76.621,304.222 75.833,303.779 74.917 C 303.337 74.000,302.831 72.950,302.654 72.583 C 302.477 72.217,302.333 71.823,302.333 71.708 C 302.333 71.594,302.258 71.500,302.167 71.500 C 302.075 71.500,302.000 71.368,302.000 71.207 C 302.000 71.046,301.774 70.277,301.499 69.499 C 300.947 67.939,300.167 64.864,300.167 64.246 C 300.167 64.030,300.094 63.808,300.005 63.753 C 299.917 63.698,299.850 63.413,299.857 63.118 C 299.864 62.824,299.787 62.096,299.686 61.500 C 299.308 59.266,299.583 50.026,300.042 49.569 C 300.110 49.501,300.167 49.274,300.167 49.066 C 300.167 48.302,301.362 43.851,301.865 42.743 C 301.950 42.556,302.038 42.293,302.060 42.160 C 302.083 42.026,302.266 41.551,302.467 41.104 C 302.669 40.657,302.833 40.261,302.833 40.225 C 302.833 40.189,303.148 39.505,303.532 38.705 C 303.916 37.905,304.216 37.194,304.199 37.125 C 304.181 37.056,304.228 37.000,304.304 37.000 C 304.379 37.000,304.618 36.646,304.834 36.213 C 305.197 35.487,305.807 34.484,306.130 34.083 C 306.203 33.992,306.556 33.467,306.914 32.917 C 307.271 32.367,307.680 31.789,307.823 31.633 C 307.966 31.477,308.158 31.251,308.250 31.130 C 309.607 29.347,312.709 26.138,314.250 24.924 C 314.708 24.563,315.158 24.183,315.250 24.081 C 315.525 23.774,318.652 21.667,318.833 21.667 C 318.925 21.667,319.000 21.605,319.000 21.530 C 319.000 21.454,319.329 21.228,319.732 21.027 C 320.134 20.826,320.556 20.550,320.669 20.414 C 320.782 20.278,320.959 20.167,321.062 20.167 C 321.257 20.168,322.687 19.487,322.833 19.324 C 322.879 19.273,323.179 19.131,323.500 19.009 C 323.821 18.886,324.458 18.616,324.917 18.407 C 326.148 17.847,327.513 17.333,327.772 17.333 C 327.898 17.333,328.000 17.275,328.000 17.205 C 328.000 17.134,328.431 16.977,328.958 16.857 C 329.485 16.737,330.554 16.462,331.333 16.246 C 333.442 15.663,336.569 15.166,338.125 15.166 C 338.931 15.166,339.500 15.098,339.500 15.000 C 339.500 14.901,340.139 14.833,341.083 14.833 C 342.028 14.833,342.667 14.901,342.667 15.000 M281.917 17.921 C 281.550 18.054,281.153 18.163,281.035 18.164 C 280.624 18.169,279.015 19.501,278.468 20.290 C 277.049 22.336,276.989 25.864,278.345 27.586 C 279.339 28.848,281.298 30.181,281.946 30.035 C 282.053 30.011,282.189 30.068,282.247 30.162 C 282.385 30.385,285.000 30.389,285.000 30.167 C 285.000 30.075,285.178 30.000,285.396 30.000 C 285.792 30.000,287.009 29.558,287.167 29.356 C 287.212 29.298,287.569 28.969,287.959 28.625 C 288.349 28.281,288.618 28.000,288.558 28.000 C 288.498 28.000,288.615 27.856,288.819 27.679 C 289.022 27.503,289.186 27.316,289.183 27.265 C 289.179 27.213,289.339 26.814,289.538 26.377 C 290.265 24.781,289.738 20.333,288.822 20.333 C 288.749 20.333,288.644 20.193,288.590 20.020 C 288.109 18.506,283.937 17.194,281.917 17.921 M284.597 19.028 C 285.140 19.135,285.621 19.270,285.667 19.328 C 285.712 19.387,286.016 19.596,286.341 19.793 C 286.908 20.138,287.999 21.335,288.001 21.615 C 288.002 21.689,288.121 21.975,288.267 22.250 C 288.930 23.501,288.492 26.306,287.499 27.168 C 287.316 27.326,287.167 27.541,287.167 27.645 C 287.167 27.748,287.110 27.817,287.042 27.796 C 286.928 27.762,286.032 28.284,285.833 28.500 C 284.972 29.436,281.703 29.060,280.532 27.889 C 280.410 27.767,280.240 27.667,280.155 27.667 C 280.070 27.667,280.000 27.578,280.000 27.469 C 280.000 27.360,279.849 27.110,279.664 26.914 C 277.718 24.842,279.376 19.366,282.000 19.199 C 282.137 19.190,282.512 19.112,282.833 19.025 C 283.154 18.938,283.460 18.860,283.514 18.850 C 283.567 18.841,284.055 18.921,284.597 19.028 M37.250 19.372 C 36.608 19.466,35.558 19.688,34.917 19.865 C 34.275 20.042,33.378 20.264,32.923 20.358 C 32.468 20.451,31.891 20.634,31.640 20.764 C 31.389 20.894,31.029 21.000,30.842 21.000 C 30.654 21.000,30.500 21.079,30.500 21.177 C 30.500 21.274,30.430 21.310,30.345 21.257 C 30.260 21.204,30.148 21.229,30.096 21.312 C 30.045 21.395,29.796 21.514,29.543 21.576 C 28.891 21.736,26.000 23.206,26.000 23.377 C 26.000 23.456,25.931 23.477,25.847 23.425 C 25.762 23.373,25.580 23.443,25.442 23.582 C 25.304 23.720,25.091 23.833,24.969 23.833 C 24.847 23.833,24.653 23.983,24.539 24.167 C 24.424 24.350,24.244 24.500,24.139 24.500 C 24.034 24.500,23.702 24.688,23.402 24.917 C 23.101 25.146,22.782 25.333,22.692 25.333 C 22.602 25.333,22.503 25.391,22.472 25.462 C 22.442 25.533,21.967 25.943,21.417 26.373 C 20.867 26.802,20.322 27.307,20.207 27.494 C 20.092 27.680,19.927 27.833,19.841 27.833 C 19.674 27.833,17.013 30.526,17.041 30.667 C 17.050 30.712,16.838 30.991,16.571 31.286 C 15.492 32.473,15.167 32.892,15.167 33.094 C 15.167 33.210,15.110 33.331,15.042 33.361 C 14.701 33.513,12.553 37.241,12.633 37.542 C 12.652 37.610,12.592 37.667,12.500 37.667 C 12.408 37.667,12.332 37.798,12.330 37.958 C 12.328 38.119,12.179 38.438,12.000 38.667 C 11.821 38.896,11.672 39.205,11.670 39.354 C 11.668 39.503,11.512 39.975,11.322 40.403 C 10.927 41.297,10.453 42.946,10.469 43.375 C 10.475 43.535,10.409 43.667,10.323 43.667 C 10.237 43.667,10.166 43.835,10.164 44.042 C 10.163 44.248,10.014 45.129,9.833 46.000 C 9.397 48.100,9.354 54.903,9.766 56.750 C 9.909 57.392,10.067 58.235,10.118 58.625 C 10.169 59.015,10.275 59.333,10.355 59.333 C 10.435 59.333,10.500 59.477,10.500 59.653 C 10.500 60.201,11.022 62.043,11.352 62.658 C 11.525 62.981,11.667 63.338,11.667 63.452 C 11.667 63.648,12.999 66.301,13.824 67.750 C 14.475 68.892,16.342 71.500,16.508 71.500 C 16.595 71.500,16.667 71.583,16.667 71.684 C 16.667 71.786,16.854 72.016,17.083 72.196 C 17.313 72.377,17.500 72.579,17.500 72.647 C 17.500 72.837,19.146 74.500,19.334 74.500 C 19.425 74.500,19.500 74.625,19.500 74.778 C 19.500 74.931,19.544 75.011,19.599 74.957 C 19.686 74.869,20.167 75.229,20.994 76.000 C 21.141 76.137,21.709 76.587,22.256 77.000 C 22.803 77.412,23.275 77.806,23.306 77.875 C 23.336 77.944,23.435 78.000,23.525 78.000 C 23.615 78.000,23.935 78.188,24.235 78.417 C 24.536 78.646,24.830 78.833,24.890 78.833 C 24.950 78.833,25.843 79.289,26.874 79.845 C 28.503 80.723,29.653 81.246,30.250 81.379 C 30.342 81.400,30.454 81.454,30.500 81.500 C 30.640 81.640,32.268 82.164,33.031 82.315 C 33.426 82.393,34.313 82.613,35.000 82.803 C 37.150 83.397,45.372 83.844,46.503 83.428 C 46.639 83.378,47.354 83.272,48.091 83.191 C 48.829 83.110,49.992 82.882,50.675 82.682 C 52.985 82.009,54.250 81.598,54.333 81.495 C 54.379 81.438,54.792 81.292,55.250 81.170 C 55.708 81.048,56.158 80.894,56.250 80.827 C 56.342 80.760,57.392 80.199,58.583 79.579 C 59.775 78.959,60.788 78.406,60.833 78.349 C 60.879 78.293,61.217 78.050,61.583 77.810 C 61.950 77.570,62.475 77.177,62.750 76.937 C 63.025 76.697,63.304 76.500,63.370 76.500 C 63.436 76.500,63.865 76.136,64.324 75.691 C 64.784 75.246,65.186 74.908,65.219 74.941 C 65.292 75.015,67.180 73.028,68.083 71.927 C 68.450 71.480,68.828 71.033,68.923 70.932 C 69.380 70.450,70.023 69.500,69.895 69.497 C 69.815 69.496,69.830 69.440,69.928 69.372 C 70.152 69.218,71.075 67.847,71.217 67.458 C 71.275 67.298,71.400 67.167,71.495 67.167 C 71.589 67.167,71.667 67.052,71.667 66.911 C 71.667 66.770,71.788 66.470,71.936 66.244 C 72.084 66.018,72.140 65.832,72.061 65.831 C 71.982 65.829,71.992 65.773,72.083 65.706 C 72.319 65.533,73.000 64.250,73.001 63.977 C 73.002 63.852,73.123 63.525,73.271 63.250 C 73.621 62.601,74.164 60.856,74.165 60.375 C 74.166 60.169,74.242 60.000,74.333 60.000 C 74.425 60.000,74.500 59.859,74.500 59.688 C 74.500 59.516,74.649 58.785,74.831 58.063 C 75.071 57.114,75.194 55.885,75.274 53.625 L 75.386 50.500 55.107 50.500 L 34.829 50.500 34.873 55.958 L 34.917 61.417 47.683 61.500 L 60.449 61.583 60.148 62.292 C 59.982 62.681,59.769 63.000,59.674 63.000 C 59.578 63.000,59.500 63.076,59.500 63.169 C 59.500 63.754,56.093 67.274,54.501 68.333 C 54.295 68.471,54.041 68.664,53.938 68.762 C 53.835 68.860,53.712 68.941,53.667 68.942 C 53.621 68.943,53.279 69.135,52.908 69.370 C 52.112 69.872,50.093 70.833,49.834 70.833 C 49.735 70.833,49.375 70.971,49.035 71.139 C 46.068 72.606,40.130 72.606,36.000 71.139 C 34.354 70.555,31.909 69.388,31.429 68.958 C 31.250 68.798,31.046 68.667,30.976 68.667 C 30.779 68.667,29.816 67.980,29.107 67.333 C 28.755 67.012,28.438 66.768,28.402 66.790 C 28.367 66.812,27.905 66.358,27.377 65.781 C 25.756 64.012,25.333 63.514,25.333 63.378 C 25.333 63.306,25.183 63.153,25.000 63.039 C 24.817 62.924,24.667 62.729,24.667 62.604 C 24.667 62.480,24.510 62.179,24.319 61.936 C 23.887 61.386,22.780 59.146,22.498 58.250 C 22.383 57.883,22.184 57.376,22.056 57.123 C 20.855 54.750,20.833 47.513,22.021 45.294 C 22.238 44.889,22.849 43.152,22.872 42.875 C 22.881 42.760,22.951 42.667,23.028 42.667 C 23.104 42.667,23.170 42.573,23.173 42.458 C 23.177 42.344,23.438 41.837,23.754 41.333 C 24.070 40.829,24.421 40.229,24.533 40.000 C 24.645 39.771,24.890 39.391,25.077 39.156 C 25.264 38.921,25.567 38.521,25.750 38.268 C 26.188 37.663,28.454 35.333,28.605 35.333 C 28.669 35.333,28.841 35.217,28.986 35.075 C 29.514 34.558,31.274 33.392,32.250 32.912 C 32.800 32.641,33.287 32.382,33.333 32.335 C 33.379 32.288,33.492 32.233,33.583 32.212 C 33.675 32.190,34.275 31.976,34.917 31.734 C 39.859 29.874,46.402 30.030,50.204 32.100 C 50.454 32.236,50.679 32.333,50.704 32.316 C 50.752 32.282,52.059 32.950,52.521 33.244 C 53.486 33.859,54.788 34.741,55.000 34.923 C 55.943 35.734,58.000 37.898,58.000 38.078 C 58.000 38.474,58.456 38.500,65.430 38.500 C 71.455 38.500,72.333 38.468,72.333 38.250 C 72.333 38.112,72.277 38.000,72.207 38.000 C 72.138 38.000,71.983 37.681,71.864 37.292 C 71.744 36.902,71.463 36.304,71.240 35.962 C 71.016 35.620,70.833 35.256,70.833 35.153 C 70.833 35.049,70.602 34.673,70.319 34.316 C 70.037 33.959,69.854 33.667,69.915 33.667 C 69.975 33.667,69.906 33.549,69.762 33.405 C 69.618 33.261,69.500 33.041,69.500 32.917 C 69.500 32.793,69.313 32.543,69.083 32.363 C 68.854 32.183,68.667 31.969,68.667 31.888 C 68.667 31.738,68.338 31.340,66.788 29.614 C 66.309 29.081,65.857 28.537,65.784 28.406 C 65.710 28.274,65.573 28.167,65.479 28.167 C 65.384 28.167,65.010 27.867,64.647 27.500 C 64.284 27.133,63.919 26.833,63.835 26.833 C 63.752 26.833,63.623 26.736,63.550 26.617 C 63.477 26.497,63.154 26.220,62.833 26.000 C 62.512 25.780,62.212 25.558,62.167 25.508 C 61.963 25.285,60.474 24.333,60.328 24.333 C 60.239 24.333,60.167 24.266,60.167 24.183 C 60.167 24.005,58.834 23.284,58.831 23.461 C 58.829 23.528,58.773 23.505,58.706 23.409 C 58.544 23.180,57.366 22.500,57.129 22.500 C 57.026 22.500,56.825 22.397,56.680 22.270 C 56.535 22.144,55.929 21.871,55.333 21.664 C 54.737 21.456,54.212 21.240,54.167 21.182 C 54.121 21.125,53.746 20.981,53.333 20.862 C 49.902 19.876,48.945 19.629,48.000 19.483 C 46.473 19.246,38.657 19.166,37.250 19.372 M281.000 24.083 L 281.000 27.833 281.667 27.833 L 282.333 27.833 282.333 26.250 L 282.333 24.667 282.823 24.667 C 283.311 24.667,283.675 25.107,285.061 27.375 C 285.334 27.822,286.667 28.088,286.667 27.695 C 286.667 27.564,285.987 26.446,285.311 25.465 C 285.140 25.217,285.000 24.942,285.000 24.854 C 285.000 24.766,284.906 24.657,284.792 24.610 C 284.677 24.564,284.784 24.520,285.029 24.513 C 286.666 24.465,287.168 21.708,285.724 20.700 C 285.250 20.369,284.992 20.333,283.099 20.333 L 281.000 20.333 281.000 24.083 M199.111 21.444 C 199.050 21.506,199.000 23.793,199.000 26.528 L 199.000 31.500 204.583 31.500 L 210.167 31.500 210.167 26.417 L 210.167 21.333 204.694 21.333 C 201.685 21.333,199.172 21.383,199.111 21.444 M220.167 28.914 L 220.167 36.500 217.500 36.500 L 214.833 36.500 214.833 41.417 L 214.833 46.333 217.500 46.333 L 220.167 46.333 220.167 64.083 L 220.167 81.833 225.750 81.833 L 231.333 81.833 231.333 64.083 L 231.333 46.333 234.667 46.333 L 238.000 46.333 238.000 41.417 L 238.000 36.500 234.668 36.500 L 231.337 36.500 231.293 28.958 L 231.250 21.417 225.708 21.373 L 220.167 21.329 220.167 28.914 M284.994 21.989 C 285.493 22.922,284.899 23.500,283.439 23.500 L 282.333 23.500 282.333 22.583 L 282.333 21.667 283.577 21.667 C 284.637 21.667,284.847 21.715,284.994 21.989 M96.183 35.344 C 93.736 35.896,92.104 36.949,90.180 39.218 L 89.500 40.020 89.500 38.218 L 89.500 36.417 84.417 36.417 L 79.333 36.417 79.333 59.125 L 79.333 81.833 84.827 81.833 L 90.321 81.833 90.376 67.458 L 90.430 53.083 90.848 51.917 C 91.428 50.295,91.864 49.513,92.628 48.726 C 93.239 48.096,94.687 47.000,94.907 47.000 C 94.960 47.000,95.322 46.852,95.710 46.671 C 96.544 46.282,98.581 45.833,99.511 45.833 L 100.167 45.833 100.167 40.417 L 100.167 35.000 98.875 35.014 C 98.165 35.022,96.953 35.170,96.183 35.344 M119.417 35.175 C 118.958 35.249,118.058 35.383,117.417 35.473 C 116.775 35.563,115.971 35.755,115.630 35.901 C 115.290 36.047,114.858 36.167,114.672 36.167 C 114.486 36.167,114.333 36.229,114.333 36.306 C 114.333 36.382,114.233 36.444,114.110 36.444 C 113.870 36.444,111.034 37.832,110.317 38.300 C 109.289 38.971,108.878 39.285,108.258 39.874 C 107.896 40.218,107.542 40.500,107.472 40.500 C 107.316 40.500,106.532 41.294,105.396 42.601 C 103.998 44.211,103.632 44.667,103.736 44.667 C 103.791 44.667,103.643 44.883,103.407 45.148 C 102.584 46.072,101.044 49.170,100.543 50.909 C 99.966 52.915,99.838 53.529,99.593 55.474 C 99.141 59.059,99.487 64.236,100.335 66.576 C 100.503 67.038,100.690 67.665,100.752 67.970 C 100.814 68.274,100.970 68.724,101.098 68.970 C 101.226 69.215,101.332 69.474,101.332 69.543 C 101.333 69.680,101.867 70.913,102.306 71.792 C 102.454 72.090,102.634 72.333,102.705 72.333 C 102.775 72.333,102.833 72.483,102.833 72.667 C 102.833 72.850,102.891 73.000,102.962 73.000 C 103.033 73.000,103.235 73.268,103.412 73.596 C 103.588 73.924,103.849 74.332,103.991 74.503 C 104.134 74.675,104.435 75.063,104.661 75.366 C 105.246 76.148,107.879 78.751,108.217 78.881 C 108.373 78.941,108.500 79.071,108.500 79.171 C 108.500 79.271,108.561 79.315,108.635 79.269 C 108.710 79.223,108.991 79.377,109.260 79.610 C 109.530 79.844,109.900 80.103,110.083 80.187 C 110.267 80.271,110.792 80.560,111.250 80.831 C 111.708 81.101,112.208 81.325,112.361 81.328 C 112.514 81.331,112.664 81.390,112.694 81.458 C 112.780 81.651,114.407 82.251,116.250 82.770 C 117.855 83.221,118.053 83.238,121.583 83.228 L 125.250 83.217 127.583 82.436 C 131.602 81.090,136.069 78.164,136.893 76.337 C 137.046 76.000,137.092 76.499,137.129 78.875 L 137.174 81.833 142.254 81.833 L 147.333 81.833 147.333 59.167 L 147.333 36.500 142.250 36.500 L 137.167 36.500 137.167 39.522 L 137.167 42.545 136.792 42.064 C 136.156 41.249,133.286 38.510,133.153 38.591 C 133.085 38.634,133.003 38.607,132.973 38.531 C 132.870 38.278,130.876 37.014,130.142 36.737 C 129.743 36.587,129.192 36.369,128.917 36.254 C 126.449 35.220,122.166 34.734,119.417 35.175 M150.000 36.578 C 150.000 36.620,150.107 36.902,150.238 37.203 C 150.440 37.667,150.632 38.156,150.750 38.500 C 150.765 38.546,150.865 38.794,150.972 39.053 C 151.079 39.311,151.167 39.612,151.167 39.722 C 151.167 39.832,151.304 40.183,151.472 40.502 C 151.640 40.822,151.996 41.721,152.264 42.500 C 152.531 43.279,152.813 43.963,152.889 44.019 C 152.966 44.075,153.017 44.150,153.003 44.185 C 152.988 44.221,153.057 44.461,153.155 44.719 C 153.253 44.977,153.333 45.263,153.333 45.355 C 153.333 45.446,153.521 45.931,153.750 46.432 C 153.979 46.933,154.167 47.420,154.167 47.514 C 154.167 47.608,154.306 48.000,154.475 48.384 C 154.823 49.172,155.027 49.671,155.100 49.917 C 155.272 50.494,155.734 51.683,156.010 52.261 C 156.188 52.634,156.333 53.032,156.333 53.145 C 156.333 53.324,156.589 53.968,157.169 55.250 C 157.252 55.433,157.465 56.041,157.643 56.600 C 157.820 57.159,158.086 57.849,158.233 58.133 C 158.380 58.418,158.500 58.765,158.500 58.906 C 158.500 59.046,158.722 59.620,158.994 60.182 C 159.266 60.743,159.478 61.250,159.465 61.309 C 159.452 61.368,159.520 61.604,159.614 61.833 C 159.709 62.063,159.880 62.512,159.994 62.833 C 160.107 63.154,160.425 63.979,160.699 64.667 C 160.974 65.354,161.237 66.085,161.285 66.292 C 161.333 66.498,161.422 66.667,161.483 66.667 C 161.544 66.667,161.691 67.023,161.809 67.458 C 161.927 67.894,162.166 68.587,162.338 69.000 C 162.948 70.454,163.500 71.945,163.500 72.138 C 163.500 72.245,163.575 72.333,163.667 72.333 C 163.758 72.333,163.833 72.434,163.833 72.557 C 163.833 72.831,164.286 74.136,164.998 75.917 C 165.291 76.650,165.571 77.419,165.618 77.625 C 165.666 77.831,165.775 78.000,165.860 78.000 C 165.945 78.000,165.999 78.094,165.981 78.208 C 165.962 78.323,166.034 78.628,166.140 78.886 C 166.246 79.144,166.333 79.446,166.333 79.557 C 166.333 79.668,166.435 79.907,166.560 80.088 C 166.684 80.269,166.878 80.699,166.990 81.044 L 167.194 81.671 172.971 81.627 L 178.747 81.583 179.105 80.667 C 179.301 80.162,179.576 79.487,179.714 79.167 C 180.135 78.193,180.574 76.924,180.536 76.792 C 180.516 76.723,180.575 76.667,180.667 76.667 C 180.758 76.667,180.833 76.531,180.833 76.365 C 180.833 76.199,180.983 75.752,181.167 75.373 C 181.350 74.993,181.500 74.606,181.500 74.512 C 181.500 74.418,181.683 73.945,181.907 73.462 C 182.131 72.979,182.410 72.227,182.527 71.792 C 182.644 71.356,182.798 71.000,182.870 71.000 C 182.941 71.000,183.000 70.909,183.000 70.797 C 183.000 70.686,183.343 69.729,183.763 68.672 C 184.895 65.817,184.916 65.760,184.873 65.625 C 184.851 65.556,184.908 65.500,185.000 65.500 C 185.092 65.500,185.167 65.380,185.167 65.234 C 185.167 65.087,185.276 64.731,185.409 64.442 C 185.543 64.153,185.762 63.617,185.896 63.250 C 186.030 62.883,186.331 62.065,186.563 61.432 C 186.796 60.799,187.064 60.202,187.160 60.107 C 187.255 60.011,187.333 59.795,187.333 59.625 C 187.333 59.456,187.483 59.007,187.667 58.627 C 187.850 58.248,188.000 57.836,188.000 57.713 C 188.000 57.590,188.188 57.119,188.417 56.667 C 188.646 56.214,188.833 55.772,188.833 55.683 C 188.833 55.594,188.920 55.311,189.027 55.053 C 189.133 54.794,189.204 54.515,189.185 54.432 C 189.165 54.349,189.209 54.236,189.283 54.182 C 189.356 54.128,189.517 53.821,189.640 53.500 C 189.764 53.179,190.014 52.542,190.197 52.083 C 190.381 51.625,190.730 50.688,190.974 50.000 C 191.217 49.313,191.454 48.712,191.500 48.667 C 191.584 48.583,191.836 47.961,192.193 46.958 C 192.388 46.410,193.083 44.563,193.353 43.875 C 193.434 43.669,193.564 43.331,193.642 43.125 C 193.721 42.919,193.946 42.392,194.142 41.954 C 194.339 41.516,194.500 41.050,194.500 40.917 C 194.500 40.785,194.638 40.431,194.806 40.130 C 194.974 39.829,195.167 39.361,195.235 39.089 C 195.302 38.817,195.493 38.292,195.659 37.922 C 195.825 37.553,196.012 37.081,196.075 36.875 L 196.189 36.500 189.864 36.500 C 183.985 36.500,183.533 36.521,183.450 36.792 C 183.401 36.952,183.199 37.496,183.001 38.000 C 182.802 38.504,182.625 39.029,182.607 39.167 C 182.589 39.304,182.406 39.787,182.199 40.241 C 181.992 40.694,181.777 41.256,181.720 41.491 C 181.663 41.725,181.450 42.292,181.248 42.750 C 181.045 43.208,180.777 43.940,180.653 44.375 C 180.529 44.810,180.369 45.167,180.297 45.167 C 180.225 45.167,180.167 45.322,180.167 45.511 C 180.167 45.700,180.079 46.019,179.971 46.219 C 179.770 46.595,179.020 48.619,178.540 50.083 C 178.389 50.542,178.225 50.954,178.174 51.000 C 178.123 51.046,177.983 51.383,177.863 51.750 C 177.743 52.117,177.583 52.567,177.508 52.750 C 177.379 53.067,176.796 54.570,176.314 55.833 C 176.191 56.154,176.088 56.492,176.085 56.583 C 176.082 56.675,175.909 57.121,175.701 57.574 C 175.493 58.027,175.277 58.590,175.220 58.824 C 175.163 59.058,174.940 59.639,174.725 60.114 C 174.510 60.590,174.333 61.059,174.333 61.158 C 174.333 61.256,174.196 61.655,174.028 62.043 C 173.859 62.432,173.626 63.012,173.510 63.333 C 173.393 63.654,173.205 64.165,173.092 64.468 L 172.886 65.020 172.526 64.154 C 172.329 63.678,172.167 63.186,172.167 63.061 C 172.167 62.936,172.092 62.833,172.000 62.833 C 171.908 62.833,171.833 62.692,171.833 62.519 C 171.833 62.346,171.602 61.577,171.320 60.811 C 171.038 60.044,170.750 59.192,170.680 58.917 C 170.610 58.642,170.428 58.177,170.276 57.883 C 170.124 57.590,170.000 57.196,170.000 57.008 C 170.000 56.820,169.925 56.667,169.833 56.667 C 169.742 56.667,169.667 56.516,169.667 56.331 C 169.667 56.146,169.603 55.865,169.524 55.706 C 169.446 55.547,169.252 55.042,169.094 54.583 C 168.122 51.769,167.735 50.739,167.616 50.651 C 167.543 50.597,167.498 50.485,167.518 50.401 C 167.537 50.318,167.504 50.137,167.445 50.000 C 167.385 49.862,167.228 49.413,167.096 49.000 C 166.963 48.587,166.655 47.725,166.410 47.083 C 166.166 46.442,165.865 45.579,165.743 45.167 C 165.620 44.754,165.287 43.817,165.003 43.083 C 164.719 42.350,164.159 40.813,163.758 39.667 C 163.356 38.521,162.930 37.340,162.811 37.042 L 162.594 36.500 156.297 36.500 C 152.834 36.500,150.000 36.535,150.000 36.578 M199.111 36.611 C 199.050 36.672,199.000 46.872,199.000 59.278 L 199.000 81.833 204.583 81.833 L 210.167 81.833 210.167 59.167 L 210.167 36.500 204.694 36.500 C 201.685 36.500,199.172 36.550,199.111 36.611 M239.259 36.875 C 239.322 37.081,239.552 37.679,239.770 38.203 C 239.988 38.728,240.167 39.271,240.167 39.412 C 240.167 39.552,240.242 39.667,240.333 39.667 C 240.425 39.667,240.500 39.802,240.500 39.967 C 240.500 40.132,240.578 40.344,240.673 40.439 C 240.768 40.534,240.882 40.812,240.926 41.057 C 240.971 41.302,241.155 41.766,241.337 42.089 C 241.518 42.413,241.667 42.771,241.667 42.886 C 241.667 43.002,241.817 43.390,242.000 43.750 C 242.183 44.110,242.334 44.482,242.334 44.577 C 242.335 44.672,242.439 44.949,242.566 45.192 C 242.693 45.435,242.891 45.923,243.006 46.276 C 243.121 46.628,243.355 47.178,243.525 47.498 C 243.694 47.817,243.833 48.171,243.833 48.285 C 243.833 48.474,244.001 48.881,244.853 50.750 C 245.020 51.117,245.262 51.717,245.390 52.083 C 245.670 52.882,246.594 55.185,246.961 56.000 C 247.201 56.533,247.361 56.933,248.026 58.667 C 248.149 58.987,248.313 59.296,248.389 59.352 C 248.466 59.408,248.523 59.521,248.516 59.602 C 248.498 59.829,248.997 61.178,249.351 61.856 C 249.524 62.189,249.667 62.542,249.667 62.640 C 249.667 62.738,249.887 63.290,250.156 63.868 C 250.426 64.445,250.765 65.281,250.911 65.727 C 251.056 66.173,251.314 66.848,251.484 67.227 C 252.273 68.992,252.500 69.559,252.500 69.766 C 252.500 69.889,252.650 70.257,252.833 70.583 C 253.017 70.910,253.167 71.268,253.167 71.380 C 253.168 71.492,253.355 71.952,253.584 72.403 C 253.813 72.854,254.000 73.307,254.000 73.410 C 254.000 73.512,254.150 73.890,254.333 74.250 C 254.517 74.610,254.667 75.000,254.667 75.119 C 254.667 75.237,254.727 75.333,254.802 75.333 C 254.876 75.333,255.036 75.727,255.157 76.208 C 255.277 76.690,255.438 77.162,255.514 77.258 C 255.651 77.432,255.274 78.753,254.988 79.097 C 254.905 79.198,254.886 79.330,254.946 79.390 C 255.006 79.451,254.968 79.500,254.861 79.500 C 254.754 79.500,254.667 79.602,254.667 79.727 C 254.667 79.971,253.583 82.494,252.896 83.852 C 252.775 84.091,252.728 84.339,252.791 84.402 C 252.855 84.466,252.834 84.570,252.745 84.634 C 252.536 84.784,251.832 86.188,251.833 86.453 C 251.833 86.565,251.698 86.903,251.533 87.203 C 251.157 87.887,250.583 89.375,250.631 89.542 C 250.651 89.610,250.592 89.667,250.500 89.667 C 250.408 89.667,250.333 89.783,250.333 89.925 C 250.333 90.068,250.193 90.461,250.022 90.800 C 249.118 92.588,248.344 94.456,248.459 94.571 C 248.512 94.623,248.468 94.667,248.361 94.667 C 248.254 94.667,248.167 94.763,248.167 94.881 C 248.167 95.000,248.017 95.390,247.833 95.750 C 247.152 97.087,246.768 97.000,253.376 97.000 L 259.252 97.000 259.490 96.458 C 260.120 95.021,260.564 94.024,260.843 93.417 C 261.152 92.745,261.530 91.784,261.515 91.710 C 261.511 91.688,261.693 91.321,261.920 90.894 C 262.147 90.467,262.333 90.044,262.333 89.954 C 262.333 89.865,262.558 89.348,262.833 88.807 C 263.108 88.266,263.333 87.749,263.333 87.658 C 263.333 87.567,263.633 86.849,264.000 86.063 C 264.367 85.277,264.667 84.572,264.667 84.497 C 264.667 84.422,264.848 83.998,265.070 83.555 C 265.292 83.112,265.573 82.431,265.694 82.042 C 265.815 81.652,265.971 81.333,266.041 81.333 C 266.110 81.333,266.167 81.245,266.167 81.136 C 266.167 80.944,266.443 80.284,267.237 78.583 C 267.451 78.125,267.719 77.487,267.833 77.167 C 267.947 76.846,268.212 76.208,268.423 75.750 C 268.755 75.028,269.580 73.124,270.011 72.083 C 270.087 71.900,270.378 71.247,270.658 70.632 C 270.938 70.017,271.167 69.462,271.167 69.399 C 271.167 69.335,271.366 68.863,271.609 68.350 C 271.852 67.837,272.110 67.267,272.182 67.083 C 272.255 66.900,272.576 66.169,272.896 65.458 C 273.216 64.748,273.441 64.167,273.396 64.167 C 273.351 64.167,273.500 63.810,273.728 63.375 C 273.955 62.940,274.345 62.096,274.594 61.500 C 274.843 60.904,275.195 60.079,275.376 59.667 C 275.709 58.908,275.766 58.775,276.582 56.833 C 276.832 56.237,277.210 55.375,277.422 54.917 C 277.940 53.796,278.254 52.944,278.206 52.792 C 278.184 52.723,278.242 52.667,278.333 52.667 C 278.425 52.667,278.500 52.573,278.500 52.458 C 278.499 52.344,278.641 51.950,278.814 51.583 C 279.787 49.524,280.000 49.027,280.000 48.812 C 280.000 48.681,280.110 48.417,280.244 48.226 C 280.378 48.034,280.441 47.830,280.383 47.772 C 280.325 47.714,280.365 47.667,280.472 47.667 C 280.579 47.667,280.667 47.547,280.667 47.401 C 280.667 47.254,280.775 46.936,280.908 46.692 C 281.154 46.243,281.589 45.279,282.255 43.715 C 282.458 43.237,282.584 42.806,282.534 42.757 C 282.485 42.707,282.532 42.667,282.639 42.667 C 282.746 42.667,282.833 42.566,282.833 42.442 C 282.833 42.319,282.937 42.000,283.063 41.734 C 283.189 41.468,283.534 40.688,283.830 40.000 C 284.127 39.313,284.471 38.554,284.597 38.315 C 284.722 38.076,284.772 37.828,284.709 37.764 C 284.645 37.701,284.679 37.596,284.783 37.531 C 284.888 37.466,285.025 37.208,285.088 36.957 L 285.203 36.500 278.955 36.500 L 272.707 36.500 272.503 37.042 C 272.391 37.340,272.239 37.733,272.164 37.917 C 272.090 38.100,271.863 38.700,271.659 39.250 C 271.455 39.800,271.123 40.662,270.920 41.167 C 270.717 41.671,270.449 42.421,270.324 42.833 C 270.199 43.246,270.054 43.621,270.000 43.667 C 269.947 43.712,269.819 44.012,269.717 44.333 C 269.393 45.345,269.125 46.056,268.723 46.963 C 268.509 47.447,268.333 47.986,268.333 48.161 C 268.333 48.337,268.258 48.527,268.167 48.583 C 268.075 48.640,268.000 48.833,268.000 49.012 C 268.000 49.191,267.928 49.468,267.839 49.627 C 267.517 50.207,267.000 51.487,267.000 51.706 C 267.000 51.829,266.860 52.205,266.688 52.541 C 266.516 52.878,266.251 53.550,266.098 54.035 C 265.945 54.520,265.755 55.067,265.675 55.250 C 265.595 55.433,265.364 56.033,265.161 56.583 C 264.959 57.133,264.654 57.921,264.483 58.333 C 264.053 59.370,263.645 60.542,263.627 60.792 C 263.618 60.906,263.549 61.000,263.472 61.000 C 263.396 61.000,263.333 61.130,263.333 61.288 C 263.333 61.941,261.860 65.323,261.843 64.708 C 261.838 64.502,261.771 64.333,261.694 64.333 C 261.618 64.333,261.552 64.240,261.548 64.125 C 261.544 64.010,261.119 62.742,260.604 61.306 C 260.088 59.870,259.667 58.613,259.667 58.514 C 259.667 58.415,259.592 58.333,259.500 58.333 C 259.408 58.333,259.331 58.202,259.329 58.042 C 259.325 57.731,258.838 56.201,258.456 55.297 C 258.079 54.405,257.642 53.116,257.549 52.625 C 257.501 52.373,257.391 52.167,257.305 52.167 C 257.218 52.167,257.185 52.105,257.232 52.030 C 257.278 51.954,257.215 51.697,257.091 51.458 C 256.966 51.218,256.810 50.774,256.743 50.470 C 256.677 50.165,256.482 49.655,256.311 49.336 C 256.140 49.016,256.000 48.637,256.000 48.492 C 256.000 48.348,255.850 47.919,255.667 47.539 C 255.483 47.160,255.333 46.696,255.333 46.508 C 255.333 46.320,255.258 46.167,255.167 46.167 C 255.075 46.167,255.014 46.110,255.030 46.042 C 255.074 45.861,254.671 44.526,254.338 43.750 C 254.181 43.383,253.836 42.446,253.571 41.667 C 253.306 40.887,253.031 40.225,252.961 40.194 C 252.891 40.164,252.833 39.990,252.833 39.808 C 252.833 39.627,252.752 39.326,252.653 39.141 C 252.554 38.956,252.441 38.628,252.402 38.413 C 252.363 38.198,252.184 37.679,252.005 37.261 L 251.679 36.500 245.411 36.500 L 239.144 36.500 239.259 36.875 M126.135 46.087 C 130.328 46.714,133.555 49.160,135.531 53.211 C 135.789 53.740,136.000 54.272,136.000 54.393 C 136.000 54.515,136.163 55.057,136.363 55.599 C 136.933 57.147,136.907 60.859,136.311 62.917 C 134.427 69.423,129.488 72.842,122.583 72.418 C 120.359 72.282,116.640 71.021,116.361 70.308 C 116.331 70.230,116.200 70.167,116.072 70.167 C 115.634 70.167,112.706 67.062,112.264 66.130 C 112.034 65.646,111.737 65.063,111.604 64.833 C 111.234 64.197,110.667 62.150,110.667 61.454 C 110.667 61.112,110.592 60.833,110.500 60.833 C 110.404 60.833,110.333 60.309,110.333 59.593 C 110.333 58.911,110.408 58.307,110.500 58.250 C 110.592 58.193,110.667 57.827,110.667 57.436 C 110.667 56.003,112.191 52.139,113.264 50.852 C 116.516 46.952,120.949 45.311,126.135 46.087 " stroke="none" fill="#94c41c" fill-rule="evenodd"></path><path id="path1" d="M347.642 6.042 C 347.726 6.126,347.972 6.167,348.189 6.133 C 348.523 6.080,348.499 6.057,348.036 5.980 C 347.705 5.925,347.550 5.950,347.642 6.042 M340.297 14.956 C 340.782 14.990,341.532 14.990,341.964 14.956 C 342.396 14.921,342.000 14.894,341.083 14.894 C 340.167 14.895,339.813 14.923,340.297 14.956 M41.042 19.124 C 41.752 19.155,42.915 19.155,43.625 19.124 C 44.335 19.093,43.754 19.067,42.333 19.067 C 40.912 19.067,40.331 19.093,41.042 19.124 M335.250 29.833 L 334.750 29.961 335.198 29.980 C 335.445 29.991,335.693 29.925,335.750 29.833 C 335.807 29.742,335.830 29.676,335.802 29.686 C 335.773 29.697,335.525 29.763,335.250 29.833 M81.969 36.458 C 83.372 36.486,85.622 36.486,86.969 36.458 C 88.315 36.430,87.167 36.407,84.417 36.407 C 81.667 36.407,80.565 36.430,81.969 36.458 M299.897 49.740 C 299.847 49.872,299.835 50.116,299.870 50.282 C 299.911 50.470,299.968 50.380,300.022 50.042 C 300.113 49.474,300.054 49.332,299.897 49.740 M110.444 58.278 C 110.291 58.431,110.304 60.833,110.458 60.833 C 110.527 60.833,110.583 60.233,110.583 59.500 C 110.583 58.767,110.577 58.167,110.569 58.167 C 110.562 58.167,110.506 58.217,110.444 58.278 M41.042 83.624 C 41.752 83.655,42.915 83.655,43.625 83.624 C 44.335 83.593,43.754 83.567,42.333 83.567 C 40.912 83.567,40.331 83.593,41.042 83.624 " stroke="none" fill="#98c41c" fill-rule="evenodd"></path><path id="path2" d="M347.642 6.042 C 347.726 6.126,347.972 6.167,348.189 6.133 C 348.523 6.080,348.499 6.057,348.036 5.980 C 347.705 5.925,347.550 5.950,347.642 6.042 M340.297 14.956 C 340.782 14.990,341.532 14.990,341.964 14.956 C 342.396 14.921,342.000 14.894,341.083 14.894 C 340.167 14.895,339.813 14.923,340.297 14.956 M41.042 19.124 C 41.752 19.155,42.915 19.155,43.625 19.124 C 44.335 19.093,43.754 19.067,42.333 19.067 C 40.912 19.067,40.331 19.093,41.042 19.124 M335.250 29.833 L 334.750 29.961 335.198 29.980 C 335.445 29.991,335.693 29.925,335.750 29.833 C 335.807 29.742,335.830 29.676,335.802 29.686 C 335.773 29.697,335.525 29.763,335.250 29.833 M81.969 36.458 C 83.372 36.486,85.622 36.486,86.969 36.458 C 88.315 36.430,87.167 36.407,84.417 36.407 C 81.667 36.407,80.565 36.430,81.969 36.458 M299.897 49.740 C 299.847 49.872,299.835 50.116,299.870 50.282 C 299.911 50.470,299.968 50.380,300.022 50.042 C 300.113 49.474,300.054 49.332,299.897 49.740 M110.444 58.278 C 110.291 58.431,110.304 60.833,110.458 60.833 C 110.527 60.833,110.583 60.233,110.583 59.500 C 110.583 58.767,110.577 58.167,110.569 58.167 C 110.562 58.167,110.506 58.217,110.444 58.278 M41.042 83.624 C 41.752 83.655,42.915 83.655,43.625 83.624 C 44.335 83.593,43.754 83.567,42.333 83.567 C 40.912 83.567,40.331 83.593,41.042 83.624 " stroke="none" fill="#98c41c" fill-rule="evenodd"></path><path id="path3" d="M347.642 6.042 C 347.726 6.126,347.972 6.167,348.189 6.133 C 348.523 6.080,348.499 6.057,348.036 5.980 C 347.705 5.925,347.550 5.950,347.642 6.042 M340.297 14.956 C 340.782 14.990,341.532 14.990,341.964 14.956 C 342.396 14.921,342.000 14.894,341.083 14.894 C 340.167 14.895,339.813 14.923,340.297 14.956 M41.042 19.124 C 41.752 19.155,42.915 19.155,43.625 19.124 C 44.335 19.093,43.754 19.067,42.333 19.067 C 40.912 19.067,40.331 19.093,41.042 19.124 M335.250 29.833 L 334.750 29.961 335.198 29.980 C 335.445 29.991,335.693 29.925,335.750 29.833 C 335.807 29.742,335.830 29.676,335.802 29.686 C 335.773 29.697,335.525 29.763,335.250 29.833 M81.969 36.458 C 83.372 36.486,85.622 36.486,86.969 36.458 C 88.315 36.430,87.167 36.407,84.417 36.407 C 81.667 36.407,80.565 36.430,81.969 36.458 M299.897 49.740 C 299.847 49.872,299.835 50.116,299.870 50.282 C 299.911 50.470,299.968 50.380,300.022 50.042 C 300.113 49.474,300.054 49.332,299.897 49.740 M110.444 58.278 C 110.291 58.431,110.304 60.833,110.458 60.833 C 110.527 60.833,110.583 60.233,110.583 59.500 C 110.583 58.767,110.577 58.167,110.569 58.167 C 110.562 58.167,110.506 58.217,110.444 58.278 M41.042 83.624 C 41.752 83.655,42.915 83.655,43.625 83.624 C 44.335 83.593,43.754 83.567,42.333 83.567 C 40.912 83.567,40.331 83.593,41.042 83.624 " stroke="none" fill="#98c41c" fill-rule="evenodd"></path><path id="path4" d="M347.642 6.042 C 347.726 6.126,347.972 6.167,348.189 6.133 C 348.523 6.080,348.499 6.057,348.036 5.980 C 347.705 5.925,347.550 5.950,347.642 6.042 M340.297 14.956 C 340.782 14.990,341.532 14.990,341.964 14.956 C 342.396 14.921,342.000 14.894,341.083 14.894 C 340.167 14.895,339.813 14.923,340.297 14.956 M41.042 19.124 C 41.752 19.155,42.915 19.155,43.625 19.124 C 44.335 19.093,43.754 19.067,42.333 19.067 C 40.912 19.067,40.331 19.093,41.042 19.124 M335.250 29.833 L 334.750 29.961 335.198 29.980 C 335.445 29.991,335.693 29.925,335.750 29.833 C 335.807 29.742,335.830 29.676,335.802 29.686 C 335.773 29.697,335.525 29.763,335.250 29.833 M81.969 36.458 C 83.372 36.486,85.622 36.486,86.969 36.458 C 88.315 36.430,87.167 36.407,84.417 36.407 C 81.667 36.407,80.565 36.430,81.969 36.458 M299.897 49.740 C 299.847 49.872,299.835 50.116,299.870 50.282 C 299.911 50.470,299.968 50.380,300.022 50.042 C 300.113 49.474,300.054 49.332,299.897 49.740 M110.444 58.278 C 110.291 58.431,110.304 60.833,110.458 60.833 C 110.527 60.833,110.583 60.233,110.583 59.500 C 110.583 58.767,110.577 58.167,110.569 58.167 C 110.562 58.167,110.506 58.217,110.444 58.278 M41.042 83.624 C 41.752 83.655,42.915 83.655,43.625 83.624 C 44.335 83.593,43.754 83.567,42.333 83.567 C 40.912 83.567,40.331 83.593,41.042 83.624 " stroke="none" fill="#98c41c" fill-rule="evenodd"></path></g></svg>