<svg id="svg" version="1.1" xmlns="http://www.w3.org/2000/svg" xmlns:xlink="http://www.w3.org/1999/xlink" width="400" height="65.90461174615687" viewBox="0, 0, 400,65.90461174615687"><g id="svgg"><path id="path0" d="M0.000 32.917 L 0.000 65.833 14.565 65.833 C 30.467 65.833,30.275 65.843,33.180 64.853 C 38.814 62.931,42.427 58.926,44.100 52.750 C 45.534 47.454,45.997 42.628,45.996 33.000 C 45.993 13.089,43.293 5.589,34.667 1.536 C 31.604 0.097,30.460 0.013,13.875 0.006 L 0.000 0.000 0.000 32.917 M52.833 32.917 L 52.833 65.833 73.002 65.833 L 93.170 65.833 93.127 58.792 L 93.083 51.750 81.708 51.707 L 70.333 51.664 70.333 45.249 L 70.333 38.833 80.583 38.833 L 90.833 38.833 90.833 32.000 L 90.833 25.167 80.583 25.167 L 70.333 25.167 70.333 19.667 L 70.333 14.167 81.250 14.167 L 92.167 14.167 92.167 7.083 L 92.167 0.000 72.500 0.000 L 52.833 0.000 52.833 32.917 M99.167 32.917 L 99.167 65.833 107.833 65.833 L 116.500 65.833 116.500 52.333 L 116.500 38.833 126.732 38.833 C 135.909 38.833,136.975 38.806,137.066 38.570 C 137.198 38.225,137.198 25.775,137.066 25.430 C 136.975 25.194,135.909 25.167,126.732 25.167 L 116.500 25.167 116.500 19.667 L 116.500 14.167 127.417 14.167 L 138.333 14.167 138.333 7.083 L 138.333 0.000 118.750 0.000 L 99.167 0.000 99.167 32.917 M143.333 32.917 L 143.333 65.833 163.500 65.833 L 183.667 65.833 183.667 58.750 L 183.667 51.667 172.250 51.667 L 160.833 51.667 160.833 45.250 L 160.833 38.833 171.083 38.833 L 181.333 38.833 181.333 32.000 L 181.333 25.167 171.083 25.167 L 160.833 25.167 160.833 19.667 L 160.833 14.167 171.833 14.167 L 182.833 14.167 182.833 7.083 L 182.833 0.000 163.083 0.000 L 143.333 0.000 143.333 32.917 M189.667 32.917 L 189.667 65.833 197.833 65.833 L 206.000 65.833 206.010 45.875 L 206.020 25.917 206.598 27.833 C 206.916 28.887,207.361 30.500,207.587 31.417 C 207.812 32.333,208.258 33.946,208.577 35.000 C 208.896 36.054,209.427 37.892,209.758 39.083 C 210.702 42.488,213.223 51.444,214.754 56.833 C 215.522 59.538,216.391 62.669,216.685 63.792 L 217.218 65.833 226.859 65.833 L 236.500 65.833 236.500 32.917 L 236.500 0.000 228.251 0.000 L 220.001 0.000 219.959 19.785 L 219.917 39.569 219.456 37.910 C 219.203 36.997,218.997 36.149,218.998 36.025 C 218.999 35.901,218.543 34.213,217.984 32.275 C 216.346 26.594,216.000 25.344,216.000 25.095 C 216.000 24.966,215.362 22.629,214.583 19.902 C 213.804 17.175,213.167 14.835,213.167 14.702 C 213.167 14.570,212.519 12.201,211.728 9.439 C 210.937 6.677,210.193 3.956,210.074 3.394 C 209.956 2.831,209.700 1.837,209.506 1.185 L 209.153 0.000 199.410 0.000 L 189.667 0.000 189.667 32.917 M244.333 32.911 L 244.333 65.843 259.458 65.795 L 274.583 65.747 276.250 65.293 C 279.372 64.442,281.769 63.076,283.921 60.922 C 285.762 59.080,285.828 58.984,287.363 55.928 C 288.384 53.896,288.896 51.953,289.580 47.500 C 290.710 40.156,290.567 22.910,289.326 16.833 C 289.223 16.329,289.105 15.654,289.063 15.333 C 288.478 10.848,284.875 4.682,281.893 3.066 C 281.539 2.874,280.762 2.448,280.167 2.118 C 278.986 1.466,277.361 0.844,275.667 0.395 C 274.690 0.137,273.100 0.102,259.458 0.044 L 244.333 -0.021 244.333 32.911 M297.333 32.917 L 297.333 65.833 317.417 65.833 L 337.500 65.833 337.500 58.750 L 337.500 51.667 326.167 51.667 L 314.833 51.667 314.833 45.250 L 314.833 38.833 325.083 38.833 L 335.333 38.833 335.333 32.000 L 335.333 25.167 325.083 25.167 L 314.833 25.167 314.833 19.667 L 314.833 14.167 325.750 14.167 L 336.667 14.167 336.667 7.083 L 336.667 0.000 317.000 0.000 L 297.333 0.000 297.333 32.917 M343.500 32.907 L 343.500 65.833 352.250 65.833 L 361.000 65.833 361.000 52.750 L 361.000 39.667 363.625 39.669 C 370.257 39.676,370.729 40.574,370.891 53.500 C 370.983 60.830,371.088 61.993,371.879 64.521 L 372.264 65.750 381.716 65.793 L 391.167 65.836 391.167 65.354 C 391.167 65.027,391.036 64.786,390.763 64.607 C 389.826 63.993,389.009 62.908,388.618 61.760 C 388.514 61.453,388.398 57.838,388.326 52.667 C 388.195 43.213,388.109 42.357,387.026 39.729 C 385.548 36.144,383.352 34.410,379.124 33.489 L 378.166 33.280 379.541 32.834 C 384.948 31.081,387.747 27.430,388.423 21.250 C 389.667 9.876,385.855 2.960,377.000 0.530 L 375.417 0.096 359.458 0.039 L 343.500 -0.018 343.500 32.907 M392.870 1.175 C 388.023 3.597,390.161 11.061,395.576 10.626 C 400.708 10.214,401.823 3.129,397.094 0.982 C 395.956 0.465,394.123 0.549,392.870 1.175 M396.547 2.058 C 399.618 3.345,399.756 7.709,396.770 9.100 C 394.607 10.107,392.093 8.934,391.415 6.603 C 390.572 3.701,393.751 0.886,396.547 2.058 M393.000 5.642 L 393.000 8.667 393.583 8.667 L 394.167 8.667 394.167 7.417 C 394.167 5.708,394.494 5.707,395.605 7.415 C 396.339 8.543,396.469 8.663,396.958 8.665 C 397.649 8.667,397.640 8.557,396.839 7.240 C 396.262 6.289,396.214 6.139,396.464 6.051 C 397.319 5.748,397.679 4.796,397.334 3.751 C 397.079 2.978,396.688 2.828,394.625 2.711 L 393.000 2.618 393.000 5.642 M396.101 4.015 C 396.761 4.563,396.210 5.167,395.050 5.167 L 394.167 5.167 394.167 4.393 L 394.167 3.620 395.018 3.721 C 395.486 3.776,395.973 3.909,396.101 4.015 M23.739 12.920 C 27.149 14.158,27.881 17.711,27.876 33.000 C 27.869 51.218,27.152 53.095,20.125 53.293 L 17.333 53.372 17.333 32.917 L 17.333 12.462 20.125 12.542 C 22.232 12.602,23.118 12.695,23.739 12.920 M267.485 12.758 C 269.313 13.174,270.491 14.298,271.185 16.290 C 272.666 20.541,272.662 45.303,271.179 49.559 C 270.169 52.459,268.548 53.326,264.125 53.331 L 261.833 53.333 261.833 32.917 L 261.833 12.500 264.092 12.500 C 265.531 12.500,266.762 12.594,267.485 12.758 M367.109 12.898 C 370.181 13.872,371.352 16.247,371.097 20.988 C 370.848 25.634,368.454 27.660,363.208 27.665 L 361.000 27.667 361.000 20.063 L 361.000 12.460 363.625 12.543 C 365.386 12.598,366.533 12.715,367.109 12.898 " stroke="none" fill="#1c1c1c" fill-rule="evenodd"></path><path id="path1" d="" stroke="none" fill="#201c1c" fill-rule="evenodd"></path><path id="path2" d="" stroke="none" fill="#201c1c" fill-rule="evenodd"></path><path id="path3" d="" stroke="none" fill="#201c1c" fill-rule="evenodd"></path><path id="path4" d="" stroke="none" fill="#201c1c" fill-rule="evenodd"></path></g></svg>